<svg width="36" height="36" viewBox="0 0 36 36" fill="none" xmlns="http://www.w3.org/2000/svg">
<path d="M9.47207 14.9065V21.8887C9.47433 22.1076 9.43308 22.3247 9.35072 22.5276C9.26836 22.7304 9.14653 22.9149 8.9923 23.0702C8.83807 23.2256 8.65451 23.3488 8.45228 23.4326C8.25005 23.5164 8.03318 23.5592 7.81427 23.5586C7.35609 23.5636 6.91327 23.3935 6.57613 23.0832C6.239 22.7729 6.03294 22.3457 6 21.8887V14.9065C6.03562 14.4516 6.24287 14.0272 6.57976 13.7193C6.91664 13.4115 7.35796 13.2433 7.81427 13.2487C8.25341 13.2504 8.67407 13.4257 8.98459 13.7362C9.29511 14.0467 9.47033 14.4674 9.47207 14.9065ZM10.1233 24.3707C10.1227 24.6052 10.1685 24.8375 10.2579 25.0543C10.3474 25.271 10.4788 25.468 10.6447 25.6338C10.8105 25.7996 11.0074 25.9311 11.2242 26.0205C11.441 26.11 11.6733 26.1558 11.9078 26.1552H13.1072L13.1254 29.8383C13.1254 32.0624 16.4531 32.0421 16.4531 29.8383V26.1552H18.6955V29.8383C18.6955 32.0509 22.0414 32.0569 22.0414 29.8383V26.1552H23.259C23.4925 26.1545 23.7237 26.1077 23.9392 26.0176C24.1547 25.9276 24.3503 25.7959 24.5149 25.6302C24.6795 25.4645 24.8098 25.2679 24.8985 25.0518C24.9871 24.8357 25.0322 24.6042 25.0314 24.3707V13.5561H10.1233V24.3707ZM25.0732 12.9716H10.0572C10.0781 11.7156 10.4477 10.4901 11.1247 9.43199C11.8017 8.37388 12.7596 7.52478 13.8912 6.97948L12.7397 4.85173C12.7093 4.79817 12.7015 4.73474 12.7178 4.67538C12.7342 4.61602 12.7735 4.5656 12.8271 4.53521C12.8806 4.50481 12.944 4.49694 13.0034 4.51332C13.0628 4.52969 13.1132 4.56898 13.1436 4.62253L14.3132 6.77123C15.3426 6.3209 16.454 6.08843 17.5776 6.08843C18.7012 6.08843 19.8126 6.3209 20.842 6.77123L22.005 4.62859C22.0191 4.60035 22.0388 4.57528 22.0629 4.55491C22.0871 4.53453 22.1151 4.51928 22.1453 4.51009C22.1755 4.50089 22.2072 4.49794 22.2386 4.50141C22.27 4.50489 22.3003 4.51471 22.3278 4.53029C22.3552 4.54588 22.3792 4.56688 22.3983 4.59204C22.4173 4.6172 22.4311 4.64597 22.4387 4.67661C22.4463 4.70726 22.4475 4.73912 22.4424 4.77027C22.4373 4.80142 22.4259 4.83119 22.4089 4.85779L21.2574 6.97948C22.3846 7.52863 23.3378 8.37915 24.0113 9.43678C24.6848 10.4944 25.0524 11.7179 25.0732 12.9716ZM14.7832 9.62568C14.7829 9.47926 14.7319 9.33745 14.6388 9.22442C14.5458 9.11138 14.4164 9.03411 14.2727 9.00576C14.1291 8.97741 13.98 8.99974 13.851 9.06894C13.7219 9.13814 13.6209 9.24994 13.565 9.38529C13.5091 9.52063 13.5019 9.67116 13.5446 9.81124C13.5872 9.95131 13.6771 10.0723 13.799 10.1535C13.9208 10.2347 14.067 10.2712 14.2127 10.2568C14.3584 10.2423 14.4946 10.1778 14.5981 10.0742C14.6569 10.0152 14.7035 9.94531 14.7353 9.86836C14.7671 9.7914 14.7833 9.70894 14.7832 9.62568ZM21.6193 9.62568C21.6176 9.50222 21.5793 9.38205 21.5092 9.28037C21.4391 9.1787 21.3405 9.10008 21.2257 9.05448C21.111 9.00887 20.9853 8.99832 20.8646 9.02417C20.7438 9.05001 20.6334 9.11108 20.5474 9.19965C20.4614 9.28823 20.4036 9.40032 20.3812 9.52177C20.3589 9.64321 20.3731 9.76855 20.4221 9.88192C20.471 9.99529 20.5524 10.0916 20.6561 10.1587C20.7598 10.2257 20.881 10.2606 21.0045 10.2587C21.17 10.2563 21.3277 10.1882 21.443 10.0695C21.5583 9.95078 21.6217 9.79115 21.6193 9.62568ZM27.3343 13.2487C27.1164 13.2481 26.9006 13.2905 26.6991 13.3736C26.4977 13.4566 26.3147 13.5787 26.1606 13.7328C26.0065 13.8869 25.8845 14.0699 25.8014 14.2713C25.7183 14.4728 25.6759 14.6886 25.6765 14.9065V21.8887C25.6756 22.1072 25.7178 22.3237 25.8007 22.5259C25.8836 22.7281 26.0054 22.912 26.1594 23.0671C26.3134 23.2222 26.4964 23.3454 26.698 23.4298C26.8996 23.5141 27.1158 23.5579 27.3343 23.5586C27.7928 23.5646 28.2362 23.395 28.5736 23.0844C28.9109 22.7739 29.1167 22.3461 29.1486 21.8887V14.9065C29.1161 14.4503 28.9097 14.024 28.572 13.7155C28.2343 13.407 27.7916 13.2399 27.3343 13.2487Z" fill="#A6D864"/>
</svg>
