<svg width="36" height="36" viewBox="0 0 36 36" fill="none" xmlns="http://www.w3.org/2000/svg">
<path d="M24.9685 18.767C24.9563 16.5548 25.9569 14.8854 27.9823 13.6556C26.8489 12.034 25.1376 11.142 22.877 10.9674C20.737 10.7988 18.3986 12.2148 17.543 12.2148C16.6388 12.2148 14.5677 11.0274 12.9379 11.0274C9.57418 11.0842 6 13.7101 6 19.0562C6.01548 20.7246 6.30876 22.3786 6.86779 23.9506C7.63915 26.1627 10.4238 31.5871 13.3291 31.4989C14.8481 31.4626 15.9187 30.4201 17.8978 30.4201C19.8146 30.4201 20.8091 31.4989 22.5028 31.4989C25.4324 31.4565 27.9514 26.5264 28.687 24.3081C24.7569 22.458 24.9679 18.8832 24.9679 18.7692L24.9685 18.767ZM21.5568 8.86979C22.0898 8.28289 22.494 7.59082 22.7432 6.83818C22.9924 6.08554 23.0811 5.28903 23.0037 4.5C21.4256 4.66875 19.9667 5.4186 18.911 6.60363C18.3703 7.18141 17.9542 7.86432 17.6888 8.60984C17.4234 9.35536 17.3143 10.1475 17.3683 10.9371C18.9413 11.0577 20.3761 10.25 21.5557 8.86979H21.5568Z" fill="#2C2D36"/>
</svg>
