<svg width="36" height="36" viewBox="0 0 36 36" fill="none" xmlns="http://www.w3.org/2000/svg">
<path d="M12.1753 16.3973C12.1753 16.7259 12.2108 16.9924 12.273 17.1878C12.344 17.3832 12.4329 17.5963 12.5572 17.8273C12.6016 17.8983 12.6194 17.9694 12.6194 18.0315C12.6194 18.1204 12.5661 18.2092 12.4506 18.298L11.8911 18.671C11.8111 18.7243 11.7312 18.7509 11.6602 18.7509C11.5713 18.7509 11.4825 18.7065 11.3937 18.6266C11.2694 18.4934 11.1628 18.3513 11.074 18.2092C10.9852 18.0582 10.8963 17.8894 10.7986 17.6852C10.1059 18.5023 9.23549 18.9108 8.18746 18.9108C7.44141 18.9108 6.84634 18.6977 6.41114 18.2713C5.97595 17.845 5.75391 17.2766 5.75391 16.5661C5.75391 15.8111 6.02035 15.1983 6.56213 14.7365C7.10391 14.2746 7.82331 14.0437 8.73812 14.0437C9.04009 14.0437 9.35095 14.0704 9.67956 14.1148C10.0082 14.1592 10.3457 14.2302 10.7009 14.3102V13.6618C10.7009 12.9868 10.5588 12.5161 10.2835 12.2407C9.9993 11.9654 9.5197 11.8322 8.83581 11.8322C8.52496 11.8322 8.20522 11.8677 7.8766 11.9477C7.54799 12.0276 7.22825 12.1253 6.91739 12.2496C6.77529 12.3118 6.66871 12.3473 6.60654 12.3651C6.54437 12.3829 6.49996 12.3917 6.46443 12.3917C6.34009 12.3917 6.27792 12.3029 6.27792 12.1164V11.6812C6.27792 11.5391 6.29568 11.4325 6.34009 11.3704C6.3845 11.3082 6.46443 11.246 6.58877 11.1838C6.89963 11.024 7.27266 10.8907 7.70785 10.7842C8.14305 10.6687 8.60489 10.6154 9.09338 10.6154C10.1503 10.6154 10.923 10.8552 11.4204 11.3348C11.9088 11.8144 12.1575 12.5427 12.1575 13.5197V16.3973H12.1753ZM8.56937 17.7473C8.86246 17.7473 9.16443 17.694 9.48417 17.5875C9.80391 17.4809 10.0881 17.2855 10.3279 17.019C10.47 16.8503 10.5766 16.6638 10.6299 16.4506C10.6832 16.2375 10.7187 15.9799 10.7187 15.6779V15.3049C10.4611 15.2427 10.1858 15.1894 9.9016 15.1539C9.61739 15.1184 9.34206 15.1006 9.06674 15.1006C8.47167 15.1006 8.03647 15.2161 7.74338 15.4559C7.45029 15.6957 7.30818 16.0332 7.30818 16.4773C7.30818 16.8947 7.41476 17.2056 7.6368 17.4187C7.84996 17.6407 8.16081 17.7473 8.56937 17.7473ZM15.7013 18.7065C15.5414 18.7065 15.4348 18.6799 15.3638 18.6177C15.2927 18.5644 15.2306 18.4401 15.1773 18.2713L13.0901 11.4059C13.0368 11.2282 13.0102 11.1128 13.0102 11.0506C13.0102 10.9085 13.0812 10.8286 13.2233 10.8286H14.0937C14.2625 10.8286 14.3779 10.8552 14.4401 10.9174C14.5111 10.9707 14.5644 11.095 14.6177 11.2638L16.1098 17.1434L17.4954 11.2638C17.5398 11.0861 17.5931 10.9707 17.6641 10.9174C17.7352 10.8641 17.8595 10.8286 18.0194 10.8286H18.7299C18.8986 10.8286 19.0141 10.8552 19.0852 10.9174C19.1562 10.9707 19.2184 11.095 19.2539 11.2638L20.6572 17.2144L22.1937 11.2638C22.247 11.0861 22.3092 10.9707 22.3713 10.9174C22.4424 10.8641 22.5579 10.8286 22.7177 10.8286H23.5437C23.6858 10.8286 23.7657 10.8996 23.7657 11.0506C23.7657 11.095 23.7569 11.1394 23.748 11.1927C23.7391 11.246 23.7213 11.3171 23.6858 11.4148L21.5454 18.2802C21.4921 18.4579 21.4299 18.5733 21.3588 18.6266C21.2878 18.6799 21.1723 18.7154 21.0213 18.7154H20.2575C20.0888 18.7154 19.9733 18.6888 19.9023 18.6266C19.8312 18.5644 19.769 18.449 19.7335 18.2713L18.3569 12.5427L16.9891 18.2625C16.9447 18.4401 16.8914 18.5556 16.8204 18.6177C16.7493 18.6799 16.625 18.7065 16.4651 18.7065H15.7013ZM27.1141 18.9463C26.6523 18.9463 26.1904 18.8931 25.7463 18.7865C25.3023 18.6799 24.9559 18.5644 24.725 18.4312C24.5829 18.3513 24.4852 18.2625 24.4496 18.1825C24.4141 18.1026 24.3963 18.0138 24.3963 17.9338V17.4809C24.3963 17.2944 24.4674 17.2056 24.6006 17.2056C24.6539 17.2056 24.7072 17.2144 24.7605 17.2322C24.8138 17.25 24.8937 17.2855 24.9825 17.321C25.2845 17.4542 25.6131 17.5608 25.9595 17.6319C26.3148 17.7029 26.6611 17.7384 27.0164 17.7384C27.5759 17.7384 28.0111 17.6407 28.3131 17.4454C28.6151 17.25 28.775 16.9657 28.775 16.6016C28.775 16.3529 28.695 16.1486 28.5352 15.9799C28.3753 15.8111 28.0733 15.6602 27.6381 15.5181L26.3503 15.1184C25.7019 14.9141 25.2223 14.6121 24.9292 14.2125C24.6361 13.8217 24.4852 13.3865 24.4852 12.9246C24.4852 12.5516 24.5651 12.223 24.725 11.9388C24.8848 11.6546 25.098 11.4059 25.3644 11.2105C25.6309 11.0062 25.9329 10.8552 26.2881 10.7486C26.6434 10.6421 27.0164 10.5977 27.4072 10.5977C27.6026 10.5977 27.8069 10.6065 28.0023 10.6332C28.2065 10.6598 28.3931 10.6954 28.5796 10.7309C28.7572 10.7753 28.9259 10.8197 29.0858 10.873C29.2457 10.9263 29.37 10.9796 29.4588 11.0329C29.5832 11.1039 29.672 11.175 29.7253 11.2549C29.7786 11.3259 29.8052 11.4236 29.8052 11.548V11.9654C29.8052 12.1519 29.7342 12.2496 29.6009 12.2496C29.5299 12.2496 29.4144 12.2141 29.2634 12.1431C28.7572 11.9121 28.1888 11.7967 27.5582 11.7967C27.0519 11.7967 26.6523 11.8766 26.3769 12.0454C26.1016 12.2141 25.9595 12.4717 25.9595 12.8358C25.9595 13.0845 26.0483 13.2977 26.2259 13.4664C26.4036 13.6352 26.7322 13.8039 27.2029 13.9549L28.4641 14.3546C29.1036 14.5588 29.5654 14.8431 29.8407 15.2072C30.1161 15.5713 30.2493 15.9888 30.2493 16.4506C30.2493 16.8325 30.1694 17.1789 30.0184 17.4809C29.8585 17.7829 29.6454 18.0493 29.37 18.2625C29.0947 18.4845 28.7661 18.6444 28.3842 18.7598C27.9845 18.8842 27.5671 18.9463 27.1141 18.9463Z" fill="#252F3E"/>
<path fill-rule="evenodd" clip-rule="evenodd" d="M28.7914 23.2628C25.8694 25.4211 21.624 26.5668 17.9736 26.5668C12.8579 26.5668 8.24832 24.675 4.76674 21.5309C4.49141 21.2822 4.7401 20.9447 5.06872 21.1401C8.83451 23.325 13.4796 24.6484 18.2845 24.6484C21.5263 24.6484 25.0878 23.9734 28.3651 22.5878C28.8536 22.3658 29.271 22.9076 28.7914 23.2628Z" fill="#FF9900"/>
<path fill-rule="evenodd" clip-rule="evenodd" d="M30.0081 21.8773C29.635 21.3977 27.539 21.6463 26.5886 21.7618C26.3044 21.7973 26.26 21.5486 26.5176 21.3621C28.1873 20.1898 30.9317 20.5273 31.2515 20.9181C31.5712 21.3177 31.1627 24.0621 29.5995 25.3766C29.3597 25.5809 29.1288 25.4743 29.2354 25.2079C29.5906 24.3286 30.3811 22.348 30.0081 21.8773Z" fill="#FF9900"/>
</svg>
