<svg width="36" height="36" viewBox="0 0 36 36" fill="none" xmlns="http://www.w3.org/2000/svg">
<path d="M29.9596 12.4174C29.9594 11.9646 29.8626 11.5645 29.6667 11.2211C29.4743 10.8834 29.1862 10.6003 28.7998 10.3766C25.61 8.53729 22.417 6.70363 19.2282 4.86247C18.3685 4.36616 17.535 4.38425 16.6817 4.88769C15.412 5.63647 9.05531 9.27838 7.16109 10.3755C6.381 10.8271 6.00141 11.5183 6.00122 12.4166C6 16.1155 6.00122 19.8143 6 23.5133C6 23.9562 6.09291 24.3485 6.28012 24.6868C6.47259 25.0347 6.76472 25.3255 7.16006 25.5543C9.05437 26.6515 15.4119 30.2931 16.6813 31.0421C17.535 31.5458 18.3685 31.5638 19.2285 31.0673C22.4174 29.226 25.6105 27.3925 28.8008 25.5532C29.1962 25.3244 29.4883 25.0334 29.6808 24.6858C29.8677 24.3476 29.9608 23.9552 29.9608 23.5123C29.9608 23.5123 29.9608 16.1164 29.9596 12.4174Z" fill="#A179DC"/>
<path d="M18.0162 17.9287L6.2793 24.6866C6.47177 25.0345 6.76389 25.3253 7.15923 25.5541C9.05355 26.6513 15.4111 30.2929 16.6805 31.0419C17.5342 31.5456 18.3677 31.5636 19.2277 31.0671C22.4166 29.2259 25.6097 27.3923 28.8 25.553C29.1954 25.3243 29.4875 25.0333 29.68 24.6856L18.0162 17.9287Z" fill="#280068"/>
<path d="M29.9582 12.4175C29.958 11.9647 29.8611 11.5646 29.6653 11.2212L18.0156 17.929L29.6793 24.6859C29.8663 24.3477 29.9592 23.9553 29.9594 23.5124C29.9594 23.5124 29.9594 16.1165 29.9582 12.4175Z" fill="#390091"/>
<path d="M24.926 15.4023V16.6655H26.1891V15.4023H26.8207V16.6655H28.0839V17.2971H26.8207V18.5602H28.0839V19.1918H26.8207V20.455H26.1891V19.1918H24.926V20.455H24.2944V19.1918H23.0312V18.5602H24.2944V17.2971H23.0312V16.6655H24.2944V15.4023H24.926ZM26.1891 17.2971H24.926V18.5602H26.1891V17.2971Z" fill="#EFEAE3"/>
<path d="M18.043 9.05859C21.3377 9.05859 24.2143 10.8479 25.7551 13.5076L25.74 13.482L21.8636 15.714C21.0999 14.4209 19.6997 13.5482 18.0936 13.5302L18.043 13.53C15.5937 13.53 13.6081 15.5155 13.6081 17.9648C13.6081 18.7658 13.8216 19.5166 14.193 20.1651C14.9574 21.4996 16.3945 22.3997 18.043 22.3997C19.7017 22.3997 21.147 21.4882 21.9075 20.1393L21.8891 20.1717L25.7597 22.414C24.2358 25.0512 21.3987 26.835 18.1422 26.8706L18.043 26.8711C14.7379 26.8711 11.8532 25.0707 10.3163 22.397C9.56601 21.0917 9.13672 19.5785 9.13672 17.9648C9.13672 13.0461 13.1241 9.05859 18.043 9.05859Z" fill="#EFEAE3"/>
</svg>
