<svg width="36" height="36" viewBox="0 0 36 36" fill="none" xmlns="http://www.w3.org/2000/svg">
<path d="M28.1286 9.80615L26.3859 29.3284L18.5526 31.5L10.7408 29.3314L9 9.80615H28.1286Z" fill="#264DE4"/>
<path d="M24.8942 28.0852L26.3834 11.4026H18.5645V29.8401L24.8942 28.0852Z" fill="#2965F1"/>
<path d="M12.9922 18.644L13.2068 21.0387H18.5657V18.644H12.9922Z" fill="#EBEBEB"/>
<path d="M18.5634 13.7974H18.5551H12.5586L12.7763 16.1921H18.5634V13.7974Z" fill="#EBEBEB"/>
<path d="M18.5644 27.355V24.8636L18.5539 24.8663L15.8869 24.1462L15.7164 22.2363H14.4204H13.3125L13.648 25.9963L18.5533 27.3581L18.5644 27.355Z" fill="#EBEBEB"/>
<path d="M13.502 4.5H16.4023V5.71289H14.7148V6.92578H16.4023V8.13867H13.502V4.5Z" fill="black"/>
<path d="M16.9824 4.5H19.8828V5.55469H18.1953V5.76562H19.8828V8.19141H16.9824V7.08398H18.6699V6.87305H16.9824V4.5Z" fill="black"/>
<path d="M20.4629 4.5H23.3633V5.55469H21.6758V5.76562H23.3633V8.19141H20.4629V7.08398H22.1504V6.87305H20.4629V4.5Z" fill="black"/>
<path d="M21.5035 21.039L21.2255 24.1447L18.5547 24.8656V27.357L23.4639 25.9964L23.5 25.5918L24.0627 19.2873L24.1211 18.6443L24.5534 13.7974H18.5547V16.1921H21.9291L21.7112 18.6443H18.5547V21.039H21.5035Z" fill="#EFEAE3"/>
</svg>
