<svg width="36" height="36" viewBox="0 0 36 36" fill="none" xmlns="http://www.w3.org/2000/svg">
<path d="M3.86401 24.0246C3.55457 24.0246 3.29154 23.9216 3.07492 23.7153C2.85831 23.5038 2.75 23.2526 2.75 22.9618C2.75 22.6656 2.85831 22.4119 3.07492 22.2004C3.29154 21.9888 3.55457 21.8831 3.86401 21.8831C4.17862 21.8831 4.44423 21.9888 4.66085 22.2004C4.88262 22.4119 4.99351 22.6656 4.99351 22.9618C4.99351 23.2526 4.88262 23.5038 4.66085 23.7153C4.44423 23.9216 4.17862 24.0246 3.86401 24.0246Z" fill="#512BD4"/>
<path d="M16.2354 23.8501H14.224L8.9247 15.4898C8.79063 15.2783 8.67968 15.0588 8.59205 14.8314H8.5456C8.58687 15.0747 8.6075 15.5955 8.6075 16.394V23.8501H6.82812V12.4756H8.97106L14.0925 20.6376C14.3091 20.9761 14.4484 21.2088 14.5103 21.3356H14.5412C14.4896 21.0343 14.4638 20.524 14.4638 19.8047V12.4756H16.2354V23.8501Z" fill="#512BD4"/>
<path d="M24.8995 23.8501H18.6719V12.4756H24.652V14.0779H20.5132V17.2982H24.3271V18.8926H20.5132V22.2557H24.8995V23.8501Z" fill="#512BD4"/>
<path d="M33.7492 14.0779H30.5619V23.8501H28.7206V14.0779H25.541V12.4756H33.7492V14.0779Z" fill="#512BD4"/>
</svg>
