<svg width="36" height="36" viewBox="0 0 36 36" fill="none" xmlns="http://www.w3.org/2000/svg">
<path d="M24.1866 13.9497H17.1328C17.1666 14.1185 17.2341 14.2872 17.2678 14.4222C17.5041 15.2322 17.6391 16.076 17.7066 16.9535C17.7403 17.291 17.7403 17.6622 17.7403 17.9998C17.7403 18.3373 17.7403 18.7085 17.7066 19.046C17.6391 19.9235 17.5041 20.7673 17.2678 21.5773C17.2341 21.746 17.1666 21.9148 17.1328 22.0498H24.1866C26.4142 22.0498 28.2029 20.2273 28.2029 17.9998C28.2029 15.7722 26.4142 13.9497 24.1866 13.9497Z" fill="#00A9E5"/>
<path d="M17.7076 19.046C17.7414 18.7085 17.7414 18.3373 17.7414 17.9998C17.7414 17.6622 17.7414 17.291 17.7076 16.9535C17.6401 16.076 17.5051 15.2322 17.2689 14.4222C17.2351 14.2535 17.1676 14.0847 17.1339 13.9497H6.2325C5.8275 15.2322 5.625 16.5822 5.625 17.9998C5.625 19.4173 5.8275 20.7673 6.2325 22.0498H17.1339C17.1676 21.881 17.2351 21.7123 17.2689 21.5773C17.5051 20.7673 17.6401 19.9235 17.7076 19.046Z" fill="#353535"/>
<path d="M25.4024 23.3999H16.6273C16.3573 24.0074 16.0536 24.5812 15.7161 25.1212C15.2098 25.9649 14.6023 26.7074 13.9273 27.4162C13.691 27.6524 13.4548 27.8549 13.2185 28.0912C12.746 28.53 12.206 28.9012 11.666 29.2725C13.7923 30.69 16.3573 31.5 19.0911 31.5C23.7824 31.5 27.8999 29.1037 30.33 25.4924C29.0812 24.2099 27.3262 23.3999 25.4024 23.3999Z" fill="#00BFB3"/>
<path d="M15.7159 25.1212C16.0534 24.5812 16.3571 24.0074 16.6271 23.3999H6.73828C7.78454 25.7962 9.50581 27.8549 11.6996 29.2725C12.2396 28.9012 12.7458 28.53 13.2521 28.0912C13.4884 27.8887 13.7246 27.6524 13.9609 27.4162C14.6021 26.7412 15.2096 25.9649 15.7159 25.1212Z" fill="#019B8F"/>
<path d="M13.9277 8.58356C13.6914 8.34731 13.4552 8.14481 13.2189 7.90856C12.7464 7.4698 12.2064 7.09855 11.6664 6.72729C9.50636 8.14481 7.78509 10.2036 6.70508 12.5999H16.5939C16.3239 11.9924 16.0202 11.4186 15.6827 10.8786C15.2102 10.0348 14.6027 9.25857 13.9277 8.58356Z" fill="#F9B110"/>
<path d="M19.0911 4.5C16.3573 4.5 13.7923 5.31001 11.666 6.72752C12.206 7.09878 12.7123 7.47003 13.2185 7.90879C13.4548 8.11129 13.691 8.34754 13.9273 8.58379C14.6023 9.29255 15.2098 10.0351 15.7161 10.8788C16.0536 11.4188 16.3573 11.9926 16.6273 12.6001H25.4024C27.3262 12.6001 29.0812 11.7901 30.33 10.5076C27.8999 6.89628 23.7824 4.5 19.0911 4.5Z" fill="#FED10A"/>
</svg>
