<svg width="36" height="36" viewBox="0 0 36 36" fill="none" xmlns="http://www.w3.org/2000/svg">
<path d="M7.51172 27.495L11.0196 5.04815C11.0625 4.77286 11.2766 4.55585 11.5513 4.50918C11.826 4.46252 12.0997 4.59677 12.231 4.84247L15.8589 11.6089L17.3049 8.85565C17.4169 8.64277 17.6376 8.50947 17.8782 8.50947C18.1188 8.50947 18.3395 8.64277 18.4515 8.85565L28.2417 27.4949L7.51172 27.495Z" fill="#FFA000"/>
<path d="M19.6307 18.7509L15.8572 11.6055L7.51172 27.4948L19.6307 18.7509Z" fill="#F57C00"/>
<path d="M28.2418 27.4949L25.555 10.8687C25.5144 10.63 25.344 10.4338 25.1132 10.3599C24.8825 10.286 24.6299 10.3475 24.4586 10.5187L7.51172 27.4947L16.8888 32.7533C17.4777 33.0821 18.1948 33.0821 18.7837 32.7533L28.2418 27.4947V27.4949Z" fill="#FFCA28"/>
<path d="M25.5546 10.8684C25.514 10.6296 25.3436 10.4335 25.1128 10.3596C24.8821 10.2856 24.6295 10.3472 24.4582 10.5184L21.0946 13.8905L18.4497 8.85518C18.3377 8.64229 18.1169 8.509 17.8763 8.509C17.6358 8.509 17.415 8.64229 17.303 8.85518L15.857 11.6084L12.229 4.8421C12.0974 4.59634 11.8234 4.4623 11.5484 4.50931C11.2734 4.55633 11.06 4.77388 11.0176 5.04939L7.51131 27.4946H7.5L7.51131 27.5075L7.60361 27.5529L24.4533 10.6838C24.6246 10.5117 24.8777 10.4498 25.1091 10.5235C25.3405 10.5972 25.5112 10.7941 25.5513 11.0336L28.2155 27.5107L28.2414 27.4945L25.5546 10.8684ZM7.54208 27.4638L11.0192 5.20813C11.0616 4.93262 11.2755 4.71506 11.5502 4.66805C11.825 4.62104 12.0991 4.75503 12.2309 5.00083L15.8584 11.7672L17.3045 9.01402C17.4165 8.80114 17.6372 8.66784 17.8778 8.66784C18.1184 8.66784 18.3391 8.80114 18.4511 9.01402L21.0424 13.9423L7.54208 27.4638Z" fill="white" fill-opacity="0.2"/>
<path opacity="0.2" d="M18.7837 32.5946C18.1949 32.9233 17.4777 32.9233 16.8889 32.5946L7.5344 27.3505L7.51172 27.4947L16.8888 32.7517C17.4777 33.0805 18.1948 33.0805 18.7837 32.7517L28.2418 27.4947L28.2175 27.3457L18.7837 32.5946Z" fill="#A52714"/>
<path d="M25.527 10.8725C25.4866 10.6338 25.3168 10.4376 25.0868 10.3641C24.8569 10.2906 24.6052 10.3517 24.4345 10.5228L21.0825 13.8932L18.447 8.86026C18.3354 8.64746 18.1154 8.51421 17.8757 8.51421C17.636 8.51421 17.416 8.64746 17.3044 8.86026L15.8632 11.6123L12.2481 4.84879C12.117 4.60314 11.8439 4.46912 11.5701 4.51616C11.2963 4.56319 11.0832 4.78058 11.0409 5.05602L7.54688 27.4914L16.8912 32.7461C17.478 33.0747 18.1927 33.0747 18.7795 32.7461L28.2045 27.4914L25.527 10.8724V10.8725Z" fill="url(#paint0_linear_499_4243)"/>
<defs>
<linearGradient id="paint0_linear_499_4243" x1="-64.5482" y1="489.334" x2="2513.34" y2="1849.14" gradientUnits="userSpaceOnUse">
<stop stop-color="white" stop-opacity="0.1"/>
<stop offset="0.14" stop-color="white" stop-opacity="0.08"/>
<stop offset="0.61" stop-color="white" stop-opacity="0.02"/>
<stop offset="1" stop-color="white" stop-opacity="0"/>
</linearGradient>
</defs>
</svg>
