<svg width="36" height="36" viewBox="0 0 36 36" fill="none" xmlns="http://www.w3.org/2000/svg">
<g clip-path="url(#clip0_499_4271)">
<path d="M17.7427 30.0001L22.5431 15.2341H12.9492L17.7427 30.0001Z" fill="#E24329"/>
<path d="M6.22538 15.2341L4.76355 19.7202C4.63126 20.1276 4.77412 20.5772 5.12328 20.8311L17.7427 30L6.22538 15.2341Z" fill="#FCA326"/>
<path d="M6.22461 15.234H12.9484L10.0547 6.34123C9.90657 5.88626 9.26112 5.88626 9.10769 6.34123L6.22461 15.234Z" fill="#E24329"/>
<path d="M29.2664 15.2339L30.723 19.72C30.8553 20.1273 30.7124 20.577 30.3633 20.8309L17.7422 29.9998L29.2664 15.2339Z" fill="#FCA326"/>
<path d="M29.2668 15.234H22.543L25.4314 6.34123C25.5795 5.88626 26.2249 5.88626 26.3784 6.34123L29.2668 15.234Z" fill="#E24329"/>
<path d="M17.7422 29.9998L22.5426 15.2339H29.2664L17.7422 29.9998Z" fill="#FC6D26"/>
<path d="M17.7419 29.9998L6.22461 15.2339H12.9484L17.7419 29.9998Z" fill="#FC6D26"/>
</g>
<defs>
<clipPath id="clip0_499_4271">
<rect width="27" height="24" fill="white" transform="translate(4.5 6)"/>
</clipPath>
</defs>
</svg>
