<svg width="36" height="36" viewBox="0 0 36 36" fill="none" xmlns="http://www.w3.org/2000/svg">
<path d="M10.2168 4.5H11.4297V5.70234H12.5477V4.5H13.7605V8.13867H12.5477V6.92578H11.4402V8.13867H10.2168M15.3637 5.71289H14.2932V4.5H17.6523V5.71289H16.5766V8.13867H15.3637M18.185 4.5H19.4559L20.2363 5.78145L21.0168 4.5H22.2877V8.13867H21.0748V6.33516L20.2258 7.64297L19.3768 6.33516V8.13867H18.185M22.8889 4.5H24.1018V6.93633H25.8209V8.13867H22.8889" fill="black"/>
<path d="M10.1738 29.3375L8.43359 9.80469H27.5656L25.8254 29.327L17.9838 31.4996" fill="#E44D26"/>
<path d="M18 29.8389V11.4082H25.8205L24.3281 28.0723" fill="#F16529"/>
<path d="M11.9883 13.7974H18V16.1915H14.6145L14.8359 18.6437H18V21.0325H12.6422M12.7477 22.2349H15.1523L15.3211 24.1491L18 24.8663V27.3659L13.0852 25.9948" fill="#EBEBEB"/>
<path d="M23.9895 13.7974H17.9883V16.1915H23.768M23.5518 18.6437H17.9883V21.0378H20.9414L20.6619 24.1491L17.9883 24.8663V27.3554L22.8926 25.9948" fill="#EFEAE3"/>
</svg>
