<svg width="36" height="36" viewBox="0 0 36 36" fill="none" xmlns="http://www.w3.org/2000/svg">
<path d="M14.3639 26.1926C14.3639 26.1926 13.2108 26.8938 15.1655 27.0944C17.5186 27.3944 18.772 27.3447 21.3764 26.8441C21.8998 27.1647 22.4534 27.4331 23.0292 27.6457C17.1698 30.1507 9.75518 27.4957 14.3639 26.1926ZM13.6139 22.9366C13.6139 22.9366 12.3614 23.8882 14.3152 24.0897C16.8698 24.3401 18.8733 24.3897 22.3308 23.6894C22.667 24.0305 23.0787 24.2877 23.5326 24.4404C16.4695 26.5441 8.55518 24.6401 13.6139 22.9366ZM27.4392 28.646C27.4392 28.646 28.2904 29.3472 26.4876 29.8985C23.1314 30.9016 12.412 31.2016 9.40643 29.8985C8.35456 29.4485 10.358 28.7969 11.0002 28.6966C11.6517 28.5466 12.0033 28.5466 12.0033 28.5466C10.8502 27.7451 4.33925 30.1994 8.69768 30.8997C20.6695 32.8535 30.5376 30.0485 27.4317 28.646H27.4392ZM14.9058 19.5298C14.9058 19.5298 9.4458 20.8329 12.952 21.2829C14.4549 21.4835 17.4098 21.4329 20.1651 21.2332C22.4189 21.0326 24.6745 20.6332 24.6745 20.6332C24.6745 20.6332 23.873 20.9838 23.3217 21.3344C17.7623 22.7876 7.09175 22.136 10.148 20.6332C12.7524 19.3807 14.9067 19.5316 14.9067 19.5316L14.9058 19.5298ZM24.6745 24.9897C30.2845 22.0835 27.6801 19.2804 25.8764 19.6301C25.4264 19.7304 25.2248 19.8307 25.2248 19.8307C25.2248 19.8307 25.3748 19.5307 25.7254 19.4304C29.2823 18.1779 32.0873 23.1869 24.5723 25.1397C24.5723 25.1397 24.622 25.0901 24.6726 24.9897H24.6745ZM15.4589 32.9041C20.8683 33.2547 29.1342 32.7035 29.3339 30.1479C29.3339 30.1479 28.9336 31.151 24.8761 31.901C20.2673 32.7522 14.557 32.651 11.2008 32.1016C11.2008 32.1016 11.902 32.7025 15.4589 32.9041Z" fill="#4E7896"/>
<path d="M21.2767 3C21.2767 3 24.3826 6.15562 18.3217 10.9144C13.4626 14.7712 17.2201 16.9753 18.3217 19.4803C15.4661 16.9256 13.413 14.6709 14.8155 12.5681C16.8686 9.46123 22.5292 7.9678 21.2767 3ZM19.6829 17.3765C21.1361 19.0293 19.2826 20.5321 19.2826 20.5321C19.2826 20.5321 22.9895 18.629 21.2861 16.274C19.7336 14.0203 18.5298 12.9178 25.0426 9.16123C25.0426 9.16123 14.7742 11.7159 19.6829 17.3765Z" fill="#F58219"/>
</svg>
