<svg width="36" height="36" viewBox="0 0 36 36" fill="none" xmlns="http://www.w3.org/2000/svg">
<path d="M4.5 4.5H31.5V31.5H4.5V4.5Z" fill="#F0DB4F"/>
<path d="M29.2894 25.0606C29.0918 23.8287 28.2885 22.7944 25.9093 21.8293C25.0829 21.4495 24.1615 21.1775 23.8869 20.5512C23.7893 20.1867 23.7765 19.9814 23.8381 19.7607C24.0152 19.0446 24.8698 18.8214 25.5474 19.0267C25.9837 19.173 26.3969 19.5092 26.6459 20.0456C27.8111 19.2911 27.8085 19.2962 28.6221 18.7777C28.3244 18.3158 28.1653 18.1027 27.9702 17.9051C27.2696 17.1223 26.3148 16.7194 24.7877 16.7502C24.5234 16.7835 24.2565 16.8194 23.9921 16.8528C23.2299 17.0453 22.5035 17.4457 22.0775 17.9821C20.7993 19.4322 21.1638 21.9705 22.7191 23.0151C24.2513 24.1649 26.5022 24.4267 26.7896 25.5021C27.0694 26.8187 25.8221 27.2447 24.5824 27.0933C23.6687 26.9034 23.1606 26.4389 22.6113 25.5945C21.6001 26.1796 21.6001 26.1796 20.5607 26.7776C20.807 27.3166 21.0662 27.5604 21.4795 28.0276C23.4352 30.0115 28.3295 29.914 29.2073 26.9111C29.2432 26.8084 29.4794 26.1206 29.2894 25.0606ZM19.1773 16.9093H16.6518C16.6518 19.0908 16.6415 21.257 16.6415 23.4386C16.6415 24.8271 16.7134 26.1001 16.4876 26.4902C16.118 27.2575 15.1607 27.1626 14.7243 27.0137C14.2803 26.7956 14.0545 26.485 13.7927 26.0462C13.7208 25.9204 13.6669 25.8229 13.6489 25.8152C12.9637 26.2335 12.281 26.6544 11.5957 27.0728C11.9371 27.7734 12.4401 28.3817 13.0843 28.7769C14.0467 29.3544 15.3403 29.5315 16.6929 29.2209C17.5732 28.9643 18.3329 28.433 18.7307 27.6246C19.3056 26.5646 19.1824 25.2813 19.1773 23.862C19.1901 21.547 19.1773 19.232 19.1773 16.9093Z" fill="#323330"/>
</svg>
