<svg width="36" height="36" viewBox="0 0 36 36" fill="none" xmlns="http://www.w3.org/2000/svg">
<path fill-rule="evenodd" clip-rule="evenodd" d="M28.1622 17.4427C28.1622 23.6015 23.281 28.5942 17.2597 28.5942C11.2386 28.5942 6.35742 23.6015 6.35742 17.4427C6.35742 11.2838 11.2386 6.29099 17.2597 6.29099C23.281 6.29099 28.1622 11.2838 28.1622 17.4427Z" fill="#D33833"/>
<path d="M6.80223 20.2046C6.80223 20.2046 6.01297 8.57539 16.7285 8.24309L15.981 6.9971L10.1664 8.94919L8.50505 10.8597L7.05143 13.6425L6.2207 16.882L6.4699 19.0417" fill="#EF3D3A"/>
<path d="M9.79342 9.83535C7.88058 11.7925 6.69689 14.4949 6.69689 17.4844C6.69689 20.4732 7.88058 23.1759 9.79342 25.1327C11.7072 27.0896 14.3446 28.2971 17.2605 28.2971C20.1763 28.2971 22.814 27.0896 24.7276 25.1327C26.6403 23.1759 27.8242 20.4732 27.8242 17.4844C27.8242 14.4949 26.6403 11.7925 24.7276 9.83535C22.814 7.87889 20.1763 6.67141 17.2605 6.67116C14.3446 6.67141 11.7072 7.87889 9.79342 9.83535ZM9.30923 25.6061C7.27632 23.5271 6.01953 20.6538 6.01953 17.4844C6.01953 14.3144 7.27632 11.4414 9.30923 9.36225C11.3417 7.28269 14.1551 5.99371 17.2605 5.99409C20.3659 5.99371 23.1796 7.28269 25.2116 9.36225C27.2447 11.4414 28.5017 14.3147 28.5014 17.4844C28.5017 20.6538 27.2447 23.5271 25.2116 25.6061C23.1796 27.6856 20.3659 28.9744 17.2605 28.9744C14.1551 28.9744 11.3417 27.6856 9.30923 25.6061Z" fill="#231F20"/>
<path fill-rule="evenodd" clip-rule="evenodd" d="M21.8492 17.5045L20.1878 17.7537L17.945 18.0029L16.4913 18.0444L15.0792 18.0029L13.9993 17.6706L13.044 16.6324L12.2964 14.5142L12.1303 14.0573L11.1335 13.7251L10.552 12.7698L10.1367 11.3992L10.5936 10.1947L11.6734 9.8209L12.5456 10.2363L12.961 11.15L13.4594 11.0669L13.6255 10.8593L13.4594 9.90401L13.4178 8.69951L13.667 7.03823L13.6573 6.08928L14.4146 4.87856L15.7437 3.92325L18.0696 2.92646L20.6446 3.30026L22.8874 4.92005L23.9258 6.58133L24.5903 7.78582L24.7563 10.7762L24.2579 13.3513L23.3443 15.6356L22.4721 16.8401" fill="#F0D6B7"/>
<path fill-rule="evenodd" clip-rule="evenodd" d="M20.4369 24.6898L14.4976 24.939V25.9357L14.996 29.4245L14.7468 29.7153L10.5936 28.3031L10.3028 27.8047L9.88747 23.1116L8.93234 20.2873L8.72461 19.6228L12.0472 17.3385L13.0856 16.9231L13.9992 18.0445L14.7883 18.7506L15.7022 19.0413L16.1174 19.1659L16.6158 21.3256L16.9896 21.7825L17.9449 21.4502L17.2803 22.7378L20.8937 24.4406L20.4369 24.6898Z" fill="#335061"/>
<path fill-rule="evenodd" clip-rule="evenodd" d="M10.5939 10.1946L11.6737 9.82081L12.5459 10.2362L12.9613 11.1499L13.4597 11.0668L13.5843 10.5684L13.3351 9.61322L13.5843 7.32883L13.3766 6.08284L14.1242 5.21064L15.744 3.92316L15.2871 3.30017L13.0028 4.42156L12.0475 5.16915L11.5076 6.33203L10.6769 7.45343L10.4277 8.78252L10.5939 10.1946Z" fill="#6D6B6D"/>
<path fill-rule="evenodd" clip-rule="evenodd" d="M12.297 6.29067C12.297 6.29067 12.92 4.75399 15.4119 4.0064C17.9039 3.2588 15.5365 3.46639 15.5365 3.46639L12.837 4.50479L11.7986 5.54308L11.3418 6.37378L12.297 6.29067Z" fill="#DCD9D8"/>
<path fill-rule="evenodd" clip-rule="evenodd" d="M11.0507 9.90413C11.0507 9.90413 10.1785 6.99674 13.5012 6.58145L13.3766 6.08306L11.0923 6.62307L10.4277 8.78274L10.5939 10.1948L11.0507 9.90413Z" fill="#DCD9D8"/>
<path fill-rule="evenodd" clip-rule="evenodd" d="M12.3789 13.7664L12.9227 13.2395C12.9227 13.2395 13.1682 13.2681 13.2096 13.5587C13.2511 13.8496 13.3757 16.4661 15.1616 17.8783C15.3245 18.0072 13.8326 17.6705 13.8326 17.6705L12.5035 15.5939" fill="#F7E4CD"/>
<path fill-rule="evenodd" clip-rule="evenodd" d="M20.0235 12.9775C20.0235 12.9775 20.1204 11.7186 20.4594 11.8154C20.7984 11.9122 20.7984 12.2513 20.7984 12.2513C20.7984 12.2513 19.9751 12.7839 20.0235 12.9775Z" fill="#F7E4CD"/>
<path d="M23.4698 8.36705C23.4698 8.36705 22.7853 8.51158 22.7222 9.11464C22.6592 9.71783 23.4698 9.23924 23.5944 9.19775" fill="#F7E4CD"/>
<path d="M18.4451 8.409C18.4451 8.409 17.5312 8.5336 17.5312 9.11498C17.5312 9.69648 18.5697 9.65499 18.8604 9.40579" fill="#F7E4CD"/>
<path fill-rule="evenodd" clip-rule="evenodd" d="M12.7953 11.1086C12.7953 11.1086 11.2169 10.1533 11.0509 11.0671C10.8848 11.9808 10.5109 12.6454 11.3001 13.6006L10.7602 13.4345L10.2618 12.147L10.0957 10.901L11.0509 9.90411L12.1308 9.98722L12.7537 10.4856L12.7953 11.1086Z" fill="#F7E4CD"/>
<path fill-rule="evenodd" clip-rule="evenodd" d="M13.5422 8.49219C13.5422 8.49219 14.2483 4.83733 17.8202 4.13122C20.7609 3.54997 22.3057 4.25582 22.8872 4.92031C22.8872 4.92031 20.2706 1.80546 17.7786 2.76063C15.2866 3.71593 13.4592 5.46032 13.5007 6.58159C13.5714 8.49144 13.5422 8.49219 13.5422 8.49219Z" fill="#F7E4CD"/>
<path fill-rule="evenodd" clip-rule="evenodd" d="M23.1796 5.33547C23.1796 5.33547 21.9752 5.29397 21.9336 6.37387C21.9336 6.37387 21.9335 6.53996 22.0166 6.70605C22.0166 6.70605 22.972 5.62616 23.5534 6.20766" fill="#F7E4CD"/>
<path fill-rule="evenodd" clip-rule="evenodd" d="M17.9054 6.81828C17.9054 6.81828 17.698 5.16074 16.2849 6.12438C15.3712 6.74738 15.4543 7.61957 15.6204 7.78566C15.7865 7.95188 15.7413 8.28643 15.8678 8.05679C15.9942 7.82715 15.9525 7.07956 16.4095 6.87198C16.8664 6.66427 17.6153 6.43227 17.9054 6.81828Z" fill="#F7E4CD"/>
<path fill-rule="evenodd" clip-rule="evenodd" d="M13.9992 18.0446L10.0952 19.789C10.0952 19.789 11.715 26.2266 10.8843 28.2202L10.3028 28.0126L10.2613 25.5621L9.18154 20.9105L8.72461 19.6229L12.7948 16.8818L13.9992 18.0446Z" fill="#49728B"/>
<path fill-rule="evenodd" clip-rule="evenodd" d="M14.4007 21.6052L14.9546 22.281V24.7729H14.29C14.29 24.7729 14.207 23.0286 14.207 22.8208C14.207 22.6132 14.29 21.8656 14.29 21.8656" fill="#49728B"/>
<path fill-rule="evenodd" clip-rule="evenodd" d="M14.4159 25.1466L12.5469 25.2296L13.0869 25.6034L14.4159 25.811" fill="#49728B"/>
<path fill-rule="evenodd" clip-rule="evenodd" d="M20.8105 24.7311L22.3472 24.6896L22.721 28.5107L21.1427 28.7183L20.8105 24.7311Z" fill="#335061"/>
<path fill-rule="evenodd" clip-rule="evenodd" d="M21.2266 24.7312L23.5525 24.6066C23.5525 24.6066 24.5076 22.1977 24.5076 22.0731C24.5076 21.9485 25.3383 18.5844 25.3383 18.5844L23.4693 16.6324L23.0955 16.3001L22.0988 17.2969V21.1594L21.2266 24.7312Z" fill="#335061"/>
<path fill-rule="evenodd" clip-rule="evenodd" d="M22.2641 24.4406L20.8105 24.7313L21.0181 25.8943C21.558 26.1435 22.4718 25.4789 22.4718 25.4789" fill="#49728B"/>
<path fill-rule="evenodd" clip-rule="evenodd" d="M22.3066 17.1724L25.2139 19.332L25.297 18.3352L23.0957 16.3002L22.3066 17.1724Z" fill="#49728B"/>
<path fill-rule="evenodd" clip-rule="evenodd" d="M15.8563 32.9138L14.9964 29.4245L14.5688 26.85L14.498 24.939L18.3899 24.7318L20.8112 24.7314L20.591 29.0927L20.9648 32.4569L20.9233 33.0799L17.7669 33.3291L15.8563 32.9138Z" fill="#EFEAE3"/>
<path fill-rule="evenodd" clip-rule="evenodd" d="M20.2714 24.6897C20.2714 24.6897 20.0638 29.0092 20.6868 32.0825C20.6868 32.0825 19.4408 32.8718 17.6133 33.0793L21.1021 32.9547L21.5174 32.7055L21.019 25.8942L20.8944 24.4404" fill="#DCD9D8"/>
<path fill-rule="evenodd" clip-rule="evenodd" d="M22.7922 28.1787L24.412 27.7218L27.4854 27.5557L27.9423 26.1436L27.1116 23.6931L26.1564 23.5685L24.8273 23.9839L23.5522 24.6065L22.8752 24.4823L22.3477 24.6895" fill="#EFEAE3"/>
<path fill-rule="evenodd" clip-rule="evenodd" d="M22.7637 27.348C22.7637 27.348 23.8434 26.8497 24.0097 26.8912L23.5529 24.6068L24.0928 24.3993C24.0928 24.3993 24.4666 26.5589 24.4666 26.8081C24.4666 26.8081 26.7923 26.9327 27 26.9327C27 26.9327 27.4984 25.9774 27.3738 24.9806L27.8307 26.3097L27.8722 27.0573L27.2077 28.0541L26.4602 28.2202L25.2142 28.1787L24.7989 27.6388L23.3452 27.8464L22.8883 28.0126" fill="#DCD9D8"/>
<path d="M21.1307 24.3994L20.217 22.0735L19.2617 20.7029C19.2617 20.7029 19.4693 20.1214 19.7601 20.1214C20.0509 20.1214 20.7154 20.1214 20.7154 20.1214L21.6291 20.4537L21.5461 21.9904L21.1307 24.3994Z" fill="#EFEAE3"/>
<path fill-rule="evenodd" clip-rule="evenodd" d="M21.3096 23.61C21.3096 23.61 20.1466 21.3673 20.1466 21.035C20.1466 21.035 20.3542 20.5366 20.645 20.6612C20.9358 20.7858 21.5588 21.118 21.5588 21.118V20.3289L20.1466 20.0381L19.1914 20.1627L20.8112 23.9838L21.1434 24.0254" fill="#DCD9D8"/>
<path d="M16.2305 18.1279L15.0799 18.0028L14 17.6705V18.0443L14.5277 18.6262L16.189 19.3738" fill="#EFEAE3"/>
<path fill-rule="evenodd" clip-rule="evenodd" d="M14.3746 18.2527C14.3746 18.2527 15.6622 18.7927 16.0775 18.6681L16.1188 19.166L14.9561 18.9173L14.25 18.4189L14.3746 18.2527Z" fill="#DCD9D8"/>
<path fill-rule="evenodd" clip-rule="evenodd" d="M22.7895 20.2627C22.0848 20.242 21.4481 20.1583 20.8906 20.001C20.9285 19.7725 20.8576 19.5482 20.9145 19.3836C21.0699 19.2718 21.3303 19.2735 21.5652 19.2472C21.3621 19.1474 21.0768 19.1079 20.8424 19.1656C20.8369 19.007 20.7658 18.9087 20.7227 18.7846C21.1189 18.6432 22.0542 17.716 22.5804 18.023C22.8311 18.1691 22.9377 19.0031 22.9571 19.4087C22.9733 19.7451 22.9266 20.0845 22.7895 20.2627Z" fill="#D33833"/>
<path d="M22.7895 20.2627C22.0848 20.242 21.4481 20.1583 20.8906 20.001C20.9285 19.7725 20.8576 19.5482 20.9145 19.3836C21.0699 19.2718 21.3303 19.2735 21.5652 19.2472C21.3621 19.1474 21.0768 19.1079 20.8424 19.1656C20.8369 19.007 20.7658 18.9087 20.7227 18.7846C21.1189 18.6432 22.0542 17.716 22.5804 18.023C22.8311 18.1691 22.9377 19.0031 22.9571 19.4087C22.9733 19.7451 22.9266 20.0845 22.7895 20.2627Z" stroke="#D33833" stroke-width="2.5"/>
<path fill-rule="evenodd" clip-rule="evenodd" d="M19.4188 19.1109C19.417 19.1642 19.4147 19.2179 19.4126 19.2717C19.1926 19.4163 18.8373 19.4145 18.5959 19.536C18.9518 19.5516 19.2321 19.6373 19.4745 19.7582C19.4692 19.8925 19.4641 20.0267 19.4588 20.161C19.0555 20.4371 18.6871 20.8483 18.2122 21.1072C17.9877 21.2297 17.1997 21.5448 16.9608 21.4891C16.8256 21.4577 16.8135 21.29 16.7594 21.1319C16.6443 20.7933 16.3793 20.2544 16.3562 19.7448C16.3268 19.1011 16.2618 18.0224 16.9555 18.1549C17.5151 18.2617 18.166 18.5195 18.5992 18.7563C18.864 18.901 19.0171 19.08 19.4188 19.1109Z" fill="#D33833"/>
<path d="M19.4188 19.1109C19.417 19.1642 19.4147 19.2179 19.4126 19.2717C19.1926 19.4163 18.8373 19.4145 18.5959 19.536C18.9518 19.5516 19.2321 19.6373 19.4745 19.7582C19.4692 19.8925 19.4641 20.0267 19.4588 20.161C19.0555 20.4371 18.6871 20.8483 18.2122 21.1072C17.9877 21.2297 17.1997 21.5448 16.9608 21.4891C16.8256 21.4577 16.8135 21.29 16.7594 21.1319C16.6443 20.7933 16.3793 20.2544 16.3562 19.7448C16.3268 19.1011 16.2618 18.0224 16.9555 18.1549C17.5151 18.2617 18.166 18.5195 18.5992 18.7563C18.864 18.901 19.0171 19.08 19.4188 19.1109Z" stroke="#D33833" stroke-width="2.5"/>
<path fill-rule="evenodd" clip-rule="evenodd" d="M19.8183 19.8787C19.7567 19.5281 19.6856 19.428 19.7131 19.1221C20.6482 18.4986 20.8238 20.193 19.8183 19.8787Z" fill="#D33833"/>
<path d="M19.8183 19.8787C19.7567 19.5281 19.6856 19.428 19.7131 19.1221C20.6482 18.4986 20.8238 20.193 19.8183 19.8787Z" stroke="#D33833" stroke-width="2.5"/>
<path fill-rule="evenodd" clip-rule="evenodd" d="M21.1713 20.1631C21.1713 20.1631 20.8805 19.7477 21.0882 19.6231C21.2959 19.4985 21.5037 19.6232 21.6283 19.4155C21.7529 19.2078 21.6283 19.0832 21.6697 18.834C21.7112 18.5848 21.9191 18.5432 22.1266 18.5017C22.3342 18.4602 22.9159 18.3771 22.9988 18.5848L22.7496 17.8372L22.2512 17.6711L20.673 18.5848L20.5898 19.0417V19.9554" fill="#EF3D3A"/>
<path fill-rule="evenodd" clip-rule="evenodd" d="M16.8132 21.5337C16.7633 20.8855 16.7105 20.2382 16.6518 19.5907C16.5639 18.6238 16.884 18.7925 17.7222 18.7925C17.8502 18.7925 18.5104 18.9451 18.5576 19.0417C18.7841 19.5043 18.1788 19.4015 18.8185 19.7504C19.3585 20.0448 20.3124 19.5716 20.0943 18.9171C19.9721 18.7716 19.4581 18.8717 19.2738 18.7762C18.9493 18.608 18.6249 18.4398 18.3004 18.2716C17.8875 18.0574 16.9334 17.7451 16.4933 18.0444C15.3781 18.8028 16.5637 20.6979 16.9615 21.4891" fill="#EF3D3A"/>
<path fill-rule="evenodd" clip-rule="evenodd" d="M17.9051 6.81837C16.7731 6.55472 16.2106 7.2921 15.8674 8.05688C15.561 7.98262 15.683 7.56597 15.7604 7.35365C15.963 6.79644 16.7795 6.0547 17.4467 6.15525C17.7338 6.19849 18.1224 6.46102 17.9051 6.81837Z" fill="#231F20"/>
<path fill-rule="evenodd" clip-rule="evenodd" d="M23.4199 8.10758C23.4377 8.10833 23.4558 8.10895 23.4736 8.1097C23.7294 8.64112 23.9508 9.20405 24.2735 9.67317C24.0573 10.1767 22.6365 10.6222 22.6585 9.71815C22.9657 9.58383 23.4961 9.69074 23.7685 9.51917C23.611 9.08693 23.3837 8.71899 23.4199 8.10758Z" fill="#231F20"/>
<path fill-rule="evenodd" clip-rule="evenodd" d="M18.4835 8.12105C18.7262 8.56599 18.8052 9.03349 19.1502 9.36978C19.3056 9.52117 19.6078 9.7057 19.458 10.1267C19.423 10.226 19.1672 10.4474 19.0195 10.4909C18.4801 10.6502 17.2233 10.5238 17.6489 9.85136C18.095 9.87216 18.6946 10.141 19.028 9.81722C18.772 9.40791 18.3155 8.59814 18.4835 8.12105Z" fill="#231F20"/>
<path fill-rule="evenodd" clip-rule="evenodd" d="M23.2177 12.6434C22.4056 13.1651 21.5 13.7324 20.1693 13.6009C19.885 13.3537 19.7766 12.8036 20.0528 12.4402C20.1966 12.6874 20.1063 13.1421 20.507 13.2105C21.262 13.3397 22.1408 12.7486 22.684 12.542C23.0207 11.9742 22.6549 11.7654 22.3515 11.3999C21.7304 10.6512 20.8972 9.72322 20.9275 8.60233C21.1786 8.42029 21.2002 8.88018 21.2362 8.96391C21.5606 9.72297 22.3768 10.6937 22.9725 11.3434C23.1188 11.5034 23.3597 11.6569 23.3864 11.7627C23.4637 12.0703 23.1855 12.4389 23.2177 12.6434Z" fill="#231F20"/>
<path fill-rule="evenodd" clip-rule="evenodd" d="M12.5115 12.0944C12.257 11.9491 12.1964 11.3092 11.8975 11.291C11.4704 11.2651 11.5483 12.1212 11.55 12.6218C11.256 12.3549 11.2043 11.5332 11.4203 11.1112C11.1742 10.9903 11.0643 11.2445 10.9277 11.3341C11.1032 10.0594 12.7923 10.7429 12.5115 12.0944Z" fill="#231F20"/>
<path fill-rule="evenodd" clip-rule="evenodd" d="M23.7352 13.1744C23.3572 13.894 22.8224 14.6864 21.7131 14.7095C21.6905 14.4771 21.6732 14.1235 21.7143 13.9836C22.5623 13.9021 23.0859 13.4705 23.7352 13.1744Z" fill="#231F20"/>
<path fill-rule="evenodd" clip-rule="evenodd" d="M18.4199 13.6408C19.1274 14.0129 20.4278 14.0529 21.3894 14.0247C21.441 14.2354 21.4398 14.4957 21.4417 14.7526C20.2056 14.8143 18.7441 14.5084 18.4199 13.6408Z" fill="#231F20"/>
<path fill-rule="evenodd" clip-rule="evenodd" d="M18.2868 14.3344C18.776 15.5628 20.4576 15.4214 21.8757 15.3875C21.8132 15.547 21.6779 15.7354 21.5097 15.8036C21.0553 15.9885 19.802 16.1288 19.1711 15.7937C18.771 15.581 18.514 15.1004 18.2948 14.8187C18.1889 14.6827 17.6618 14.3352 18.2868 14.3344Z" fill="#231F20"/>
<path fill-rule="evenodd" clip-rule="evenodd" d="M23.1602 21.1105C22.586 22.0938 22.0367 23.1038 21.3555 23.9712C21.641 23.1315 21.7633 21.7261 21.8064 20.6547C22.4038 20.3751 22.9154 20.7176 23.1602 21.1105Z" fill="#81B0C4"/>
<path fill-rule="evenodd" clip-rule="evenodd" d="M26.2489 24.6447C25.6061 24.7734 25.1545 25.3981 24.5273 25.358C24.872 24.8722 25.4759 24.6674 26.2489 24.6447Z" fill="#231F20"/>
<path fill-rule="evenodd" clip-rule="evenodd" d="M26.5321 25.651C26.0081 25.7063 25.3927 25.7912 24.8613 25.7474C25.1129 25.3632 26.0822 25.4958 26.5321 25.651Z" fill="#231F20"/>
<path fill-rule="evenodd" clip-rule="evenodd" d="M26.7144 26.5181C26.1256 26.5309 25.3937 26.5192 24.834 26.4722C25.165 26.1166 26.3325 26.3402 26.7144 26.5181Z" fill="#231F20"/>
<path fill-rule="evenodd" clip-rule="evenodd" d="M22.0521 28.8916C22.1365 29.6311 22.4297 30.3804 22.393 31.1903C22.0674 31.3001 21.8804 31.3961 21.4441 31.3955C21.4134 30.7072 21.3213 29.655 21.3488 28.9988C21.5634 29.013 21.8797 28.8456 22.0521 28.8916Z" fill="#DCD9D8"/>
<path fill-rule="evenodd" clip-rule="evenodd" d="M21.1014 17.9927C20.8058 18.1857 20.5539 18.4267 20.27 18.6328C19.6403 18.6639 19.2966 18.5892 18.834 18.2276C18.8416 18.1985 18.8881 18.2115 18.8898 18.1759C19.5639 18.4763 20.4208 18.0535 21.1014 17.9927Z" fill="#F0D6B7"/>
<path fill-rule="evenodd" clip-rule="evenodd" d="M17.5625 22.5876C17.7477 21.7851 18.4734 21.3694 19.1324 20.9275C19.8126 21.7907 20.2262 22.9009 20.6818 23.9722C19.6055 23.6477 18.5058 23.1213 17.5625 22.5876Z" fill="#81B0C4"/>
<path fill-rule="evenodd" clip-rule="evenodd" d="M21.3477 28.999C21.3201 29.6551 21.4122 30.7073 21.443 31.3956C21.8792 31.3962 22.0662 31.3002 22.3918 31.1904C22.4286 30.3805 22.1354 29.6312 22.0509 28.8917C21.8786 28.8457 21.5622 29.0132 21.3477 28.999ZM14.5553 25.2674C14.8429 27.9117 15.2595 30.1346 16.0237 32.4763C17.7196 32.9912 19.7641 33.0361 21.2632 32.5714C20.988 31.2498 21.1082 29.6408 20.9473 28.2304C20.8261 27.1704 20.8879 26.1038 20.7217 25.0223C18.9053 24.6444 16.3379 24.9339 14.5553 25.2674ZM21.1512 25.0388C21.1359 26.1745 21.202 27.2948 21.2887 28.4319C21.7248 28.3665 22.0208 28.3228 22.426 28.2339C22.2944 27.1392 22.3106 25.9074 22.0426 24.939C21.7328 24.942 21.4601 24.9354 21.1512 25.0388ZM23.3634 24.8558C23.1565 24.8083 22.9155 24.8539 22.7178 24.8578C22.8107 25.7836 23.0362 26.8051 23.1156 27.7769C23.4267 27.7866 23.5929 27.6399 23.8489 27.5905C23.8626 26.7375 23.7744 25.5623 23.3634 24.8558ZM26.7132 27.9163C27.3617 27.7588 27.7695 26.9645 27.5881 26.1487C27.4664 25.6005 27.2496 24.5682 27.0175 24.2175C26.8461 23.958 26.3812 23.6184 26.01 23.8561C25.4062 24.2428 24.3425 24.355 23.9022 24.823C24.123 25.5582 24.1915 26.5679 24.2826 27.4994C25.0369 27.5464 25.9651 27.2918 26.5924 27.562C26.1545 27.7038 25.5862 27.705 25.2077 27.9117C25.517 28.0611 26.241 28.0309 26.7132 27.9163ZM20.6822 23.9723C20.2267 22.901 19.813 21.7908 19.1328 20.9276C18.4738 21.3695 17.7481 21.7852 17.5629 22.5877C18.5062 23.1214 19.6059 23.6478 20.6822 23.9723ZM21.8051 20.6548C21.762 21.7262 21.6397 23.1316 21.3542 23.9713C22.0353 23.1039 22.5847 22.0939 23.1588 21.1106C22.9141 20.7177 22.4025 20.3752 21.8051 20.6548ZM20.5322 20.2025C20.2741 20.1747 20.0551 20.4992 19.7195 20.3589C19.6427 20.4439 19.5728 20.5359 19.4944 20.6189C20.2355 21.5121 20.5723 22.7792 21.1447 23.8288C21.4518 22.8206 21.4165 21.716 21.4841 20.6156C21.0621 20.6423 20.828 20.2339 20.5322 20.2025ZM19.7137 19.1222C19.6861 19.4281 19.7573 19.5282 19.8188 19.8788C20.8244 20.1932 20.6488 18.4987 19.7137 19.1222ZM18.5986 18.7562C18.1654 18.5194 17.5145 18.2616 16.9549 18.1549C16.2612 18.0222 16.3262 19.1011 16.3556 19.7447C16.3787 20.2543 16.6438 20.7932 16.7589 21.1318C16.8129 21.2899 16.8251 21.4576 16.9602 21.489C17.1991 21.5447 17.9871 21.2296 18.2116 21.1071C18.6865 20.8482 19.0549 20.437 19.4583 20.1609C19.4635 20.0266 19.4686 19.8924 19.474 19.7581C19.2315 19.6372 18.9513 19.5515 18.5953 19.5359C18.8368 19.4144 19.192 19.4162 19.412 19.2716C19.4141 19.2178 19.4164 19.1641 19.4183 19.1108C19.0166 19.0799 18.8634 18.901 18.5986 18.7562ZM14.4603 18.0045C14.1007 18.3695 15.4688 18.8672 15.9044 18.894C15.902 18.663 16.0361 18.4452 16.0091 18.2795C15.4917 18.1886 14.8118 18.2486 14.4603 18.0045ZM18.89 18.1759C18.8882 18.2115 18.8417 18.1986 18.8341 18.2276C19.2968 18.5892 19.6404 18.664 20.2701 18.6328C20.5541 18.4267 20.8059 18.1858 21.1016 17.9927C20.4209 18.0536 19.564 18.4763 18.89 18.1759ZM22.9559 19.4088C22.9364 19.0032 22.8299 18.1692 22.5792 18.0232C22.053 17.716 21.1177 18.6433 20.7214 18.7847C20.7646 18.9088 20.8357 19.0071 20.8412 19.1657C21.0755 19.108 21.3609 19.1475 21.564 19.2473C21.3291 19.2736 21.0687 19.2719 20.9133 19.3838C20.8564 19.5484 20.9273 19.7726 20.8894 20.0012C21.4469 20.1584 22.0836 20.2421 22.7883 20.2628C22.9253 20.0846 22.9721 19.7452 22.9559 19.4088ZM13.8549 18.3576C13.742 18.2771 12.9781 17.2832 12.8734 17.3244C11.4912 17.8695 10.1987 18.8121 9.04371 19.7036C10.1449 22.0665 10.5894 24.9615 10.668 27.7517C11.9294 28.3417 13.0374 29.1922 14.7492 29.281C14.5511 27.8796 14.3703 26.6292 14.2579 25.3097C13.8278 25.1284 13.2107 25.3179 12.8082 25.2535C12.8048 24.7684 13.4229 25.0411 13.4744 24.7149C13.5132 24.4682 13.1343 24.4495 13.2577 24.061C13.5723 24.1754 13.7376 24.428 14.0732 24.5229C14.3798 23.852 14.0689 22.6651 14.1131 22.1044C14.1215 21.9991 14.1656 21.5212 14.4015 21.605C14.6102 21.6792 14.3895 22.8762 14.4124 23.4068C14.4332 23.8958 14.3534 24.3688 14.5514 24.6758C16.2055 24.4506 17.8863 24.3051 19.6761 24.256C19.2823 24.087 18.8146 23.9271 18.3018 23.6381C18.0237 23.4814 17.1474 23.1553 17.0672 22.8912C16.9392 22.4705 17.403 22.2463 17.4824 21.8856C16.6474 22.341 16.4845 21.4491 16.287 20.8173C16.108 20.245 16.0062 19.8175 15.9623 19.4874C15.243 19.1445 14.474 18.7973 13.8549 18.3576ZM22.2253 17.4446C23.377 16.8862 23.5846 19.5318 23.1332 20.3841C23.203 20.6382 23.4429 20.7355 23.5409 20.9641C22.8982 22.1153 22.1844 23.19 21.5286 24.3277C22.0164 24.0241 22.7132 24.2734 23.2872 24.0461C23.497 23.9632 23.6489 23.4828 23.8078 23.0986C24.2447 22.0414 24.7035 20.7085 24.9076 19.6996C24.9537 19.4697 25.0793 18.9689 25.0511 18.7643C25.0009 18.3979 24.5039 18.1263 24.2511 17.8998C23.7853 17.4814 23.492 17.1132 23.0062 16.722C22.8092 17.0128 22.3865 17.2081 22.2253 17.4446ZM11.221 7.23151C10.6723 7.83532 10.7871 8.96667 10.8536 9.77158C11.8455 9.14759 13.162 9.82092 13.1496 10.8823C13.6232 10.8697 13.3265 10.2908 13.2409 9.91786C12.9609 8.69978 13.7125 7.37642 13.275 6.2625C12.4254 6.32692 11.7274 6.67393 11.221 7.23151ZM15.1476 3.72704C13.9053 4.07915 12.3131 4.98187 11.8026 6.09791C12.1979 6.04047 12.4723 5.84111 12.8622 5.81644C13.0096 5.80684 13.2027 5.87824 13.3721 5.83613C13.7096 5.7524 13.9945 4.99558 14.2491 4.71399C14.4973 4.439 14.7957 4.3215 14.9999 4.07081C15.1311 4.00751 15.325 4.01187 15.3325 3.81488C15.2756 3.75408 15.2157 3.70773 15.1476 3.72704ZM21.6147 4.05822C20.3252 3.33069 18.1426 2.78345 16.7709 3.46725C15.6642 4.0191 14.1681 4.93216 13.658 6.08919C14.1345 7.20572 13.5169 8.2288 13.4774 9.3624C13.4565 9.96558 13.7614 10.4921 13.7848 11.1488C13.6217 11.4178 13.1236 11.4509 12.7787 11.4325C12.6627 10.8516 12.4595 10.1987 11.8613 10.1332C11.0149 10.0406 10.396 10.7411 10.3576 11.4731C10.3121 12.334 11.0188 13.7607 12.0205 13.6617C12.4074 13.6234 12.5025 13.2356 12.924 13.2395C13.1525 13.6955 12.5716 13.8386 12.5118 14.1647C12.4962 14.2489 12.56 14.5781 12.5971 14.7325C12.779 15.4842 13.1846 16.4571 13.5838 17.0294C14.0905 17.7553 15.0859 17.8647 16.1568 17.9358C16.3481 17.5238 17.0527 17.5576 17.5118 17.6654C16.9616 17.4475 16.45 16.9192 16.0261 16.4516C15.5392 15.9151 15.0459 15.3395 15.021 14.6383C15.9412 15.9149 16.7014 17.0298 18.3748 17.5914C19.6409 18.016 21.1197 17.3968 22.0925 16.7136C22.4962 16.4297 22.7372 15.9791 23.0242 15.5667C24.0978 14.0223 24.5988 11.8179 24.4887 9.68125C24.4433 8.80009 24.4453 7.92191 24.1497 7.32907C23.8406 6.70919 22.7955 6.1546 22.1837 6.7153C22.0703 6.11249 22.6925 5.73969 23.4232 5.95661C22.9022 5.28415 22.3553 4.47613 21.6147 4.05822ZM24.0171 23.9401C25.0247 23.4392 26.9074 22.5918 27.5391 23.942C27.7722 24.4397 28.0457 25.2809 28.1665 25.7947C28.3371 26.5194 27.9816 28.0428 27.2366 28.286C26.5786 28.5008 25.8108 28.4877 25.0182 28.3285C24.9249 28.2509 24.821 28.1156 24.7484 27.9745C24.1824 27.9526 23.6525 28.0049 23.2054 28.2375C23.2478 28.6561 22.9647 28.7232 22.6993 28.8094C22.5026 29.5895 23.0929 30.6083 22.9516 31.3196C22.8508 31.8264 22.2273 31.9047 21.7691 31.9995C21.7541 32.2812 21.7891 32.5162 21.8204 32.7545C21.7156 33.1406 21.2456 33.3604 20.8003 33.4142C19.3351 33.5904 17.1105 33.6696 15.7012 33.1628C15.308 32.1982 14.9982 31.0249 14.6706 29.9235C13.2961 30.0703 12.1845 29.3304 11.1365 28.8457C10.7736 28.6775 10.2717 28.5848 10.1361 28.296C10.0047 28.0164 10.0585 27.4805 10.0259 26.9742C9.94291 25.6813 9.87186 24.4341 9.53042 23.1103C9.37711 22.5162 9.1099 21.992 8.92348 21.4196C8.75119 20.8891 8.45016 20.2334 8.37165 19.7044C8.25523 18.9203 8.99357 18.8767 9.46569 18.5369C10.1955 18.0114 10.7684 17.7209 11.5588 17.2467C11.7929 17.1062 12.4989 16.7507 12.5792 16.587C12.7388 16.2624 12.3052 15.8048 12.1892 15.5504C12.0059 15.148 11.9102 14.8063 11.8839 14.4093C11.2209 14.3045 10.7182 13.9099 10.4146 13.4649C9.9124 12.7286 9.5641 11.3662 9.99863 10.3299C10.0327 10.2483 10.2027 10.0878 10.2277 9.96247C10.2772 9.71564 10.1347 9.38745 10.1258 9.12491C10.0802 7.778 10.3537 6.61749 11.2604 6.21129C11.6286 4.74489 12.946 4.25733 14.1873 3.52855C14.6513 3.25618 15.1628 3.08211 15.691 2.88774C17.5859 2.19036 20.4933 2.32169 22.066 3.51111C22.7328 4.01549 23.7988 5.08043 24.1801 5.85145C25.1871 7.88702 25.1155 11.2889 24.4112 13.7651C24.3165 14.0975 24.1792 14.5862 23.9874 14.9856C23.8537 15.2644 23.4382 15.8224 23.4887 16.0686C23.5406 16.3231 24.4361 17.0031 24.6281 17.1882C24.9739 17.5218 25.6308 17.9645 25.684 18.3854C25.7412 18.8333 25.4866 19.4461 25.3576 19.8783C24.9265 21.3208 24.5059 22.6541 24.0171 23.9401Z" fill="#231F20"/>
<path fill-rule="evenodd" clip-rule="evenodd" d="M17.2938 13.9549C17.3485 13.8822 17.649 13.7717 18.0696 13.9741C18.0696 13.9741 17.5712 14.0572 17.6126 14.8882L17.405 14.8466C17.405 14.8466 17.1903 14.0931 17.2938 13.9549Z" fill="#F7E4CD"/>
<path fill-rule="evenodd" clip-rule="evenodd" d="M20.9354 21.0973C20.9354 21.2234 20.8331 21.3257 20.7069 21.3257C20.5808 21.3257 20.4785 21.2234 20.4785 21.0973C20.4785 20.9712 20.5808 20.8688 20.7069 20.8688C20.8331 20.8688 20.9354 20.9712 20.9354 21.0973Z" fill="#1D1919"/>
<path fill-rule="evenodd" clip-rule="evenodd" d="M21.1639 22.1564C21.1639 22.2825 21.0616 22.3848 20.9354 22.3848C20.8093 22.3848 20.707 22.2825 20.707 22.1564C20.707 22.0303 20.8093 21.9279 20.9354 21.9279C21.0616 21.9279 21.1639 22.0303 21.1639 22.1564Z" fill="#1D1919"/>
</svg>
