<svg width="36" height="36" viewBox="0 0 36 36" fill="none" xmlns="http://www.w3.org/2000/svg">
<path fill-rule="evenodd" clip-rule="evenodd" d="M23.0712 13.5303C23.4097 14.5097 23.6536 15.5095 23.7337 16.5458C23.8333 17.8315 23.7877 19.1081 23.5167 20.3727C23.5093 20.4075 23.4937 20.4402 23.4821 20.4739C23.3971 20.4741 23.3104 20.4636 23.2273 20.4764C22.525 20.5868 21.8235 20.7011 21.1219 20.8148C20.3967 20.9323 19.6704 21.0451 18.9465 21.1706C18.69 21.2149 18.3725 21.162 18.269 21.5168C18.266 21.5265 18.2365 21.5282 18.2194 21.5337L18.2544 19.4135C18.2424 17.7083 18.2306 16.0031 18.2188 14.2979L18.5567 14.2399C19.1093 14.1494 19.662 14.0576 20.2151 13.9697C20.8751 13.8648 21.5357 13.7629 22.1962 13.6606C22.4875 13.6153 22.7792 13.5737 23.0712 13.5303Z" fill="#439934"/>
<path fill-rule="evenodd" clip-rule="evenodd" d="M17.5211 27.7143C17.1646 27.4078 16.7957 27.1148 16.4539 26.7925C14.6152 25.0581 13.2703 23.0169 12.6079 20.5559C12.4255 19.8786 12.3038 19.1903 12.2647 18.4904C12.2373 18.0006 12.1977 17.5064 12.2322 17.0191C12.3244 15.7231 12.5117 14.4395 12.8918 13.1912L12.9127 13.1621C12.9496 13.2113 13.0028 13.2547 13.0216 13.3102C13.3926 14.4028 13.7609 15.4963 14.1273 16.5905C15.2786 20.0288 16.4284 23.4679 17.5816 26.9053C17.6042 26.9724 17.6626 27.0275 17.7046 27.088L17.5211 27.7143Z" fill="#45A538"/>
<path fill-rule="evenodd" clip-rule="evenodd" d="M23.0703 13.5308C22.7784 13.5742 22.4864 13.6158 22.1951 13.6607C21.5347 13.763 20.874 13.8649 20.214 13.9697C19.6609 14.0577 19.1083 14.1494 18.5556 14.2399L18.2177 14.2979L18.2152 14.0775C18.204 13.8963 18.1848 13.7153 18.1827 13.5341C18.1681 12.3786 18.1591 11.2231 18.1447 10.0676C18.1358 9.34427 18.1226 8.62118 18.1078 7.89809C18.0987 7.44879 18.089 6.99928 18.0688 6.55062C18.0578 6.30952 18.019 6.06968 18.0032 5.82858C17.9943 5.68999 18.0065 5.55035 18.0093 5.41113C18.1816 5.74505 18.3502 6.08149 18.5274 6.41288C18.8073 6.93684 19.2532 7.32286 19.6546 7.7441C21.2415 9.40882 22.3681 11.3444 23.0703 13.5308Z" fill="#46A037"/>
<path fill-rule="evenodd" clip-rule="evenodd" d="M18.2185 21.5339C18.2356 21.5284 18.2653 21.5268 18.2681 21.5171C18.3716 21.1623 18.6891 21.2152 18.9456 21.1709C19.6695 21.0456 20.3958 20.9325 21.121 20.8151C21.8226 20.7014 22.5241 20.587 23.2264 20.4767C23.3095 20.4636 23.3962 20.4744 23.4812 20.4742C23.35 20.9425 23.2466 21.4209 23.0802 21.8763C22.8912 22.3929 22.6625 22.897 22.4197 23.3912C22.0569 24.1301 21.6049 24.8193 21.0796 25.4506C20.6749 25.9375 20.2237 26.3874 19.7714 26.8318C19.5215 27.0776 19.2268 27.2778 18.9526 27.4986L18.8815 27.4501L18.6254 27.2311L18.3605 26.6504C18.178 25.9706 18.0822 25.2785 18.0664 24.5752L18.0713 24.4569L18.1073 23.9452C18.1194 23.7705 18.1354 23.5961 18.1428 23.421C18.17 22.792 18.1936 22.1629 18.2185 21.5339Z" fill="#409433"/>
<path fill-rule="evenodd" clip-rule="evenodd" d="M18.2193 21.5339C18.1944 22.163 18.1707 22.792 18.1439 23.4212C18.1366 23.5963 18.1205 23.7707 18.1085 23.9454L17.9471 24.0063C17.5888 22.9512 17.2302 21.9073 16.8794 20.8606C16.2993 19.1291 15.7262 17.3947 15.1469 15.6627C14.6793 14.2646 14.2079 12.868 13.7337 11.472C13.7115 11.4066 13.6478 11.3556 13.6035 11.2978L14.6363 9.39893C14.6717 9.46052 14.7185 9.51811 14.7409 9.58434C15.2187 10.9983 15.6956 12.4124 16.1685 13.828C16.7836 15.6695 17.3949 17.5124 18.0096 19.3541C18.034 19.4277 18.0745 19.4957 18.1131 19.5781L18.2545 19.4136C18.2427 20.1205 18.2309 20.8271 18.2193 21.5339Z" fill="#4FAA41"/>
<path fill-rule="evenodd" clip-rule="evenodd" d="M13.6042 11.2974C13.6485 11.3552 13.712 11.4062 13.7344 11.4716C14.2086 12.8676 14.68 14.2642 15.1477 15.6623C15.7269 17.3943 16.3 19.1286 16.8801 20.8602C17.2307 21.9067 17.5893 22.9508 17.9479 24.0059L18.1092 23.945L18.0732 24.4567L18.0405 24.5746C17.9844 25.1349 17.9371 25.6964 17.8688 26.2554C17.8344 26.5355 17.7614 26.8105 17.7059 27.0879C17.6642 27.0274 17.6055 26.9723 17.583 26.9053C16.4298 23.4676 15.2799 20.0287 14.1286 16.5904C13.7622 15.4963 13.3939 14.4028 13.0229 13.3101C13.0041 13.2547 12.9512 13.2112 12.9141 13.1621C13.144 12.5404 13.3741 11.9188 13.6042 11.2974Z" fill="#4AA73C"/>
<path fill-rule="evenodd" clip-rule="evenodd" d="M18.2549 19.4135L18.1136 19.5781C18.075 19.4956 18.0345 19.4275 18.01 19.3541C17.3956 17.5124 16.7841 15.6694 16.169 13.8279C15.696 12.4123 15.2191 10.9982 14.7413 9.58428C14.7192 9.51805 14.6724 9.46025 14.6367 9.39887L15.9139 7.71875C15.9542 7.77254 16.0116 7.82042 16.0325 7.88096C16.3871 8.91898 16.7385 9.95827 17.0878 10.9982C17.4141 11.9694 17.7356 12.942 18.0657 13.9119C18.0879 13.9768 18.1649 14.0228 18.2163 14.0777L18.2189 14.2981C18.2311 16.0029 18.2431 17.7083 18.2549 19.4135Z" fill="#57AE47"/>
<path fill-rule="evenodd" clip-rule="evenodd" d="M18.2164 14.0768C18.165 14.022 18.088 13.976 18.0658 13.911C17.7357 12.9411 17.4143 11.9685 17.0879 10.9974C16.7386 9.95743 16.3872 8.91835 16.0326 7.88012C16.0117 7.81958 15.9544 7.7717 15.9141 7.71791C16.3294 7.31122 16.7319 6.88998 17.1639 6.50206C17.548 6.15739 17.8568 5.78783 17.8709 5.24319C17.8716 5.22062 17.8834 5.19805 17.9015 5.13477L18.011 5.41025C18.0082 5.54968 17.9958 5.68911 18.0049 5.8277C18.0207 6.0688 18.0595 6.30863 18.0705 6.54973C18.0907 6.9984 18.1004 7.44791 18.1095 7.8972C18.1241 8.6203 18.1373 9.34339 18.1464 10.0667C18.1605 11.2222 18.1698 12.3777 18.1844 13.5332C18.1861 13.7149 18.2051 13.8956 18.2164 14.0768Z" fill="#60B24F"/>
<path fill-rule="evenodd" clip-rule="evenodd" d="M17.703 27.0877C17.7585 26.8103 17.8315 26.535 17.8659 26.2551C17.9344 25.6964 17.9815 25.1346 18.0376 24.5744L18.0515 24.5723L18.0654 24.5746C18.0813 25.2779 18.177 25.9699 18.3595 26.6498C18.3224 26.6987 18.2698 26.7424 18.2502 26.7977C18.0969 27.2301 17.9524 27.6659 17.7982 28.0983C17.7771 28.1574 17.7184 28.2033 17.6771 28.2552L17.5195 27.714L17.703 27.0877Z" fill="#A9AA88"/>
<path fill-rule="evenodd" clip-rule="evenodd" d="M17.6777 28.2558C17.7191 28.2039 17.7779 28.158 17.7988 28.0989C17.953 27.6665 18.0977 27.2309 18.2509 26.7983C18.2705 26.743 18.3228 26.6993 18.3601 26.6504L18.6248 27.2313C18.5725 27.3056 18.5004 27.3724 18.4713 27.4551L17.9642 28.9441C17.9433 29.0038 17.872 29.046 17.8243 29.0964L17.6777 28.2558Z" fill="#B6B598"/>
<path fill-rule="evenodd" clip-rule="evenodd" d="M17.8242 29.0966C17.8721 29.0464 17.9432 29.004 17.9641 28.9443L18.4712 27.4552C18.5001 27.3728 18.5724 27.3057 18.6247 27.2314L18.881 27.4502C18.7572 27.5725 18.6884 27.7139 18.7298 27.8925L18.6519 28.1473C18.6165 28.191 18.5652 28.229 18.5477 28.279C18.3708 28.7858 18.2018 29.2955 18.0236 29.8024C18.001 29.8667 17.9383 29.9171 17.894 29.9736C17.871 29.6811 17.8476 29.3891 17.8242 29.0966Z" fill="#C2C1A7"/>
<path fill-rule="evenodd" clip-rule="evenodd" d="M17.8956 29.9728C17.9397 29.916 18.0024 29.8656 18.0252 29.8015C18.2034 29.2948 18.3724 28.7852 18.5493 28.2781C18.5668 28.2283 18.6179 28.1901 18.6535 28.1465L18.5462 29.3161C18.5175 29.3492 18.4759 29.3781 18.4622 29.4167C18.3409 29.7572 18.2266 30.1002 18.1049 30.4406C18.0798 30.5109 18.0317 30.5729 17.9941 30.6385C17.9608 30.5948 17.9011 30.5526 17.8984 30.5071C17.8876 30.3297 17.895 30.151 17.8956 29.9728Z" fill="#CECDB7"/>
<path fill-rule="evenodd" clip-rule="evenodd" d="M17.9922 30.6388C18.0297 30.573 18.0778 30.5109 18.1029 30.4409C18.2249 30.1007 18.339 29.7577 18.4603 29.417C18.474 29.3784 18.5157 29.3497 18.5442 29.3164L18.5467 30.0842L18.2898 30.7432L17.9922 30.6388Z" fill="#DBDAC7"/>
<path fill-rule="evenodd" clip-rule="evenodd" d="M18.291 30.7439L18.5479 30.085L18.6009 30.8646L18.291 30.7439Z" fill="#EBE9DC"/>
<path fill-rule="evenodd" clip-rule="evenodd" d="M18.7308 27.8925C18.6895 27.7139 18.758 27.5723 18.882 27.4502L18.9531 27.4987L18.7308 27.8925Z" fill="#CECDB7"/>
<path fill-rule="evenodd" clip-rule="evenodd" d="M18.0669 24.5752L18.053 24.5728L18.0391 24.5749L18.0718 24.457L18.0669 24.5752Z" fill="#4FAA41"/>
</svg>
