<svg width="36" height="36" viewBox="0 0 36 36" fill="none" xmlns="http://www.w3.org/2000/svg">
<g clip-path="url(#clip0_499_4201)">
<path fill-rule="evenodd" clip-rule="evenodd" d="M33.16 28.042C31.2021 27.9875 29.6831 28.1882 28.41 28.7237C28.0434 28.871 27.4551 28.871 27.4068 29.3324C27.6028 29.526 27.6263 29.8428 27.7981 30.1111C28.0917 30.5981 28.6064 31.2542 29.0712 31.5945L30.6379 32.7141C31.5928 33.2977 32.67 33.6385 33.6002 34.2226C34.139 34.5634 34.6774 35.0014 35.2162 35.3667C35.4906 35.5614 35.6569 35.8783 35.9999 35.9994V35.9257C35.8287 35.7076 35.7793 35.3913 35.6086 35.147L34.8733 34.4418C34.1637 33.4929 33.2819 32.665 32.327 31.9844C31.5434 31.4489 29.8302 30.7192 29.5119 29.8194L29.4636 29.7648C30.0014 29.7103 30.6379 29.5211 31.1527 29.3749C31.9857 29.1568 32.7441 29.2048 33.6002 28.9861L34.7761 28.6452V28.4271C34.3355 27.9892 34.0172 27.4051 33.5524 26.9917C32.304 25.9212 30.9321 24.8746 29.5119 23.9988C28.753 23.5123 27.7734 23.1955 26.9656 22.7826C26.671 22.6365 26.182 22.5634 26.0108 22.3202C25.5691 21.7857 25.3249 21.0795 25.0066 20.4463L22.9992 16.2127C22.5586 15.2638 22.2886 14.3148 21.7508 13.439C19.2287 9.30246 16.486 6.79655 12.2748 4.33862C11.3693 3.82762 10.2921 3.60784 9.14687 3.34061L7.31072 3.24245C6.91836 3.0723 6.52709 2.60983 6.18412 2.3906C4.78862 1.51475 1.18931 -0.383092 0.160388 2.11792C-0.500868 3.69946 1.13992 5.25645 1.69691 6.05977C2.11397 6.6193 2.65175 7.25192 2.94644 7.88453C3.11107 8.29791 3.16594 8.73638 3.33771 9.17431C3.72897 10.2448 4.09664 11.4375 4.61083 12.4355C4.88521 12.9465 5.17331 13.4826 5.51628 13.9446C5.71219 14.2172 6.05516 14.3339 6.12814 14.7719C5.78517 15.2589 5.76158 15.988 5.56567 16.5972C4.68381 19.3469 5.02679 22.7532 6.27521 24.7775C6.66758 25.3856 7.59224 26.7245 8.8467 26.2129C9.94861 25.775 9.70277 24.3882 10.021 23.1715C10.0951 22.8797 10.0457 22.685 10.1923 22.4898V22.5443L11.1965 24.5638C11.9554 25.7559 13.2779 26.9971 14.3793 27.825C14.9665 28.2629 15.4318 29.0177 16.1661 29.2849V29.2113H16.1178C15.9707 28.9932 15.7501 28.895 15.5542 28.7248C15.1135 28.2869 14.624 27.7514 14.2811 27.2649C13.2532 25.9026 12.3478 24.3936 11.5395 22.8366C11.1471 22.0824 10.8041 21.2551 10.4869 20.5008C10.3388 20.2085 10.3388 19.7701 10.0946 19.625C9.72691 20.1594 9.18913 20.623 8.91859 21.2796C8.45324 22.3256 8.40495 23.6154 8.23374 24.9537C8.13496 24.9782 8.17886 24.9537 8.13496 25.0082C7.35243 24.8141 7.08244 24.0102 6.78886 23.3296C6.05461 21.6019 5.93169 18.8282 6.56825 16.8328C6.73946 16.3218 7.4748 14.7157 7.18122 14.2292C7.03305 13.7668 6.54465 13.4995 6.27466 13.1341C5.95638 12.6717 5.61451 12.0882 5.3939 11.5772C4.80673 10.2138 4.51315 8.70584 3.87604 7.34299C3.58135 6.71038 3.06772 6.05322 2.65121 5.46969C2.18586 4.81253 1.67277 4.35007 1.3051 3.57184C1.18273 3.29916 1.01151 2.86615 1.20742 2.57384C1.25571 2.37915 1.35449 2.30116 1.5493 2.25753C1.86758 1.98485 2.77413 2.33061 3.09241 2.47567C3.99786 2.84106 4.75679 3.18137 5.51573 3.69182C5.8587 3.93505 6.22638 4.39752 6.66703 4.51968H7.18176C7.96539 4.68983 8.84615 4.57421 9.57985 4.79236C10.8777 5.20683 12.0526 5.81435 13.1062 6.47206C16.3131 8.49152 18.9581 11.3628 20.7449 14.7942C21.0385 15.3538 21.1609 15.8648 21.4309 16.4488C21.9456 17.6415 22.5822 18.8577 23.0952 20.0264C23.61 21.17 24.0995 22.3387 24.8337 23.2876C25.2014 23.7986 26.6699 24.0658 27.3306 24.3336C27.8206 24.5518 28.579 24.7481 29.0208 25.0153C29.8527 25.5263 30.6851 26.1104 31.4682 26.6699C31.8595 26.9612 33.0843 27.5698 33.1573 28.0551L33.16 28.042ZM8.19148 6.89743C7.85321 6.89446 7.51599 6.93535 7.18835 7.01905V7.07359H7.23664C7.43255 7.46297 7.77553 7.73074 8.02027 8.07159L8.58385 9.23975L8.63213 9.18521C8.97511 8.94198 9.14687 8.5526 9.14687 7.96906C8.99981 7.79891 8.97566 7.62821 8.85328 7.45806C8.70622 7.21483 8.38794 7.09267 8.19148 6.89853V6.89743Z" fill="#00678C"/>
</g>
<defs>
<clipPath id="clip0_499_4201">
<rect width="36" height="36" fill="white"/>
</clipPath>
</defs>
</svg>
