<svg width="36" height="36" viewBox="0 0 36 36" fill="none" xmlns="http://www.w3.org/2000/svg">
<path d="M6.31557 24.7441C6.43807 24.9619 6.61502 25.1253 6.83281 25.2478L17.3139 31.2914C17.7495 31.55 18.2803 31.55 18.7023 31.2914L29.1834 25.2478C29.619 25.0028 29.8776 24.54 29.8776 24.0363V11.9491C29.8776 11.4454 29.619 10.9826 29.1834 10.7376L18.7023 4.69397C18.2667 4.43534 17.7359 4.43534 17.3139 4.69397L6.83281 10.7376C6.38362 10.9826 6.125 11.4454 6.125 11.9491V24.0499C6.125 24.2949 6.17945 24.5264 6.31557 24.7441Z" fill="#009639"/>
<path d="M14.6463 22.6072C14.6463 23.3558 14.0474 23.9548 13.2987 23.9548C12.5501 23.9548 11.9512 23.3558 11.9512 22.6072V13.3648C11.9512 12.6434 12.5909 12.058 13.4757 12.058C14.1154 12.058 14.8641 12.3167 15.3133 12.8748L15.7216 13.3648L21.3569 20.1026V13.392C21.3569 12.6434 21.9558 12.0444 22.7045 12.0444C23.4531 12.0444 24.0521 12.6434 24.0521 13.392V22.6344C24.0521 23.3558 23.4123 23.9411 22.5275 23.9411C21.8878 23.9411 21.1391 23.6825 20.6899 23.1244L14.6463 15.9102V22.6072Z" fill="#EFEAE3"/>
</svg>
