<svg width="36" height="36" viewBox="0 0 36 36" fill="none" xmlns="http://www.w3.org/2000/svg">
<path d="M17.9585 31.4499C17.5871 31.4499 17.2405 31.3509 16.9186 31.1776L13.6257 29.2216C13.1305 28.9493 13.3781 28.8502 13.5267 28.8007C14.1951 28.5779 14.3189 28.5284 15.0122 28.1322C15.0865 28.0827 15.1855 28.1075 15.2598 28.157L17.7852 29.6673C17.8842 29.7168 18.008 29.7168 18.0823 29.6673L27.961 23.948C28.06 23.8985 28.1096 23.7994 28.1096 23.6757V12.2619C28.1096 12.1381 28.06 12.039 27.961 11.9895L18.0823 6.29501C17.9832 6.24549 17.8594 6.24549 17.7852 6.29501L7.90642 11.9895C7.80739 12.039 7.75787 12.1628 7.75787 12.2619V23.6757C7.75787 23.7747 7.80739 23.8985 7.90642 23.948L10.6051 25.5078C12.0659 26.2506 12.982 25.384 12.982 24.5175V13.2522C12.982 13.1037 13.1058 12.9551 13.2791 12.9551H14.5418C14.6903 12.9551 14.8389 13.0789 14.8389 13.2522V24.5175C14.8389 26.4734 13.7742 27.6123 11.9173 27.6123C11.3479 27.6123 10.9022 27.6123 9.63954 26.9933L7.03987 25.5078C6.39614 25.1364 6 24.4432 6 23.7004V12.2866C6 11.5439 6.39614 10.8506 7.03987 10.4792L16.9186 4.75997C17.5376 4.41334 18.3794 4.41334 18.9983 4.75997L28.8771 10.4792C29.5208 10.8506 29.917 11.5439 29.917 12.2866V23.7004C29.917 24.4432 29.5208 25.1364 28.8771 25.5078L18.9983 31.2271C18.6765 31.3756 18.3051 31.4499 17.9585 31.4499ZM21.0038 23.6014C16.671 23.6014 15.7797 21.6207 15.7797 19.9371C15.7797 19.7885 15.9035 19.64 16.0768 19.64H17.3643C17.5128 19.64 17.6366 19.739 17.6366 19.8876C17.8347 21.1998 18.4041 21.8435 21.0286 21.8435C23.1083 21.8435 23.9996 21.3731 23.9996 20.2589C23.9996 19.6152 23.752 19.1448 20.5086 18.8229C17.8099 18.5506 16.1263 17.9564 16.1263 15.8024C16.1263 13.7969 17.8099 12.6085 20.6324 12.6085C23.8015 12.6085 25.3613 13.6979 25.5594 16.0747C25.5594 16.149 25.5347 16.2233 25.4851 16.2975C25.4356 16.3471 25.3613 16.3966 25.2871 16.3966H23.9996C23.8758 16.3966 23.752 16.2975 23.7273 16.1738C23.4302 14.812 22.6626 14.3664 20.6324 14.3664C18.3546 14.3664 18.0823 15.1586 18.0823 15.7529C18.0823 16.4709 18.4041 16.6937 21.4742 17.0898C24.5195 17.486 25.9556 18.0554 25.9556 20.1847C25.9308 22.3634 24.1482 23.6014 21.0038 23.6014Z" fill="#539E43"/>
</svg>
