<svg width="36" height="36" viewBox="0 0 36 36" fill="none" xmlns="http://www.w3.org/2000/svg">
<g clip-path="url(#clip0_499_4124)">
<mask id="mask0_499_4124" style="mask-type:luminance" maskUnits="userSpaceOnUse" x="1" y="9" width="34" height="19">
<path d="M1.96289 18.3748C1.96289 23.2825 9.1426 27.261 17.9989 27.261C26.8551 27.261 34.0349 23.2825 34.0349 18.3748C34.0349 13.4672 26.8551 9.48857 17.9989 9.48857C9.1426 9.48857 1.96289 13.4672 1.96289 18.3748Z" fill="white"/>
</mask>
<g mask="url(#mask0_499_4124)">
<path d="M1.96289 18.3748C1.96289 23.2825 9.1426 27.261 17.9989 27.261C26.8551 27.261 34.0349 23.2825 34.0349 18.3748C34.0349 13.4672 26.8551 9.48857 17.9989 9.48857C9.1426 9.48857 1.96289 13.4672 1.96289 18.3748Z" fill="url(#paint0_radial_499_4124)"/>
</g>
<mask id="mask1_499_4124" style="mask-type:luminance" maskUnits="userSpaceOnUse" x="1" y="8" width="34" height="21">
<path d="M1.29492 8.47681H34.7032V28.2729H1.29492V8.47681Z" fill="white"/>
</mask>
<g mask="url(#mask1_499_4124)">
<path d="M17.9994 26.6011C26.5098 26.6011 33.409 22.918 33.409 18.3746C33.409 13.8313 26.5098 10.1482 17.9994 10.1482C9.48906 10.1482 2.58984 13.8313 2.58984 18.3746C2.58984 22.918 9.48906 26.6011 17.9994 26.6011Z" fill="#777BB3"/>
</g>
<mask id="mask2_499_4124" style="mask-type:luminance" maskUnits="userSpaceOnUse" x="1" y="8" width="34" height="21">
<path d="M1.29492 8.47681H34.7032V28.2729H1.29492V8.47681Z" fill="white"/>
</mask>
<g mask="url(#mask2_499_4124)">
<path d="M10.6754 19.3947C11.3752 19.3947 11.8976 19.2588 12.2281 18.9908C12.5551 18.7256 12.781 18.266 12.8994 17.625C13.0097 17.0259 12.9677 16.6075 12.7744 16.3818C12.5768 16.1512 12.1496 16.0343 11.5046 16.0343H10.3863L9.76635 19.3947H10.6754ZM7.0177 23.5342C6.96579 23.5342 6.91649 23.5097 6.88349 23.4675C6.85043 23.4252 6.83703 23.3696 6.84695 23.3159L8.48999 14.4107C8.50588 14.3246 8.57751 14.2624 8.6608 14.2624H12.202C13.3149 14.2624 14.1432 14.5807 14.6639 15.2086C15.1874 15.8398 15.349 16.7222 15.1443 17.8311C15.061 18.2828 14.9178 18.7024 14.7185 19.078C14.5191 19.4541 14.2555 19.8021 13.9349 20.1124C13.5512 20.4908 13.1169 20.7651 12.6452 20.9265C12.181 21.0858 11.5849 21.1666 10.8734 21.1666H9.43951L9.03003 23.3858C9.01414 23.472 8.94256 23.5342 8.85928 23.5342H7.0177Z" fill="black"/>
<path d="M10.5299 16.2176H11.5048C12.2832 16.2176 12.5536 16.3975 12.6455 16.5048C12.7979 16.6828 12.8267 17.0582 12.7287 17.5903C12.6186 18.186 12.4146 18.6084 12.1222 18.8456C11.8228 19.0884 11.336 19.2115 10.6756 19.2115H9.97759L10.5299 16.2176ZM12.2021 14.0791H8.66092C8.49435 14.0791 8.35114 14.2035 8.31936 14.3758L6.67632 23.281C6.65649 23.3885 6.68328 23.4996 6.74935 23.5841C6.81547 23.6687 6.91395 23.7175 7.01789 23.7175H8.8594C9.02604 23.7175 9.16924 23.5931 9.20103 23.4209L9.58313 21.3499H10.8736C11.6033 21.3499 12.2177 21.2661 12.6994 21.1008C13.1948 20.9313 13.6505 20.6438 14.0539 20.2464C14.3875 19.9231 14.6623 19.5602 14.8706 19.1676C15.0788 18.7749 15.2285 18.337 15.3153 17.8661C15.5308 16.6988 15.3557 15.7641 14.7951 15.0881C14.2399 14.4186 13.3675 14.0791 12.2021 14.0791ZM9.55541 19.5781H10.6756C11.418 19.5781 11.9711 19.4307 12.3344 19.1361C12.6979 18.8413 12.943 18.3494 13.0704 17.6601C13.1922 16.9983 13.1367 16.5312 12.9038 16.2592C12.6707 15.9871 12.2044 15.851 11.5048 15.851H10.2431L9.55541 19.5781ZM12.2021 14.4457C13.2674 14.4457 14.0446 14.7402 14.5331 15.3293C15.0215 15.9183 15.1686 16.7406 14.9737 17.7962C14.8935 18.231 14.7578 18.6286 14.5668 18.9888C14.3756 19.3492 14.1259 19.6788 13.8173 19.9776C13.4496 20.3401 13.0411 20.5984 12.5916 20.7523C12.1421 20.9065 11.5696 20.9833 10.8736 20.9833H9.2962L8.8594 23.3509H7.01789L8.66092 14.4457H12.2021Z" fill="#EFEAE3"/>
<path d="M19.3671 21.1667C19.3152 21.1667 19.2659 21.1423 19.2329 21.1C19.1998 21.0578 19.1864 21.0023 19.1963 20.9485L19.9231 17.0083C19.9923 16.6336 19.9752 16.3646 19.8752 16.251C19.8139 16.1815 19.6299 16.065 19.086 16.065H17.7692L16.8554 21.0184C16.8395 21.1045 16.7679 21.1667 16.6846 21.1667H14.8576C14.8056 21.1667 14.7564 21.1423 14.7233 21.1C14.6903 21.0578 14.6769 21.0022 14.6868 20.9485L16.3298 12.0432C16.3457 11.9571 16.4174 11.8949 16.5006 11.8949H18.3277C18.3796 11.8949 18.4289 11.9194 18.4619 11.9616C18.495 12.0039 18.5084 12.0594 18.4985 12.1132L18.102 14.2625H19.5185C20.5976 14.2625 21.3293 14.4629 21.7555 14.8752C22.1899 15.2958 22.3255 15.9684 22.1584 16.8743L21.394 21.0184C21.3781 21.1045 21.3065 21.1667 21.2232 21.1667H19.3671Z" fill="black"/>
<path d="M18.3278 11.7115H16.5008C16.3342 11.7115 16.191 11.8359 16.1592 12.0081L14.5162 20.9134C14.4963 21.0208 14.5231 21.132 14.5892 21.2165C14.6554 21.301 14.7539 21.3499 14.8578 21.3499H16.6848C16.8514 21.3499 16.9946 21.2255 17.0264 21.0532L17.9128 16.2481H19.0861C19.6292 16.2481 19.7432 16.3703 19.7477 16.3755C19.7807 16.4129 19.824 16.5858 19.7525 16.9731L19.0257 20.9134C19.0059 21.0208 19.0327 21.132 19.0988 21.2165C19.1649 21.301 19.2634 21.3499 19.3673 21.3499H21.2233C21.3899 21.3499 21.5332 21.2255 21.565 21.0532L22.3293 16.9092C22.5087 15.9364 22.3553 15.2067 21.8734 14.7401C21.4136 14.2953 20.6433 14.079 19.5186 14.079H18.3132L18.6695 12.148C18.6892 12.0405 18.6625 11.9293 18.5964 11.8449C18.5303 11.7604 18.4318 11.7115 18.3278 11.7115ZM18.3278 12.078L17.891 14.4456H19.5186C20.5428 14.4456 21.2491 14.634 21.6379 15.0101C22.0267 15.3864 22.1432 15.9963 21.9878 16.8393L21.2233 20.9833H19.3673L20.0941 17.0431C20.1768 16.5949 20.1464 16.2891 20.0028 16.1261C19.8592 15.9631 19.5536 15.8815 19.0861 15.8815H17.6259L16.6848 20.9833H14.8578L16.5008 12.078H18.3278Z" fill="#EFEAE3"/>
<path d="M25.0504 19.395C25.7502 19.395 26.2726 19.259 26.6031 18.991C26.9301 18.7259 27.156 18.2663 27.2744 17.6253C27.3848 17.0261 27.3427 16.6078 27.1494 16.382C26.9518 16.1514 26.5246 16.0345 25.8796 16.0345H24.7613L24.1413 19.395H25.0504ZM21.3928 23.5344C21.3408 23.5344 21.2915 23.51 21.2585 23.4677C21.2255 23.4255 21.212 23.3699 21.2219 23.3162L22.865 14.4109C22.8809 14.3248 22.9525 14.2626 23.0358 14.2626H26.577C27.6899 14.2626 28.5182 14.5809 29.039 15.2089C29.5624 15.84 29.724 16.7224 29.5194 17.8313C29.436 18.2831 29.2928 18.7026 29.0935 19.0783C28.8941 19.4543 28.6305 19.8023 28.3099 20.1127C27.9262 20.491 27.4919 20.7653 27.0202 20.9268C26.556 21.0861 25.9599 21.1668 25.2484 21.1668H23.8144L23.4051 23.3861C23.3892 23.4722 23.3176 23.5344 23.2343 23.5344H21.3928Z" fill="black"/>
<path d="M24.9029 16.2176H25.8778C26.6562 16.2176 26.9266 16.3975 27.0185 16.5048C27.171 16.6828 27.1997 17.0582 27.1017 17.5903C26.9916 18.186 26.7875 18.6084 26.4951 18.8456C26.1958 19.0884 25.709 19.2115 25.0486 19.2115H24.3506L24.9029 16.2176ZM26.5751 14.0791H23.034C22.8674 14.0791 22.7242 14.2035 22.6924 14.3758L21.0494 23.281C21.0295 23.3885 21.0563 23.4996 21.1224 23.5841C21.1885 23.6687 21.287 23.7175 21.3909 23.7175H23.2324C23.399 23.7175 23.5423 23.5931 23.5741 23.4209L23.9561 21.3499H25.2466C25.9763 21.3499 26.5907 21.2661 27.0724 21.1008C27.5678 20.9313 28.0236 20.6438 28.427 20.2463C28.7606 19.923 29.0353 19.5602 29.2436 19.1676C29.4518 18.7749 29.6015 18.337 29.6883 17.8661C29.9038 16.6988 29.7287 15.7641 29.1681 15.0881C28.6129 14.4186 27.7405 14.0791 26.5751 14.0791ZM23.9285 19.5781H25.0486C25.791 19.5781 26.3441 19.4307 26.7074 19.1361C27.0709 18.8413 27.316 18.3494 27.4433 17.6601C27.5653 16.9983 27.5098 16.5312 27.2768 16.2592C27.0437 15.9871 26.5774 15.851 25.8778 15.851H24.6161L23.9285 19.5781ZM26.5751 14.4457C27.6404 14.4457 28.4176 14.7402 28.9061 15.3293C29.3945 15.9183 29.5416 16.7406 29.3467 17.7962C29.2665 18.231 29.1308 18.6286 28.9398 18.9888C28.7486 19.3492 28.4989 19.6788 28.1903 19.9776C27.8226 20.3401 27.4141 20.5984 26.9646 20.7523C26.5151 20.9065 25.9426 20.9833 25.2466 20.9833H23.6692L23.2324 23.3509H21.3909L23.034 14.4457H26.5751Z" fill="#EFEAE3"/>
</g>
</g>
<defs>
<radialGradient id="paint0_radial_499_4124" cx="0" cy="0" r="1" gradientUnits="userSpaceOnUse" gradientTransform="translate(11.591 12.6127) scale(21.0575 22.1825)">
<stop stop-color="#AEB2D5"/>
<stop offset="0.3" stop-color="#AEB2D5"/>
<stop offset="0.75" stop-color="#484C89"/>
<stop offset="1" stop-color="#484C89"/>
</radialGradient>
<clipPath id="clip0_499_4124">
<rect width="33" height="18.75" fill="white" transform="translate(1.5 9)"/>
</clipPath>
</defs>
</svg>
