<svg width="36" height="36" viewBox="0 0 36 36" fill="none" xmlns="http://www.w3.org/2000/svg">
<path d="M25.0595 24.6533C25.2453 23.1063 25.1894 22.8806 26.3408 23.1303L26.6338 23.1565C27.5195 23.1964 28.6777 23.014 29.3697 22.6982C30.8346 22.0188 31.7032 20.8834 30.2589 21.1821C26.9644 21.8615 26.725 20.7455 26.725 20.7455C30.2053 15.5814 31.661 9.02656 30.4037 7.42262C26.9792 3.04514 21.0502 5.11533 20.951 5.17004L20.9191 5.17574C20.2693 5.03895 19.5511 4.95915 18.719 4.94775C17.2279 4.92495 16.097 5.33876 15.2375 5.98968C15.2375 5.98968 4.662 1.63272 5.15332 11.4695C5.2582 13.5625 8.15144 27.3151 11.6056 23.1542C12.8698 21.6335 14.0895 20.3487 14.0895 20.3487C14.6937 20.7512 15.4199 20.9563 16.1803 20.8822L16.2395 20.8321C16.222 21.0291 16.23 21.2276 16.2635 21.4226C15.3743 22.4166 15.6365 22.5911 13.8581 22.957C12.0593 23.3275 13.1172 23.9875 13.8057 24.1608C14.6424 24.3706 16.5781 24.6669 17.8868 22.8362L17.8343 23.0448C18.1832 23.3241 18.1592 25.0511 18.2105 26.2846C18.2618 27.518 18.3428 28.6705 18.5947 29.3488C18.8466 30.0271 19.1419 31.7769 21.4788 31.2868C23.4316 30.8684 24.925 30.2653 25.0618 24.6635" fill="black"/>
<path d="M25.0595 24.6533C25.2453 23.1063 25.1894 22.8806 26.3408 23.1303L26.6338 23.1565C27.5195 23.1964 28.6777 23.014 29.3697 22.6982C30.8346 22.0188 31.7032 20.8834 30.2589 21.1821C26.9644 21.8615 26.725 20.7455 26.725 20.7455C30.2053 15.5814 31.661 9.02656 30.4037 7.42262C26.9792 3.04514 21.0502 5.11533 20.951 5.17004L20.9191 5.17574C20.2693 5.03895 19.5511 4.95915 18.719 4.94775C17.2279 4.92495 16.097 5.33876 15.2375 5.98968C15.2375 5.98968 4.662 1.63272 5.15332 11.4695C5.2582 13.5625 8.15144 27.3151 11.6056 23.1542C12.8698 21.6335 14.0895 20.3487 14.0895 20.3487C14.6937 20.7512 15.4199 20.9563 16.1803 20.8822L16.2395 20.8321C16.222 21.0291 16.23 21.2276 16.2635 21.4226C15.3743 22.4166 15.6365 22.5911 13.8581 22.957C12.0593 23.3275 13.1172 23.9875 13.8057 24.1608C14.6424 24.3706 16.5781 24.6669 17.8868 22.8362L17.8343 23.0448C18.1832 23.3241 18.1592 25.0511 18.2105 26.2846C18.2618 27.518 18.3428 28.6705 18.5947 29.3488C18.8466 30.0271 19.1419 31.7769 21.4788 31.2868C23.4316 30.8684 24.925 30.2653 25.0618 24.6635" stroke="black" stroke-width="3.37"/>
<path d="M30.2489 21.1921C26.9543 21.8715 26.715 20.7555 26.715 20.7555C30.1953 15.5914 31.651 9.03662 30.3948 7.43269C26.9703 3.0552 21.0413 5.12653 20.9421 5.18011L20.9102 5.18581C20.1861 5.0405 19.4498 4.96378 18.7112 4.95667C17.2201 4.93387 16.0893 5.34768 15.2298 5.9986C15.2298 5.9986 4.65312 1.64164 5.14559 11.4784C5.25046 13.5714 8.14371 27.324 11.5978 23.1631C12.87 21.6333 14.0898 20.3485 14.0898 20.3485C14.694 20.7509 15.4201 20.9561 16.1805 20.882L16.2398 20.8319C16.2224 21.0289 16.2304 21.2274 16.2637 21.4224C15.3745 22.4164 15.6367 22.5909 13.8584 22.9568C12.0595 23.3273 13.1174 23.9873 13.8059 24.1606C14.6427 24.3704 16.5783 24.6667 17.887 22.836L17.8346 23.0446C18.1834 23.3239 18.4274 24.8605 18.3863 26.2536C18.3453 27.6466 18.3179 28.6019 18.5915 29.3497C18.8651 30.0976 19.1387 31.7779 21.4757 31.2877C23.4284 30.8693 24.4396 29.7829 24.5821 27.9749C24.6824 26.6891 24.9081 26.8783 24.9241 25.7292L25.1065 25.1843C25.3151 23.4401 25.1407 22.8781 26.3433 23.1403L26.6363 23.1665C27.5221 23.2064 28.6814 23.024 29.3608 22.7083C30.8257 22.0289 31.6932 20.8934 30.2489 21.1921Z" fill="#336791"/>
<path d="M18.0269 22.1806C17.9357 25.425 18.0497 28.6922 18.3666 29.4765C18.6835 30.2608 19.3641 31.8134 21.7022 31.3141C23.6549 30.8957 24.3663 30.0852 24.6741 28.2966L25.3957 22.5774M15.2249 5.9167C15.2249 5.9167 4.64139 1.58937 5.13386 11.4262C5.23873 13.5192 8.13198 27.2718 11.5861 23.1109C12.8469 21.5913 13.9869 20.4023 13.9869 20.4023M20.9407 5.1267C20.5759 5.24069 26.8275 2.84106 30.3819 7.38156C31.6359 8.98549 30.1824 15.5403 26.7021 20.7044" stroke="#EFEAE3" stroke-width="1.79" stroke-linecap="round" stroke-linejoin="round"/>
<path d="M26.7036 20.7022C26.7036 20.7022 26.9316 21.8194 30.2375 21.1377C31.6818 20.839 30.812 21.9745 29.3483 22.6539C28.1468 23.2125 25.4519 23.355 25.4074 22.5855C25.2934 20.5962 26.8256 21.2004 26.715 20.7022C26.6147 20.2531 25.9284 19.8131 25.477 18.7141C25.0814 17.7566 20.0507 10.4038 26.8723 11.4947C27.1231 11.4434 25.0939 4.99688 18.7101 4.90341C12.3263 4.80993 12.5281 12.7521 12.5281 12.7521" stroke="#EFEAE3" stroke-width="1.79" stroke-linecap="round" stroke-linejoin="bevel"/>
<path d="M16.2414 21.3839C15.3523 22.378 15.6144 22.5524 13.8361 22.9183C12.0372 23.2888 13.0951 23.9488 13.7837 24.1221C14.6204 24.3319 16.5561 24.6283 17.8647 22.7963C18.2637 22.2378 17.8625 21.3486 17.3153 21.1229C17.0508 21.0134 16.6974 20.8766 16.2437 21.3851L16.2414 21.3839Z" stroke="#EFEAE3" stroke-width="1.79" stroke-linejoin="round"/>
<path d="M16.1836 21.3668C16.0924 20.782 16.3751 20.0878 16.6772 19.2738C17.1309 18.0541 18.1774 16.8343 17.3406 12.9618C16.7171 10.0777 12.53 12.361 12.53 12.7521C12.53 13.1431 12.7192 14.7356 12.4616 16.588C12.123 19.0071 14.0005 21.0522 16.1619 20.8436" stroke="#EFEAE3" stroke-width="1.79" stroke-linecap="round" stroke-linejoin="round"/>
<path d="M15.1865 12.694C15.1672 12.8273 15.4316 13.1842 15.7748 13.232C16.1179 13.2799 16.4109 13.0018 16.4303 12.8672C16.4496 12.7327 16.1852 12.5868 15.842 12.5389C15.4989 12.4911 15.2036 12.5617 15.1865 12.694Z" fill="#EFEAE3" stroke="#EFEAE3" stroke-width="0.5975"/>
<path d="M25.6312 12.4215C25.6495 12.5549 25.3861 12.9117 25.043 12.9596C24.6999 13.0075 24.4046 12.7293 24.3875 12.5948C24.3704 12.4603 24.6326 12.3144 24.9757 12.2665C25.3189 12.2186 25.6141 12.2893 25.6312 12.4215Z" fill="#EFEAE3" stroke="#EFEAE3" stroke-width="0.2975"/>
<path d="M26.858 11.4971C26.915 12.5458 26.6323 13.2583 26.5958 14.3744C26.5434 15.9954 27.3687 17.8513 26.125 19.7094" stroke="#EFEAE3" stroke-width="1.79" stroke-linecap="round" stroke-linejoin="round"/>
</svg>
