<svg width="36" height="36" viewBox="0 0 36 36" fill="none" xmlns="http://www.w3.org/2000/svg">
<path d="M17.6937 4.50022C16.5925 4.50534 15.5409 4.59925 14.6156 4.76298C11.8898 5.24454 11.3949 6.25249 11.3949 8.11133V10.5663H17.8363V11.3846H11.3949H8.97748C7.10542 11.3846 5.46619 12.5098 4.95346 14.6504C4.36203 17.1039 4.3358 18.635 4.95346 21.1969C5.41134 23.1039 6.50482 24.4626 8.37688 24.4626H10.5916V21.5197C10.5916 19.3936 12.4311 17.5182 14.6156 17.5182H21.0495C22.8405 17.5182 24.2702 16.0436 24.2702 14.2449V8.11133C24.2702 6.36566 22.7976 5.05433 21.0495 4.76298C19.943 4.57879 18.7949 4.4951 17.6937 4.50022ZM14.2102 6.47469C14.8756 6.47469 15.4189 7.02692 15.4189 7.70592C15.4189 8.38252 14.8756 8.92964 14.2102 8.92964C13.5425 8.92964 13.0015 8.38252 13.0015 7.70592C13.0015 7.02692 13.5425 6.47469 14.2102 6.47469Z" fill="url(#paint0_linear_499_4175)"/>
<path d="M25.0732 11.3843V14.2446C25.0732 16.4622 23.1931 18.3287 21.0492 18.3287H14.6152C12.8529 18.3287 11.3945 19.837 11.3945 21.602V27.7356C11.3945 29.4813 12.9125 30.508 14.6152 31.0089C16.6542 31.6084 18.6095 31.7168 21.0492 31.0089C22.6708 30.5393 24.2699 29.5944 24.2699 27.7356V25.2806H17.836V24.4623H24.2699H27.4906C29.3627 24.4623 30.0603 23.1565 30.7113 21.1966C31.3838 19.1788 31.3552 17.2384 30.7113 14.65C30.2487 12.7864 29.365 11.3843 27.4906 11.3843H25.0732ZM21.4546 26.9173C22.1223 26.9173 22.6633 27.4644 22.6633 28.141C22.6633 28.82 22.1223 29.3722 21.4546 29.3722C20.7892 29.3722 20.2459 28.82 20.2459 28.141C20.2459 27.4644 20.7892 26.9173 21.4546 26.9173Z" fill="url(#paint1_linear_499_4175)"/>
<defs>
<linearGradient id="paint0_linear_499_4175" x1="4.5" y1="4.5" x2="19.3532" y2="17.157" gradientUnits="userSpaceOnUse">
<stop stop-color="#5A9FD4"/>
<stop offset="1" stop-color="#306998"/>
</linearGradient>
<linearGradient id="paint1_linear_499_4175" x1="21.2998" y1="27.9346" x2="15.971" y2="20.4674" gradientUnits="userSpaceOnUse">
<stop stop-color="#FFD43B"/>
<stop offset="1" stop-color="#FFE873"/>
</linearGradient>
</defs>
</svg>
