<svg width="36" height="36" viewBox="0 0 36 36" fill="none" xmlns="http://www.w3.org/2000/svg">
<path d="M20.0656 15.7211C19.6072 15.4227 19.072 15.2641 18.5251 15.2646C17.7937 15.2636 17.0909 15.5482 16.5663 16.0578C16.1138 16.4954 15.8309 17.0792 15.7678 17.7056C15.7047 18.3319 15.8655 18.9604 16.2217 19.4794C16.5292 19.9274 16.962 20.2746 17.466 20.4775C17.9738 20.6828 18.5302 20.7364 19.0679 20.6319C19.6027 20.5283 20.0956 20.2705 20.4858 19.8903C20.872 19.5141 21.1362 19.0307 21.2444 18.5026C21.3515 17.9768 21.2966 17.4309 21.0869 16.937C20.8748 16.4392 20.5192 16.0159 20.0656 15.7211Z" fill="#61DAFB"/>
<path fill-rule="evenodd" clip-rule="evenodd" d="M19.4208 28.9427C21.3807 30.5915 23.3009 31.4994 24.8272 31.4994C25.3337 31.5096 25.8342 31.3874 26.279 31.1449C27.0896 30.6864 27.6568 29.7585 27.9191 28.4614C28.1724 26.9407 28.1262 25.3852 27.7832 23.8822C27.7297 23.6226 27.667 23.3469 27.5965 23.0712C27.8069 23.0105 27.9955 22.9526 28.1743 22.8947C29.7199 22.4372 31.1681 21.6989 32.4464 20.717C33.4949 19.8469 34.049 18.9 34.049 17.9736C34.049 17.0878 33.5307 16.1803 32.546 15.3504C31.3461 14.4114 29.9845 13.6999 28.5284 13.251C28.2177 13.1462 27.8813 13.0427 27.5288 12.943C27.5846 12.722 27.636 12.5 27.6832 12.277C28.0498 10.7358 28.1189 9.13878 27.8868 7.57168C27.6402 6.25022 27.0766 5.30728 26.2558 4.84447C25.8209 4.60886 25.3323 4.49037 24.8378 4.50061C23.2891 4.50061 21.3268 5.44592 19.3097 7.1589C19.0465 7.38367 18.7889 7.61482 18.5369 7.85212C18.3557 7.68236 18.1876 7.53033 18.0229 7.38774C17.0858 6.55263 16.045 5.84173 14.9262 5.27261C14.0787 4.82177 13.1402 4.56811 12.1809 4.53055C11.6724 4.52078 11.1701 4.64364 10.7236 4.88701C9.93778 5.32776 9.39422 6.22265 9.15238 7.46731C8.92185 8.94731 8.9741 10.4576 9.30639 11.9181C9.37282 12.2556 9.44939 12.5909 9.53602 12.9237C9.13544 13.0364 8.74787 13.1553 8.38708 13.2782C6.96023 13.7236 5.62881 14.4309 4.4609 15.3638C4.04309 15.6701 3.69565 16.0622 3.44193 16.5139C3.19035 16.9629 3.03954 17.4613 3 17.9744C3 18.8902 3.53764 19.8343 4.55424 20.7056C5.77926 21.6851 7.17791 22.425 8.67697 22.8865C8.9549 22.9789 9.23503 23.0645 9.51711 23.1433C9.42298 23.51 9.34066 23.8767 9.27291 24.2264C8.95497 25.6608 8.91673 27.143 9.16026 28.5918C9.22477 29.1025 9.39948 29.593 9.6723 30.0295C9.94733 30.4693 10.3131 30.8453 10.7452 31.1323C11.2 31.3768 11.7104 31.4989 12.2266 31.4868C13.8372 31.4868 15.918 30.4994 17.9335 28.7777C18.1543 28.5886 18.3703 28.3941 18.5814 28.1944C18.8542 28.4516 19.1341 28.7012 19.4208 28.9427ZM26.3114 23.4005C24.9261 23.7052 23.5219 23.9166 22.1082 24.033C21.3148 25.1673 20.4454 26.2464 19.5059 27.2629C19.767 27.5086 20.0297 27.7426 20.2865 27.9588C21.9586 29.365 23.6534 30.2039 24.8205 30.2039C25.0965 30.2131 25.3702 30.1507 25.6149 30.0228C26.0907 29.7533 26.4523 29.0861 26.6296 28.1388C26.8321 26.8063 26.7815 25.4476 26.4803 24.1339C26.4301 23.8881 26.3737 23.6435 26.3114 23.4005ZM10.5778 24.4624C10.6428 24.1245 10.7179 23.7886 10.8031 23.4552L10.8027 23.4596C12.1825 23.7476 13.5799 23.9438 14.9857 24.0468C15.8023 25.1772 16.6927 26.2523 17.6511 27.2652C17.4542 27.4523 17.2541 27.6319 17.0603 27.7973C16.0409 28.7119 14.863 29.4327 13.5847 29.9243C13.1494 30.0855 12.6906 30.1741 12.2266 30.1866C11.943 30.1969 11.6616 30.1341 11.4093 30.0042C10.3809 29.4252 10.0469 27.1975 10.5778 24.4624ZM18.5747 26.3329C17.9473 25.67 17.3187 24.9354 16.707 24.1477L16.7062 24.1469C17.3017 24.1697 17.9044 24.1811 18.5228 24.1811C19.1411 24.1811 19.7721 24.1689 20.3972 24.1418C19.8275 24.9028 19.2192 25.6341 18.5747 26.3329ZM15.6963 13.2128C16.6371 13.1437 17.5802 13.1092 18.5235 13.1092L18.5243 13.1124C19.4694 13.1133 20.4142 13.1465 21.3571 13.2116C21.8842 13.9709 22.3826 14.7496 22.8515 15.5461C23.3246 16.3428 23.7713 17.1549 24.1907 17.9811C23.7854 18.7984 23.3387 19.6204 22.8562 20.4377C22.3737 21.255 21.8747 22.0451 21.3673 22.7864C20.4402 22.851 19.4799 22.8841 18.5235 22.8841C17.5672 22.8841 16.6211 22.8526 15.7124 22.7975C15.1795 22.0388 14.6698 21.2471 14.1948 20.4452C13.7198 19.6433 13.2739 18.8209 12.8698 18.0004C13.2763 17.174 13.7178 16.3548 14.1909 15.5552C14.6639 14.7556 15.1708 13.9655 15.6963 13.2128ZM11.1604 22.2078C11.4506 21.2987 11.7864 20.4047 12.1667 19.5294L12.1675 19.5302C12.7351 20.6023 13.3542 21.6462 14.0227 22.6584C13.0616 22.5562 12.1063 22.4058 11.1604 22.2078ZM24.907 19.4844C24.6221 20.0214 24.3195 20.5616 24.0059 21.0904C23.692 21.6198 23.3734 22.1373 23.0527 22.6332C24.0259 22.5219 24.9927 22.3609 25.9493 22.1507C25.6491 21.2442 25.3012 20.3541 24.907 19.4844ZM8.82192 14.5043C9.16013 14.3891 9.51711 14.2789 9.89287 14.1739L9.88972 14.1751C10.3077 15.4851 10.8134 16.7654 11.4034 18.0075C10.8061 19.2673 10.2942 20.5658 9.87121 21.8943C9.60298 21.8175 9.34538 21.7387 9.10512 21.6599C7.79344 21.2583 6.5659 20.6211 5.48262 19.7796C4.73582 19.1541 4.32422 18.514 4.32422 17.9756C4.32422 16.8184 6.13094 15.4205 8.82192 14.5043ZM25.6642 17.9811C26.2532 16.7542 26.758 15.4887 27.1751 14.1932L27.1763 14.1944C27.486 14.2821 27.7938 14.3771 28.0991 14.4791C29.3131 14.8588 30.4578 15.4322 31.4888 16.1771C32.2853 16.7943 32.724 17.4313 32.724 17.976C32.724 18.557 32.2514 19.2364 31.3935 19.8887C30.2869 20.6761 29.0588 21.2771 27.758 21.6678C27.5851 21.7218 27.4094 21.7753 27.2365 21.8254C26.8018 20.5092 26.2764 19.2247 25.6642 17.9811ZM24.004 14.9029C23.7015 14.3941 23.384 13.8816 23.0587 13.3857L23.0575 13.3853C24.0087 13.5014 24.9538 13.6623 25.8899 13.8674C25.6038 14.7554 25.2723 15.628 24.8969 16.482C24.6104 15.9494 24.3127 15.423 24.004 14.9029ZM11.1813 13.8584C12.0667 13.6646 13.012 13.5039 13.9967 13.3857L13.9943 13.3861C13.6658 13.886 13.3429 14.4043 13.0419 14.9152C12.741 15.426 12.448 15.9538 12.1659 16.4844C11.7952 15.6256 11.4666 14.7492 11.1813 13.8584ZM20.1829 8.1369C21.9077 6.6701 23.6467 5.7945 24.8307 5.7945C25.0957 5.78531 25.3586 5.84459 25.594 5.96663C26.1089 6.25652 26.4748 6.99583 26.624 8.04828C26.7694 9.37468 26.6884 10.7161 26.3846 12.0154C26.3433 12.2177 26.2968 12.4189 26.2451 12.6188C24.8766 12.3159 23.4899 12.1018 22.0937 11.978C21.2923 10.8528 20.4155 9.78336 19.4692 8.77695C19.7071 8.55362 19.9466 8.33817 20.1829 8.1369ZM11.3853 6.00641C11.633 5.87722 11.9099 5.81426 12.1892 5.82365C12.964 5.87176 13.7181 6.09261 14.3965 6.47001C15.3858 6.98514 16.3084 7.61926 17.1438 8.35826C17.2905 8.48495 17.4399 8.62219 17.608 8.77659L17.6101 8.77853C16.6582 9.78486 15.7745 10.8536 14.9648 11.9776C13.5718 12.0998 12.188 12.3103 10.8216 12.6078C10.7405 12.2884 10.6692 11.9737 10.6082 11.6712C10.3351 10.4514 10.2686 9.19439 10.4112 7.95256C10.5581 6.97062 10.9028 6.28212 11.3853 6.00641ZM20.3661 11.8598C19.7477 11.8315 19.1281 11.8173 18.5243 11.8173C17.9149 11.8166 17.3055 11.8303 16.6967 11.8587C17.2751 11.1106 17.8899 10.3914 18.5389 9.70375C19.184 10.3911 19.7938 11.1107 20.3661 11.8598Z" fill="#61DAFB"/>
</svg>
