<svg width="36" height="36" viewBox="0 0 36 36" fill="none" xmlns="http://www.w3.org/2000/svg">
<g clip-path="url(#clip0_499_4222)">
<mask id="mask0_499_4222" style="mask-type:luminance" maskUnits="userSpaceOnUse" x="3" y="6" width="30" height="24">
<path d="M32.2322 6.00195H3.75195V29.9809H32.2322V6.00195Z" fill="white"/>
</mask>
<g mask="url(#mask0_499_4222)">
<path d="M31.1118 24.4888C29.5946 25.2685 21.7208 28.4503 20.0247 29.3236C18.3286 30.1969 17.4202 30.172 16.0936 29.5491C14.7671 28.9261 6.41675 25.5895 4.90346 24.8786C4.14097 24.527 3.75195 24.227 3.75195 23.9461V21.1159C3.75195 21.1159 14.6601 18.7902 16.4204 18.1634C18.1807 17.5366 18.7896 17.5214 20.2853 18.0603C21.7811 18.5992 30.7481 20.1891 32.2283 20.7165V23.5065C32.2283 23.797 31.8879 24.0798 31.1118 24.4869V24.4888Z" fill="#A32422"/>
<path d="M31.1118 21.6719C29.5946 22.4477 21.7208 25.6295 20.0247 26.4876C18.3286 27.3456 17.4202 27.3379 16.0936 26.7169C14.7671 26.0958 6.41674 22.7592 4.90344 22.0541C3.39015 21.3489 3.36098 20.8559 4.84509 20.2864C6.32921 19.717 14.6601 16.5122 16.4204 15.8816C18.1807 15.251 18.7895 15.2376 20.2853 15.7784C21.7811 16.3192 29.6218 19.3787 31.0943 19.9119C32.5667 20.445 32.6348 20.8827 31.1118 21.6566V21.6719Z" fill="#DC382C"/>
<path d="M31.1118 19.8795C29.5946 20.6573 21.7208 23.8372 20.0247 24.6952C18.3286 25.5532 17.428 25.5456 16.1014 24.9207C14.7749 24.2958 6.41675 20.9784 4.90346 20.2694C4.14097 19.9139 3.75195 19.6158 3.75195 19.333V16.5124C3.75195 16.5124 14.6601 14.1791 16.4204 13.5523C18.1807 12.9255 18.7896 12.9083 20.2853 13.4548C21.7811 14.0014 30.7481 15.576 32.2283 16.1073V18.8973C32.2283 19.1878 31.8879 19.4782 31.1118 19.8795Z" fill="#A32422"/>
<path d="M31.111 17.0493C29.5939 17.829 21.7201 21.0088 20.024 21.8669C18.3278 22.7249 17.4195 22.7192 16.0929 22.0962C14.7663 21.4732 6.416 18.15 4.9027 17.4391C3.38941 16.7282 3.36218 16.2448 4.84435 15.6753C6.32652 15.1058 14.6593 11.8935 16.4197 11.28C18.18 10.6666 18.7888 10.6284 20.2846 11.1616C21.7804 11.6947 29.6211 14.781 31.0935 15.2988C32.566 15.8167 32.6341 16.2715 31.111 17.0436V17.0493Z" fill="#DC382C"/>
<path d="M31.1118 15.0963C29.5946 15.876 21.7208 19.0578 20.0247 19.9139C18.3286 20.77 17.428 20.7643 16.1014 20.1432C14.7749 19.5222 6.41675 16.1951 4.90346 15.4862C4.14097 15.1345 3.75195 14.8345 3.75195 14.5517V11.7215C3.75195 11.7215 14.6601 9.39587 16.4204 8.77098C18.1807 8.14609 18.7896 8.12698 20.2853 8.66587C21.7811 9.20477 30.7442 10.7947 32.2244 11.326V14.116C32.2283 14.4103 31.8879 14.6969 31.1118 15.0963Z" fill="#A32422"/>
<path d="M31.1118 12.2699C29.5946 13.0343 21.7208 16.2352 20.0247 17.0856C18.3286 17.936 17.4202 17.9341 16.0936 17.3149C14.7671 16.6957 6.41674 13.3649 4.90344 12.6578C3.39015 11.9508 3.36098 11.4597 4.84509 10.8902C6.32921 10.3207 14.6601 7.11027 16.4204 6.48729C18.1807 5.86431 18.7895 5.8452 20.2853 6.38409C21.7811 6.92299 29.6218 9.98629 31.0943 10.5175C32.5667 11.0488 32.6348 11.4902 31.1118 12.2642V12.2699Z" fill="#DC382C"/>
</g>
<path d="M18.4388 8.25112L20.3178 7.64534L19.8081 8.84162L21.7202 9.54486L19.2557 9.79711L18.7014 11.1042L17.8105 9.64614L14.9609 9.39389L17.0889 8.64096L16.4489 7.48291L18.4388 8.25112Z" fill="#EFEAE3"/>
<path d="M18.5552 15.8819L13.9492 14.0034L20.547 13.0078L18.5552 15.8819Z" fill="#EFEAE3"/>
<path d="M12.169 10.271C14.1142 10.271 15.6955 10.873 15.6955 11.6087C15.6955 12.3444 14.1103 12.9464 12.169 12.9464C10.2278 12.9464 8.64062 12.3444 8.64062 11.6087C8.64062 10.873 10.222 10.271 12.169 10.271Z" fill="#EFEAE3"/>
<path d="M24.6387 9.90234L28.5425 11.4178L24.6426 12.9332L24.6387 9.90234Z" fill="#741113"/>
<path d="M24.6384 9.90234L24.6423 12.9332L24.2183 13.0956L20.3164 11.5802L24.6384 9.90234Z" fill="#AC2724"/>
</g>
<defs>
<clipPath id="clip0_499_4222">
<rect width="28.5" height="24" fill="white" transform="translate(3.75 6)"/>
</clipPath>
</defs>
</svg>
