<svg width="36" height="36" viewBox="0 0 36 36" fill="none" xmlns="http://www.w3.org/2000/svg">
<path d="M28.8633 4.5H7.13672C5.6805 4.5 4.5 5.6805 4.5 7.13672V28.8633C4.5 30.3195 5.6805 31.5 7.13672 31.5H28.8633C30.3195 31.5 31.5 30.3195 31.5 28.8633V7.13672C31.5 5.6805 30.3195 4.5 28.8633 4.5Z" fill="#3178C6"/>
<path d="M28.8633 4.5H7.13672C5.6805 4.5 4.5 5.6805 4.5 7.13672V28.8633C4.5 30.3195 5.6805 31.5 7.13672 31.5H28.8633C30.3195 31.5 31.5 30.3195 31.5 28.8633V7.13672C31.5 5.6805 30.3195 4.5 28.8633 4.5Z" fill="#3178C6"/>
<path fill-rule="evenodd" clip-rule="evenodd" d="M21.2136 25.9853V28.6252C21.6427 28.8452 22.1503 29.0101 22.7363 29.1202C23.3223 29.2302 23.9398 29.2852 24.5891 29.2852C25.2219 29.2852 25.8229 29.2247 26.3924 29.1036C26.9619 28.9827 27.4612 28.7833 27.8904 28.5055C28.3195 28.2278 28.6593 27.8648 28.9096 27.4166C29.16 26.9683 29.2852 26.4142 29.2852 25.7543C29.2852 25.2758 29.2136 24.8564 29.0706 24.4962C28.9275 24.136 28.7212 23.8156 28.4516 23.5351C28.182 23.2546 27.8587 23.003 27.4819 22.7802C27.105 22.5575 26.6799 22.3471 26.2067 22.1491C25.8601 22.0061 25.5492 21.8673 25.2741 21.7325C24.999 21.5977 24.7652 21.4603 24.5726 21.3201C24.38 21.1798 24.2315 21.0313 24.1269 20.8746C24.0224 20.7178 23.9701 20.5404 23.9701 20.3424C23.9701 20.1609 24.0169 19.9973 24.1104 19.8516C24.204 19.7058 24.336 19.5807 24.5066 19.4762C24.6772 19.3717 24.8862 19.2906 25.1338 19.2328C25.3814 19.1751 25.6565 19.1462 25.9591 19.1462C26.1792 19.1462 26.4117 19.1627 26.6565 19.1957C26.9014 19.2287 27.1476 19.2796 27.3952 19.3483C27.6428 19.4171 27.8835 19.5037 28.1174 19.6082C28.3512 19.7127 28.5671 19.8337 28.7652 19.9712V17.5045C28.3636 17.3505 27.9248 17.2364 27.4488 17.1622C26.9729 17.0879 26.4268 17.0508 25.8106 17.0508C25.1833 17.0508 24.5891 17.1182 24.0279 17.2529C23.4667 17.3876 22.9729 17.598 22.5464 17.884C22.12 18.17 21.7831 18.5344 21.5355 18.9771C21.2879 19.4198 21.1641 19.9492 21.1641 20.5652C21.1641 21.3516 21.391 22.0226 21.845 22.5781C22.2989 23.1336 22.988 23.6038 23.9124 23.9888C24.2755 24.1373 24.6139 24.283 24.9275 24.4261C25.2411 24.5691 25.5121 24.7176 25.7404 24.8716C25.9687 25.0255 26.1489 25.1933 26.281 25.3748C26.4131 25.5563 26.4791 25.7625 26.4791 25.9935C26.4791 26.164 26.4378 26.3221 26.3553 26.4679C26.2728 26.6136 26.1476 26.7401 25.9798 26.8474C25.812 26.9546 25.6029 27.0385 25.3525 27.0989C25.1022 27.1595 24.8092 27.1897 24.4736 27.1897C23.9013 27.1897 23.3347 27.0893 22.7734 26.8886C22.2122 26.6879 21.6922 26.3868 21.2136 25.9853ZM16.7755 19.4809H20.1621V17.3145H10.7227V19.4809H14.0927V29.127H16.7755V19.4809Z" fill="#EFEAE3"/>
</svg>
