<svg width="36" height="36" viewBox="0 0 36 36" fill="none" xmlns="http://www.w3.org/2000/svg">
<g clip-path="url(#clip0_499_4348)">
<g clip-path="url(#clip1_499_4348)">
<path d="M7.35999 12.6636H13.68L12.7021 16.5161C12.5677 17.0301 12.273 17.4846 11.8632 17.8099C11.4557 18.1348 10.9526 18.3072 10.437 18.2986H7.49981C6.86023 18.2895 6.23632 18.5022 5.72873 18.9024C5.20869 19.3163 4.83136 19.8906 4.6521 20.5411C4.52261 21.0192 4.50822 21.5224 4.61015 22.0074C4.7038 22.4497 4.88846 22.8664 5.15173 23.2293C5.41848 23.5887 5.76321 23.8791 6.15845 24.0774C6.57546 24.2899 7.03535 24.3982 7.50075 24.3936H9.29047C9.45029 24.3908 9.60848 24.4271 9.75193 24.4996C9.89538 24.5721 10.02 24.6787 10.1154 24.8105C10.22 24.9378 10.2919 25.0901 10.3244 25.2533C10.357 25.4165 10.3492 25.5855 10.3019 25.7449L9.18328 29.9999H7.22576C5.93732 30.0131 4.66527 29.7022 3.52047 29.0943C2.42108 28.5174 1.45944 27.6976 0.704445 26.6936C-0.0441113 25.6907 -0.564859 24.5283 -0.81962 23.2916C-1.08989 21.9923 -1.05603 20.6456 -0.720812 19.3624L-0.608954 18.9311C-0.135913 17.1299 0.900489 15.5387 2.34037 14.403C3.04648 13.8526 3.83305 13.4208 4.67074 13.1236C5.53549 12.8154 6.44475 12.6599 7.35999 12.6636Z" fill="#FF6C2C"/>
<path d="M10.5488 29.9999L16.0588 8.78241C16.1932 8.2684 16.4879 7.81392 16.8977 7.48866C17.3048 7.16365 17.8076 6.99122 18.323 6.99991H24.1685C25.4569 6.9868 26.7289 7.2977 27.8738 7.90553C28.972 8.48159 29.9319 9.30151 30.684 10.3059C31.4361 11.3104 31.9615 12.4741 32.2222 13.713C32.5021 15.0121 32.4637 16.3622 32.1104 17.6422L31.9985 18.0735C31.7627 18.9785 31.3849 19.8379 30.8799 20.6178C30.1327 21.7742 29.1184 22.7221 27.9277 23.3769C26.737 24.0316 25.4069 24.3727 24.0566 24.3697H18.995L20.0018 20.4885C20.1417 19.9849 20.4359 19.5413 20.8407 19.2235C21.2482 18.8985 21.7512 18.7261 22.2669 18.7347H23.8888C24.5421 18.7354 25.177 18.5126 25.6934 18.1014C26.2099 17.6901 26.5785 17.1139 26.7412 16.4635C26.8699 16.0031 26.8827 15.5167 26.7785 15.0499C26.6837 14.6072 26.4978 14.1906 26.2332 13.828C25.9643 13.467 25.6203 13.1724 25.2265 12.9655C24.8135 12.7448 24.3543 12.6313 23.8888 12.6349H20.7568L16.674 28.2462C16.5341 28.7497 16.2399 29.1933 15.835 29.5112C15.4367 29.8329 14.9434 30.0053 14.4368 29.9999H10.5488Z" fill="#FF6C2C"/>
<path d="M32.6662 10.0962H32.3204V7.35533H31.3789V7.04004H33.6077V7.35533H32.6662V10.0962Z" fill="#FF6C2C"/>
<path d="M35.3719 10.0962L34.3633 7.38312H34.3475C34.3661 7.59779 34.3754 7.85334 34.3754 8.14979V10.0962H34.0566V7.04004H34.5768L35.5183 9.56046H35.535L36.484 7.04004H37.0004V10.0962H36.6592V8.12679C36.6592 7.90062 36.6695 7.65625 36.6881 7.39079H36.6723L35.6506 10.0962H35.3719Z" fill="#FF6C2C"/>
</g>
</g>
<defs>
<clipPath id="clip0_499_4348">
<rect width="36" height="36" rx="18" fill="white"/>
</clipPath>
<clipPath id="clip1_499_4348">
<rect width="38" height="23" fill="white" transform="translate(-1 7)"/>
</clipPath>
</defs>
</svg>
