<svg width="36" height="36" viewBox="0 0 36 36" fill="none" xmlns="http://www.w3.org/2000/svg">
<path fill-rule="evenodd" clip-rule="evenodd" d="M10.8104 3C9.89211 3.00193 8.99322 3.51883 8.53096 4.30738L1.3413 16.6926C0.886234 17.4833 0.886234 18.5167 1.3413 19.3074L8.53096 31.6926C8.99327 32.4812 9.89211 32.9982 10.8104 33H25.1896C26.1079 32.9981 27.0067 32.4812 27.4691 31.6926L34.6587 19.3074C35.1138 18.5167 35.1137 17.4833 34.6587 16.6926L27.4691 4.30738C27.0067 3.51883 26.1079 3.00179 25.1896 3H10.8104ZM10.9409 10.2455C10.9606 10.2436 10.9813 10.2436 11.0012 10.2455H13.4814C13.5911 10.2478 13.6976 10.3107 13.7525 10.4052L17.9598 17.8403C17.981 17.8771 17.9947 17.918 17.9998 17.9601C18.005 17.918 18.0187 17.8771 18.0398 17.8403L22.2372 10.4052C22.2937 10.3078 22.4052 10.2445 22.5183 10.2455H24.9985C25.2181 10.2474 25.3826 10.5218 25.2797 10.7146L21.1728 18L25.2797 25.2755C25.3923 25.4694 25.2238 25.7564 24.9985 25.7545H22.5183C22.4032 25.7535 22.2911 25.6859 22.2372 25.5848L18.0398 18.1497C18.0187 18.1129 18.005 18.072 17.9998 18.0299C17.9947 18.072 17.981 18.113 17.9598 18.1497L13.7525 25.5848C13.7001 25.683 13.5931 25.75 13.4814 25.7545H11.0012C10.7758 25.7564 10.6074 25.4694 10.72 25.2755L14.8269 18L10.72 10.7146C10.6216 10.5387 10.7417 10.2831 10.9409 10.2455Z" fill="#3498DB"/>
</svg>
