<svg width="152" height="48" viewBox="0 0 152 48" fill="none" xmlns="http://www.w3.org/2000/svg">
<path d="M30.8431 24.0042C30.0755 24.9627 28.945 25.8807 27.5702 26.4239C28.3978 27.4434 28.8156 28.5788 28.5143 29.7593C28.2269 30.8862 27.1494 31.9862 25.6156 31.9862H17.6191V25.9902H24.6157C28.4738 25.9902 31.6122 22.8522 31.6122 18.9951C31.6122 15.138 28.4738 12 24.6157 12H13.6211V20.9936H17.6191V15.997H24.6157C26.2698 15.997 27.6142 17.3409 27.6142 18.9951C27.6142 20.6492 26.2698 21.9931 24.6157 21.9931H13.6211V35.9832V35.9883H25.6152C29.4733 35.9883 32.6117 32.8503 32.6117 28.9932C32.6117 27.282 32.1304 25.361 30.8431 24.0042Z" fill="#0E0E0E"/>
<path d="M139.055 22.9553C139.103 23.2267 139.159 23.9548 139.159 24.2742C139.159 27.6715 136.726 30.1908 133.293 30.1908C129.86 30.1908 127.065 27.3352 127.065 23.9533C127.065 20.556 129.86 17.7969 133.325 17.7969C135.205 17.7969 136.916 18.65 138.046 19.9883L136.545 21.1597C135.756 20.2512 134.6 19.6955 133.325 19.6955C130.946 19.6955 129.061 21.5935 129.061 23.9538C129.061 26.3147 130.946 28.1952 133.293 28.1952C135.251 28.1952 136.49 27.2187 136.982 25.4671C137.003 25.3901 137.06 25.1183 137.059 24.9518H133.06V22.9559L139.055 22.9553ZM126.065 29.9839L121.068 17.9963H119.069L114.072 29.9904H116.07L117.569 26.4921H122.568L124.067 29.9839H126.065ZM120.069 20.495L121.842 24.7429H118.295L120.069 20.495ZM103.576 17.9963V19.9953H108.074V29.9904H110.073V19.9953H114.571V17.9963H103.576ZM99.0791 27.0603L93.0819 17.9963H90.5829V29.9904H92.5815V20.9948L98.6342 29.9839H101.078V18.0027H99.0791V27.0603ZM85.0856 27.0603L79.0886 17.9963H76.5898V29.9904H78.5888V20.9948L84.6413 29.9839H87.0846V18.0027H85.0856V27.0603ZM73.0915 17.9963H65.0955V29.9904H73.0915V27.9913H67.0819V24.9928H72.092V22.9938H67.0819V19.9953H73.0915V17.9963ZM48.6035 23.7434C49.3067 23.2192 49.603 22.3976 49.603 21.4945C49.603 19.6075 48.1037 17.9963 46.1887 17.9963H40.6074V29.9904H46.4925C48.6035 29.9904 50.1027 28.3792 50.1027 26.4921C50.1027 25.2178 49.4031 24.1568 48.6035 23.7434ZM47.604 21.4945C47.604 22.4221 47.0048 22.9938 46.1092 22.9938H42.6064V19.9953H46.1092C47.0048 19.9953 47.604 20.567 47.604 21.4945ZM42.6064 27.9913V24.9928H46.4285C47.3241 24.9928 48.1037 25.576 48.1037 26.5036C48.1037 27.4311 47.3241 27.9913 46.4285 27.9913H42.6064ZM62.5967 29.9904L59.0983 25.2427C60.901 24.6615 61.5972 23.2167 61.5972 21.6929C61.5972 19.6479 60.1738 17.9963 57.9689 17.9963H52.6015V29.9904H54.6005V25.4926H56.7245L60.0978 29.9904H62.5967ZM57.8895 19.9953C59.0394 19.9953 59.5981 20.6544 59.5981 21.6929C59.5981 22.7474 59.0394 23.4936 57.8895 23.4936H54.6005V19.9953H57.8895Z" fill="#0E0E0E"/>
</svg>
