<svg width="110" height="48" viewBox="0 0 110 48" fill="none" xmlns="http://www.w3.org/2000/svg">
<g clip-path="url(#clip0_589_765)">
<path d="M22.2009 19.5836C18.2049 19.5836 15.0825 22.6712 15.0825 26.8045C15.0825 30.9379 18.126 33.999 22.2009 33.999C26.2758 33.999 29.3722 30.885 29.3722 26.7781C29.3722 22.6976 26.3287 19.5836 22.2009 19.5836ZM22.2279 31.0202C19.9523 31.0202 18.2847 29.2213 18.2847 26.8055C18.2847 24.3623 19.9253 22.5645 22.2009 22.5645C24.5035 22.5645 26.17 24.3898 26.17 26.8055C26.17 29.2213 24.5035 31.0202 22.2279 31.0202ZM30.2449 22.725H32.2299V33.7317H35.4052V19.8519H30.2449V22.725ZM7.09143 22.5634C8.75894 22.5634 10.082 23.6102 10.5842 25.1672H13.9452C13.3361 21.8388 10.6371 19.5836 7.11839 19.5836C3.12234 19.5836 0 22.6712 0 26.8055C0 30.9399 3.04346 34 7.11839 34C10.5583 34 13.3102 31.7448 13.9192 28.3889H10.5842C10.1079 29.9459 8.7849 31.0202 7.11739 31.0202C4.81482 31.0202 3.20123 29.2213 3.20123 26.8055C3.20223 24.3623 4.78986 22.5634 7.09143 22.5634ZM90.577 25.463L88.2484 25.1144C87.1371 24.9538 86.3433 24.5778 86.3433 23.6916C86.3433 22.725 87.3757 22.2423 88.7776 22.2423C90.3123 22.2423 91.2919 22.9131 91.5036 24.0137H94.573C94.2285 21.2219 92.1117 19.5846 88.8575 19.5846C85.4965 19.5846 83.2738 21.3296 83.2738 23.7993C83.2738 26.1612 84.7297 27.5312 87.6663 27.9601L89.9948 28.3087C91.1331 28.4692 91.7682 28.9266 91.7682 29.7854C91.7682 30.886 90.6568 31.3423 89.1221 31.3423C87.2429 31.3423 86.1845 30.5639 86.0257 29.3829H82.9034C83.195 32.0944 85.2849 34 89.0952 34C92.562 34 94.8636 32.3891 94.8636 29.6238C94.8636 27.1541 93.1971 25.8654 90.577 25.463ZM33.8176 14.1342C32.6533 14.1342 31.7796 14.9929 31.7796 16.1739C31.7796 17.3548 32.6523 18.2136 33.8176 18.2136C34.9818 18.2136 35.8555 17.3548 35.8555 16.1739C35.8555 14.9929 34.9818 14.1342 33.8176 14.1342ZM80.4161 24.6042C80.4161 21.5979 78.6168 19.5846 74.8065 19.5846C71.2078 19.5846 69.1968 21.4374 68.7994 24.283H71.9487C72.1075 23.1824 72.9542 22.2697 74.7536 22.2697C76.3681 22.2697 77.162 22.9944 77.162 23.8806C77.162 25.0351 75.7061 25.3298 73.9068 25.5179C71.4724 25.7862 68.4559 26.645 68.4559 29.8667C68.4559 32.3637 70.2822 33.9736 73.1929 33.9736C75.4685 33.9736 76.8974 33.0071 77.6123 31.4765C77.7181 32.8455 78.7236 33.7317 80.1265 33.7317H81.9788V30.8596H80.4171V24.6042H80.4161ZM77.2938 28.0942C77.2938 29.9469 75.7061 31.3159 73.774 31.3159C72.5828 31.3159 71.5773 30.8057 71.5773 29.7325C71.5773 28.3635 73.1919 27.9875 74.6737 27.8269C76.1025 27.6928 76.8964 27.3706 77.2938 26.7527V28.0942ZM60.4379 19.5836C58.6645 19.5836 57.1827 20.3357 56.1243 21.5969V14H52.9491V33.7317H56.0714V31.9064C57.1298 33.2215 58.6386 34 60.4379 34C64.2482 34 67.1329 30.9399 67.1329 26.8055C67.1329 22.6712 64.1953 19.5836 60.4379 19.5836ZM59.9616 31.0202C57.686 31.0202 56.0185 29.2213 56.0185 26.8055C56.0185 24.3898 57.712 22.5645 59.9876 22.5645C62.2901 22.5645 63.9037 24.3633 63.9037 26.8055C63.9037 29.2213 62.2372 31.0202 59.9616 31.0202ZM45.3544 19.5836C43.2905 19.5836 41.9405 20.4424 41.1467 21.6508V19.8519H37.9973V33.7307H41.1726V26.1876C41.1726 24.0666 42.4956 22.5634 44.4537 22.5634C46.28 22.5634 47.4173 23.8786 47.4173 25.7852V33.7317H50.5926V25.5443C50.5936 22.0533 48.8212 19.5836 45.3544 19.5836ZM110 26.3492C110 22.3764 107.142 19.5846 103.305 19.5846C99.2301 19.5846 96.2395 22.6986 96.2395 26.8055C96.2395 31.1279 99.4417 34 103.358 34C106.666 34 109.259 32.0131 109.92 29.1949H106.612C106.136 30.4297 104.971 31.1279 103.41 31.1279C101.372 31.1279 99.8372 29.8392 99.4937 27.584H109.999V26.3492H110ZM99.6794 25.275C100.183 23.3419 101.612 22.4029 103.252 22.4029C105.051 22.4029 106.427 23.4497 106.745 25.275H99.6794Z" fill="#0C1318"/>
</g>
<defs>
<clipPath id="clip0_589_765">
<rect width="110" height="20" fill="white" transform="translate(0 14)"/>
</clipPath>
</defs>
</svg>
