<svg width="155" height="48" viewBox="0 0 155 48" fill="none" xmlns="http://www.w3.org/2000/svg">
<path fill-rule="evenodd" clip-rule="evenodd" d="M138.589 32.0206H144V30.9689H139.843V28.1944H143.05V27.1443H139.843V24.4431H143.785V23.3914H138.589V32.0206ZM129.426 32.0206H130.68V28.0609H132.011L134.394 32.0198H135.814L133.051 27.5105V27.4863L135.648 23.3914H134.267L132.011 27.0213H130.68V23.3922H129.426V32.0206ZM124.217 32.0206H125.473V23.3914H124.217V32.0206ZM116.081 27.5346V24.4431H117.526C118.223 24.4431 118.515 24.5155 118.755 24.6386C119.211 24.8832 119.466 25.3346 119.466 25.9704C119.466 26.9359 118.857 27.5346 117.881 27.5346H116.081ZM114.826 32.0206H116.081V28.5855H117.994L119.884 32.0206H121.303L119.402 28.6716C119.237 28.3907 119.135 28.2805 119.135 28.2805V28.2564C120.112 27.9506 120.745 27.0213 120.745 25.9212C120.745 24.7851 120.149 23.9177 119.237 23.5877C118.895 23.4646 118.502 23.3914 117.564 23.3914H114.826V32.0206ZM108.211 32.0206H109.466V24.4431H112.533V23.3914H105.144V24.4431H108.211V32.0206ZM97.1721 31.0308C97.1721 31.0308 98.2367 32.1671 100.138 32.1671C101.913 32.1671 102.977 31.0671 102.977 29.7346C102.977 26.9359 98.6433 27.4122 98.6433 25.6284C98.6433 24.9444 99.3149 24.3699 100.265 24.3699C101.406 24.3699 102.23 25.1149 102.23 25.1149L102.799 24.1132C102.799 24.1132 101.925 23.2449 100.265 23.2449C98.5793 23.2449 97.3753 24.308 97.3753 25.6525C97.3753 28.3055 101.71 27.9015 101.71 29.7716C101.71 30.5907 101 31.0429 100.164 31.0429C98.8331 31.0429 97.8821 30.1136 97.8821 30.1136L97.1721 31.0308ZM87.9087 31.2626V24.1864H89.8218C92.0024 24.1864 93.4721 25.4328 93.4721 27.7188C93.4721 30.0162 92.0152 31.2626 89.8218 31.2626H87.9087ZM87.0338 32.0206H89.9107C92.5852 32.0206 94.3847 30.4555 94.3847 27.7181C94.3847 25.0047 92.5852 23.4284 89.9107 23.4284H87.0338V32.0206ZM78.3404 24.6869C78.3404 24.6869 78.4797 25.4207 78.6318 25.9704L80.3296 32.0206H81.3823L83.7517 23.4284H82.8392L81.0524 30.1015C80.9387 30.5409 80.8492 31.018 80.8492 31.018H80.8252C80.8115 31.018 80.7483 30.5409 80.621 30.1006L78.7463 23.4284H77.9097L76.0333 30.1015C75.9068 30.5409 75.8436 31.018 75.8308 31.018H75.8052C75.8052 31.018 75.7171 30.5409 75.6027 30.1006L73.8792 23.4284H72.9667L75.2729 32.0206H76.3256L78.0233 25.9704C78.1755 25.4207 78.3148 24.6869 78.3148 24.6869H78.3404ZM62.9037 27.669C62.9037 25.6163 64.5134 24.064 66.5283 24.064C68.5311 24.064 70.153 25.6163 70.153 27.669C70.153 29.7716 68.5311 31.3849 66.5283 31.3849C64.5134 31.3849 62.9037 29.7716 62.9037 27.669ZM61.9911 27.669C61.9911 30.1868 64.0067 32.1671 66.5283 32.1671C69.0507 32.1671 71.0655 30.1868 71.0655 27.669C71.0655 25.2011 69.0507 23.2811 66.5283 23.2811C64.0067 23.2811 61.9911 25.2011 61.9911 27.669ZM54.5016 27.6449V24.1864H56.3012C56.9856 24.1864 57.3026 24.2588 57.5684 24.394C58.0887 24.6627 58.3801 25.1882 58.3801 25.8971C58.3801 26.973 57.6956 27.6449 56.6181 27.6449H54.5016ZM53.6267 32.0206H54.5016V28.402H56.7446L58.7603 32.0206H59.761L57.8221 28.5621C57.6828 28.3288 57.5939 28.2193 57.5939 28.2193V28.1953C58.5946 27.9257 59.2798 27.0333 59.2798 25.873C59.2798 24.8333 58.7722 24.0142 57.9366 23.6601C57.5812 23.5137 57.1761 23.4284 56.2636 23.4284H53.6267V32.0206ZM42.2845 27.669C42.2845 30.1747 44.1601 32.1671 46.7962 32.1671C48.9894 32.1671 50.2062 30.8345 50.2062 30.8345L49.6987 30.2358C49.6987 30.2358 48.6084 31.3849 46.809 31.3849C44.6925 31.3849 43.1971 29.7104 43.1971 27.6569C43.1971 25.6291 44.6925 24.064 46.7833 24.064C48.4563 24.064 49.4954 25.0168 49.4954 25.0168L49.9645 24.394C49.9645 24.394 48.8879 23.2811 46.7585 23.2811C44.2113 23.2811 42.2845 25.1762 42.2845 27.669ZM38.1884 31.0027C37.5512 30.9383 36.4193 30.7798 35.004 31.4976C33.5895 32.2162 33.0324 32.2475 32.3384 32.1735C32.5425 32.5485 32.9564 33.0642 34.2572 33.1568C35.5572 33.2485 36.18 33.2896 35.4948 34.9206C35.5108 34.4282 35.3963 33.4754 34.1051 33.642C32.8146 33.8094 32.5121 34.9794 33.8969 35.5636C33.4471 35.6545 32.4929 35.7084 31.8109 33.9132C31.3385 34.1199 30.6101 34.5344 29.2901 33.5076C29.7496 33.675 30.3188 33.6855 30.3188 33.6855C29.1468 33.1222 28.0277 32.0761 27.3105 31.0864C27.8788 31.5129 28.5064 31.9369 29.1412 32.0166C28.3912 31.0961 26.6573 29.255 24.5352 27.3632C25.9 28.2588 27.5459 29.6766 30.2394 29.3588C32.9339 29.0394 34.7439 28.4181 38.1884 31.0027ZM26.5836 30.7951C24.8465 30.0805 24.4744 29.9365 22.2417 29.3982C20.0084 28.8591 17.8126 27.739 16.3437 25.9905C17.3796 26.7099 19.4936 28.1582 21.6646 28.0021C21.3348 27.5434 20.7264 27.1854 19.9987 26.8257C20.8209 27.0123 23.3049 27.6158 26.5836 30.7951ZM22.4875 24.6177C22.0505 23.3052 21.2628 21.6251 17.5261 19.1298C15.7065 17.8706 13.0353 16.291 9.51709 12.2637C9.76845 13.35 10.8803 16.1727 16.4814 19.838C18.3209 21.1536 20.6952 21.9647 22.4875 24.6177Z" fill="#0C1318"/>
<path fill-rule="evenodd" clip-rule="evenodd" d="M23.1694 25.9906C22.7019 24.9148 21.763 23.5347 18.0839 21.5641C16.3868 20.6155 13.4882 19.1565 10.8818 16.3821C11.118 17.3839 12.3283 19.5847 17.5347 22.3317C18.9773 23.1252 21.4147 23.8687 23.1694 25.9906ZM36.7362 28.724C38.0883 28.9293 38.0202 29.2173 38.0346 29.7146C37.459 29.0829 36.7362 28.724 36.7362 28.724ZM26.4499 20.3064C19.3223 18.2537 16.4861 15.6635 14.2951 12.9502C15.2958 16.0722 17.6836 17.1892 20.2348 19.2846C22.7859 21.3814 22.9317 22.5072 23.6833 23.7456C25.3564 26.5048 25.6237 26.9602 27.2847 28.1648C29.2428 29.4724 31.6114 28.588 34.2091 28.9976C36.8074 29.408 38.9544 31.4003 39.421 32.168C39.9662 31.1895 38.6654 29.7806 38.3139 29.4265C38.5013 28.1454 35.4923 27.5831 34.3515 27.1445C34.129 27.0583 33.575 26.9296 34.0553 25.7797C34.7029 24.193 35.3778 22.813 26.4499 20.3064Z" fill="#0C1318"/>
</svg>
