<svg width="112" height="48" viewBox="0 0 112 48" fill="none" xmlns="http://www.w3.org/2000/svg">
<path d="M49.1875 25.4868C49.1875 29.3871 46.137 32.2612 42.3933 32.2612C38.6496 32.2612 35.5991 29.3871 35.5991 25.4868C35.5991 21.559 38.6496 18.7124 42.3933 18.7124C46.137 18.7124 49.1875 21.559 49.1875 25.4868ZM46.2133 25.4868C46.2133 23.0495 44.4453 21.3818 42.3933 21.3818C40.3413 21.3818 38.5733 23.0495 38.5733 25.4868C38.5733 27.8997 40.3413 29.5918 42.3933 29.5918C44.4453 29.5918 46.2133 27.8967 46.2133 25.4868Z" fill="#0C1318"/>
<path d="M63.8452 25.4868C63.8452 29.3871 60.7947 32.2612 57.051 32.2612C53.3073 32.2612 50.2568 29.3871 50.2568 25.4868C50.2568 21.562 53.3073 18.7124 57.051 18.7124C60.7947 18.7124 63.8452 21.559 63.8452 25.4868ZM60.871 25.4868C60.871 23.0495 59.103 21.3818 57.051 21.3818C54.999 21.3818 53.231 23.0495 53.231 25.4868C53.231 27.8997 54.999 29.5918 57.051 29.5918C59.103 29.5918 60.871 27.8967 60.871 25.4868Z" fill="#0C1318"/>
<path d="M77.8904 19.1217V31.2839C77.8904 36.2868 74.9408 38.3302 71.4536 38.3302C68.171 38.3302 66.1953 36.1341 65.4503 34.3382L68.0397 33.26C68.5008 34.3626 69.6307 35.6637 71.4505 35.6637C73.6827 35.6637 75.0659 34.2863 75.0659 31.6932V30.7189H74.9621C74.2964 31.5404 73.0139 32.2582 71.3956 32.2582C68.0092 32.2582 64.9067 29.3078 64.9067 25.5112C64.9067 21.6873 68.0092 18.7124 71.3956 18.7124C73.0109 18.7124 74.2934 19.4301 74.9621 20.2273H75.0659V19.1247H77.8904V19.1217ZM75.2767 25.5112C75.2767 23.1258 73.6857 21.3818 71.6612 21.3818C69.6092 21.3818 67.8901 23.1258 67.8901 25.5112C67.8901 27.8722 69.6092 29.5918 71.6612 29.5918C73.6857 29.5918 75.2767 27.8722 75.2767 25.5112Z" fill="#0C1318"/>
<path d="M82.5474 11.9932V31.8461H79.6465V11.9932H82.5474Z" fill="#0C1318"/>
<path d="M93.8521 27.7166L96.1601 29.256C95.4152 30.3586 93.6193 32.2583 90.5173 32.2583C86.6698 32.2583 83.7964 29.2834 83.7964 25.4839C83.7964 21.4553 86.6942 18.7095 90.1844 18.7095C93.6991 18.7095 95.418 21.5072 95.9802 23.019L96.2882 23.7888L87.2347 27.5394C87.9279 28.8986 89.0058 29.5919 90.5173 29.5919C92.0319 29.5919 93.0822 28.8467 93.8521 27.7166ZM86.7462 25.2793L92.7983 22.7656C92.4655 21.9196 91.4639 21.3301 90.2852 21.3301C88.7736 21.3301 86.6698 22.6648 86.7462 25.2793Z" fill="#0C1318"/>
<path d="M24.6187 23.725V20.8509H34.3015C34.3961 21.3518 34.445 21.9444 34.445 22.5858C34.445 24.7421 33.8557 27.4085 31.9564 29.3083C30.1089 31.2325 27.7486 32.2587 24.6217 32.2587C18.8261 32.2587 13.9526 27.5368 13.9526 21.7397C13.9526 15.9427 18.8261 11.2207 24.6217 11.2207C27.8279 11.2207 30.112 12.4791 31.8281 14.1193L29.8006 16.1473C28.57 14.9928 26.9028 14.0948 24.6187 14.0948C20.3864 14.0948 17.0764 17.5065 17.0764 21.7397C17.0764 25.9729 20.3864 29.3846 24.6187 29.3846C27.3638 29.3846 28.9272 28.282 29.9288 27.2802C30.741 26.4678 31.2754 25.3071 31.4861 23.7219L24.6187 23.725Z" fill="#0C1318"/>
</svg>
