<svg width="111" height="48" viewBox="0 0 111 48" fill="none" xmlns="http://www.w3.org/2000/svg">
<mask id="mask0_543_1383" style="mask-type:luminance" maskUnits="userSpaceOnUse" x="26" y="12" width="58" height="24">
<path d="M83.5645 12H26.6304V35.5975H83.5645V12Z" fill="white"/>
</mask>
<g mask="url(#mask0_543_1383)">
<path fill-rule="evenodd" clip-rule="evenodd" d="M71.8264 17.9672C68.6224 17.9672 66.0252 20.5781 66.0252 23.7988C66.0252 27.0195 68.6224 29.6303 71.8264 29.6303C75.0304 29.6303 77.6278 27.0195 77.6278 23.7988C77.6278 20.5781 75.0304 17.9672 71.8264 17.9672ZM61.144 18.9027C62.9943 14.8301 67.0816 12 71.8264 12C78.309 12 83.5641 17.2825 83.5641 23.7988C83.5641 30.315 78.309 35.5975 71.8264 35.5975C66.847 35.5975 62.5917 32.4806 60.8861 28.0818C60.8944 28.2311 60.8988 28.3856 60.8988 28.5454C60.8988 35.5975 54.8276 35.3263 54.8276 35.3263H44.709V12.2442H54.4228C56.1768 12.2442 61.1686 13.207 61.1686 18.1435C61.1686 18.4088 61.1602 18.6617 61.144 18.9027ZM60.2311 25.641C60.1375 25.0407 60.0889 24.4254 60.0889 23.7988C60.0889 23.1832 60.1358 22.5786 60.2262 21.9884C59.547 22.9966 58.6104 23.4193 57.7958 23.5682C57.5185 23.6205 57.5884 23.6459 57.8456 23.7392C58.3323 23.9158 59.4894 24.3356 60.2311 25.641ZM71.8263 28.5454C74.4342 28.5454 76.5483 26.4202 76.5483 23.7988C76.5483 21.1772 74.4342 19.0521 71.8263 19.0521C69.2185 19.0521 67.1043 21.1772 67.1043 23.7988C67.1043 26.4202 69.2185 28.5454 71.8263 28.5454ZM50.3754 21.3577V17.8722H53.7482C53.7482 17.8722 55.0974 17.8587 55.0974 19.5268C55.0974 21.1949 53.7482 21.3577 53.7482 21.3577H50.3754ZM50.3754 29.9016V26.3755H53.7482C53.7482 26.3755 55.0974 26.3755 55.0974 28.0029C55.0974 29.766 53.7482 29.9016 53.7482 29.9016H50.3754ZM26.6304 35.3263V12.2442H32.9714V20.9508H37.0189V12.2442H43.3598V35.3263H37.0189V26.7823H32.9714V35.3263H26.6304Z" fill="#0C1318"/>
</g>
</svg>
