<svg width="110" height="48" viewBox="0 0 110 48" fill="none" xmlns="http://www.w3.org/2000/svg">
<g clip-path="url(#clip0_589_723)">
<path d="M61.7047 15.6C62.2093 15.6 62.6977 15.4047 63.0558 15.0628C63.414 14.7209 63.6256 14.2326 63.6419 13.7442C63.6419 13.2395 63.4302 12.7512 63.0721 12.393C62.714 12.0349 62.2256 11.8233 61.7209 11.8233C61.2163 11.8395 60.7442 12.0349 60.386 12.4093C60.0279 12.7674 59.8326 13.2558 59.8488 13.7442C59.8488 14.2326 60.0442 14.7047 60.4023 15.0628C60.7442 15.3884 61.2163 15.5837 61.7047 15.6ZM74.8256 17.3907H79.4814V17.7651C79.2209 17.814 78.9767 17.8953 78.7488 18.0256C78.3256 18.2209 77.4791 19.1814 76.8116 20.793C75.7047 23.5767 74.5488 26.8814 73.3279 30.6581L72.8721 32.0907C72.6767 32.7419 72.4977 33.1651 72.4163 33.4093C72.3349 33.6698 72.2209 34.0605 72.0256 34.5326C71.9116 34.8907 71.7651 35.2488 71.586 35.5744C71.3581 35.9977 70.9349 36.8605 70.593 37.1209C70.0558 37.5767 69.2581 38.0814 68.2651 38C66.3279 38 64.8791 36.5674 64.8628 34.8744C64.8628 33.7186 65.5954 32.9535 66.7023 32.9535C67.5 32.9535 68.2 33.3767 68.2 34.2721C68.2 34.9233 67.5488 35.5907 67.5488 35.9326C67.5488 36.8116 68.0535 37.2186 69.0465 37.2186C69.8442 37.2186 70.4953 36.714 70.9837 35.7047C71.6349 34.5488 71.7 33.2791 71.1465 31.8628L67.0605 21.1186C66.1163 18.6442 65.4163 17.8302 64.5372 17.7326V17.3581H70.9837V17.7326C70.2186 17.814 69.8279 18.2698 69.8279 19.0837C69.8279 19.6698 70.0558 20.5814 70.4791 21.7372L71.2442 23.8209C72.1233 26.0837 72.8395 28.0535 73.1977 29.2907C74.0279 26.7186 74.793 24.4721 75.5256 22.5023C76.0628 21.0372 76.3233 19.9953 76.3233 19.3767C76.3233 18.2698 75.7209 17.7651 74.8256 17.7651V17.3907ZM30.0093 31.114C29.1791 30.9674 28.4791 30.2349 28.4791 28.6884V10L23.7907 11.0093V11.4C24.5884 11.3186 25.386 12.0186 25.386 13.5163V28.6884C25.386 30.1535 24.5884 31 23.7907 31.114C23.7093 31.1302 23.6442 31.1302 23.5628 31.1465C23.1558 31.1791 22.7488 31.0977 22.3744 30.9349C21.7395 30.6581 21.2186 30.1698 20.7791 29.4535L18.614 26.0186C18.1581 25.286 17.4744 24.7326 16.6767 24.4233C15.8791 24.114 15 24.0651 14.1698 24.293L16.6116 21.607C18.4512 19.5721 20.1605 18.286 21.7721 17.7488V17.3744H16.4V17.7488C17.7837 18.286 17.7023 19.4744 16.107 21.3302L12.6884 25.3023V10L8 11.0093V11.4C8.79767 11.4 9.59535 12.1814 9.59535 13.5651V28.6721C9.59535 30.3488 8.81395 31 8 31.114V31.4884H14.2186V31.114C13.193 30.9674 12.6884 30.186 12.6884 28.6884V25.9047L14.0233 24.4395L17.2465 29.714C18.0116 30.9837 18.7279 31.4884 19.8512 31.4884H30.6605V31.1953C30.6767 31.1953 30.3674 31.1791 30.0093 31.114ZM42.9023 29.3395V23.0233C42.8372 18.9047 41.0953 17.0163 37.107 17.0163C35.8372 17 34.6 17.4233 33.5907 18.2047C32.5326 19.0023 32.0279 19.8977 32.0279 20.9395C32.0279 21.9488 32.5977 22.714 33.5256 22.714C34.5186 22.714 35.2349 22.1442 35.2349 21.3628C35.2349 20.7767 34.8442 19.9465 34.8442 19.393C34.8442 18.3837 35.6093 17.5047 36.9442 17.5047C38.6535 17.5047 39.8744 18.7744 39.8744 21.5907V23.2837L38.4581 23.6256C37.7256 23.7721 37.0907 23.9186 36.6186 24.0488C36.1302 24.1953 35.5116 24.3907 34.7791 24.6674C33.2977 25.2372 32.5163 25.7744 31.8326 26.7837C31.4907 27.2721 31.3279 27.8581 31.3279 28.4442C31.3279 30.7884 32.9721 31.8628 35.2674 31.8628C37.0907 31.8628 39.0116 30.9023 39.8907 29.0954C39.907 29.6651 40.0372 30.2186 40.2977 30.7395C41.2581 32.6767 44.4488 31.5372 44.4488 31.5372V31.1628C43.0163 31.3744 42.9023 29.7302 42.9023 29.3395ZM39.8744 27.386C39.8744 28.314 39.5326 29.0791 38.8488 29.6163C38.1977 30.1535 37.514 30.4302 36.7977 30.4302C35.414 30.4302 34.5023 29.5349 34.5023 27.8581C34.5023 27.0767 34.9419 26.3442 35.3 25.9209C35.593 25.6279 35.9186 25.3837 36.293 25.2209C36.7814 24.9605 37.0093 24.8302 37.3512 24.6837L38.6535 24.2116C39.3047 23.9512 39.6954 23.8209 39.8744 23.7395V27.386ZM102.581 17.3907H91.5442V10H102.581L100.27 13.6953L102.581 17.3907ZM80.1326 29.6814C78.7651 28.2814 78 26.393 78.0326 24.4233C78.0163 23.4628 78.1954 22.5023 78.5535 21.607C78.9116 20.7116 79.4488 19.8977 80.1326 19.1977C81.5326 17.7326 83.2256 17 85.2279 17C87.1814 17 88.8907 17.7326 90.2907 19.1977C90.9744 19.8814 91.5279 20.6953 91.886 21.5907C92.2605 22.486 92.4395 23.4465 92.4233 24.4233C92.4395 25.4 92.2605 26.3605 91.886 27.2558C91.5116 28.1512 90.9744 28.9814 90.2907 29.6651C88.8907 31.0977 87.1977 31.8465 85.2279 31.8465C83.2419 31.8628 81.5326 31.1302 80.1326 29.6814ZM87.7837 19.4419C87.2302 18.3512 86.4814 17.7163 85.6186 17.5372C83.8605 17.1791 82.314 18.986 81.7279 21.8349C81.4837 23.1209 81.4186 24.4233 81.5488 25.7093C81.6791 27.0116 82.0372 28.2651 82.6233 29.4372C83.193 30.5279 83.9256 31.1628 84.7884 31.3419C86.5465 31.7 88.1419 29.8279 88.7279 26.9465C89.2163 24.5372 88.9721 21.607 87.7837 19.4419Z" fill="#0C1318"/>
<path d="M63.3488 28.6885V17.3908H53.3535V17.7327C54.6884 17.928 55.3232 18.9373 54.7209 20.5489C51.5953 28.9815 51.7907 28.6071 51.5953 29.2745C51.4 28.6234 50.9442 27.028 50.2116 25.0257C49.4791 23.0233 48.9907 21.7047 48.7953 21.1024C48.0302 18.7582 48.2907 17.8954 49.5279 17.7489V17.3745H43.0488V17.7489C44.0093 17.9443 44.8721 19.0513 45.5721 21.021L46.5651 23.5931C47.6558 26.3606 48.9419 30.1861 49.3651 31.4885H51.5139C52.2139 29.4861 54.9814 21.4768 55.3558 20.6629C55.7628 19.735 56.2186 19.035 56.7232 18.5466C56.9674 18.2861 57.2605 18.0745 57.6023 17.9443C57.9279 17.814 58.286 17.7327 58.6442 17.7489C58.6442 17.7489 60.207 17.7489 60.207 19.2466V28.7047C60.207 30.2838 59.4419 31.0164 58.6442 31.1303V31.5047H64.8302V31.1303C64.0326 31.0001 63.3488 30.2675 63.3488 28.6885Z" fill="#0C1318"/>
</g>
<defs>
<clipPath id="clip0_589_723">
<rect width="94.5814" height="28" fill="white" transform="translate(8 10)"/>
</clipPath>
</defs>
</svg>
