<svg width="131" height="48" viewBox="0 0 131 48" fill="none" xmlns="http://www.w3.org/2000/svg">
<g clip-path="url(#clip0_589_769)">
<path d="M130.327 22.5867V20.2947H127.481V16.7314L127.385 16.7609L124.712 17.5788L124.659 17.5949V20.2947H120.44V18.7908C120.44 18.0905 120.597 17.5545 120.905 17.1971C121.212 16.844 121.65 16.6645 122.209 16.6645C122.611 16.6645 123.027 16.7592 123.446 16.9459L123.551 16.9927V14.5789L123.502 14.5608C123.111 14.4204 122.579 14.3496 121.921 14.3496C121.091 14.3496 120.336 14.5302 119.678 14.8883C119.02 15.2468 118.502 15.7586 118.14 16.4095C117.778 17.0595 117.595 17.8103 117.595 18.6411V20.2947H115.613V22.5867H117.595V32.2425H120.44V22.5867H124.659V28.7229C124.659 31.25 125.851 32.5307 128.202 32.5307C128.589 32.5307 128.995 32.4853 129.41 32.3966C129.833 32.3057 130.121 32.2148 130.29 32.1177L130.327 32.0956V29.7823L130.212 29.8589C130.057 29.962 129.865 30.046 129.64 30.1084C129.413 30.1721 129.224 30.2041 129.078 30.2041C128.527 30.2041 128.119 30.0556 127.867 29.7628C127.611 29.4673 127.481 28.9504 127.481 28.2276V22.5867H130.327ZM109.259 30.2043C108.227 30.2043 107.412 29.8618 106.839 29.1873C106.261 28.5094 105.969 27.5429 105.969 26.3149C105.969 25.0481 106.261 24.0565 106.839 23.3666C107.413 22.6812 108.219 22.3334 109.236 22.3334C110.223 22.3334 111.008 22.6656 111.57 23.3213C112.136 23.9804 112.423 24.9641 112.423 26.2458C112.423 27.5432 112.153 28.5398 111.621 29.2064C111.092 29.8681 110.298 30.2043 109.259 30.2043ZM109.386 20.0069C107.416 20.0069 105.851 20.5841 104.735 21.7227C103.62 22.8615 103.055 24.4372 103.055 26.4068C103.055 28.2774 103.607 29.7821 104.695 30.8783C105.784 31.975 107.265 32.5305 109.098 32.5305C111.008 32.5305 112.541 31.9452 113.656 30.7908C114.772 29.6376 115.337 28.0768 115.337 26.1532C115.337 24.2533 114.806 22.7375 113.76 21.6485C112.714 20.5591 111.242 20.0069 109.386 20.0069ZM98.4676 20.0068C97.1275 20.0068 96.019 20.3496 95.1721 21.0255C94.3201 21.7053 93.888 22.5971 93.888 23.6762C93.888 24.237 93.9813 24.7353 94.1649 25.1578C94.3496 25.5819 94.6355 25.9551 95.0151 26.2684C95.3921 26.5792 95.9736 26.9047 96.7445 27.2358C97.3924 27.5025 97.8757 27.7281 98.1827 27.9059C98.4827 28.08 98.6958 28.2553 98.816 28.4258C98.9328 28.5927 98.9922 28.821 98.9922 29.1031C98.9922 29.9057 98.3912 30.2963 97.1542 30.2963C96.6955 30.2963 96.1721 30.2006 95.5988 30.0116C95.0252 29.823 94.4892 29.5518 94.006 29.204L93.888 29.1194V31.8585L93.9314 31.8786C94.334 32.0644 94.8414 32.2211 95.4397 32.3445C96.0368 32.4679 96.5792 32.5307 97.0505 32.5307C98.5048 32.5307 99.6759 32.1862 100.53 31.5064C101.39 30.8218 101.826 29.9091 101.826 28.7925C101.826 27.9872 101.592 27.2965 101.129 26.7396C100.67 26.1871 99.8727 25.6799 98.7607 25.2316C97.8749 24.8761 97.3074 24.5809 97.0734 24.3544C96.8477 24.1355 96.7332 23.826 96.7332 23.4341C96.7332 23.0866 96.8745 22.8083 97.165 22.5828C97.4576 22.3562 97.8648 22.241 98.3757 22.241C98.8498 22.241 99.3348 22.3158 99.8171 22.4626C100.299 22.6093 100.722 22.8058 101.076 23.0463L101.192 23.1257V20.5273L101.147 20.5081C100.821 20.3683 100.391 20.2487 99.8694 20.1516C99.3493 20.0555 98.8777 20.0068 98.4676 20.0068ZM86.4708 30.2043C85.4385 30.2043 84.624 29.8618 84.0504 29.1873C83.473 28.5094 83.181 27.5432 83.181 26.3149C83.181 25.0481 83.4733 24.0565 84.051 23.3666C84.6246 22.6812 85.4309 22.3334 86.448 22.3334C87.4342 22.3334 88.2195 22.6656 88.7821 23.3213C89.3475 23.9804 89.6343 24.9641 89.6343 26.2458C89.6343 27.5432 89.3644 28.5398 88.8323 29.2064C88.3041 29.8681 87.51 30.2043 86.4708 30.2043ZM86.5978 20.0069C84.6272 20.0069 83.0623 20.5841 81.9472 21.7227C80.8322 22.8615 80.2665 24.4372 80.2665 26.4068C80.2665 28.2782 80.8187 29.7821 81.9072 30.8783C82.9956 31.975 84.4768 32.5305 86.3096 32.5305C88.219 32.5305 89.7531 31.9452 90.8684 30.7908C91.9832 29.6376 92.5485 28.0768 92.5485 26.1532C92.5485 24.2533 92.0182 22.7375 90.9719 21.6485C89.9251 20.5591 88.4533 20.0069 86.5978 20.0069ZM75.9476 22.3637V20.2947H73.1371V32.2422H75.9476V26.1306C75.9476 25.0913 76.1832 24.2377 76.6481 23.5928C77.1072 22.9557 77.7189 22.6328 78.4658 22.6328C78.7189 22.6328 79.003 22.6745 79.3108 22.7571C79.6154 22.8392 79.836 22.9282 79.9662 23.022L80.0842 23.1076V20.2742L80.0387 20.2547C79.7769 20.1434 79.4067 20.0873 78.9382 20.0873C78.2321 20.0873 77.6 20.3143 77.0586 20.761C76.5835 21.1538 76.24 21.6923 75.9774 22.3637H75.9476ZM68.1042 20.0068C66.815 20.0068 65.6649 20.2834 64.6866 20.8283C63.7063 21.3745 62.9483 22.1545 62.4325 23.1462C61.9191 24.1355 61.6584 25.2912 61.6584 26.5798C61.6584 27.7086 61.9112 28.7446 62.4108 29.6575C62.9107 30.572 63.6182 31.2875 64.5138 31.7838C65.4082 32.2794 66.4418 32.5307 67.5862 32.5307C68.9218 32.5307 70.0621 32.2636 70.9765 31.7371L71.0134 31.7158V29.1411L70.8953 29.2273C70.4812 29.5289 70.0183 29.7697 69.5203 29.9432C69.0236 30.1166 68.5707 30.2042 68.1737 30.2042C67.0709 30.2042 66.1857 29.8591 65.5431 29.1789C64.899 28.4977 64.5725 27.5412 64.5725 26.3376C64.5725 25.1263 64.913 24.1453 65.5842 23.4213C66.2532 22.6996 67.1401 22.3335 68.2201 22.3335C69.1439 22.3335 70.044 22.6463 70.8956 23.2641L71.0134 23.3496V20.6367L70.9754 20.6153C70.6548 20.4359 70.2178 20.2878 69.6751 20.1754C69.1349 20.0634 68.6065 20.0068 68.1042 20.0068ZM59.7228 20.2948H56.9123V32.2422H59.7228V20.2948ZM58.3463 15.205C57.8837 15.205 57.4803 15.3625 57.1489 15.6745C56.816 15.9875 56.6471 16.3815 56.6471 16.8464C56.6471 17.304 56.814 17.6907 57.1435 17.9954C57.471 18.299 57.8757 18.453 58.3463 18.453C58.8167 18.453 59.2229 18.299 59.5543 17.9958C59.888 17.6907 60.0571 17.304 60.0571 16.8464C60.0571 16.3977 59.8925 16.0077 59.5681 15.6871C59.2441 15.3672 58.8329 15.205 58.3463 15.205ZM51.3341 19.4133V32.2422H54.2023V15.5709H50.2327L45.1869 27.9538L40.2904 15.5709H36.1592V32.2422H38.8545V19.412H38.9471L44.1177 32.2422H46.1517L51.2416 19.4133H51.3341Z" fill="#0C1318"/>
<path d="M13.2209 23.2209H0V10H13.2209V23.2209Z" fill="#0C1318"/>
<path d="M27.8184 23.2209H14.5977V10H27.8184V23.2209Z" fill="#0C1318"/>
<path d="M13.2206 37.8235H0V24.6025H13.2206V37.8235Z" fill="#0C1318"/>
<path d="M27.8184 37.8235H14.5977V24.6025H27.8184V37.8235Z" fill="#0C1318"/>
</g>
<defs>
<clipPath id="clip0_589_769">
<rect width="130.327" height="28" fill="white" transform="translate(0 10)"/>
</clipPath>
</defs>
</svg>
