<svg width="111" height="48" viewBox="0 0 111 48" fill="none" xmlns="http://www.w3.org/2000/svg">
<path d="M28.0051 34.0922C26.8501 34.2941 25.6747 34.3546 24.4589 34.5159L20.7504 23.7046V34.9798C19.5954 35.1008 18.5416 35.2622 17.4473 35.4235V14.769H20.5276L24.7425 26.4882V14.769H28.0051V34.0922ZM34.3885 22.3329C35.645 22.3329 37.5701 22.2725 38.7251 22.2725V25.4996C37.2863 25.4996 35.6044 25.4996 34.3885 25.5602V30.3608C36.2934 30.2398 38.1983 30.0783 40.1233 30.0178V33.1239L31.1461 33.8299V14.769H40.1233V17.9963H34.3885V22.3329ZM52.1807 17.9964H48.8168V32.8418C47.7225 32.8418 46.6282 32.8418 45.5747 32.882V17.9964H42.2108V14.769H52.1809L52.1807 17.9964ZM57.4495 22.1111H61.8875V25.3384H57.4495V32.6603H54.2678V14.769H63.3263V17.9963H57.4495V22.1111ZM68.595 29.8363C70.4392 29.8766 72.3034 30.018 74.107 30.1187V33.3056C71.2093 33.124 68.3114 32.9427 65.3528 32.882V14.769H68.595V29.8363ZM76.8427 33.5275C77.8762 33.5882 78.9705 33.6486 80.0242 33.7695V14.769H76.8427V33.5275ZM94.2302 14.769L90.116 24.5921L94.2302 35.4235C93.0136 35.2622 91.7981 35.0403 90.5821 34.8386L88.2518 28.8682L85.881 34.3546C84.7054 34.1527 83.5707 34.0922 82.3955 33.9308L86.5699 24.471L82.8006 14.769H86.286L88.4138 20.1949L90.6835 14.769H94.2302Z" fill="#0C1318"/>
</svg>
