<svg width="111" height="48" viewBox="0 0 111 48" fill="none" xmlns="http://www.w3.org/2000/svg">
<path d="M85.3533 27.4924H85.283L82.294 17.0411H77.4724V30.2169H80.6665L80.4865 19.4045H80.5568L83.7663 30.2169H88.3925V17.0405H85.1773L85.3533 27.4924ZM24.0107 17.0405L21.6053 30.3556H25.1153L26.8938 18.2695H26.968L28.6994 30.3563H32.1888L29.7944 17.0405H24.0107ZM43.6441 17.0418L42.0397 27.2221H41.9668L40.3702 17.0418H35.0713L34.7837 30.3556H38.0326L38.1138 18.3823H38.1873L40.3573 30.3556H43.6525L45.8232 18.3862L45.8953 18.3823L45.9798 30.3556H49.23L48.943 17.0418H43.6441ZM13.5561 20.4657C13.4949 20.1935 13.5097 19.9211 13.5425 19.7708C13.636 19.3429 13.9172 18.8743 14.7304 18.8743C15.4926 18.8743 15.9363 19.3579 15.9363 20.08V20.9026H19.1806V19.973C19.1806 17.0684 16.6385 16.6152 14.7981 16.6152C12.4888 16.6152 10.6033 17.4015 10.2557 19.5737C10.1609 20.1572 10.1493 20.6919 10.2873 21.366C10.8516 24.0873 15.4669 24.8756 16.1368 26.5966C16.2626 26.9174 16.2219 27.3336 16.1601 27.5851C16.0549 28.0208 15.7628 28.4738 14.8955 28.4738C14.0843 28.4738 13.5889 27.9974 13.5889 27.2708L13.5871 25.9788H10.1035L10.1016 27.0082C10.1016 29.9783 12.3818 30.871 14.8239 30.871C17.1777 30.871 19.1071 30.0555 19.4192 27.8327C19.5779 26.6802 19.4611 25.9244 19.405 25.6424C18.8549 22.8531 13.9269 22.0285 13.5561 20.4657ZM55.8269 20.4968C55.763 20.231 55.7811 19.9614 55.8114 19.8142C55.9023 19.389 56.1809 18.9255 56.987 18.9255C57.7403 18.9255 58.1826 19.4019 58.1826 20.1143V20.9311H61.392V20.0099C61.392 17.1409 58.8733 16.6892 57.0566 16.6892C54.7674 16.6892 52.898 17.4579 52.5581 19.6165C52.4633 20.1973 52.4485 20.7282 52.5877 21.3926C53.1469 24.0853 57.7164 24.8677 58.3813 26.57C58.5025 26.8908 58.4657 27.2999 58.4064 27.5494C58.3006 27.9883 58.0085 28.4279 57.1534 28.4279C56.3461 28.4279 55.8598 27.9585 55.8598 27.2396L55.8572 25.9574H52.4046V26.9777C52.4046 29.9174 54.6649 30.7997 57.0831 30.7997C59.4078 30.7997 61.3212 29.9914 61.6274 27.7919C61.7848 26.6543 61.6687 25.9049 61.614 25.6243C61.069 22.8647 56.188 22.0448 55.8269 20.4968ZM70.5614 26.8876C70.564 27.0568 70.5589 27.2526 70.5311 27.3952C70.4666 27.7264 70.1887 28.3533 69.2852 28.3533C68.385 28.3533 68.1038 27.7264 68.0393 27.3952C68.0116 27.2526 68.0052 27.0568 68.0065 26.8876V17.0392H64.7228V26.5823C64.7176 26.8293 64.7415 27.3291 64.7532 27.4619C64.9763 29.944 66.8953 30.7459 69.2845 30.7459C71.6712 30.7459 73.5897 29.944 73.8199 27.4619C73.8315 27.3291 73.8566 26.8286 73.8528 26.5823V17.0392H70.5608L70.5614 26.8876ZM96.4138 22.8699V24.8198H97.7439V26.7509C97.7485 26.9187 97.7421 27.1042 97.7144 27.2565C97.6562 27.6149 97.3248 28.2197 96.3879 28.2197C95.4482 28.2197 95.1178 27.6142 95.0568 27.2565C95.0319 27.1042 95.0245 26.9187 95.0282 26.7509V20.6589C95.0282 20.4423 95.0421 20.2057 95.0808 20.0339C95.1501 19.706 95.4298 19.0675 96.375 19.0675C97.3682 19.0675 97.6138 19.7416 97.6738 20.0339C97.7116 20.2187 97.7144 20.537 97.7144 20.5357V21.2857H100.989V20.841C100.988 20.841 101.001 20.3859 100.962 19.9704C100.722 17.4663 98.703 16.6781 96.4018 16.6781C94.0996 16.6781 92.1282 17.4729 91.8425 19.9704C91.8148 20.1856 91.7858 20.6044 91.7858 20.841L91.7845 26.443C91.7858 26.6938 91.7936 26.8792 91.8297 27.3226C92.0437 29.7469 94.0996 30.6155 96.399 30.6155C98.7002 30.6155 100.756 29.7469 100.971 27.3226C101.007 26.8786 101.012 26.6932 101.013 26.443V22.8699H96.4138Z" fill="#0C1318"/>
</svg>
