<svg width="138" height="48" viewBox="0 0 138 48" fill="none" xmlns="http://www.w3.org/2000/svg">
<g clip-path="url(#clip0_589_757)">
<path d="M30.5287 7.05615C21.4279 7.05615 14.0498 14.644 14.0498 24.0039C14.0498 33.3643 21.4279 40.9515 30.5287 40.9515C39.6306 40.9515 47.0079 33.3643 47.0079 24.0039C47.0079 14.6446 39.6306 7.05696 30.5286 7.05696L30.5287 7.05615ZM38.0859 31.4997C37.7907 31.9976 37.1571 32.1554 36.673 31.8498C32.8039 29.4192 27.9332 28.8688 22.1971 30.2166C21.6443 30.3462 21.0933 29.99 20.9674 29.4213C20.8409 28.8526 21.1858 28.2859 21.74 28.1564C28.0172 26.6814 33.4017 27.3165 37.7455 30.0466C38.2295 30.3522 38.383 31.0019 38.0859 31.4997ZM40.1029 26.885C39.731 27.5067 38.9399 27.7031 38.3358 27.3206C33.9063 24.5204 27.1542 23.7095 21.9149 25.3451C21.2354 25.5562 20.5178 25.1624 20.3115 24.4648C20.1069 23.7659 20.49 23.0293 21.1683 22.8168C27.153 20.9492 34.593 21.8538 39.6798 25.0687C40.2839 25.4512 40.4748 26.2645 40.1029 26.885ZM40.276 22.0797C34.965 18.8353 26.2023 18.537 21.1315 20.1198C20.3172 20.3738 19.4561 19.9011 19.2094 19.0636C18.9626 18.2258 19.4219 17.3407 20.2368 17.0862C26.0577 15.2688 35.7344 15.6199 41.8491 19.3532C42.5831 19.8003 42.8232 20.7731 42.3883 21.5254C41.9554 22.2786 41.0069 22.527 40.2768 22.0797H40.276ZM58.8836 22.7014C56.0381 22.0036 55.5324 21.5138 55.5324 20.4847C55.5324 19.5125 56.4218 18.8582 57.7462 18.8582C59.0292 18.8582 60.3004 19.355 61.6345 20.3779C61.6739 20.4088 61.7251 20.4212 61.7743 20.4131C61.8254 20.4054 61.8687 20.3773 61.8982 20.335L63.2875 18.3209C63.3446 18.2379 63.3288 18.1236 63.2521 18.0602C61.6641 16.7502 59.8773 16.1133 57.7875 16.1133C54.7158 16.1133 52.5689 18.0094 52.5689 20.7223C52.5689 23.6316 54.4206 24.6617 57.6202 25.4568C60.3417 26.1018 60.8022 26.6422 60.8022 27.6079C60.8022 28.6785 59.8734 29.3444 58.3778 29.3444C56.717 29.3444 55.3612 28.7676 53.846 27.4197C53.8086 27.3853 53.7574 27.3712 53.7102 27.3732C53.6591 27.3772 53.6138 27.4015 53.5823 27.44L52.0238 29.3464C51.9589 29.4273 51.9667 29.5447 52.0415 29.6135C53.8047 31.2326 55.9732 32.0866 58.3149 32.0866C61.6247 32.0866 63.7637 30.2267 63.7637 27.3469C63.7696 24.9169 62.3548 23.571 58.8895 22.704L58.8836 22.7014ZM71.2532 19.8155C69.8186 19.8155 68.6419 20.3967 67.6698 21.5877V20.2471C67.6698 20.1413 67.5871 20.0551 67.4848 20.0551H64.9365C64.8342 20.0551 64.7515 20.1413 64.7515 20.2471V35.1426C64.7515 35.2478 64.8342 35.3348 64.9365 35.3348H67.4848C67.5871 35.3348 67.6698 35.2478 67.6698 35.1426V30.4413C68.6419 31.5604 69.8186 32.1089 71.2532 32.1089C73.9195 32.1089 76.6193 29.9981 76.6193 25.9628C76.6233 21.9267 73.9235 19.8153 71.2551 19.8153L71.2532 19.8155ZM73.6558 25.9628C73.6558 28.0167 72.426 29.4516 70.6628 29.4516C68.9213 29.4516 67.6068 27.952 67.6068 25.9628C67.6068 23.9734 68.9213 22.4741 70.6628 22.4741C72.3964 22.4739 73.6558 23.941 73.6558 25.9628ZM83.5362 19.8155C80.1023 19.8155 77.4124 22.5347 77.4124 26.0067C77.4124 29.4415 80.0846 32.1312 83.4948 32.1312C86.9405 32.1312 89.6383 29.4213 89.6383 25.9628C89.6383 22.516 86.9582 19.8159 83.5362 19.8159V19.8155ZM83.5362 29.4719C81.71 29.4719 80.3326 27.9621 80.3326 25.9618C80.3326 23.9523 81.6628 22.4942 83.4948 22.4942C85.3328 22.4942 86.7181 24.0033 86.7181 26.0057C86.7181 28.0147 85.38 29.4719 83.5362 29.4719ZM96.9703 20.0551H94.1662V17.1072C94.1662 17.0016 94.0836 16.9153 93.9812 16.9153H91.4329C91.3306 16.9153 91.246 17.0016 91.246 17.1072V20.0551H90.022C89.9197 20.0551 89.8371 20.1413 89.8371 20.2471V22.499C89.8371 22.6047 89.9197 22.6911 90.022 22.6911H91.246V28.5187C91.246 30.8723 92.3854 32.0664 94.6345 32.0664C95.5476 32.0664 96.3052 31.8721 97.0195 31.4552C97.0786 31.4228 97.114 31.3581 97.114 31.2892V29.144C97.114 29.0792 97.0805 29.0165 97.0254 28.9821C96.9703 28.9457 96.9015 28.9437 96.8444 28.974C96.3544 29.227 95.8802 29.3444 95.3489 29.3444C94.5322 29.3444 94.1662 28.9619 94.1662 28.1078V22.6921H96.9703C97.0727 22.6921 97.1553 22.6059 97.1553 22.5V20.2484C97.1592 20.1425 97.0766 20.0563 96.9723 20.0563L96.9703 20.0551ZM106.738 20.0666V19.7046C106.738 18.6394 107.136 18.1644 108.025 18.1644C108.557 18.1644 108.984 18.2729 109.462 18.4368C109.521 18.4559 109.582 18.4464 109.629 18.4101C109.678 18.3739 109.706 18.3158 109.706 18.2543V16.0463C109.706 15.9619 109.655 15.8872 109.574 15.8624C109.07 15.7079 108.425 15.5495 107.457 15.5495C105.105 15.5495 103.86 16.9123 103.86 19.4892V20.0437H102.636C102.533 20.0437 102.449 20.13 102.449 20.2356V22.499C102.449 22.6047 102.533 22.6911 102.636 22.6911H103.86V31.6778C103.86 31.7851 103.944 31.8701 104.047 31.8701H106.593C106.697 31.8701 106.78 31.7851 106.78 31.6778V22.6917H109.159L112.803 31.6778C112.39 32.6209 111.983 32.8091 111.428 32.8091C110.979 32.8091 110.505 32.6715 110.023 32.3983C109.977 32.374 109.922 32.37 109.875 32.3841C109.826 32.4023 109.785 32.4388 109.765 32.4873L108.901 34.4363C108.86 34.5294 108.895 34.6366 108.982 34.6852C109.883 35.1871 110.696 35.4016 111.701 35.4016C113.582 35.4016 114.623 34.499 115.538 32.0745L119.958 20.3289C119.982 20.2698 119.974 20.203 119.938 20.1506C119.905 20.0986 119.848 20.0672 119.787 20.0672H117.134C117.054 20.0672 116.983 20.1192 116.957 20.1959L114.24 28.1766L111.264 20.1907C111.237 20.1164 111.168 20.0672 111.091 20.0672H106.738V20.0666ZM101.075 20.0551H98.5269C98.4245 20.0551 98.3399 20.1413 98.3399 20.2471V31.6778C98.3399 31.7851 98.4245 31.8701 98.5269 31.8701H101.075C101.177 31.8701 101.262 31.7851 101.262 31.6778V20.2479C101.262 20.1421 101.179 20.0559 101.075 20.0559V20.0551ZM99.8158 14.85C98.8063 14.85 97.9877 15.6903 97.9877 16.7283C97.9877 17.767 98.8063 18.6083 99.8158 18.6083C100.825 18.6083 101.642 17.767 101.642 16.7283C101.642 15.6905 100.823 14.85 99.8158 14.85ZM122.135 23.7305C121.127 23.7305 120.342 22.8977 120.342 21.8864C120.342 20.8751 121.137 20.0328 122.144 20.0328C123.152 20.0328 123.937 20.8654 123.937 21.8759C123.937 22.8872 123.142 23.7305 122.135 23.7305ZM122.144 20.2162C121.225 20.2162 120.531 20.967 120.531 21.8864C120.531 22.8054 121.221 23.5462 122.135 23.5462C123.054 23.5462 123.748 22.7959 123.748 21.8759C123.748 20.9569 123.057 20.2162 122.144 20.2162ZM122.542 22.0655L123.05 22.7957H122.621L122.164 22.1258H121.772V22.7957H121.414V20.8602H122.253C122.691 20.8602 122.979 21.0903 122.979 21.4776C122.981 21.795 122.802 21.9888 122.544 22.0655H122.542ZM122.239 21.1923H121.772V21.8045H122.239C122.471 21.8045 122.611 21.6873 122.611 21.4981C122.611 21.2989 122.471 21.1923 122.239 21.1923Z" fill="#0C1318"/>
</g>
<defs>
<clipPath id="clip0_589_757">
<rect width="110" height="34" fill="white" transform="translate(14 7)"/>
</clipPath>
</defs>
</svg>
