<svg width="83" height="48" viewBox="0 0 83 48" fill="none" xmlns="http://www.w3.org/2000/svg">
<path d="M61.8571 22.55H66.8962V27.6153H61.8571V22.55ZM46.7409 22.55H51.7791V27.6153H46.7409V22.55ZM31.6238 22.55H36.6628V27.6153H31.6238V22.55ZM28.4163 30.6771C28.4163 32.284 28.6495 33.3271 29.1178 33.8079C29.5136 34.2177 30.1883 34.4699 31.1341 34.5639C31.4146 34.5876 31.8954 34.5986 32.5744 34.5986V36.0065H20.4328V34.5986C21.4081 34.5986 22.1265 34.5521 22.5914 34.458C23.5322 34.2591 24.1251 33.7079 24.3685 32.8046C24.4957 32.3364 24.5606 31.6271 24.5606 30.6771V12.2743C22.5004 12.3327 20.8893 13.0185 19.7261 14.3324C18.6211 15.5896 17.9474 17.5139 17.7023 20.1063L16.3901 19.8785L16.6344 11.0771H36.3727L36.6178 19.8785L35.304 20.1063C35.0597 17.5139 34.3801 15.5896 33.2708 14.3324C32.1018 13.0185 30.483 12.3326 28.4163 12.2743V30.6771ZM16.414 22.55H21.453V27.6153H16.414V22.55Z" fill="#0C1318"/>
</svg>
