<svg width="124" height="48" viewBox="0 0 124 48" fill="none" xmlns="http://www.w3.org/2000/svg">
<path d="M63.9993 23.3105C64.5386 23.3105 65.0235 23.2238 65.4541 23.0502C65.8847 22.8767 66.2513 22.6349 66.5539 22.325C66.8565 22.0149 67.0883 21.6464 67.2493 21.2194C67.4103 20.7924 67.4907 20.3273 67.4907 19.8244V14.7588H65.9255V19.8244C65.9255 20.148 65.8818 20.4405 65.7945 20.7017C65.7073 20.963 65.5812 21.1853 65.4163 21.3686C65.2514 21.5518 65.0497 21.6941 64.8111 21.7956C64.5725 21.8969 64.3019 21.9476 63.9993 21.9476C63.6967 21.9476 63.4262 21.8969 63.1875 21.7956C62.949 21.6941 62.7483 21.5509 62.5853 21.3656C62.4223 21.1805 62.2972 20.9572 62.21 20.6959C62.1227 20.4346 62.079 20.1422 62.079 19.8185V14.7588H60.5137V19.8244C60.5137 20.3273 60.5942 20.7924 60.7552 21.2194C60.9162 21.6464 61.147 22.0149 61.4476 22.325C61.7483 22.6349 62.1139 22.8767 62.5445 23.0502C62.9751 23.2238 63.4601 23.3105 63.9993 23.3105ZM70.9299 23.2169V18.0227C70.9299 17.9213 70.9269 17.8092 70.9211 17.6864C70.9153 17.5636 70.9066 17.4398 70.895 17.315L75.2942 22.9479C75.3717 23.0493 75.4513 23.1195 75.5327 23.1585C75.6142 23.1975 75.717 23.2169 75.8412 23.2169H76.65V14.7588H75.2709V19.9003C75.2709 20.0135 75.2738 20.1353 75.2796 20.266C75.2854 20.3966 75.2961 20.5301 75.3116 20.6667L70.895 15.0103C70.8522 14.9557 70.8135 14.9118 70.7786 14.8787C70.7437 14.8456 70.7078 14.8202 70.6709 14.8026C70.634 14.7851 70.5924 14.7734 70.5458 14.7676C70.4992 14.7617 70.4411 14.7588 70.3712 14.7588H69.5507V23.2169H70.9299ZM80.5779 23.2169V14.7588H79.0067V23.2169H80.5779ZM86.333 23.2169V16.0515H88.8642V14.7588H82.2246V16.0515H84.7676V23.2169H86.333ZM95.6316 23.2169V21.9593H91.9018V19.5669H94.8405V18.3561H91.9018V16.0106H95.6316V14.7588H90.3248V23.2169H95.6316ZM100.665 23.2169C101.301 23.2169 101.882 23.1137 102.405 22.907C102.929 22.7003 103.377 22.4098 103.749 22.0354C104.122 21.661 104.411 21.2145 104.617 20.6959C104.822 20.1773 104.925 19.6079 104.925 18.9879C104.925 18.3678 104.822 17.7985 104.617 17.2798C104.411 16.7612 104.122 16.3156 103.749 15.9433C103.377 15.5708 102.929 15.2803 102.405 15.0717C101.882 14.8631 101.301 14.7588 100.665 14.7588H97.4528V23.2169H100.665ZM100.665 21.9653H99.0303V16.0106H100.665C101.077 16.0106 101.446 16.0788 101.774 16.2152C102.101 16.3517 102.38 16.5477 102.609 16.8031C102.838 17.0585 103.014 17.3705 103.138 17.739C103.263 18.1075 103.324 18.5238 103.324 18.9879C103.324 19.4519 103.263 19.8682 103.138 20.2367C103.014 20.6052 102.838 20.9172 102.609 21.1726C102.38 21.428 102.101 21.624 101.774 21.7605C101.446 21.8969 101.077 21.9653 100.665 21.9653ZM61.9918 36.6197V31.4255C61.9918 31.3241 61.9888 31.212 61.983 31.0892C61.9772 30.9664 61.9684 30.8426 61.9568 30.7178L66.3561 36.3507C66.4336 36.4521 66.5132 36.5223 66.5946 36.5613C66.6761 36.6003 66.7789 36.6197 66.903 36.6197H67.7119V28.1616H66.3327V33.3031C66.3327 33.4163 66.3357 33.5381 66.3415 33.6688C66.3473 33.7994 66.3579 33.9329 66.3735 34.0695L61.9568 28.4131C61.9142 28.3585 61.8754 28.3146 61.8405 28.2815C61.8055 28.2484 61.7697 28.223 61.7328 28.2054C61.6959 28.1879 61.6542 28.1762 61.6077 28.1704C61.5612 28.1645 61.5029 28.1616 61.4331 28.1616H60.6126V36.6197H61.9918ZM70.2781 36.6197C70.41 36.6197 70.5216 36.5827 70.6127 36.5086C70.7039 36.4346 70.765 36.3527 70.796 36.263L71.4244 34.5374H74.9101L75.5386 36.263C75.5774 36.3643 75.6404 36.4492 75.7276 36.5174C75.815 36.5857 75.9265 36.6197 76.0623 36.6197H77.2726L73.9674 28.1616H72.3672L69.0619 36.6197H70.2781ZM74.5085 33.426H71.826L72.8501 30.6242C72.9005 30.4955 72.9519 30.3453 73.0044 30.1737C73.0567 30.0022 73.1101 29.8169 73.1643 29.618C73.2187 29.8169 73.2739 30.0012 73.3302 30.1709C73.3864 30.3404 73.4379 30.4877 73.4844 30.6125L74.5085 33.426ZM81.1481 36.6197V29.4543H83.6794V28.1616H77.0399V29.4543H79.5828V36.6197H81.1481ZM86.9032 36.6197V28.1616H85.3321V36.6197H86.9032ZM93.071 36.7133C93.7079 36.7133 94.2876 36.6052 94.811 36.3887C95.3353 36.1723 95.783 35.871 96.1559 35.485C96.5279 35.099 96.8168 34.6417 97.0227 34.1133C97.2285 33.5849 97.331 33.0107 97.331 32.3907C97.331 31.7706 97.2285 31.1964 97.0227 30.668C96.8168 30.1397 96.5279 29.6834 96.1559 29.2993C95.783 28.9152 95.3353 28.6139 94.811 28.3955C94.2876 28.1772 93.7079 28.068 93.071 28.068C92.435 28.068 91.8543 28.1762 91.3286 28.3926C90.803 28.609 90.353 28.9103 89.9786 29.2963C89.6042 29.6824 89.3142 30.1397 89.1087 30.668C88.903 31.1964 88.8002 31.7706 88.8002 32.3907C88.8002 33.0107 88.903 33.5849 89.1087 34.1133C89.3142 34.6417 89.6042 35.099 89.9786 35.485C90.353 35.871 90.803 36.1723 91.3286 36.3887C91.8543 36.6052 92.435 36.7133 93.071 36.7133ZM93.071 35.368C92.6602 35.368 92.2897 35.2997 91.9599 35.1633C91.6302 35.0268 91.35 34.8308 91.1191 34.5754C90.8883 34.32 90.7108 34.008 90.5867 33.6395C90.4625 33.271 90.4004 32.8547 90.4004 32.3907C90.4004 31.9266 90.4625 31.5103 90.5867 31.1418C90.7108 30.7733 90.8883 30.4603 91.1191 30.203C91.35 29.9456 91.6302 29.7487 91.9599 29.6122C92.2897 29.4757 92.6602 29.4075 93.071 29.4075C93.4827 29.4075 93.8519 29.4757 94.1796 29.6122C94.5082 29.7487 94.786 29.9456 95.015 30.203C95.2439 30.4603 95.4193 30.7733 95.542 31.1418C95.6639 31.5103 95.7248 31.9266 95.7248 32.3907C95.7248 32.8547 95.6639 33.271 95.542 33.6395C95.4193 34.008 95.2439 34.32 95.015 34.5754C94.786 34.8308 94.5082 35.0268 94.1796 35.1633C93.8519 35.2997 93.4827 35.368 93.071 35.368ZM100.409 36.6197V31.4255C100.409 31.3241 100.407 31.212 100.4 31.0892C100.395 30.9664 100.386 30.8426 100.374 30.7178L104.774 36.3507C104.851 36.4521 104.931 36.5223 105.012 36.5613C105.094 36.6003 105.196 36.6197 105.32 36.6197H106.13V28.1616H104.751V33.3031C104.751 33.4163 104.753 33.5381 104.759 33.6688C104.764 33.7994 104.776 33.9329 104.791 34.0695L100.374 28.4131C100.332 28.3585 100.293 28.3146 100.258 28.2815C100.223 28.2484 100.187 28.223 100.15 28.2054C100.113 28.1879 100.072 28.1762 100.025 28.1704C99.9783 28.1645 99.9202 28.1616 99.851 28.1616H99.0303V36.6197H100.409ZM110.418 36.7133C110.884 36.7133 111.297 36.6422 111.657 36.4998C112.018 36.3575 112.324 36.1625 112.574 35.9149C112.824 35.6673 113.014 35.3768 113.144 35.0434C113.274 34.71 113.339 34.3522 113.339 33.97C113.339 33.619 113.284 33.3208 113.174 33.075C113.063 32.8294 112.916 32.6217 112.734 32.4521C112.552 32.2825 112.344 32.1421 112.111 32.0309C111.879 31.9198 111.641 31.8223 111.399 31.7384C111.156 31.6546 110.919 31.5757 110.686 31.5016C110.453 31.4274 110.246 31.3436 110.063 31.25C109.881 31.1564 109.734 31.0433 109.624 30.9108C109.513 30.7781 109.458 30.6125 109.458 30.4135C109.458 30.2576 109.485 30.1143 109.54 29.9836C109.594 29.853 109.676 29.7409 109.787 29.6473C109.897 29.5537 110.033 29.4806 110.194 29.428C110.355 29.3753 110.544 29.3489 110.762 29.3489C111.002 29.3489 111.21 29.3792 111.387 29.4397C111.564 29.5001 111.718 29.5673 111.849 29.6415C111.981 29.7156 112.096 29.7828 112.192 29.8433C112.289 29.9037 112.377 29.9339 112.455 29.9339C112.532 29.9339 112.6 29.9164 112.656 29.8813C112.712 29.8462 112.761 29.7857 112.804 29.7L113.188 28.9571C112.893 28.6763 112.536 28.4579 112.117 28.302C111.699 28.146 111.241 28.068 110.744 28.068C110.306 28.068 109.915 28.1362 109.575 28.2727C109.233 28.4092 108.945 28.5905 108.71 28.8167C108.475 29.0429 108.297 29.3021 108.174 29.5947C108.053 29.8871 107.992 30.1874 107.992 30.4955C107.992 30.8815 108.047 31.2062 108.158 31.4693C108.268 31.7326 108.414 31.9519 108.597 32.1274C108.779 32.3029 108.987 32.4452 109.219 32.5544C109.452 32.6636 109.689 32.7572 109.929 32.8352C110.17 32.9132 110.406 32.9853 110.639 33.0517C110.872 33.118 111.079 33.1988 111.262 33.2944C111.444 33.3899 111.591 33.5079 111.701 33.6483C111.811 33.7887 111.867 33.97 111.867 34.1922C111.867 34.5901 111.745 34.8952 111.5 35.1077C111.256 35.3202 110.91 35.4265 110.464 35.4265C110.174 35.4265 109.924 35.3865 109.717 35.3066C109.509 35.2266 109.329 35.1379 109.176 35.0405C109.023 34.943 108.89 34.8543 108.777 34.7743C108.665 34.6944 108.56 34.6544 108.463 34.6544C108.389 34.6544 108.322 34.6729 108.262 34.71C108.202 34.747 108.15 34.7928 108.108 34.8474L107.654 35.602C107.817 35.7697 108.002 35.9217 108.209 36.0582C108.417 36.1948 108.64 36.3117 108.879 36.4092C109.118 36.5067 109.367 36.5817 109.626 36.6344C109.887 36.687 110.151 36.7133 110.418 36.7133Z" fill="#0C1318"/>
<path d="M37.8688 40.8036C37.6401 41.0664 37.3441 41.3119 37.065 41.5383C35.2621 39.6653 33.1453 37.5894 31.1333 37.5894C29.886 37.5894 28.9875 38.544 27.9394 39.2175C26.4848 40.152 24.4896 40.6783 22.7798 39.9924C21.8601 39.6414 20.969 39.1244 20.3032 38.2845C21.649 39.2175 23.6642 39.3428 25.1834 38.7093C26.8628 38.009 28.572 37.0791 30.4857 37.0791C33.3068 37.0791 35.988 38.9973 37.8688 40.8036ZM17.0184 34.9127C18.8862 37.0499 21.9326 36.3623 24.426 36.8961C24.773 36.9704 25.0991 37.0863 25.4715 37.0287C25.1751 36.8398 24.7822 36.8185 24.4397 36.6888C22.5051 35.9562 22.2035 33.8749 21.1447 32.4424C22.497 33.3461 23.6174 34.5834 24.882 35.7461C25.7621 36.5553 26.8586 36.9016 27.9959 37.1342C27.7226 37.2346 27.3651 37.2109 27.0709 37.2843C25.0281 37.7937 22.7632 38.5977 20.5897 37.8767C19.187 37.4114 17.7272 36.3094 17.0184 34.9127ZM14.0245 29.9661C15.1895 32.6176 18.1166 32.8252 20.0629 34.4519C20.433 34.7612 20.7998 35.0458 21.2064 35.2364L21.2273 35.2151C20.7782 34.8066 20.2922 34.3198 19.9443 33.8117C18.8319 32.187 19.2021 29.9662 18.3445 28.2436C19.1236 29.1816 19.8546 30.1474 20.3033 31.2212C21.0254 32.9494 21.2706 34.9208 22.8901 36.234C21.1373 35.6527 19.1154 35.7684 17.537 34.7293C15.878 33.6369 14.3404 31.9128 14.0245 29.9661ZM12.7764 24.6016C12.9448 26.9378 15.419 28.1857 16.5988 30.1059C16.8508 30.5161 17.1101 30.9395 17.476 31.2707C17.419 31.0219 17.2154 30.8016 17.1033 30.5575C16.7249 29.7336 16.5536 28.7801 16.6481 27.7996C16.763 26.6067 17.2577 25.499 17.0678 24.244C18.0847 26.4504 17.7567 29.2086 18.3445 31.5943C18.4744 32.122 18.7942 32.5839 18.9912 33.0837C17.992 32.3197 16.6827 31.6415 15.586 30.7726C14.5254 29.9322 13.6048 28.9473 13.1263 27.6656C12.7814 26.7422 12.6918 25.6406 12.7764 24.6016ZM12.8455 20.2974C12.9649 19.7761 13.0562 19.2364 13.2818 18.7581C12.8546 20.9618 14.313 22.5537 14.811 24.4602C14.9986 25.1787 15.0628 25.9421 15.3518 26.6126C15.3788 26.6271 15.4022 26.5989 15.4189 26.5772C14.6993 24.5481 15.7541 22.673 16.7816 21.0735C17.0517 20.6532 17.1818 20.1636 17.3078 19.6687C17.419 20.5873 17.2245 21.6506 17.0554 22.5984C16.8378 23.8187 16.4229 24.9624 16.0931 26.1398C15.876 26.8753 15.9332 27.7053 16.0446 28.476L15.9399 28.392C15.1749 26.9723 13.6655 25.8632 13.2097 24.3137C12.8453 23.0754 12.5933 21.6447 12.8455 20.2974ZM13.6525 17.9269C13.6525 16.2592 14.2984 14.8989 15.2673 13.6569C15.2954 13.6429 15.3155 13.6145 15.3518 13.6212C14.285 15.2522 15.2559 17.311 15.1189 19.161L14.9782 21.0597C14.999 21.0736 14.999 21.1305 15.0486 21.1087C15.1117 20.8971 15.1308 20.6718 15.1674 20.4532C15.4242 18.9226 16.7614 17.8572 17.8954 16.7764C18.1636 16.5208 18.3601 16.2186 18.4865 15.8938C18.3922 16.6563 18.1806 17.4378 17.8401 18.1308C16.9672 19.9071 15.2814 21.341 14.9782 23.3596C14.8311 21.425 13.6525 19.9867 13.6525 17.9269ZM16.4642 12.3015C17.0006 11.7037 17.6017 11.238 18.3173 11.0538C16.9276 12.0144 17.003 13.7312 16.5776 15.1667C16.422 15.6916 16.1933 16.1833 16.0718 16.7257L16.1069 16.754C16.3382 16.1407 16.7349 15.5512 17.2517 15.061C18.2293 14.134 19.6988 13.5728 20.1825 12.2168C20.1604 14.1012 18.5624 15.5337 17.1029 16.6419C16.4484 17.1389 15.892 17.8063 15.5526 18.5058C15.6093 17.9852 15.635 17.552 15.5888 17.0439C15.439 15.3976 15.3419 13.5522 16.4642 12.3015ZM22.105 9.1333C21.0735 10.0431 20.3853 11.214 19.593 12.2667C18.9339 13.1422 18.0298 13.6847 17.2521 14.4194C17.6718 13.5438 17.7494 12.5407 18.2824 11.6938C19.1941 10.2456 20.7006 9.68343 22.105 9.1333Z" fill="#0C1318"/>
<path d="M27.208 40.8036C27.4367 41.0664 27.7328 41.3119 28.0118 41.5383C29.8148 39.6653 31.9315 37.5894 33.9435 37.5894C35.1909 37.5894 36.0893 38.544 37.1375 39.2175C38.592 40.152 40.5873 40.6783 42.2971 39.9924C43.2167 39.6414 44.1078 39.1244 44.7736 38.2845C43.4279 39.2175 41.4126 39.3428 39.8934 38.7093C38.214 38.009 36.5049 37.0791 34.5911 37.0791C31.77 37.0791 29.0889 38.9973 27.208 40.8036ZM48.0585 34.9127C46.1906 37.0499 43.1443 36.3623 40.6509 36.8961C40.3039 36.9704 39.9778 37.0863 39.6053 37.0287C39.9017 36.8398 40.2947 36.8185 40.637 36.6888C42.5717 35.9562 42.8734 33.8749 43.932 32.4424C42.5798 33.3461 41.4594 34.5834 40.1949 35.7461C39.3147 36.5553 38.2182 36.9016 37.081 37.1342C37.3542 37.2346 37.7117 37.2109 38.006 37.2843C40.0487 37.7937 42.3135 38.5977 44.4872 37.8767C45.8899 37.4114 47.3496 36.3094 48.0585 34.9127ZM51.0524 29.9661C49.8874 32.6176 46.9602 32.8252 45.014 34.4519C44.6438 34.7612 44.277 35.0458 43.8705 35.2364L43.8495 35.2151C44.2986 34.8066 44.7846 34.3198 45.1325 33.8117C46.2449 32.187 45.8747 29.9662 46.7324 28.2436C45.9532 29.1816 45.2222 30.1474 44.7735 31.2212C44.0515 32.9494 43.8062 34.9208 42.1867 36.234C43.9395 35.6527 45.9614 35.7684 47.5398 34.7293C49.1988 33.6369 50.7364 31.9128 51.0524 29.9661ZM52.3005 24.6016C52.132 26.9378 49.6578 28.1857 48.478 30.1059C48.226 30.5161 47.9667 30.9395 47.6008 31.2707C47.6579 31.0219 47.8615 30.8016 47.9735 30.5575C48.3519 29.7336 48.5231 28.7801 48.4287 27.7996C48.3138 26.6067 47.8191 25.499 48.009 24.244C46.9921 26.4504 47.3201 29.2086 46.7324 31.5943C46.6024 32.122 46.2827 32.5839 46.0857 33.0837C47.0848 32.3197 48.3941 31.6415 49.4908 30.7726C50.5514 29.9322 51.472 28.9473 51.9505 27.6656C52.2954 26.7422 52.385 25.6406 52.3005 24.6016ZM52.2313 20.2974C52.112 19.7761 52.0207 19.2364 51.795 18.7581C52.2223 20.9618 50.7638 22.5537 50.2658 24.4602C50.0783 25.1787 50.014 25.9421 49.725 26.6126C49.698 26.6271 49.6747 26.5989 49.658 26.5772C50.3775 24.5481 49.3227 22.673 48.2952 21.0735C48.0251 20.6532 47.8951 20.1636 47.769 19.6687C47.6579 20.5873 47.8523 21.6506 48.0214 22.5984C48.239 23.8187 48.6539 24.9624 48.9838 26.1398C49.2009 26.8753 49.1436 27.7053 49.0322 28.476L49.1369 28.392C49.9019 26.9723 51.4114 25.8632 51.8672 24.3137C52.2315 23.0754 52.4835 21.6447 52.2313 20.2974ZM51.4244 17.9269C51.4244 16.2592 50.7784 14.8989 49.8095 13.6569C49.7814 13.6429 49.7614 13.6145 49.7251 13.6212C50.7918 15.2522 49.8209 17.311 49.958 19.161L50.0987 21.0597C50.0778 21.0736 50.0778 21.1305 50.0282 21.1087C49.9652 20.8971 49.9461 20.6718 49.9094 20.4532C49.6526 18.9226 48.3155 17.8572 47.1815 16.7764C46.9132 16.5208 46.7168 16.2186 46.5903 15.8938C46.6847 16.6563 46.8962 17.4378 47.2367 18.1308C48.1096 19.9071 49.7954 21.341 50.0987 23.3596C50.2457 21.425 51.4244 19.9867 51.4244 17.9269ZM48.6127 12.3015C48.0763 11.7037 47.4752 11.238 46.7594 11.0538C48.1492 12.0144 48.0738 13.7312 48.4992 15.1667C48.6549 15.6916 48.8835 16.1833 49.0051 16.7257L48.9699 16.754C48.7387 16.1407 48.3419 15.5512 47.8251 15.061C46.8476 14.134 45.3779 13.5728 44.8943 12.2168C44.9164 14.1012 46.5143 15.5337 47.9739 16.6419C48.6285 17.1389 49.1848 17.8063 49.5242 18.5058C49.4675 17.9852 49.4418 17.552 49.488 17.0439C49.6379 15.3976 49.735 13.5522 48.6127 12.3015ZM42.9719 9.1333C44.0033 10.0431 44.6915 11.214 45.4838 12.2667C46.1429 13.1422 47.0471 13.6847 47.8247 14.4194C47.4049 13.5438 47.3275 12.5407 46.7944 11.6938C45.8828 10.2456 44.3761 9.68343 42.9719 9.1333Z" fill="#0C1318"/>
<path d="M45.1362 27.9698L44.8315 27.8027C44.1856 29.1416 43.3303 30.3601 42.3073 31.414L40.5275 29.625C41.3994 28.7218 42.1025 27.6967 42.6204 26.5887L42.3172 26.4221C41.8051 27.5207 41.1163 28.5203 40.2856 29.3816L38.6734 27.761C39.3654 27.0378 39.9147 26.2125 40.311 25.3207L40.0102 25.1557C39.622 26.0346 39.0865 26.8339 38.4321 27.519L36.6504 25.728C37.1459 25.2002 37.5284 24.5929 37.7888 23.9358L37.4878 23.7707C37.239 24.4115 36.8714 24.9932 36.4107 25.4867L34.7935 23.8615C35.2542 23.3446 35.5214 22.6963 35.5592 22.0036H37.8482C37.8287 22.6253 37.702 23.2199 37.4878 23.7707L37.7888 23.9358C38.0298 23.3269 38.1657 22.6757 38.1852 22.0036H40.7085C40.6858 23.1234 40.4375 24.1881 40.0102 25.1557L40.311 25.3207C40.7699 24.2877 41.0234 23.1654 41.0458 22.0034H43.3304C43.3064 23.5804 42.9447 25.0758 42.3172 26.4221L42.6204 26.5887C43.2838 25.1697 43.6442 23.6144 43.6679 22.0034H46.191C46.1658 24.0792 45.6796 26.0447 44.8315 27.8027L45.1362 27.9698C46.0484 26.0811 46.5327 23.9952 46.5327 21.8339C46.5327 19.9959 46.1824 18.2127 45.5167 16.5584L45.2041 16.6936C45.831 18.2546 46.1707 19.9333 46.1917 21.6644H43.6682C43.6478 20.2834 43.3778 18.9443 42.8839 17.696L42.5736 17.8297C43.05 19.0364 43.3108 20.3301 43.3309 21.6644H41.046C41.0265 20.6474 40.8292 19.6606 40.473 18.7374L40.1627 18.8714C40.5014 19.7525 40.6892 20.6941 40.709 21.6644H38.1854C38.1676 21.0443 38.0507 20.4414 37.8435 19.8733L37.5332 20.0072C37.7236 20.5332 37.8306 21.0908 37.8484 21.6644H35.5594C35.5216 20.9715 35.2544 20.3232 34.7937 19.8065L36.4125 18.1796C36.9124 18.7139 37.2904 19.3344 37.5332 20.0072L37.8435 19.8733C37.5836 19.1618 37.1814 18.5054 36.6507 17.9399L38.435 16.1464C39.1964 16.9431 39.7775 17.868 40.1627 18.8714L40.473 18.7374C40.0709 17.6951 39.4656 16.7342 38.6735 15.9068L40.2892 14.2824C41.2897 15.3197 42.0584 16.5233 42.5736 17.8297L42.8839 17.696C42.3517 16.3506 41.5589 15.111 40.5276 14.0431L42.3117 12.2493C43.5735 13.5487 44.5469 15.0563 45.2041 16.6936L45.5167 16.5584C44.8223 14.8309 43.7839 13.2442 42.4338 11.887C41.0786 10.5247 39.4931 9.47863 37.767 8.78043L37.6427 9.09858C39.275 9.75952 40.7782 10.739 42.0732 12.0097L40.2891 13.8033C39.2446 12.7859 38.0346 11.9972 36.7209 11.4629L36.5978 11.7783C37.868 12.2963 39.039 13.0592 40.0507 14.0457L38.4352 15.6697C37.6498 14.9103 36.7442 14.3204 35.7625 13.9168L35.6392 14.2322C36.5785 14.6191 37.4448 15.1835 38.1968 15.9095L36.4127 17.7029C35.9108 17.2274 35.337 16.8542 34.7169 16.594L34.5936 16.9096C35.1714 17.153 35.7058 17.5004 36.1743 17.9427L34.5558 19.5696C34.0413 19.1065 33.3966 18.838 32.7072 18.8002V16.4994C33.3651 16.5198 34.0019 16.6601 34.5936 16.9096L34.7169 16.594C34.0866 16.3292 33.4077 16.181 32.7072 16.1602V13.6237C33.729 13.6444 34.7188 13.8531 35.6392 14.2322L35.7625 13.9168C34.8034 13.5224 33.7716 13.3056 32.7072 13.2849V10.9871C34.0621 11.0079 35.3759 11.2804 36.5978 11.7783L36.7209 11.4629C35.4602 10.9495 34.1052 10.669 32.7071 10.6483V8.11145C34.4258 8.13235 36.0928 8.47285 37.6429 9.10024L37.7671 8.78209C36.1271 8.11833 34.3598 7.76855 32.5387 7.76855C30.2888 7.76855 28.1631 8.30815 26.278 9.26032L26.4318 9.55617C28.2558 8.63741 30.2741 8.13687 32.3702 8.11143V10.6483C30.6607 10.6738 29.0454 11.0908 27.6049 11.8099L27.7582 12.1049C29.1774 11.3986 30.744 11.0118 32.3701 10.9868V13.2838C31.099 13.3089 29.8962 13.6162 28.8198 14.1444L28.974 14.4407C30.0219 13.9294 31.1742 13.6468 32.3702 13.6226V16.1594C31.5772 16.1829 30.825 16.3718 30.1458 16.6921L30.3007 16.9896C30.9432 16.6894 31.6442 16.5207 32.3702 16.4982V18.7993C32.0151 18.8192 31.6764 18.9006 31.3643 19.0329L31.519 19.3304C31.8382 19.1989 32.1832 19.1297 32.5387 19.1297C33.2577 19.1297 33.9336 19.4111 34.442 19.9221C34.9505 20.4332 35.2304 21.1128 35.2304 21.8356C35.2304 23.3275 34.0231 24.5416 32.5387 24.5416C31.8196 24.5416 31.1436 24.26 30.6352 23.749C30.1267 23.2377 29.8468 22.5584 29.8468 21.8355C29.8468 21.1127 30.1267 20.4331 30.6352 19.922C30.8923 19.6637 31.1924 19.4648 31.519 19.3304L31.3643 19.0329C31.0541 19.1646 30.7701 19.3466 30.5226 19.5693L28.9032 17.9415C29.3216 17.5463 29.7929 17.2268 30.3007 16.9896L30.1458 16.6921C29.5997 16.9498 29.1006 17.2922 28.6664 17.7036L26.8805 15.9083C27.5068 15.3035 28.2132 14.8123 28.974 14.4407L28.8198 14.1444C28.0163 14.5386 27.2828 15.0548 26.6449 15.6714L25.0265 14.0445C25.8433 13.2478 26.7654 12.5988 27.7582 12.1049L27.6049 11.8099C26.5656 12.3287 25.6163 13.004 24.7914 13.8086L23.0036 12.0114C24.0286 11.0056 25.1852 10.1842 26.4318 9.55617L26.278 9.26032C23.5532 10.6367 21.3348 12.8798 19.9841 15.6296L20.2772 15.7886C20.9071 14.5007 21.7403 13.3066 22.7653 12.2509L24.5533 14.0482C23.7215 14.9096 23.0266 15.9046 22.5033 16.9978L22.7954 17.1564C23.2938 16.1096 23.9622 15.1401 24.7878 14.2843L26.4065 15.9111C25.754 16.5932 25.2143 17.3842 24.8142 18.2529L25.1069 18.4117C25.4838 17.5859 25.9987 16.8211 26.6421 16.148L28.4281 17.9433C27.9715 18.4302 27.5997 18.9979 27.3358 19.6226L27.6309 19.783C27.8734 19.1971 28.2211 18.6552 28.6646 18.181L30.284 19.8088C29.8394 20.3084 29.5571 20.9541 29.518 21.6658H27.2285C27.2488 21.0096 27.3865 20.374 27.6309 19.783L27.3358 19.6226C27.0692 20.2536 26.9128 20.9429 26.8914 21.6657H24.3681C24.3908 20.5243 24.6456 19.4221 25.1069 18.4117L24.8142 18.2529C24.3341 19.2949 24.0549 20.4492 24.0314 21.6658H21.746C21.7699 20.0795 22.132 18.5494 22.7954 17.1564L22.5033 16.9978C21.8245 18.4148 21.4341 19.9963 21.4094 21.6658H18.8856C18.9103 19.5942 19.3922 17.5979 20.2772 15.7886L19.9841 15.6296C19.064 17.5028 18.5444 19.6088 18.5444 21.8354C18.5444 23.1973 18.7379 24.5285 19.1075 25.8001L19.4381 25.7165C19.0905 24.5249 18.9008 23.2793 18.8856 22.005H21.4089C21.4245 23.0675 21.5874 24.1057 21.8863 25.0969L22.2135 25.014C21.9209 24.0497 21.7618 23.0391 21.7459 22.005H24.0308C24.0474 22.8473 24.1855 23.6693 24.4344 24.4515L24.7622 24.3683C24.5195 23.6132 24.3846 22.8189 24.3681 22.005H26.8914C26.9091 22.6074 27.0198 23.1936 27.2162 23.7473L27.5441 23.664C27.3539 23.1375 27.2463 22.579 27.2285 22.0051H29.5177C29.5555 22.6977 29.8225 23.3461 30.2832 23.8628L28.6646 25.49C28.1652 24.9558 27.7872 24.336 27.5441 23.664L27.2162 23.7473C27.4752 24.4774 27.8834 25.1512 28.4262 25.7295L26.642 27.523C25.7742 26.6148 25.139 25.5384 24.7628 24.3691L24.4351 24.4521C24.8258 25.6801 25.4918 26.8098 26.4044 27.7632L24.7885 29.3876C23.5802 28.135 22.7074 26.6408 22.2143 25.0145L21.8863 25.0969C22.3945 26.7817 23.2981 28.3305 24.5501 29.6271L22.7658 31.4207C21.1867 29.7943 20.0589 27.8422 19.4389 25.7171L19.1083 25.8007C19.7587 28.038 20.9587 30.0888 22.6441 31.7827C23.7854 32.9302 25.09 33.854 26.5043 34.5345L26.6718 34.236C25.3332 33.5948 24.0951 32.7307 23.0043 31.6602L24.7884 29.8668C25.7157 30.7715 26.773 31.493 27.9163 32.0185L28.0829 31.7217C26.9656 31.212 25.9324 30.5095 25.027 29.6273L26.6428 28.003C27.4 28.7354 28.2695 29.3095 29.211 29.7116L29.3774 29.4152C28.4629 29.0294 27.6171 28.4746 26.8818 27.7644L28.6661 25.9709C29.2394 26.5146 29.9069 26.924 30.6305 27.1846L30.799 26.8844C30.1006 26.6413 29.4565 26.2526 28.9046 25.7313L30.5231 24.1041C31.0373 24.5676 31.6819 24.8359 32.3713 24.8739V27.175C31.8283 27.1581 31.2997 27.0584 30.799 26.8844L30.6305 27.1846C31.1835 27.3841 31.769 27.496 32.3714 27.5139V30.0501C31.3272 30.0292 30.3155 29.8118 29.3781 29.4165L29.2118 29.7128C30.2003 30.1352 31.268 30.3677 32.3714 30.3892V32.6861C30.8679 32.6627 29.4158 32.3306 28.0836 31.7229L27.9172 32.0198C29.2999 32.655 30.809 33.0015 32.3714 33.025V35.5612C30.3672 35.5369 28.433 35.0803 26.6726 34.2372L26.5051 34.5358C28.3655 35.431 30.4163 35.9042 32.54 35.9042C34.7677 35.9042 36.914 35.381 38.8458 34.3985L38.6862 34.0875C36.8848 35.0046 34.8567 35.5346 32.7084 35.5612V33.0249C34.4118 32.9996 36.0514 32.5892 37.5329 31.8402L37.3754 31.5332C35.9672 32.2461 34.3844 32.6597 32.7085 32.6859V30.3889C33.9864 30.3642 35.2165 30.056 36.3307 29.4973L36.1742 29.1919C35.1258 29.7174 33.9515 30.0245 32.7085 30.05V27.5137C33.5224 27.4897 34.3059 27.2928 35.019 26.942L34.8635 26.6384C34.2086 26.9597 33.4794 27.1502 32.7084 27.1748V24.8739C33.3977 24.8359 34.0425 24.5676 34.557 24.1041L36.1738 25.7296C35.7867 26.0948 35.3454 26.4018 34.8635 26.6384L35.019 26.942C35.5243 26.6933 35.9946 26.3685 36.4139 25.971L38.1953 27.7616C37.6005 28.336 36.9191 28.8186 36.1742 29.1919L36.3307 29.4973C37.0948 29.1144 37.805 28.6148 38.4365 28.0042L40.0487 29.6247C39.2633 30.3904 38.3618 31.0345 37.3754 31.5332L37.5329 31.8402C38.5346 31.3338 39.4645 30.6743 40.2906 29.868L42.0703 31.657C41.0774 32.6312 39.9357 33.4516 38.6862 34.0875L38.8458 34.3985C40.1551 33.7325 41.3673 32.8576 42.4353 31.784C43.5581 30.6556 44.464 29.3679 45.1377 27.9731L45.1362 27.9698Z" fill="#0C1318"/>
<path d="M33.3531 18.5781L33.2559 18.5814L33.2604 18.6833L33.3584 18.6792L33.3531 18.5781Z" fill="#0C1318"/>
<path d="M34.1565 18.4429H33.1309V19.4739H34.1565V18.4429Z" fill="#0C1318"/>
<path d="M32.9277 18.4157L33.0269 18.4312L33.0388 18.3428L32.9396 18.3281L32.9277 18.4157Z" fill="#0C1318"/>
<path d="M32.8447 18.3838L32.7461 18.3699L32.7581 18.2842L32.8567 18.2981L32.8447 18.3838Z" fill="#0C1318"/>
<path d="M33.0559 18.2695H32.0303V19.3005H33.0559V18.2695Z" fill="#0C1318"/>
<path d="M31.7842 18.4449L31.8827 18.4596L31.8946 18.3712L31.7962 18.3564L31.7842 18.4449Z" fill="#0C1318"/>
<path d="M31.7949 18.5719L31.6816 18.5438L31.7022 18.46L31.8156 18.4881L31.7949 18.5719Z" fill="#0C1318"/>
<path d="M31.5931 18.6789L31.5791 18.5924L31.6627 18.5786L31.6768 18.6651L31.5931 18.6789Z" fill="#0C1318"/>
<path d="M20.5116 27.5149V27.7023H20.5967L20.582 27.4865L20.469 27.443V27.3711H20.3984V27.5149H20.5116Z" fill="#0C1318"/>
<path d="M21.105 28.0337L21.3166 28.1341L21.3877 28.3357L21.4861 28.4084L21.5853 28.6242L21.5288 28.7246L21.3737 28.5807L21.2606 28.4226L21.2041 28.293L21.105 28.0337Z" fill="#0C1318"/>
<path d="M24.6754 32.4685L24.7465 32.6559L24.6474 32.7135L24.5908 32.6274L24.4499 32.5839L24.4358 32.4543L24.3228 32.2812L24.4924 32.3104L24.6754 32.4685Z" fill="#0C1318"/>
<path d="M32.1008 19.5082H31.9456L31.9173 19.1914L32.002 19.1336V18.9752H31.5079L31.4938 18.817L31.5646 18.7737L31.4515 18.7305L31.3667 18.8456L31.3387 18.9752L31.1975 19.0042V19.076H31.0987V19.2632L30.7034 19.5944L29.913 19.5658C29.8564 19.6953 29.7151 19.5512 29.7151 19.5512C29.6871 19.4649 29.4895 19.5512 29.4895 19.5512C29.4895 19.7098 29.2214 19.4793 29.2214 19.4793L28.7272 19.1192C28.4449 18.86 28.0215 19.1913 28.0074 19.2632C28.0215 19.4649 27.6828 19.3064 27.6828 19.3064C27.6828 19.3064 27.4005 19.2201 27.3581 19.3354C27.3158 19.4505 27.132 19.4218 27.132 19.4218L27.1037 19.4794L26.9625 19.5082L26.9345 19.5945L26.765 19.6234L27.1884 19.6089C27.3014 19.5946 27.1459 19.8538 27.0755 19.8394L26.8781 19.8538L26.8073 19.9257H26.6238L26.5392 20.0411L26.2711 20.0267C26.2711 20.0267 26.1157 20.1563 26.13 20.1994C26.1441 20.2427 26.1017 20.3723 26.0593 20.3723C26.0169 20.3723 25.9322 20.5019 25.9605 20.545C25.9889 20.5883 25.8759 20.7323 25.8759 20.7323L25.8477 20.8763L25.7631 20.9051V21.2939L25.5936 21.4091V21.5819L25.3393 21.8555L25.3677 22.0859L25.1561 22.3163L25.1841 22.5467L25.0571 22.5899L25.029 22.6907L24.9726 22.9931L25.1138 23.0076C25.1841 22.9787 25.1702 23.1948 25.1138 23.2235C25.057 23.2523 24.9017 23.3099 24.9867 23.3674C25.0714 23.4252 24.7607 23.4107 24.7607 23.3243C24.7607 23.238 24.5913 23.1659 24.5491 23.1948C24.5067 23.2235 24.4361 23.0651 24.4361 23.0651C24.2808 22.9068 23.8009 23.0795 23.8009 23.0795L23.7301 23.3099C23.575 23.3388 23.4761 23.598 23.4761 23.598C23.3491 23.6412 23.2504 23.7995 23.2927 23.8427C23.3349 23.8859 23.2219 23.9003 23.2219 23.9003V24.2172L23.1515 24.318L23.1654 24.6635C23.2503 24.6635 23.2362 24.8221 23.2362 24.8221C23.095 24.8364 23.1231 25.0237 23.1231 25.0237L22.8268 25.1244L22.7704 25.2108L22.4034 25.1963L22.3046 25.2972L22.2055 25.1963H21.4997L21.4718 25.1244L21.3305 25.0955L21.3163 24.9371L21.1047 24.9515L21.0624 25.0379L20.8364 25.0522C20.8505 25.1963 20.6105 25.4123 20.5825 25.3549C20.5539 25.2972 20.3988 25.1386 20.4695 25.11C20.5401 25.0811 20.7237 25.0522 20.7237 25.0522V24.9515L20.2013 24.9371L20.1449 25.0236L19.9329 25.0379V25.2683L19.8343 25.2972C19.7636 25.3403 19.8483 25.4988 19.8483 25.4988C19.947 25.5995 19.8343 25.7579 19.8343 25.7579C19.7495 25.8443 19.9047 26.0029 19.9047 26.0029C20.0177 26.0315 19.8343 26.1179 19.8343 26.1179C19.8623 26.2619 19.9471 26.3051 19.9471 26.3051C19.8623 26.4491 20.0038 26.521 20.0038 26.521L20.0177 26.766L20.1166 26.8237V26.9818L20.173 27.0827H20.3989L20.3848 26.7227C20.187 26.4923 20.554 26.4347 20.5684 26.5209C20.5826 26.6074 20.7378 26.6506 20.7378 26.6506C20.7661 26.8667 21.0061 26.9961 21.0765 26.7803C21.1471 26.5641 21.2035 26.6939 21.2459 26.7946C21.2883 26.8955 21.5562 27.1403 21.5562 27.1403H21.7681L21.7965 27.3419C22.0364 27.3275 22.1068 27.3566 22.2055 27.6875C22.3046 28.0186 22.5726 28.1051 22.5726 28.1051L22.7704 28.0907C22.7704 27.9181 22.968 28.1197 22.968 28.2062C22.968 28.2923 23.3491 28.6235 23.3491 28.6235L23.7301 28.7098L24.0834 28.9982L24.3514 28.9693H24.4645C24.5348 28.7243 24.8738 28.9835 24.9018 29.0699C24.9303 29.1564 25.1561 29.3004 25.1841 29.2283C25.2125 29.1564 25.3677 29.1997 25.3961 29.4155C25.4242 29.6318 25.5228 29.5885 25.5228 29.5885L26.3276 29.5741L26.6099 29.3291L27.3299 29.3148C27.6968 29.3004 27.4709 28.7963 27.4006 28.7963C27.2735 28.6956 27.4428 28.278 27.4428 28.278L26.4123 27.3132C26.1725 27.3132 26.384 26.9675 26.384 26.9675C26.5675 26.8521 26.3416 26.6651 26.3416 26.6651C26.37 26.4922 26.2428 26.2906 26.2428 26.2906C25.9889 26.1178 26.0593 25.7864 26.0593 25.7864V25.5559C25.8477 25.3546 26.1441 25.3255 26.1441 25.3255C26.2427 25.153 26.0733 25.0233 26.0733 25.0233L26.0593 24.8361L25.8334 24.8071L25.8053 24.1303L25.2973 23.396C25.1982 23.3669 25.2689 23.1944 25.2689 23.1944C25.3959 23.1223 25.2404 22.9497 25.2404 22.9497L25.2264 22.6328L25.5227 22.6038L25.5934 22.4888H25.7345L25.7205 22.1143C25.7909 21.9271 25.9603 22.0278 25.9603 22.0278L26.158 22.0423L26.271 21.8262L26.299 21.6534L26.1439 21.6391C25.9745 21.5382 26.0592 21.1639 26.0592 21.1639C26.3274 20.7605 26.6378 20.991 26.6378 20.991L26.8356 20.9767C27.1319 21.1782 26.8637 21.5527 26.8637 21.5527C26.8072 21.6391 26.8356 21.9127 26.8356 21.9127L26.906 22.3733L26.7226 22.532C26.5673 22.6184 26.5673 22.8199 26.7368 22.8632C26.8496 22.8774 26.8073 23.1511 26.6378 22.9639C26.3839 22.9639 26.7793 23.1943 26.6662 23.1365C26.9204 23.2662 26.8637 23.0214 26.8637 23.0214L27.2028 22.7477C27.3298 22.647 27.5558 22.9639 27.5558 23.0071C27.5558 23.0503 28.1203 23.0214 28.1203 23.0214C28.2755 23.1221 28.3319 23.3815 28.3319 23.3815C28.4873 23.1797 28.8119 23.3669 28.572 23.4822C28.7977 23.6262 28.7977 23.7558 28.7977 23.7558C28.9814 23.6982 28.9814 23.8422 28.9814 23.8854C28.9814 23.9287 29.0378 23.6695 29.0378 23.6695C28.826 23.511 29.3201 23.4534 29.179 23.7415L29.0942 23.8712L29.2354 23.9863L29.2494 24.3176C29.5601 24.2887 29.4753 23.8998 29.4753 23.8998L29.6165 23.8712C29.6165 23.7415 29.7151 23.8135 29.7151 23.8135C29.6165 23.3237 29.9412 23.2376 29.9412 23.2376C30.1246 23.1943 30.1386 22.8053 30.1386 22.8053C30.0119 22.7477 30.0822 22.5462 30.2235 22.7192C30.3644 22.8917 30.1386 22.3733 30.1386 22.3733L30.0258 22.2726L29.8707 22.2582L29.8564 22.0998H29.6025L29.5601 22.3015L29.4613 22.3303L29.4329 22.2726L29.3907 22.431H29.1366L29.1226 22.2582L29.2778 22.215L29.3343 22.1286L29.3765 21.8981H29.5601L29.8001 21.8263C29.814 21.5814 29.9412 21.6391 29.9412 21.6391L30.0258 21.711L30.1529 21.8118L30.1671 21.898L30.0822 21.9412L30.0683 22.0566L30.1107 22.2149H30.2235C30.2658 21.9845 30.5624 21.9845 30.6471 22.1285L30.7318 21.927C30.5343 21.8262 30.7281 21.6676 30.7846 21.7397C30.841 21.8118 30.9717 21.5525 30.9717 21.5525C30.9717 21.5525 31.0705 21.6822 30.9717 21.5093C30.8729 21.3364 31.0421 21.2501 31.0421 21.2501C31.0141 21.0774 31.2257 21.1061 31.2257 21.1061L31.2401 20.8758L31.0421 20.8612C31.0001 21.0628 30.8306 20.8901 30.9153 20.847C31.0001 20.8037 31.0845 20.7173 31.0845 20.7173V20.5732L31.1693 20.5445L31.1834 20.4004H31.3952L31.5787 20.3141L31.6211 20.242L31.8185 20.2277L32.1008 19.9684L32.0729 19.8533C31.9034 19.8533 32.0729 19.7236 32.0729 19.7236L32.1008 19.5082Z" fill="#0C1318"/>
<path d="M26.4126 22.3594L26.1584 22.3306L26.1728 22.4313H26.2432C26.356 22.633 26.2573 23.1226 26.2573 23.1226C26.2573 23.1226 26.0881 23.1368 26.0597 23.0506C26.0317 22.9642 25.9609 23.2379 26.0173 23.2811C26.0737 23.3241 26.2715 23.2811 26.2856 23.4396C26.2995 23.5979 26.4126 23.3387 26.4126 23.3387V22.3594Z" fill="#0C1318"/>
<path d="M26.1582 23.5262V23.8716L26.3844 24.1737L26.4689 23.9721L26.4975 23.8425L26.3984 23.7997L26.4123 23.5839L26.4975 23.5689L26.5115 23.4678L26.2992 23.6123L26.1582 23.5262Z" fill="#0C1318"/>
<path d="M26.5252 24.4906V24.3467L26.4267 24.3609L26.4121 24.4763L26.5252 24.4906Z" fill="#0C1318"/>
<path d="M26.3985 25.1822V25.0811L26.2788 25.0953V25.1964L26.3985 25.1822Z" fill="#0C1318"/>
<path d="M26.5647 24.7392C26.5978 24.7392 26.6244 24.712 26.6244 24.6784C26.6244 24.6444 26.5978 24.6172 26.5647 24.6172C26.5317 24.6172 26.5049 24.6443 26.5049 24.6784C26.5049 24.712 26.5317 24.7392 26.5647 24.7392Z" fill="#0C1318"/>
<path d="M26.6633 26.0117C27.2298 26.0117 27.689 25.5501 27.689 24.9807C27.689 24.4113 27.2298 23.9497 26.6633 23.9497C26.0969 23.9497 25.6377 24.4113 25.6377 24.9807C25.6377 25.5501 26.0969 26.0117 26.6633 26.0117Z" fill="#0C1318"/>
<path d="M26.6667 24.3662C27.2332 24.3662 27.6924 23.9045 27.6924 23.3352C27.6924 22.7657 27.2332 22.3042 26.6667 22.3042C26.1003 22.3042 25.6411 22.7657 25.6411 23.3352C25.6411 23.9045 26.1003 24.3662 26.6667 24.3662Z" fill="#0C1318"/>
<path d="M31.1976 21.3802H31.2828L31.2967 21.4664L31.2402 21.5241L31.2122 21.596L31.0992 21.6251L30.845 21.8702L30.831 21.9849L30.7605 22.086L30.676 22.3019L30.3793 22.3161L30.3228 22.5754L30.3647 22.7912L30.6188 22.8923L30.6474 22.7484L30.7319 22.705L30.7465 22.5611L30.8024 22.46L30.8876 22.3595L30.9156 22.2442L31.0565 22.1579L31.2262 22.1288L31.2967 22.0426L31.3253 21.8702L31.3353 21.7405L31.3958 21.6537L31.5648 21.5818V21.3083H31.4803L31.4664 21.2071L31.3107 21.1929L31.2828 21.2648H31.2122L31.1976 21.3802Z" fill="#0C1318"/>
<path d="M31.8617 22.1869V21.9852L31.8333 21.798L31.6218 21.6973L31.4667 21.8413L31.4382 22.0429V22.1724L31.2971 22.2013L31.2688 22.5901L31.156 22.6334L31.1701 22.7774L31.0148 22.8206L30.8596 22.8638L30.8314 23.051L30.7186 23.1229L30.6618 23.2958L30.5913 23.7134C30.5913 23.7134 30.7185 23.9582 30.789 23.843C30.8596 23.7279 30.9724 23.7134 30.9724 23.7134L31.0148 23.6126L31.396 23.6269C31.4243 23.4684 31.6077 23.5262 31.6077 23.5982C31.6077 23.6702 31.7489 23.6125 31.7489 23.6125L31.8477 23.4541H32.0028L32.0169 23.2814L32.0876 23.2382V22.9788C32.3136 22.9069 32.2851 22.6909 32.2851 22.6909L32.3419 22.619L32.3136 22.5183C32.2005 22.4749 32.2568 22.374 32.3275 22.4028C32.3983 22.4316 32.2288 22.2732 32.2288 22.2732C32.1441 22.3454 32.0737 22.1869 32.0737 22.1869H31.8617Z" fill="#0C1318"/>
<path d="M32.0873 23.9288C32.0733 24.1015 31.8615 24.1592 31.8615 24.1592L31.7062 24.116L31.6216 24.044L31.6074 23.8423L31.7343 23.8281L31.7627 23.9145L32.0873 23.9288Z" fill="#0C1318"/>
<path d="M32.8503 23.0079C32.8808 23.1335 32.8782 22.8061 32.9347 22.8206C32.9911 22.835 32.949 22.6191 32.949 22.6191L32.6948 22.8061C32.8218 22.8206 32.8359 22.9503 32.8503 23.0079Z" fill="#0C1318"/>
<path d="M33.5972 22.2585C33.6537 22.3882 33.6397 22.5755 33.8512 22.7195C33.9226 22.7681 33.8088 22.8635 33.7381 22.8202C33.6677 22.7771 33.4702 22.4601 33.4702 22.4601V22.2729C33.5125 22.1578 33.5728 22.2028 33.5972 22.2585Z" fill="#0C1318"/>
<path d="M33.5972 26.6361L33.6391 26.6789L33.681 26.7509L33.7801 26.5927L33.6956 26.5635L33.5972 26.6361Z" fill="#0C1318"/>
<path d="M35.2853 26.1978L35.3984 26.1259L35.3532 26.0532L35.2407 26.1245L35.2853 26.1978Z" fill="#0C1318"/>
<path d="M39.3709 29.2L39.4981 29.2574L39.5121 29.5022C39.6816 29.675 40.2321 29.531 40.2321 29.4878C40.2321 29.4445 40.2037 28.955 40.2037 28.955L40.133 28.8829L40.119 28.5227C40.1754 28.3355 39.8507 28.0618 39.8226 28.1197C39.7942 28.1771 39.6108 28.1338 39.6108 28.1916C39.6108 28.249 39.498 28.5371 39.5544 28.638C39.6108 28.7389 39.512 28.7389 39.4979 28.8396C39.4839 28.9404 39.3427 29.1135 39.3709 29.2Z" fill="#0C1318"/>
<path d="M39.0599 28.6236C39.0332 28.7327 38.9332 28.7964 38.8768 28.7531C38.8199 28.7098 38.9469 28.8249 38.9754 28.8828C39.0035 28.9402 39.0882 28.9402 39.1166 28.8828C39.1446 28.8249 39.1306 28.6957 39.159 28.638C39.187 28.5803 39.0741 28.566 39.0599 28.6236Z" fill="#0C1318"/>
<path d="M39.4294 25.9819H38.4038V27.0129H39.4294V25.9819Z" fill="#0C1318"/>
<path d="M39.8648 23.2094C39.8031 23.1255 40.1471 22.979 40.2035 23.1518C40.2599 23.3244 40.2035 23.2958 40.1471 23.2815C40.0904 23.2669 39.9495 23.3245 39.8648 23.2094Z" fill="#0C1318"/>
<path d="M40.1685 21.2803L40.1538 21.3651L40.3088 21.3936L40.3241 21.3088L40.1685 21.2803Z" fill="#0C1318"/>
<path d="M39.7726 21.528L39.7832 21.5545L39.8616 21.5227L39.833 21.4507L39.8151 21.4053L39.7732 21.429L39.6681 21.4887L39.5763 21.4304L39.5317 21.5029L39.6448 21.5749L39.6661 21.5885L39.6874 21.5762L39.7726 21.528Z" fill="#0C1318"/>
<path d="M40.3017 18.0248H40.0897C40.0897 18.0248 40.1605 18.0535 39.963 17.8663C39.7651 17.6791 39.6383 17.9095 39.6383 17.9095L39.4124 17.9383V18.1687L39.2993 18.2119L39.3136 18.356L39.4688 18.3416C39.4688 18.3416 39.4688 18.5144 39.5113 18.4424C39.5536 18.3703 39.9066 18.4567 39.8783 18.6296C39.8667 18.7006 40.2313 18.8887 40.1889 19.1191C40.3724 19.148 40.3301 19.3352 40.3301 19.3352L40.5699 19.364L40.6406 19.22L40.7111 19.2345V19.148L40.5556 19.1048L40.5276 18.6439L40.4288 18.5719L40.4569 18.4567L40.3441 18.4134L40.4005 18.2262L40.3017 18.0248Z" fill="#0C1318"/>
<path d="M40.9233 19.4938L40.8105 19.4795L40.5561 19.5227L40.4153 19.7963C40.4153 19.7963 40.4857 19.8395 40.542 19.9403C40.5984 20.0412 40.6268 20.6315 40.4575 20.7324C40.2882 20.8333 40.4717 20.7754 40.4717 20.7754L40.4433 21.0923C40.4857 21.2363 40.556 21.1645 40.5984 21.0923C40.6412 21.0205 40.6835 21.0061 40.7399 20.9341C40.7964 20.8619 40.881 20.7324 40.8952 20.6315C40.9091 20.5308 40.9798 20.3724 40.9374 20.3292C40.8952 20.286 40.9798 20.0845 40.9798 20.0845C40.9798 20.0845 41.0362 19.9691 40.9798 19.854C40.9234 19.7387 40.9939 19.6091 41.0362 19.5514L40.9233 19.4938Z" fill="#0C1318"/>
<path d="M41.0938 20.0816L41.1081 19.9663L41.1924 19.977L41.1779 20.0922L41.0938 20.0816Z" fill="#0C1318"/>
<path d="M41.0891 20.479L41.0132 20.4412L41.0557 20.355L41.1316 20.3928L41.0891 20.479Z" fill="#0C1318"/>
<path d="M40.9654 19.3359L40.9088 19.2062C40.9088 19.2062 40.9088 19.0912 40.937 19.0333C40.9654 18.9758 40.8806 18.9183 40.8384 18.9039C40.796 18.8894 40.8103 18.7743 40.796 18.7166C40.7819 18.659 40.6833 18.6159 40.6833 18.6159C40.6833 18.6159 40.6547 18.3999 40.6547 18.3567C40.6547 18.3135 40.5278 18.2559 40.5702 18.2126C40.6126 18.1694 40.6409 18.1119 40.6833 18.083C40.7256 18.0542 40.6408 17.8525 40.7112 17.8957C40.7819 17.939 40.7819 18.011 40.8103 18.0686C40.8384 18.1261 40.7961 18.3278 40.8668 18.3711C40.9371 18.4142 40.8525 18.5581 40.9654 18.5581C41.0782 18.5581 41.0079 18.8318 41.0079 18.8318C41.0079 18.8318 40.9795 19.0333 41.0499 19.0479C41.1207 19.0623 41.0783 19.4079 41.0783 19.4079L40.9654 19.3359Z" fill="#0C1318"/>
<path d="M40.0483 17.0022C40.0905 17.0598 40.1754 17.1029 40.1754 17.1607C40.1754 17.2184 40.1472 17.2614 40.232 17.2759C40.3165 17.2902 40.3731 17.2614 40.4012 17.3334C40.4295 17.4053 40.4295 17.5206 40.4154 17.5782C40.4012 17.6359 40.4295 17.7222 40.5 17.7222C40.5707 17.7222 40.5847 17.7367 40.5847 17.7799C40.5847 17.823 40.6695 17.6214 40.6695 17.6214C40.5987 17.5638 40.5423 17.4341 40.5423 17.4341C40.5423 17.4341 40.4718 17.2325 40.4718 17.2038C40.4718 17.175 40.3731 17.1461 40.3308 17.1318C40.2883 17.1173 40.2176 16.9878 40.2176 16.9878L40.0483 17.0022Z" fill="#0C1318"/>
<path d="M40.1899 16.873C40.1474 16.8153 40.1051 16.7721 40.0487 16.7435C39.9924 16.7145 39.95 16.6858 39.8933 16.6858C39.8369 16.6858 39.7805 16.6281 39.8086 16.5562C39.8369 16.4841 39.7661 16.4553 39.7661 16.3977C39.7661 16.3401 39.8086 16.3401 39.8792 16.3833C39.9499 16.4266 39.9356 16.4409 39.9924 16.513C40.0487 16.585 40.0767 16.657 40.1331 16.6425C40.1899 16.6281 40.2322 16.7721 40.2886 16.7289C40.345 16.6858 40.331 16.8297 40.331 16.8297L40.1899 16.873Z" fill="#0C1318"/>
<path d="M38.5382 18.5003C38.616 18.5799 38.1147 18.5578 38.1147 18.5003C38.1147 18.4428 38.1572 18.2413 38.284 18.2841C38.4111 18.3275 38.4251 18.0251 38.4251 18.0251C38.4251 18.0251 38.3123 18.0393 38.4111 17.9819C38.5099 17.9243 38.4111 17.8378 38.3686 17.7947C38.3264 17.7514 38.284 17.6794 38.284 17.6794H38.4818C38.5666 17.6217 38.5946 17.3482 38.5946 17.3482C38.7639 17.4058 38.8486 17.2905 38.8486 17.2905C38.8486 17.2905 38.8772 17.3769 38.9336 17.4491C38.99 17.521 38.7921 17.5498 38.8628 17.5931C38.9336 17.6364 38.9616 17.7658 38.9336 17.8089C38.9052 17.8522 38.7497 17.8234 38.7497 17.7658C38.7497 17.7082 38.6933 17.8379 38.7497 17.9099C38.8061 17.9819 38.6792 18.0826 38.6509 18.0826C38.6226 18.0826 38.4394 18.1115 38.5945 18.1978C38.7497 18.2842 38.9194 18.2412 38.9194 18.2412C38.9194 18.2412 39.0463 18.2266 39.0887 18.2988C39.1311 18.3707 39.0747 18.3852 39.004 18.3852C38.9336 18.3852 38.5946 18.3562 38.5946 18.3562C38.5946 18.3562 38.4959 18.4571 38.5382 18.5003Z" fill="#0C1318"/>
<path d="M37.6351 18.6301C37.7059 18.6158 37.8749 18.6012 37.9034 18.6445C37.9318 18.6876 37.8046 18.7452 37.8046 18.7452L37.6351 18.7741C37.5787 18.702 37.5647 18.6444 37.6351 18.6301Z" fill="#0C1318"/>
<path d="M39.4556 17.4203C39.5684 17.3628 39.8083 17.3628 39.7942 17.2763C39.7802 17.1899 39.9353 17.1611 39.9353 17.1611L39.9777 17.3338L40.1048 17.4202L40.1189 17.5786C40.1189 17.5786 40.1612 17.5499 40.0061 17.5931C39.8506 17.6363 39.9497 17.7082 39.9497 17.7082L39.6107 17.7226L39.5684 17.5786L39.4556 17.4203Z" fill="#0C1318"/>
<path d="M38.9046 16.6424C38.9905 16.6424 38.8766 16.9736 39.1021 16.9448C39.3281 16.9159 39.1165 17.0456 39.2857 17.0599C39.4552 17.0745 39.4129 16.9304 39.4693 16.8297C39.5259 16.7289 39.4977 16.6712 39.3988 16.6424C39.2997 16.6136 39.2997 16.6136 39.2717 16.4983C39.2436 16.3831 39.1306 16.3543 39.1306 16.3543L39.0881 16.1816L38.9046 16.2967L38.7212 16.5415C38.7212 16.7289 38.8199 16.6424 38.9046 16.6424Z" fill="#0C1318"/>
<path d="M39.2788 17.8597L39.3214 17.7734L39.3977 17.8116L39.3551 17.8979L39.2788 17.8597Z" fill="#0C1318"/>
<path d="M40.156 17.7222H39.1304V18.7532H40.156V17.7222Z" fill="#0C1318"/>
<path d="M39.2014 15.8042L39.2156 15.9337L39.1314 15.943L39.1172 15.8135L39.2014 15.8042Z" fill="#0C1318"/>
<path d="M39.9866 17.1465H38.9609V18.1775H39.9866V17.1465Z" fill="#0C1318"/>
<path d="M38.7398 17.1447L38.7314 17.0587L38.8726 17.0449L38.8809 17.131L38.7398 17.1447Z" fill="#0C1318"/>
<path d="M37.5754 18.5294L37.4976 18.4962L37.5401 18.3955L37.618 18.4287L37.5754 18.5294Z" fill="#0C1318"/>
<path d="M37.1318 18.2677L37.1235 18.1818L37.2649 18.168L37.2732 18.2538L37.1318 18.2677Z" fill="#0C1318"/>
<path d="M34.6816 18.2412L34.3716 18.2559L34.3756 18.3443L34.6856 18.3297L34.6816 18.2412Z" fill="#0C1318"/>
<path d="M34.1644 18.366L34.1362 18.2364L34.2192 18.2183L34.2474 18.3477L34.1644 18.366Z" fill="#0C1318"/>
<path d="M34.105 18.4555L34.0781 18.3734L34.1207 18.3594L34.1475 18.4413L34.105 18.4555Z" fill="#0C1318"/>
<path d="M34.8109 18.2127L34.7969 18.3134L34.952 18.3279C34.952 18.3279 35.0224 18.3856 35.0224 18.4286C35.0224 18.4718 35.1214 18.515 35.1778 18.515C35.2343 18.515 35.3895 18.3998 35.3895 18.3998C35.3895 18.3998 35.4602 18.1981 35.4038 18.2125C35.3471 18.2269 35.2343 18.3133 35.2203 18.2269C35.206 18.1405 35.0368 18.1837 35.0368 18.1837L34.8109 18.2127Z" fill="#0C1318"/>
<path d="M35.5162 18.0539C35.5162 18.097 35.4882 18.1546 35.5726 18.1691C35.6577 18.1834 35.8129 18.1116 35.8269 18.1979C35.8412 18.2842 35.8412 18.3421 35.9539 18.3853C36.0667 18.4284 36.1376 18.4428 36.2221 18.4428C36.3067 18.4428 36.4905 18.4138 36.4905 18.4138C36.4905 18.4138 36.6901 18.4453 36.7303 18.486C36.8855 18.6443 36.9843 18.6875 37.0266 18.6156C37.069 18.5435 37.0126 18.3852 36.9985 18.3276C36.9843 18.2698 36.7866 17.9963 36.7161 18.0539C36.6456 18.1116 36.6315 18.0539 36.5043 18.097C36.3773 18.1402 36.1091 18.1116 36.0951 18.0539C36.0811 17.9962 35.8834 17.9676 35.8834 17.9099C35.8834 17.8522 35.7424 17.7803 35.7563 17.8666C35.7704 17.953 35.6576 17.9962 35.629 17.9676C35.6009 17.9387 35.5162 18.0539 35.5162 18.0539Z" fill="#0C1318"/>
<path d="M38.7639 16.2103L38.8628 15.8936C38.7219 15.8648 38.7498 15.7064 38.7498 15.7064C38.7358 15.5768 38.5382 15.4328 38.4676 15.476C38.3971 15.5191 38.4251 15.1735 38.4251 15.1735C38.4251 15.1735 38.5523 15.0872 38.6087 15.1304C38.6652 15.1735 38.1289 14.4104 38.0159 14.4824C37.903 14.5544 37.6491 14.4104 37.6631 14.2807C37.6771 14.1512 37.1549 13.7191 37.1549 13.7191C37.1549 13.7191 36.9855 13.604 36.9573 13.6904C36.9291 13.7768 36.8727 13.8344 36.9573 13.8775C37.0419 13.9208 37.0278 13.8055 37.1265 13.9062C37.2253 14.007 37.4091 14.1367 37.3384 14.2231C37.2677 14.3096 37.183 14.3384 37.183 14.3384L37.282 14.4536H37.4372L37.4655 14.6984C37.4655 14.6984 37.6348 14.7848 37.6771 14.8856C37.7196 14.9863 37.7196 15.044 37.6771 15.1016C37.6348 15.1592 37.5504 15.26 37.5643 15.3608C37.5784 15.4615 37.6914 15.5048 37.6914 15.5048L37.8041 15.5192L37.889 15.5624V15.7498C38.0018 15.7208 38.1852 15.8792 38.1712 15.98C38.1572 16.0808 38.1993 16.0232 38.3404 16.1241C38.4818 16.2248 38.4395 16.2393 38.5383 16.3113C38.6371 16.3832 38.7219 16.34 38.7639 16.2103Z" fill="#0C1318"/>
<path d="M36.4345 14.2516C36.4205 14.1939 36.3921 13.9922 36.4769 14.0066C36.5615 14.0212 36.5052 14.0066 36.604 14.0499C36.7027 14.0932 36.7168 13.978 36.7168 13.978H36.8722L37.0698 14.1362L37.0414 14.2659L36.9003 14.2802C36.8299 14.1651 36.6886 14.2083 36.7168 14.3092C36.7451 14.4099 36.6463 14.5971 36.59 14.6114C36.5335 14.6259 36.3498 14.6259 36.3641 14.5396C36.3781 14.4532 36.4345 14.2516 36.4345 14.2516Z" fill="#0C1318"/>
<path d="M36.3209 13.8626V13.7475C36.3209 13.7475 36.3065 13.6323 36.2362 13.6323C36.1657 13.6323 36.0386 13.546 36.0667 13.4883C36.0951 13.4306 35.8268 13.373 35.8268 13.373C35.8268 13.373 35.587 13.1426 35.6716 13.1715C35.7563 13.2003 35.7141 13.0706 35.7141 13.0706C35.7141 13.0706 35.5445 13.0994 35.5021 13.0851C35.4598 13.0706 35.4738 12.9411 35.4738 12.9411C35.4738 12.9411 35.3047 12.8978 35.3047 12.9411C35.3047 12.9843 35.3611 12.9843 35.3891 13.0705C35.4175 13.1569 35.4034 13.301 35.5306 13.3297C35.6577 13.3587 35.6856 13.3873 35.7 13.445C35.7141 13.5027 35.8692 13.517 35.8692 13.517L35.9823 13.5745L36.3209 13.8626Z" fill="#0C1318"/>
<path d="M34.7976 12.3939L34.7557 12.2785L34.6426 12.25V12.3796L34.7976 12.3939Z" fill="#0C1318"/>
<path d="M34.7555 11.7895C34.6079 11.6769 34.9529 11.8759 34.9529 11.8759C35.0657 11.8759 35.1363 11.9623 35.1363 12.0056C35.1363 12.0488 35.2917 12.0344 35.2917 12.0344L35.306 11.9335L35.1928 11.7895L35.0942 11.7177C35.0942 11.7177 34.939 11.7032 34.939 11.66C34.9389 11.6169 34.8119 11.8328 34.7555 11.7895Z" fill="#0C1318"/>
<path d="M37.3513 11.8753C37.31 12.0013 37.2948 12.1778 37.2242 12.1778C37.1537 12.1778 37.1818 12.3652 37.1818 12.3652C37.1818 12.3652 37.3656 12.3652 37.422 12.3794C37.4783 12.3937 37.4783 12.5377 37.4783 12.5377C37.6902 12.5235 37.775 12.8114 37.7465 12.8834C37.7183 12.9554 37.8313 12.9554 37.8313 12.9554C37.8313 12.9554 37.8313 13.1859 37.8028 13.2433C37.7749 13.301 37.9865 13.3443 38.0429 13.4306C38.0993 13.5171 38.0145 13.805 37.9723 13.8194C37.93 13.8339 38.0851 13.877 38.0711 13.949C38.0568 14.0211 38.1135 13.949 38.1275 14.0643C38.1415 14.1794 38.1699 14.4242 38.1699 14.4242L38.3674 14.4388C38.3958 14.2516 38.7597 14.2444 38.8191 14.2659C39.0591 14.3523 39.2429 14.7267 39.2429 14.813C39.2429 14.8994 39.0874 14.914 39.0874 14.914L39.1158 15.3314C39.3556 15.4035 39.5533 15.7492 39.5252 15.8068C39.4969 15.8643 39.6943 15.8501 39.6943 15.8501C39.7227 15.5907 39.9627 15.6772 39.9766 15.7636C39.9911 15.8501 40.0331 16.0373 40.0331 16.0373L40.1038 16.1667L40.2026 16.2676L40.3577 16.2532L40.4002 16.3396L40.5837 16.3686C40.5837 16.3686 40.7391 16.5411 40.7531 16.5845C40.7674 16.6276 40.979 16.6133 41.0354 16.6276C41.0918 16.6421 41.1766 16.6853 41.1906 16.7572C41.2049 16.8293 41.2897 16.9445 41.2897 16.9445C41.2897 16.9445 41.4589 16.9878 41.4731 17.0453C41.4871 17.1028 41.5579 17.2325 41.5579 17.2325L41.6987 17.3477L41.713 17.4774L41.8682 17.4918L41.9106 17.6644L42.1645 17.6501L42.3059 17.5494C42.4894 17.4486 42.6164 17.3189 42.6306 17.2612C42.6446 17.2037 42.6729 16.9878 42.8141 17.031C42.9552 17.0742 42.8565 16.7141 42.8565 16.7141C42.8565 16.7141 42.6589 16.5701 42.6729 16.4979C42.687 16.426 42.4754 16.2821 42.4894 16.2244C42.5034 16.1667 42.3059 16.0517 42.3199 15.9941C42.3339 15.9364 42.2211 15.7779 42.2211 15.7779L42.0093 15.5764L41.981 15.4467L41.8118 15.4324L41.4731 15.0148L41.4871 14.8994L41.3883 14.8851V14.7268L41.2897 14.6691L41.1342 14.6547L40.8238 14.3092L40.7955 14.1507H40.6403L40.6684 13.8482C40.7674 13.7186 40.7107 13.4738 40.7107 13.4738C40.7107 13.4738 40.513 13.5745 40.4144 13.5313C40.3154 13.4883 40.4566 13.3873 40.4566 13.3873V13.2722L40.372 13.1858C40.372 13.1858 40.1319 13.2147 40.1179 13.1716C40.1038 13.1283 40.0615 12.9411 40.0615 12.9411L40.0473 12.6962L39.9487 12.6532L39.9343 12.5666L39.7792 12.5809V12.4082L39.6944 12.3794L39.6098 12.3362L39.5957 12.1633L39.2851 12.1491L39.1863 12.0051L39.0735 11.8322L38.7206 11.8034L38.6358 11.7172L38.4948 11.6883L38.396 11.645L38.3535 11.7172L38.0853 11.7314L38.0713 11.8178C37.9302 11.8898 37.3656 11.8321 37.3513 11.8753Z" fill="#0C1318"/>
<path d="M38.8342 11.5017C38.8118 11.3881 39.1167 11.2857 39.1872 11.372C39.2579 11.4584 39.4554 11.4731 39.4837 11.9051C39.4936 12.0598 39.2295 11.7467 39.2295 11.7467L39.0177 11.6747C38.9049 11.6458 38.8482 11.574 38.8342 11.5017Z" fill="#0C1318"/>
<path d="M34.6942 11.6771L34.6167 11.6428L34.6736 11.5132L34.7511 11.5476L34.6942 11.6771Z" fill="#0C1318"/>
<path d="M33.9638 10.2636L33.7799 10.0763V9.91787L33.7235 9.86009L33.6671 9.65858L33.4836 9.60107L33.3002 9.67289L33.1025 9.80258L32.8909 9.83157L32.7778 9.96107L33.2296 10.0041L33.3141 10.1483L33.6392 10.1771L33.8506 10.393C34.0345 10.4507 34.0767 10.3643 33.9638 10.2636Z" fill="#0C1318"/>
<path d="M33.936 9.55683C33.9049 9.43028 33.7242 9.71514 33.9081 9.77265C34.0915 9.83052 34.2747 9.77265 34.2747 9.77265L34.3172 9.68634L35.0228 9.70074C35.0795 9.64305 35.1075 9.55674 35.1075 9.55674C35.1075 9.55674 35.277 9.49905 35.3474 9.52785C35.4181 9.55674 35.3617 9.32634 35.291 9.35514C35.2205 9.38385 35.0794 9.36954 35.0794 9.36954H34.8252C34.8112 9.26883 34.5853 9.31185 34.5712 9.36954C34.5569 9.42705 34.4726 9.44145 34.4726 9.44145L34.1479 9.47034C34.1195 9.55683 33.9503 9.61434 33.936 9.55683Z" fill="#0C1318"/>
<path d="M32.5384 11.9872C32.7555 12.0564 32.8347 12.0052 32.8491 11.9476C32.8631 11.8899 32.8771 11.8755 32.9619 11.8612C33.0465 11.8468 32.9478 11.674 32.8631 11.6883C32.7783 11.7027 32.6936 11.6596 32.6796 11.5876C32.6652 11.5156 32.5242 11.3284 32.5101 11.4725C32.496 11.6165 32.4114 11.6165 32.4254 11.7173C32.4396 11.8178 32.482 11.969 32.5384 11.9872Z" fill="#0C1318"/>
<path d="M30.9158 12.1494C30.9056 12.0985 31.1981 12.0918 31.2405 12.1348C31.2829 12.1781 31.2546 12.2501 31.3816 12.2501C31.5085 12.2501 31.4521 12.3366 31.438 12.3798C31.4239 12.423 31.2829 12.4086 31.2685 12.3656C31.2546 12.3222 31.0426 12.3076 31.0426 12.3076C31.0426 12.3076 30.9298 12.2212 30.9158 12.1494Z" fill="#0C1318"/>
<path d="M35.5716 9.24188L35.5989 9.26939L35.6281 9.2452L35.7698 9.12989L35.7167 9.0625L35.6049 9.15344L35.5331 9.08008L35.4731 9.14109L35.5716 9.24188Z" fill="#0C1318"/>
<path d="M34.9392 8.90269L34.9619 8.8881L35.1176 8.78718L35.0723 8.71436L34.9392 8.80048L34.8488 8.743L34.8042 8.81629L34.9173 8.8881L34.9392 8.90269Z" fill="#0C1318"/>
<path d="M34.4335 11.844L34.5214 11.9845L34.5926 11.9383L34.4941 11.7802L34.4828 11.7626L34.4621 11.7606L34.3211 11.7456L34.3125 11.8318L34.4335 11.844Z" fill="#0C1318"/>
<path d="M29.8137 15.7778L29.8282 15.9363H30.0397C30.1244 15.9363 29.9693 15.8355 29.9693 15.8355C29.9693 15.8355 29.7997 15.8499 29.8137 15.7778Z" fill="#0C1318"/>
<path d="M30.0825 15.783L30.137 15.7168L30.2224 15.7878L30.1678 15.854L30.0825 15.783Z" fill="#0C1318"/>
<path d="M27.5112 13.0885L27.5717 13.0278L27.6569 13.1137L27.5964 13.1743L27.5112 13.0885Z" fill="#0C1318"/>
<path d="M31.4924 31.7037L31.5529 31.7648L31.6234 31.6929L31.6646 31.6508L31.6121 31.6237L31.471 31.5518L31.4331 31.6291L31.5216 31.6739L31.4924 31.7037Z" fill="#0C1318"/>
<path d="M30.3825 30.6605L30.4816 30.7324L30.5308 30.6625L30.4763 30.6225L30.5188 30.5865L30.465 30.52L30.3798 30.5919L30.3379 30.6279L30.3825 30.6605Z" fill="#0C1318"/>
<path d="M41.0152 27.8547C40.9965 27.7813 40.9142 27.7512 40.9049 27.748L40.8779 27.8302C40.8847 27.8327 40.8945 27.8374 40.9041 27.8439L40.9215 27.9185C40.9151 27.9281 40.9082 27.9371 40.9028 27.9436L40.965 28.002C41.0102 27.9512 41.027 27.9021 41.0152 27.8547Z" fill="#0C1318"/>
<path d="M41.146 27.5822L41.0083 27.572L41.0189 27.4424L41.1566 27.4641L41.146 27.5822Z" fill="#0C1318"/>
<path d="M44.4175 26.4594C44.4779 26.4211 44.555 26.3512 44.5446 26.5135C44.5339 26.6755 44.4704 26.6217 44.4175 26.6755C44.3646 26.7296 44.3328 26.5135 44.4175 26.4594Z" fill="#0C1318"/>
<path d="M45.1382 25.8485C45.137 25.8456 45.1362 25.8357 45.1356 25.8284C45.1337 25.8046 45.1305 25.7723 45.1133 25.7383L45.0356 25.7769C45.0452 25.7962 45.0472 25.8166 45.0488 25.836C45.051 25.8613 45.0538 25.8901 45.0786 25.9084C45.0941 25.92 45.1138 25.9234 45.1372 25.9189L45.1207 25.8353C45.1273 25.8363 45.1362 25.8423 45.1382 25.8485Z" fill="#0C1318"/>
<path d="M44.9468 25.9197C44.9683 26.0072 44.9997 26.0935 45.0011 26.0971L45.0804 26.0666C45.0804 26.0666 45.0491 25.9814 45.0287 25.8984L44.9468 25.9197Z" fill="#0C1318"/>
<path d="M44.646 26.2595L44.5557 26.251C44.5486 26.3189 44.5658 26.4028 44.6373 26.4165L44.6551 26.3317L44.6567 26.3323C44.6495 26.3262 44.6427 26.2914 44.646 26.2595Z" fill="#0C1318"/>
<path d="M44.2684 24.5407C44.264 24.513 44.2475 24.4915 44.2221 24.4802C44.1594 24.4525 44.0537 24.4984 44.002 24.5336L44.0488 24.6055C44.1025 24.5691 44.1728 24.5514 44.1885 24.5596L44.1847 24.5548L44.2684 24.5407Z" fill="#0C1318"/>
<path d="M40.3583 19.9401C40.3019 19.9978 40.1748 20.0266 40.1748 20.0266L40.1324 20.185L40.062 20.2426C40.062 20.2426 40.076 20.2857 40.062 20.3866C40.0478 20.4873 39.9208 20.545 39.9208 20.545L39.8644 20.617C39.8644 20.617 39.5241 20.6355 39.4833 20.617C39.3562 20.5595 39.441 20.3866 39.5257 20.401C39.6103 20.4154 39.5114 20.1561 39.5114 20.1561L39.6245 20.1418C39.6245 20.1418 39.6384 19.8824 39.6809 19.8824C39.7233 19.8824 39.6669 19.7961 39.6102 19.7529C39.5538 19.7099 39.4833 19.5659 39.4266 19.5802C39.3702 19.5945 39.1443 19.5802 39.1443 19.5802L39.1019 19.6666L38.9466 19.6953C38.9466 19.6953 38.96 19.8067 38.9328 19.8394C38.8478 19.9401 38.5234 20.1562 38.6643 19.7962L38.7066 19.7099V19.5802L38.4527 19.5659C38.4527 19.5659 38.3256 19.5227 38.3256 19.4651C38.3256 19.4074 38.3115 19.3355 38.3115 19.3355L38.015 19.0043L37.6623 18.9612L37.6339 18.8891L37.4224 18.8603C37.1681 18.7307 36.9422 18.8459 36.9846 19.0619C37.027 19.278 37.0974 19.3644 36.9565 19.3644C36.8151 19.3644 36.787 19.2492 36.787 19.2492C36.787 19.2492 36.6742 19.2059 36.6742 19.2635C36.6742 19.3211 36.6318 19.4363 36.6742 19.4939C36.7164 19.5515 36.6176 19.6379 36.5752 19.5947C36.5331 19.5515 36.4201 19.422 36.4484 19.3788C36.4765 19.3355 36.2506 19.0619 36.4765 19.0187C36.7024 18.9755 36.4624 18.8459 36.5472 18.8172L36.66 18.7595H36.7728L36.8434 18.7019L36.66 18.6731L36.5472 18.6587L36.3354 18.6443C36.1237 18.7883 36.0814 18.9612 36.0814 18.9612C35.9683 19.1771 35.7003 18.8747 35.7992 18.7595C35.8978 18.6443 35.4886 18.7451 35.4178 18.8027C35.3471 18.8603 35.1355 18.8315 35.1355 18.8315C35.0932 18.9612 34.8957 18.8172 34.952 18.7308C35.0085 18.6444 35.0085 18.5867 35.0085 18.5867L34.938 18.5723L34.8534 18.7307C34.6558 18.7307 34.5992 18.8459 34.6414 18.9179C34.6838 18.9898 34.585 18.9035 34.5567 19.0043C34.5287 19.1051 34.571 19.1051 34.6558 19.1483C34.7405 19.1915 34.6133 19.1915 34.6698 19.2635C34.7262 19.3355 34.8957 19.2635 34.7969 19.3644C34.6981 19.4651 34.5003 19.422 34.5003 19.422C34.4863 19.5515 34.218 19.5227 34.19 19.4796C34.1616 19.4363 33.9501 19.1771 33.9501 19.1771L33.6814 19.1627C33.6535 18.9612 33.8086 19.0619 33.8651 18.9035C33.9218 18.7451 33.9501 18.486 33.9501 18.486C33.9501 18.486 33.7239 18.4716 33.7099 18.5435C33.6959 18.6156 33.5547 18.6588 33.5547 18.6588C33.5547 18.6588 33.4416 18.7019 33.484 18.7595C33.5264 18.8172 33.3993 18.8459 33.3993 18.8459C33.3993 18.8459 33.4213 18.9389 33.3852 18.9755C33.2725 19.0908 32.99 18.9898 32.9478 18.9467L32.7782 18.8747L32.6088 18.7595L32.4113 18.8458L32.3549 18.9035H32.143L32.129 19.0761L32.5102 19.1193L32.5384 19.4757L32.383 19.4219H32.2842L32.2419 19.3354L32.1572 19.321V19.6377L32.2419 19.7099L32.3126 19.7817L32.4538 19.7961L32.4821 19.9688L32.8348 19.9835L32.8772 20.0553L33.089 20.0698L33.4984 20.4872L33.4702 20.6169L33.3994 20.6602C33.4278 20.761 33.2161 20.7034 33.2161 20.7034V20.7897L33.3146 20.8041L33.4137 20.8616L33.5547 20.6169C33.71 20.5161 33.7804 20.6601 33.7948 20.7465C33.8087 20.8329 33.724 20.8184 33.724 20.8184V21.0202L33.8087 21.0489C33.9501 21.2217 33.7523 21.3226 33.7523 21.3226L33.7099 21.4665C33.6675 21.5962 33.5123 21.5673 33.5123 21.5673L33.456 21.6537L33.2864 21.697L33.6215 21.7401C33.6534 21.6249 33.7378 21.5961 33.7803 21.6537C33.8227 21.7114 33.8227 21.8122 33.8227 21.8122L33.9077 21.8266L33.8934 21.9849L33.9781 22.0139V22.4746L34.0769 22.5898C34.2464 22.518 34.2464 22.6331 34.1615 22.6906C34.0769 22.748 34.1333 23.0075 34.1333 23.0075L34.0627 23.0793V23.1946L33.978 23.2522V23.4105C33.8368 23.3386 33.6674 23.3672 33.625 23.4105C33.4981 23.3241 33.2299 23.353 33.2299 23.4251C33.3144 23.5402 33.1312 23.5691 33.1312 23.5691L33.0322 23.6843C33.1029 23.8283 32.9618 23.8426 32.9618 23.8426V24.1163L32.7922 24.2747L32.8066 24.6491C32.8066 24.7499 33.0182 24.7643 33.0604 24.7067C33.1029 24.6491 33.2723 24.8219 33.2723 24.8219H33.3992L33.4275 24.5627L33.3428 24.5195V24.1018L33.484 23.9433C33.6534 23.8858 33.597 24.3179 33.597 24.3611C33.611 24.5195 33.6814 24.5051 33.7522 24.4762C33.8933 24.4187 33.7802 24.6348 33.6674 24.6202C33.5546 24.606 33.625 24.7643 33.625 24.7643L33.6958 24.7931L33.5686 24.8939L33.4559 25.0236L33.3144 24.9804L33.1452 24.966L33.0888 24.865L32.9898 24.8507L32.9758 25.0522L32.9053 25.1386L32.7358 25.3116C32.9618 25.3116 32.7075 25.4698 32.6511 25.4698C32.7781 25.513 32.6371 25.6427 32.3124 25.542V25.6427L32.1994 25.6572L32.2984 25.7722L32.4111 25.7866L32.3687 26.0315C32.3687 26.2186 31.903 26.0889 31.8606 26.0458L31.8466 26.3051L31.7618 26.3193L31.7758 26.4923L31.7618 26.7372L31.917 26.7083V26.8091L32.2983 26.8235L32.8488 26.233L33.1734 26.1611C33.2015 26.0169 33.3426 26.1899 33.3426 26.1899C33.4838 26.1752 33.5121 26.2763 33.5121 26.2763L33.6958 26.3051C33.8508 26.3483 33.757 26.3635 33.7662 26.4204C33.7801 26.5067 33.8508 26.4779 33.8508 26.4779L33.8792 26.2907L33.9639 26.3051L33.8792 26.2042L33.7237 26.1321L33.5544 26.0602C33.4414 25.9019 33.5827 25.9307 33.6957 25.9452H33.8792C33.8792 25.9452 34.0911 26.233 34.0911 26.3051C34.0911 26.3772 34.1899 26.3916 34.1899 26.3916L34.3166 26.3771L34.3591 26.4778H34.4861L34.5286 26.5641H34.7827L34.7968 26.4346L34.5565 26.3916L34.5426 26.2474L34.3733 26.2042C34.3166 25.9595 34.4155 25.8874 34.4861 26.0027L34.5707 26.0169L34.5425 25.8009L34.6413 25.7721L34.6131 25.4696L34.5285 25.441V25.3401L34.8812 25.3547C34.8532 25.1673 34.8954 25.0809 34.8954 25.0809H34.9942L35.0083 25.1531L35.4402 25.194L35.7455 24.842C35.7301 24.8151 35.7762 24.7987 35.7427 24.7641C35.7002 24.721 35.6436 24.7641 35.5727 24.721C35.5023 24.6779 35.5727 24.433 35.5588 24.3755C35.5448 24.3179 35.799 24.2312 35.7566 24.3611C35.7142 24.4907 35.7566 24.5483 35.7566 24.5483C35.9401 24.3754 36.0954 24.5626 36.0814 24.6059C36.0669 24.649 36.1799 24.6923 36.2505 24.649C36.3212 24.6059 36.4058 24.7787 36.3776 24.8649C36.3491 24.9513 36.0954 24.9371 36.0814 24.8506C36.0669 24.7641 36.0245 24.793 35.9966 24.8363C35.9682 24.8795 35.8414 24.9081 35.7706 24.8649C35.7563 24.8561 35.7495 24.8489 35.7455 24.842L35.4402 25.194L35.4599 25.1961C35.6292 25.297 35.5448 25.4266 35.4884 25.4554C35.4317 25.4842 35.3329 25.4842 35.3329 25.4842L35.3049 25.5419L34.9378 25.5705L34.9094 25.7147C34.7259 25.6856 34.6556 25.8874 34.6978 25.9881C34.7403 26.0887 34.6978 26.1753 34.6978 26.1753L34.8531 26.2474L35.0506 26.1899C35.079 26.0458 35.2058 26.0169 35.3189 25.9307C35.4316 25.8443 35.6154 26.0888 35.5587 26.2042C35.5023 26.3192 35.5023 26.3625 35.5023 26.3625L35.5162 26.4922L35.3752 26.5497L35.2624 26.6074L35.248 26.6795H34.867L34.7966 26.7513L34.6129 26.766L34.5562 26.8523L34.4295 26.8667C34.4295 26.8667 34.2176 26.9676 34.3024 27.0827C34.3871 27.198 33.9496 27.1836 33.8506 27.0251C33.8223 27.169 33.667 27.0395 33.667 27.0395L33.5119 26.9962L33.4978 26.7804C33.4696 26.6363 33.2014 26.6363 33.2156 26.7372C33.2296 26.838 32.7071 26.7804 32.7071 26.7804L32.5379 26.8631L32.3825 26.9532L32.3685 27.0251L32.1142 27.0539L32.0014 27.1116L31.9592 27.0251H31.8464L31.7333 27.1837C31.4369 27.1981 31.1546 27.3709 31.1828 27.4429C31.2111 27.5148 31.0701 27.5872 31.0701 27.5872L30.9429 27.6299L30.8583 27.7596L30.6889 27.8173L30.6605 28.1199L30.576 28.1773V28.307L30.477 28.3356V28.4078L30.3359 28.4221L30.4204 28.6382L30.5337 28.6959C30.7313 28.7245 30.6465 28.9696 30.6465 28.9696L30.7593 28.9838L30.8159 29.1421L30.9287 29.3725C30.9712 29.5456 31.0982 29.5023 31.1546 29.4879C31.2111 29.4737 31.2674 29.6606 31.2674 29.6606L31.832 29.6751C31.832 29.6751 31.8039 29.7328 31.9028 29.7616C32.0014 29.7901 32.6507 29.8193 32.6792 29.776C32.6507 29.6463 33.0318 29.6174 33.1873 29.7327C33.3424 29.8477 33.5542 29.776 33.5542 29.776L33.7659 30.0349L33.9074 30.3519L34.1472 30.4238L34.3164 30.4671L34.3731 30.7119L34.4999 30.7263L34.5424 30.8849C34.6978 31 34.4999 31.2449 34.4999 31.2449V31.5615L34.6129 31.6192L34.5987 31.7346L34.7825 31.9215L34.9941 31.9362L35.5306 32.5121L35.9539 32.6416L36.0244 32.8721L36.1376 32.8577L36.2221 32.7858L36.5608 32.7714L36.7304 32.6128L36.9138 32.5842L38.4807 31.2448L38.3393 31.1584V30.8417C38.5934 30.6545 38.6075 30.3231 38.3676 30.2943C38.1856 30.2724 38.269 30.0783 38.4384 30.0495L38.537 30.0065V29.8767L38.8617 29.5745V29.344L38.1562 28.7534C37.8454 28.6384 38.1562 27.947 38.3676 27.9614C38.5795 27.9756 38.3536 26.8958 38.3536 26.8958L38.2405 26.8383L38.269 26.4925H38.1138L37.8596 26.8239L37.7891 27.0541C37.7608 27.3569 36.8856 27.299 36.8432 27.2557C36.8008 27.2125 36.5044 27.083 36.5044 27.083C36.5044 27.083 36.2786 26.8958 36.2362 26.9535C36.1939 27.0112 35.9963 26.8813 35.9963 26.9247C35.9963 26.9679 35.8129 26.824 35.8129 26.824L35.5306 26.7231L35.7425 26.6798L35.7 26.507L36.0668 26.6942C36.1092 26.7516 36.2927 26.7375 36.2927 26.7375L36.3491 26.8096C36.3491 26.8096 36.4622 26.7949 36.533 26.8815C36.6034 26.968 36.9704 26.8959 36.9704 26.8959L37.0691 26.9822L37.2243 27.0399L37.662 27.0544L37.6762 26.7809L37.7609 26.6944L37.7467 26.5214L37.8454 26.4352V26.2913L37.9303 26.2625L37.9443 25.9458L38.0147 25.9313V25.24L37.8031 25.0383C37.789 25.1104 37.5632 25.1104 37.5632 25.1104C37.5632 25.1104 37.5068 25.2111 37.4644 25.2111C37.4222 25.2111 37.5209 25.3406 37.4926 25.4271C37.4644 25.5134 37.3514 25.5134 37.3514 25.5134L37.1395 25.5711L37.0831 25.6432H36.8572L36.8291 25.456L37.083 25.3839L37.2242 25.3121L37.2949 25.1679C37.3089 25.0241 37.4784 25.0383 37.4784 25.0383C37.4784 25.0383 37.8031 24.7646 37.8171 24.6353C37.8314 24.5056 37.9443 24.1455 38.1418 24.1455H38.5089C38.6499 24.0878 38.6076 23.9007 38.6076 23.9007L38.7911 23.872L38.8195 23.9728C38.8195 23.9728 39.0736 24.0016 39.1017 23.9583C39.1301 23.9153 39.1865 23.8143 39.2572 23.8576C39.3277 23.9007 39.5535 23.7567 39.5535 23.7567C39.5676 23.6559 39.9205 23.6992 39.9205 23.6992L39.963 23.5696C39.963 23.5696 39.7231 23.2384 39.6807 23.2384C39.6382 23.2384 39.4125 23.0366 39.3841 23.1087C39.1585 23.0511 39.1725 22.7342 39.1725 22.7342L39.0877 22.5327C39.0877 22.4173 38.8762 22.1726 38.8336 22.2015C38.6218 22.0431 38.7772 21.8559 38.8336 21.8415C38.89 21.8272 39.0314 21.6255 39.0314 21.6255L39.1018 21.4238L39.3418 21.352L39.3701 21.1648L39.2433 21.1503C39.2433 21.1503 39.3842 20.891 39.4549 20.891C39.5256 20.891 39.9914 20.891 40.0335 20.8621C40.0759 20.8335 40.1604 20.6031 40.1604 20.5598C40.1604 20.5166 40.2737 20.5021 40.3158 20.4877C40.3582 20.4734 40.4569 20.3582 40.4852 20.3005C40.5134 20.2426 40.4149 19.8825 40.3583 19.9401Z" fill="#0C1318"/>
<path d="M32.5386 25.1319C32.5597 25.1106 32.581 25.1968 32.6233 25.186C32.6654 25.1752 32.6868 25.2616 32.6445 25.2616C32.6021 25.2616 32.6021 25.3157 32.6021 25.3373C32.6021 25.359 32.6021 25.4128 32.5702 25.4452C32.5385 25.4777 32.5066 25.456 32.4642 25.4344C32.422 25.4129 32.4009 25.4129 32.3479 25.4129C32.295 25.4129 32.3372 25.4993 32.3372 25.4993C32.3372 25.4993 32.1148 25.4885 32.1572 25.456C32.1996 25.4239 32.242 25.4128 32.2103 25.3911C32.1785 25.3695 32.2103 25.3481 32.2103 25.3049C32.2103 25.2616 32.3162 25.2833 32.2843 25.2508C32.2527 25.2183 32.2849 25.0931 32.3372 25.1643L32.3691 25.0886C32.3372 25.0563 32.3586 25.0454 32.295 25.0241C32.2316 25.0024 32.2843 24.8727 32.2843 24.8727L32.295 24.7863C32.3162 24.6786 32.5278 24.6676 32.5385 24.7647C32.5489 24.8619 32.5385 24.9268 32.5385 24.9268L32.6021 24.9483C32.6021 24.9483 32.5914 25.0135 32.5385 25.0135C32.4853 25.0135 32.5385 25.0454 32.5066 25.078L32.5386 25.1319Z" fill="#0C1318"/>
<path d="M31.8394 25.2399C31.8712 25.1751 31.9451 24.8943 32.03 24.9807C32.1144 25.0671 32.1675 24.9807 32.1675 24.9807C32.1675 24.9807 32.2099 25.024 32.1887 25.1104C32.1675 25.1967 32.1462 25.2832 32.0931 25.294C32.0404 25.3048 31.9979 25.3372 31.9347 25.348C31.8713 25.3589 31.8394 25.2399 31.8394 25.2399Z" fill="#0C1318"/>
</svg>
