<svg width="129" height="129" viewBox="0 0 129 129" fill="none" xmlns="http://www.w3.org/2000/svg">
<path d="M48.0136 15.9227L46.6505 11.7045L41.8439 7.73833L43.217 7.29459L47.2441 10.6246L46.7493 10.7845L48.0537 5.73153L49.4268 5.2878L47.8751 11.3087L49.2383 15.5269L48.0136 15.9227Z" fill="#2C2D36"/>
<path d="M36.6918 21.1874L35.2354 11.0028L36.5686 10.2982L44.1627 17.2392L42.9558 17.877L41.1918 16.2361L37.5368 18.1677L37.8986 20.5496L36.6918 21.1874ZM37.3464 16.9449L40.2888 15.39L36.1723 11.5516L36.4942 11.3815L37.3464 16.9449Z" fill="#2C2D36"/>
<path d="M31.6256 25.0641L25.7917 17.3333L26.8086 16.5659L31.9378 23.3628L35.331 20.8021L36.0358 21.736L31.6256 25.0641Z" fill="#2C2D36"/>
<path d="M25.3652 31.2137L18.3963 24.4881L20.7706 22.0279C21.216 21.5665 21.6945 21.2454 22.2061 21.0647C22.7178 20.884 23.229 20.8534 23.7399 20.9731C24.2568 21.0865 24.7335 21.3538 25.17 21.7751C25.6065 22.1964 25.8906 22.6633 26.0223 23.1758C26.1538 23.6761 26.1414 24.1881 25.9852 24.7119C25.8288 25.2234 25.5249 25.713 25.0735 26.1807L23.584 27.7241L26.2499 30.297L25.3652 31.2137ZM22.7421 26.9116L24.2587 25.3401C24.5296 25.0595 24.7113 24.7651 24.8039 24.457C24.8965 24.1489 24.8972 23.8425 24.8059 23.5376C24.7147 23.2328 24.5382 22.954 24.2762 22.7012C24.0081 22.4424 23.7232 22.2758 23.4215 22.2015C23.1136 22.1212 22.8074 22.1327 22.5028 22.2362C22.1981 22.3397 21.9104 22.5317 21.6396 22.8124L20.1229 24.3839L22.7421 26.9116Z" fill="#2C2D36"/>
<path d="M20.0477 39.2793C19.7079 39.8736 19.2843 40.3702 18.7768 40.7689C18.2618 41.1633 17.6969 41.4443 17.082 41.6119C16.4713 41.7719 15.8403 41.8105 15.1889 41.7276C14.53 41.6404 13.8883 41.4183 13.2638 41.0613C12.6318 40.7 12.1148 40.2597 11.7129 39.7404C11.3109 39.2211 11.024 38.6578 10.8521 38.0504C10.6846 37.4355 10.6417 36.812 10.7235 36.1799C10.8096 35.5403 11.0247 34.9196 11.3688 34.3177C11.713 33.7158 12.1404 33.2214 12.651 32.8345C13.1585 32.4357 13.7175 32.1564 14.3281 31.9963C14.9355 31.8244 15.5649 31.7799 16.2164 31.8628C16.8721 31.9382 17.5159 32.1566 18.1479 32.5179C18.7724 32.8749 19.2873 33.3189 19.6924 33.8501C20.0944 34.3693 20.3791 34.9365 20.5467 35.5514C20.7186 36.1588 20.7652 36.7844 20.6866 37.4283C20.6048 38.0604 20.3918 38.6773 20.0477 39.2793ZM19.0207 38.6921C19.2874 38.2256 19.4476 37.7532 19.5015 37.2749C19.5478 36.7922 19.5001 36.3257 19.3582 35.8752C19.2132 35.413 18.9843 34.9926 18.6716 34.6142C18.3556 34.2239 17.9682 33.8976 17.5092 33.6352C17.0502 33.3728 16.5762 33.2066 16.0871 33.1367C15.6023 33.0592 15.1277 33.0773 14.6633 33.1912C14.1957 33.2932 13.7694 33.4888 13.3845 33.7779C12.9921 34.0627 12.6625 34.4383 12.3959 34.9048C12.1335 35.3638 11.9791 35.8346 11.9328 36.3172C11.879 36.7956 11.9246 37.2659 12.0696 37.7281C12.2114 38.1786 12.4365 38.5968 12.745 38.9828C13.0534 39.3687 13.4371 39.6929 13.8961 39.9553C14.355 40.2177 14.8328 40.386 15.3294 40.4603C15.8185 40.5302 16.2969 40.5142 16.7645 40.4122C17.2289 40.2983 17.6574 40.099 18.0498 39.8142C18.4347 39.5251 18.7583 39.1511 19.0207 38.6921Z" fill="#2C2D36"/>
<path d="M15.8321 48.3988L7.7857 45.6129L6.92656 48.0944L5.82095 47.7116L7.94755 41.5694L9.05316 41.9522L8.20677 44.3968L16.2532 47.1826L15.8321 48.3988Z" fill="#2C2D36"/>
<path d="M13.2508 61.1625L3.64772 59.9054L3.81309 58.6421L9.21401 59.3492L9.04461 59.6417L4.37334 54.3627L4.5809 52.7772L8.52339 57.2135L7.62953 57.0309L14.2093 53.841L14.0118 55.3491L9.05052 57.7938L10.5803 59.5281L13.4161 59.8993L13.2508 61.1625Z" fill="#2C2D36"/>
<path d="M13.4904 67.3057C13.5323 67.989 13.45 68.628 13.2433 69.2224C13.0275 69.8087 12.7079 70.3319 12.2846 70.792C11.8608 71.2435 11.3533 71.6046 10.7621 71.8753C10.1709 72.146 9.51634 72.3034 8.79836 72.3475C8.07172 72.392 7.39848 72.3161 6.77862 72.1197C6.15876 71.9233 5.61092 71.627 5.13509 71.2307C4.65927 70.8344 4.28247 70.3539 4.0047 69.7892C3.71828 69.225 3.5541 68.6012 3.51218 67.9179C3.47131 67.2518 3.55147 66.6477 3.75266 66.1057C3.95331 65.5551 4.22848 65.0867 4.57815 64.7005C4.9273 64.3058 5.30903 64.0175 5.72335 63.8358L6.32699 64.971C5.80447 65.2288 5.39344 65.6056 5.09392 66.1016C4.78574 66.5981 4.65209 67.1793 4.69296 67.8454C4.73435 68.5201 4.93127 69.1115 5.28371 69.6196C5.63562 70.119 6.10606 70.4982 6.69503 70.7573C7.284 71.0164 7.9591 71.1226 8.72034 71.0758C9.47292 71.0297 10.1257 70.842 10.6785 70.5129C11.2314 70.1837 11.652 69.7498 11.9402 69.2112C12.2279 68.6639 12.351 68.0528 12.3096 67.3781C12.2688 66.712 12.0694 66.1512 11.7115 65.6956C11.3449 65.2405 10.8866 64.917 10.3365 64.725L10.7968 63.5245C11.2302 63.6542 11.6443 63.8936 12.0391 64.2428C12.4334 64.5833 12.7637 65.0145 13.0302 65.5365C13.2961 66.0499 13.4495 66.6396 13.4904 67.3057Z" fill="#2C2D36"/>
<path d="M14.4148 75.3267L4.92255 77.2492L4.66966 76.0005L14.1619 74.0781L14.4148 75.3267Z" fill="#2C2D36"/>
<path d="M16.3959 82.311L7.16042 85.2275L6.77677 84.0126L14.8965 81.4484L13.6164 77.3948L14.7321 77.0424L16.3959 82.311Z" fill="#2C2D36"/>
<path d="M19.0642 87.8293C19.3807 88.4364 19.5655 89.0536 19.6186 89.6806C19.6601 90.304 19.5812 90.912 19.3818 91.5046C19.1784 92.0895 18.8618 92.6258 18.4319 93.1137C18.0021 93.6016 17.4682 94.0118 16.8303 94.3442C16.1847 94.6807 15.5389 94.8853 14.8927 94.9582C14.2466 95.0311 13.6256 94.9834 13.0297 94.8151C12.4338 94.6467 11.894 94.3612 11.4105 93.9584C10.9192 93.5596 10.5154 93.0567 10.199 92.4495C9.89054 91.8577 9.71792 91.2733 9.6811 90.6964C9.64028 90.1117 9.70099 89.5719 9.86324 89.0769C10.0215 88.5742 10.2529 88.1555 10.5574 87.8209L11.5707 88.6121C11.1984 89.0603 10.9763 89.5718 10.9046 90.1467C10.8251 90.7256 10.9396 91.311 11.248 91.9028C11.5605 92.5022 11.981 92.9623 12.5097 93.2829C13.0344 93.5958 13.6185 93.7508 14.2619 93.7477C14.9053 93.7447 15.5652 93.5669 16.2415 93.2145C16.9102 92.866 17.43 92.4289 17.8011 91.9032C18.1722 91.3776 18.3797 90.8101 18.4238 90.2007C18.4638 89.5837 18.3276 88.9755 18.0152 88.376C17.7068 87.7842 17.2964 87.3531 16.784 87.0826C16.264 86.8161 15.7136 86.7071 15.133 86.7556L15.0649 85.4717C15.5136 85.4138 15.9893 85.464 16.492 85.6222C16.9907 85.7728 17.468 86.0322 17.9239 86.4006C18.3757 86.7613 18.7558 87.2375 19.0642 87.8293Z" fill="#2C2D36"/>
<path d="M29.5893 101.995L26.5199 105.194L25.3034 111.305L24.2623 110.306L25.2876 105.182L25.6628 105.542L20.5948 106.787L19.5536 105.788L25.5913 104.303L28.6607 101.104L29.5893 101.995Z" fill="#2C2D36"/>
<path d="M39.5889 109.473L31.309 115.58L30.0569 114.739L32.5731 104.764L33.7064 105.524L33.0969 107.855L36.5292 110.159L38.4556 108.712L39.5889 109.473ZM35.5425 110.906L32.7793 109.051L31.3485 114.495L31.0463 114.292L35.5425 110.906Z" fill="#2C2D36"/>
<path d="M45.4029 112.099L41.3574 120.899L40.1999 120.367L43.7567 112.63L39.8943 110.855L40.383 109.791L45.4029 112.099Z" fill="#2C2D36"/>
<path d="M53.7834 114.7L51.1608 124.023L47.8695 123.097C47.2521 122.924 46.7427 122.654 46.3412 122.289C45.9397 121.924 45.6707 121.489 45.5341 120.982C45.3892 120.473 45.3989 119.927 45.5631 119.343C45.7274 118.759 46.0041 118.287 46.3931 117.928C46.7714 117.576 47.2282 117.344 47.7635 117.234C48.288 117.129 48.8632 117.165 49.4889 117.341L51.5537 117.922L52.557 114.355L53.7834 114.7ZM51.2369 119.048L49.1345 118.457C48.7591 118.351 48.4138 118.33 48.0985 118.395C47.7833 118.459 47.5131 118.604 47.2878 118.828C47.0625 119.053 46.9006 119.341 46.8021 119.691C46.7011 120.05 46.6894 120.38 46.7668 120.68C46.8419 120.99 46.9971 121.254 47.2325 121.473C47.468 121.693 47.7734 121.855 48.1488 121.961L50.2512 122.552L51.2369 119.048Z" fill="#2C2D36"/>
<path d="M63.4064 115.563C64.0908 115.581 64.7288 115.719 65.3203 115.977C65.9116 116.244 66.4266 116.608 66.8655 117.07C67.2957 117.532 67.6285 118.07 67.864 118.683C68.0993 119.304 68.2077 119.975 68.189 120.694C68.1702 121.421 68.0272 122.085 67.7603 122.685C67.4933 123.285 67.133 123.805 66.6795 124.244C66.2173 124.683 65.6885 125.016 65.0931 125.243C64.489 125.47 63.8404 125.575 63.1473 125.557C62.4542 125.539 61.8163 125.396 61.2337 125.13C60.6422 124.872 60.1314 124.512 59.7012 124.05C59.2621 123.596 58.9248 123.063 58.6893 122.45C58.4451 121.837 58.3325 121.166 58.3513 120.439C58.37 119.72 58.5172 119.056 58.7931 118.447C59.06 117.848 59.4246 117.328 59.8868 116.889C60.3404 116.45 60.8693 116.113 61.4736 115.877C62.069 115.65 62.7133 115.545 63.4064 115.563ZM63.3757 116.746C62.8386 116.732 62.3466 116.814 61.8998 116.993C61.4528 117.181 61.0645 117.444 60.735 117.783C60.3965 118.129 60.1347 118.53 59.9495 118.985C59.7555 119.448 59.6516 119.944 59.6379 120.472C59.6242 121.001 59.7024 121.497 59.8724 121.961C60.0338 122.424 60.2746 122.834 60.5948 123.189C60.9062 123.552 61.2803 123.835 61.7172 124.037C62.1539 124.248 62.6408 124.36 63.178 124.374C63.7064 124.388 64.1942 124.301 64.6412 124.113C65.088 123.934 65.4806 123.671 65.8191 123.324C66.1486 122.986 66.4103 122.59 66.6041 122.135C66.798 121.681 66.9017 121.189 66.9154 120.661C66.9291 120.132 66.8511 119.632 66.6813 119.159C66.5112 118.695 66.2706 118.282 65.9592 117.918C65.639 117.563 65.2605 117.28 64.8238 117.069C64.3869 116.867 63.9042 116.759 63.3757 116.746Z" fill="#2C2D36"/>
<path d="M73.434 114.956L74.7916 123.362L77.384 122.943L77.5705 124.098L71.1537 125.135L70.9672 123.98L73.5211 123.567L72.1635 115.161L73.434 114.956Z" fill="#2C2D36"/>
<path d="M85.8987 111.184L89.3399 120.237L88.149 120.69L86.2137 115.598L86.5515 115.609L84.1147 122.224L82.62 122.792L84.6598 117.218L84.9224 118.092L78.9966 113.808L80.4183 113.267L84.9213 116.479L85.7241 114.31L84.7079 111.637L85.8987 111.184Z" fill="#2C2D36"/>
<path d="M91.1953 108.064C91.7773 107.703 92.379 107.473 93.0004 107.374C93.619 107.286 94.2312 107.32 94.8369 107.474C95.4353 107.634 95.9937 107.91 96.5121 108.302C97.0306 108.695 97.4792 109.197 97.8581 109.808C98.2415 110.427 98.4935 111.056 98.6141 111.695C98.7347 112.334 98.7332 112.957 98.6096 113.563C98.486 114.17 98.2412 114.73 97.8755 115.242C97.5142 115.761 97.0426 116.201 96.4606 116.562C95.8933 116.913 95.3234 117.129 94.7507 117.208C94.1707 117.292 93.6279 117.272 93.1222 117.147C92.6091 117.026 92.1744 116.827 91.8181 116.548L92.532 115.479C93.0065 115.817 93.5331 116 94.1118 116.029C94.695 116.065 95.2703 115.908 95.8375 115.556C96.4122 115.2 96.8397 114.747 97.1203 114.196C97.3934 113.649 97.5046 113.055 97.4538 112.414C97.403 111.772 97.1768 111.128 96.7751 110.479C96.378 109.838 95.9035 109.352 95.3518 109.021C94.8 108.69 94.2187 108.525 93.6078 108.527C92.9895 108.532 92.393 108.713 91.8184 109.069C91.2511 109.421 90.8516 109.862 90.6199 110.393C90.3927 110.932 90.3248 111.488 90.4163 112.064L89.141 112.227C89.0499 111.784 89.0647 111.306 89.1852 110.793C89.2983 110.284 89.5217 109.789 89.8552 109.307C90.1813 108.83 90.628 108.415 91.1953 108.064Z" fill="#2C2D36"/>
<path d="M97.8216 103.45L104.011 110.9L103.031 111.714L96.8416 104.264L97.8216 103.45Z" fill="#2C2D36"/>
<path d="M103.034 98.3972L109.977 105.15L109.089 106.063L102.984 100.126L100.021 103.174L99.1818 102.358L103.034 98.3972Z" fill="#2C2D36"/>
<path d="M106.631 93.4339C107.016 92.8677 107.472 92.4126 107.999 92.0688C108.529 91.737 109.101 91.5186 109.718 91.4135C110.329 91.3156 110.952 91.3404 111.585 91.4879C112.218 91.6354 112.832 91.9113 113.427 92.3156C114.029 92.7249 114.515 93.1967 114.886 93.7313C115.256 94.2658 115.508 94.8354 115.642 95.4399C115.776 96.0445 115.78 96.6551 115.654 97.2717C115.536 97.8933 115.284 98.4872 114.899 99.0534C114.524 99.6053 114.091 100.034 113.601 100.34C113.105 100.653 112.601 100.855 112.088 100.947C111.57 101.045 111.092 101.04 110.653 100.93L110.87 99.6628C111.441 99.7785 111.997 99.7318 112.537 99.5227C113.084 99.3184 113.546 98.9404 113.921 98.3884C114.301 97.8293 114.507 97.2411 114.539 96.6236C114.566 96.0132 114.426 95.4255 114.118 94.8602C113.811 94.295 113.342 93.798 112.711 93.3693C112.087 92.9455 111.456 92.6946 110.818 92.6168C110.179 92.539 109.581 92.625 109.023 92.8748C108.461 93.1318 107.99 93.5398 107.61 94.0989C107.235 94.6509 107.049 95.2165 107.054 95.7958C107.065 96.3801 107.23 96.9164 107.548 97.4048L106.449 98.0728C106.186 97.7051 106.004 97.2624 105.906 96.7447C105.802 96.2342 105.805 95.6909 105.913 95.115C106.017 94.5462 106.256 93.9859 106.631 93.4339Z" fill="#2C2D36"/>
<path d="M114.122 77.4544L118.393 78.6427L124.352 76.8193L123.965 78.2095L118.967 79.7334L119.106 79.2324L122.603 83.1065L122.216 84.4967L118.048 79.8826L113.777 78.6943L114.122 77.4544Z" fill="#2C2D36"/>
<path d="M115.971 65.106L125.271 69.506L125.124 71.0068L115.146 73.5157L115.279 72.1572L117.621 71.5901L118.024 67.4758L115.838 66.4645L115.971 65.106ZM119.15 67.9911L118.825 71.3032L124.296 69.9852L124.261 70.3474L119.15 67.9911Z" fill="#2C2D36"/>
<path d="M115.531 58.7416L125.197 58.1366L125.277 59.4081L116.779 59.94L117.044 64.1827L115.876 64.2558L115.531 58.7416Z" fill="#2C2D36"/>
<path d="M113.851 50.1282L123.305 48.0222L124.048 51.3594C124.188 51.9854 124.192 52.5616 124.06 53.0881C123.929 53.6146 123.673 54.0579 123.291 54.4182C122.912 54.7869 122.426 55.0372 121.833 55.1691C121.241 55.301 120.695 55.2806 120.195 55.1079C119.705 54.9418 119.285 54.6492 118.934 54.2301C118.593 53.8176 118.353 53.2942 118.211 52.6597L117.745 50.5661L114.128 51.3717L113.851 50.1282ZM118.887 50.3116L119.362 52.4434C119.446 52.824 119.592 53.1379 119.798 53.3851C120.004 53.6322 120.259 53.8017 120.564 53.8937C120.868 53.9856 121.198 53.992 121.554 53.9129C121.917 53.8319 122.213 53.686 122.442 53.4753C122.679 53.2627 122.838 53.0009 122.919 52.6897C123.001 52.3785 122.999 52.0325 122.915 51.6519L122.44 49.5201L118.887 50.3116Z" fill="#2C2D36"/>
<path d="M110.054 41.2452C109.746 40.634 109.565 40.0068 109.512 39.3636C109.467 38.7165 109.544 38.0902 109.743 37.4848C109.946 36.8871 110.262 36.3394 110.69 35.8417C111.126 35.34 111.665 34.9271 112.308 34.6029C112.957 34.2748 113.61 34.0863 114.265 34.0372C114.919 33.9882 115.548 34.0594 116.149 34.2509C116.755 34.4501 117.298 34.7581 117.781 35.1748C118.267 35.5993 118.666 36.121 118.978 36.7399C119.291 37.3589 119.468 37.988 119.509 38.6274C119.562 39.2706 119.487 39.891 119.284 40.4887C119.092 41.0902 118.782 41.6398 118.354 42.1376C117.93 42.6431 117.392 43.0598 116.742 43.3879C116.1 43.7121 115.446 43.8968 114.78 43.942C114.125 43.991 113.495 43.9159 112.889 43.7167C112.288 43.5253 111.74 43.2192 111.246 42.7987C110.764 42.3819 110.367 41.8641 110.054 41.2452ZM111.11 40.712C111.352 41.1917 111.658 41.5859 112.028 41.8945C112.405 42.1992 112.82 42.4166 113.274 42.5467C113.74 42.6805 114.217 42.7213 114.705 42.6691C115.205 42.6206 115.691 42.4773 116.162 42.239C116.634 42.0008 117.034 41.6969 117.362 41.3274C117.694 40.9657 117.941 40.5597 118.102 40.1095C118.275 39.6631 118.346 39.1997 118.317 38.7192C118.296 38.2348 118.165 37.7527 117.922 37.2731C117.684 36.8011 117.376 36.4128 116.999 36.108C116.63 35.7994 116.212 35.5781 115.747 35.4443C115.293 35.3142 114.82 35.2715 114.328 35.316C113.836 35.3606 113.354 35.5019 112.882 35.7402C112.41 35.9784 112.006 36.2843 111.67 36.6576C111.342 37.0271 111.092 37.435 110.919 37.8814C110.758 38.3317 110.688 38.799 110.709 39.2834C110.738 39.7639 110.872 40.2401 111.11 40.712Z" fill="#2C2D36"/>
<path d="M104.77 32.7009L111.53 27.5238L109.933 25.4389L110.862 24.7276L114.814 29.8882L113.885 30.5995L112.312 28.5456L105.552 33.7227L104.77 32.7009Z" fill="#2C2D36"/>
<path d="M95.5441 23.51L101.887 16.1913L102.85 17.0258L99.2825 21.1419L99.1319 20.8393L106.112 19.8526L107.32 20.8998L101.445 21.7432L102.09 21.0981L101.124 28.3462L99.9745 27.35L100.67 21.863L98.38 22.1832L96.5068 24.3444L95.5441 23.51Z" fill="#2C2D36"/>
<path d="M90.2877 20.3228C89.6945 19.981 89.2069 19.56 88.8249 19.0599C88.4547 18.5566 88.1944 18.0015 88.0439 17.3947C87.9009 16.7922 87.8794 16.1697 87.9795 15.5272C88.0796 14.8847 88.3092 14.2518 88.6683 13.6285C89.0317 12.9977 89.4662 12.4779 89.9718 12.0691C90.4774 11.6602 91.0267 11.3665 91.6196 11.188C92.2126 11.0095 92.8212 10.9601 93.4455 11.0397C94.0741 11.1118 94.685 11.3187 95.2783 11.6605C95.8565 11.9936 96.3162 12.3935 96.6575 12.8602C97.0063 13.3312 97.2454 13.819 97.3747 14.3236C97.5116 14.8326 97.5416 15.31 97.4648 15.7558L96.1849 15.6336C96.2579 15.0555 96.1701 14.5048 95.9215 13.9815C95.6772 13.4507 95.2659 13.0187 94.6877 12.6856C94.102 12.3481 93.5 12.1863 92.8818 12.2003C92.2712 12.2185 91.6954 12.4019 91.1546 12.7505C90.6137 13.099 90.1529 13.6037 89.7722 14.2645C89.3958 14.9179 89.1925 15.5659 89.1623 16.2086C89.132 16.8513 89.2622 17.4414 89.5527 17.9789C89.8507 18.5206 90.2925 18.9602 90.8783 19.2977C91.4565 19.6308 92.0344 19.7737 92.6118 19.7263C93.1935 19.6714 93.7162 19.4674 94.1797 19.1143L94.9274 20.1602C94.5802 20.4503 94.1521 20.6637 93.6432 20.8006C93.1418 20.9418 92.5998 20.9797 92.0174 20.9142C91.4425 20.853 90.866 20.6559 90.2877 20.3228Z" fill="#2C2D36"/>
<path d="M83.0856 16.6722L86.7151 7.69299L87.8963 8.17042L84.2668 17.1496L83.0856 16.6722Z" fill="#2C2D36"/>
<path d="M76.1673 14.4744L78.8258 5.16146L80.0509 5.51117L77.7135 13.6991L81.8012 14.866L81.48 15.991L76.1673 14.4744Z" fill="#2C2D36"/>
<path d="M70.0912 13.6578C69.4102 13.5871 68.7935 13.401 68.241 13.0997C67.698 12.7906 67.2343 12.3895 66.8499 11.8965C66.4741 11.4043 66.2011 10.8445 66.0311 10.2169C65.861 9.58926 65.8132 8.91772 65.8875 8.20224C65.9627 7.47814 66.1481 6.82647 66.4435 6.24723C66.7389 5.66799 67.1211 5.17619 67.5901 4.77182C68.0591 4.36745 68.5949 4.07458 69.1975 3.89321C69.801 3.70323 70.4433 3.64362 71.1243 3.71437C71.7881 3.78333 72.3708 3.9615 72.8724 4.24887C73.3827 4.53715 73.7996 4.88543 74.1231 5.29371C74.4553 5.70289 74.677 6.12674 74.7883 6.56526L73.5695 6.9745C73.4009 6.41676 73.0966 5.94947 72.6565 5.57264C72.2173 5.1872 71.6658 4.95999 71.002 4.89103C70.3297 4.82118 69.714 4.91841 69.155 5.18273C68.6047 5.44794 68.1534 5.8498 67.8012 6.38828C67.449 6.92677 67.2335 7.57531 67.1547 8.33389C67.0768 9.08385 67.1548 9.75853 67.3888 10.3579C67.6228 10.9573 67.9818 11.4433 68.4659 11.816C68.9586 12.1896 69.5411 12.4113 70.2135 12.4812C70.8772 12.5501 71.4632 12.4455 71.9713 12.1672C72.4804 11.8802 72.8747 11.4812 73.1544 10.97L74.263 11.621C74.064 12.0273 73.7599 12.3965 73.3507 12.7287C72.9501 13.0618 72.4705 13.3169 71.9119 13.4941C71.3619 13.6722 70.755 13.7268 70.0912 13.6578Z" fill="#2C2D36"/>
</svg>
