<svg width="80" height="80" viewBox="0 0 80 80" fill="none" xmlns="http://www.w3.org/2000/svg">
<path d="M77.9049 42.5675L30.4049 26.3175C30.1851 26.2421 29.9486 26.2295 29.7221 26.2811C29.4955 26.3327 29.2878 26.4464 29.1223 26.6094C28.9568 26.7725 28.84 26.9785 28.785 27.2042C28.73 27.43 28.7391 27.6666 28.8111 27.8875L45.0611 77.8875C45.1401 78.1297 45.2913 78.3421 45.4944 78.496C45.6975 78.6499 45.9428 78.7381 46.1974 78.7487H46.2499C46.4959 78.7488 46.7366 78.6763 46.9416 78.5402C47.1466 78.4041 47.3069 78.2105 47.4024 77.9837L57.2161 54.675L78.0324 44.88C78.2577 44.7742 78.4463 44.6036 78.574 44.39C78.7018 44.1764 78.7629 43.9295 78.7494 43.681C78.736 43.4325 78.6487 43.1936 78.4987 42.995C78.3486 42.7964 78.1427 42.6471 77.9074 42.5662L77.9049 42.5675ZM46.4049 73.9212L32.7974 32.065L54.7711 54.04L46.4049 73.9212ZM56.5124 52.25L34.6949 30.4275L74.1736 43.9275L56.5124 52.25Z" fill="#FF561D"/>
<path d="M29.9362 3.75C30.3325 3.75 30.71 3.75 31.0937 3.7725L31.1975 1.2725C30.8012 1.2575 30.4012 1.25 30 1.25C29.5362 1.25 29.0737 1.26 28.6162 1.28125L28.7337 3.78125C29.1337 3.76 29.5325 3.75 29.9362 3.75Z" fill="#484848"/>
<path d="M36.3024 1.945C35.4662 1.75625 34.6112 1.605 33.7649 1.495L33.4399 3.97375C34.2137 4.075 34.9937 4.21249 35.7574 4.38374L36.3024 1.945Z" fill="#484848"/>
<path d="M41.2126 3.52C40.4288 3.18625 39.6151 2.88375 38.7926 2.62L38.0288 4.99999C38.7788 5.24 39.5201 5.51625 40.2338 5.81999L41.2126 3.52Z" fill="#484848"/>
<path d="M17.4999 6.91375L16.3061 4.71625C15.5561 5.125 14.8061 5.57125 14.0986 6.04625L15.4786 8.125C16.1311 7.695 16.8086 7.28625 17.4999 6.91375Z" fill="#484848"/>
<path d="M21.8123 5.05125L21.0323 2.67625C20.2173 2.9425 19.4073 3.25125 18.6211 3.59L19.6123 5.885C20.3286 5.57625 21.0686 5.295 21.8123 5.05125Z" fill="#484848"/>
<path d="M26.3951 3.9925L26.0526 1.5175C25.2026 1.635 24.3488 1.79125 23.5176 1.9825L24.0788 4.41875C24.8388 4.25 25.6176 4.1 26.3951 3.9925Z" fill="#484848"/>
<path d="M51.1823 14.4913L53.1961 13.0113C52.6886 12.3188 52.1448 11.6438 51.5811 11.005L49.7061 12.6575C50.2211 13.2425 50.7173 13.8588 51.1823 14.4913Z" fill="#484848"/>
<path d="M56.2502 30C56.2502 30.785 56.2152 31.5775 56.1465 32.3538L58.6365 32.5738C58.7123 31.7246 58.7502 30.8596 58.7502 29.9788L57.9702 29.9213L56.2502 30Z" fill="#484848"/>
<path d="M55.2826 22.9113L57.6901 22.2375C57.4601 21.4138 57.1901 20.59 56.8839 19.7888L54.5464 20.675C54.8239 21.4075 55.0726 22.16 55.2826 22.9113Z" fill="#484848"/>
<path d="M56.1365 27.535L58.6252 27.3062C58.5477 26.4537 58.429 25.595 58.2727 24.7513L55.814 25.205C55.9565 25.975 56.0652 26.7588 56.1365 27.535Z" fill="#484848"/>
<path d="M49.7925 9.14876C49.1675 8.55876 48.5162 7.99001 47.845 7.45876L46.2925 9.41626C46.905 9.90376 47.5037 10.4163 48.0712 10.9613L49.7925 9.14876Z" fill="#484848"/>
<path d="M45.7498 5.94876C45.0373 5.48126 44.2923 5.03751 43.5335 4.63126L42.3535 6.83626C43.046 7.21126 43.7285 7.61126 44.3785 8.03876L45.7498 5.94876Z" fill="#484848"/>
<path d="M13.5776 9.52124L12.0151 7.57124C11.3476 8.10499 10.6964 8.67749 10.0776 9.27249L11.8114 11.0737C12.3751 10.5325 12.9689 10.01 13.5776 9.52124Z" fill="#484848"/>
<path d="M53.6123 18.5163L55.8623 17.4213C55.4873 16.6513 55.0723 15.89 54.6298 15.1575L52.4873 16.4513C52.8911 17.125 53.2698 17.815 53.6123 18.5163Z" fill="#484848"/>
<path d="M4.15639 25.3675L1.69514 24.93C1.54514 25.7725 1.43264 26.6325 1.35889 27.4862L3.84889 27.7012C3.91639 26.9225 4.02014 26.1362 4.15639 25.3675Z" fill="#484848"/>
<path d="M21.1475 57.3613C21.9575 57.6238 22.795 57.8525 23.6375 58.0438L24.1875 55.6038C23.4187 55.4313 22.6562 55.2288 21.92 54.9788L21.1475 57.3613Z" fill="#484848"/>
<path d="M8.375 48.9512C8.9425 49.5962 9.5425 50.2225 10.1588 50.81L11.8887 49C11.325 48.4625 10.7763 47.89 10.2638 47.3L8.375 48.9512Z" fill="#484848"/>
<path d="M12.1074 52.5C12.7799 53.0363 13.4824 53.545 14.1937 54.0138L15.5687 51.9263C14.9187 51.4975 14.2774 51.0325 13.6637 50.5438L12.1074 52.5Z" fill="#484848"/>
<path d="M16.4048 55.3375C17.1548 55.7413 17.936 56.1188 18.7323 56.4625L19.7135 54.1625C18.9873 53.8538 18.2748 53.51 17.5885 53.1425L16.4048 55.3375Z" fill="#484848"/>
<path d="M26.1738 58.5C27.0151 58.6138 27.8801 58.6888 28.7438 58.7263L28.8501 56.2263C28.0626 56.1925 27.2738 56.1238 26.5076 56.02L26.1738 58.5Z" fill="#484848"/>
<path d="M31.2061 56.2225L31.3198 58.7225C32.1723 58.6825 33.0361 58.605 33.8848 58.4913L33.5523 56.0138C32.7748 56.1163 31.9861 56.1863 31.2061 56.2225Z" fill="#484848"/>
<path d="M3.75 30.055H1.25C1.25 30.9137 1.2925 31.78 1.36875 32.6287L3.85875 32.4025C3.78875 31.6325 3.75 30.84 3.75 30.055Z" fill="#484848"/>
<path d="M5.39498 20.8313L3.05123 19.9563C2.74998 20.7663 2.48498 21.5913 2.26123 22.4125L4.67373 23.0688C4.87498 22.325 5.12498 21.5713 5.39498 20.8313Z" fill="#484848"/>
<path d="M10.1873 12.7813L8.30102 11.14C7.73977 11.785 7.19977 12.465 6.69727 13.1575L8.72227 14.625C9.18102 13.99 9.67477 13.375 10.1873 12.7813Z" fill="#484848"/>
<path d="M7.42728 16.5925L5.28103 15.3138C4.84103 16.05 4.43104 16.8138 4.06104 17.585L6.31103 18.6675C6.65228 17.9638 7.02728 17.265 7.42728 16.5925Z" fill="#484848"/>
<path d="M4.17604 34.74L1.71729 35.1862C1.86979 36.03 2.06354 36.8775 2.29354 37.7025L4.70229 37.0337C4.49979 36.28 4.31604 35.5087 4.17604 34.74Z" fill="#484848"/>
<path d="M7.48381 43.5L5.34131 44.7913C5.78381 45.5275 6.26381 46.25 6.76756 46.9387L8.78631 45.4637C8.32631 44.835 7.88881 44.175 7.48381 43.5Z" fill="#484848"/>
<path d="M5.43396 39.27L3.09521 40.1537C3.39771 40.9537 3.74021 41.75 4.11396 42.5287L6.36396 41.4387C6.02271 40.7287 5.71021 40 5.43396 39.27Z" fill="#484848"/>
</svg>
