<svg width="64" height="64" viewBox="0 0 80 80" fill="none" xmlns="http://www.w3.org/2000/svg">
<path d="M35.985 15.05L36.7675 14.2675C37.0063 14.0369 37.1967 13.761 37.3278 13.456C37.4588 13.151 37.5277 12.823 37.5306 12.491C37.5335 12.1591 37.4703 11.8299 37.3446 11.5226C37.2189 11.2154 37.0332 10.9362 36.7985 10.7015C36.5638 10.4668 36.2846 10.2812 35.9774 10.1554C35.6701 10.0297 35.3409 9.96649 35.009 9.96938C34.677 9.97226 34.349 10.0412 34.044 10.1723C33.739 10.3033 33.4631 10.4937 33.2325 10.7325L28.2325 15.7325C27.7638 16.2013 27.5005 16.8371 27.5005 17.5C27.5005 18.1629 27.7638 18.7987 28.2325 19.2675L33.2325 24.2675C33.704 24.7229 34.3355 24.9749 34.991 24.9692C35.6465 24.9635 36.2735 24.7006 36.737 24.2371C37.2006 23.7735 37.4635 23.1465 37.4692 22.491C37.4749 21.8355 37.2229 21.204 36.7675 20.7325L36.09 20.055C41.9577 20.3318 47.4841 22.8939 51.487 27.1932C55.4898 31.4926 57.6512 37.1876 57.5088 43.0602C57.3664 48.9327 54.9315 54.5163 50.7249 58.6165C46.5184 62.7167 40.8742 65.008 35 65H7.5C6.83696 65 6.20107 65.2634 5.73223 65.7322C5.26339 66.2011 5 66.837 5 67.5C5 68.163 5.26339 68.7989 5.73223 69.2678C6.20107 69.7366 6.83696 70 7.5 70H35C42.2174 70.0212 49.1536 67.2023 54.31 62.1523C59.4665 57.1023 62.4294 50.2265 62.5588 43.0102C62.6881 35.7939 59.9735 28.8163 55.0014 23.5847C50.0292 18.3531 43.1986 15.2875 35.985 15.05Z" fill="#444555"/>
<path d="M74.2675 65.7325L69.2675 60.7325C68.796 60.2771 68.1645 60.0251 67.509 60.0308C66.8535 60.0365 66.2265 60.2994 65.763 60.763C65.2994 61.2265 65.0365 61.8535 65.0308 62.509C65.0251 63.1645 65.2771 63.796 65.7325 64.2675L66.465 65H57.5C56.837 65 56.2011 65.2634 55.7322 65.7322C55.2634 66.2011 55 66.837 55 67.5C55 68.1631 55.2634 68.7989 55.7322 69.2678C56.2011 69.7366 56.837 70 57.5 70H66.465L65.7325 70.7325C65.4937 70.9631 65.3033 71.239 65.1722 71.544C65.0412 71.849 64.9723 72.1771 64.9694 72.509C64.9665 72.841 65.0297 73.1702 65.1554 73.4774C65.2811 73.7846 65.4668 74.0638 65.7015 74.2985C65.9362 74.5332 66.2154 74.7189 66.5226 74.8446C66.8299 74.9703 67.1591 75.0335 67.491 75.0306C67.823 75.0278 68.151 74.9588 68.456 74.8278C68.761 74.6967 69.0369 74.5063 69.2675 74.2675L74.2675 69.2675C74.7362 68.7987 74.9995 68.1629 74.9995 67.5C74.9995 66.8371 74.7362 66.2013 74.2675 65.7325Z" fill="#FF561D"/>
<path d="M21.2501 18.7075C17.0741 21.1205 13.6058 24.5887 11.1925 28.7645C8.77925 32.9403 7.50591 37.677 7.50007 42.5C7.48663 48.4568 9.42849 54.2534 13.0276 59C13.2604 59.3105 13.5624 59.5625 13.9095 59.7361C14.2567 59.9096 14.6395 60 15.0276 60C15.4918 60 15.947 59.8707 16.3419 59.6266C16.7368 59.3825 17.056 59.0333 17.2636 58.618C17.4713 58.2028 17.5592 57.7379 17.5175 57.2755C17.4758 56.8131 17.3061 56.3714 17.0276 56C14.0804 52.1174 12.4897 47.3745 12.5001 42.5C12.505 38.5552 13.547 34.681 15.5215 31.2659C17.496 27.8508 20.3338 25.0149 23.7501 23.0425C24.3249 22.711 24.7445 22.1647 24.9166 21.5238C25.0887 20.8829 24.9991 20.1999 24.6676 19.625C24.336 19.0502 23.7897 18.6305 23.1488 18.4585C22.5079 18.2864 21.8249 18.376 21.2501 18.7075Z" fill="#FF561D"/>
</svg>
