<svg width="734" height="734" viewBox="0 0 734 734" fill="none" xmlns="http://www.w3.org/2000/svg">
<circle opacity="0.3" cx="461" cy="366" r="233.5" stroke="#484848"/>
<circle opacity="0.3" cx="367" cy="367" r="366.5" stroke="#484848"/>
<circle opacity="0.3" cx="223" cy="196" r="75.5" stroke="#484848" stroke-dasharray="4 4"/>
<circle opacity="0.3" cx="474" cy="263" r="75.5" stroke="#484848" stroke-dasharray="4 4"/>
<circle opacity="0.3" cx="597" cy="321" r="75.5" stroke="#484848" stroke-dasharray="4 4"/>
<circle opacity="0.3" cx="426" cy="456" r="75.5" stroke="#484848" stroke-dasharray="4 4"/>
<circle opacity="0.3" cx="339" cy="635" r="75.5" stroke="#484848" stroke-dasharray="4 4"/>
<circle opacity="0.3" cx="201" cy="504" r="75.5" stroke="#484848" stroke-dasharray="4 4"/>
<path d="M175.068 203V189.909H179.491C180.518 189.909 181.357 190.094 182.009 190.465C182.666 190.832 183.151 191.328 183.467 191.955C183.782 192.581 183.94 193.28 183.94 194.051C183.94 194.822 183.782 195.523 183.467 196.154C183.156 196.785 182.674 197.288 182.022 197.663C181.37 198.033 180.535 198.219 179.517 198.219H176.346V196.812H179.465C180.169 196.812 180.733 196.691 181.159 196.448C181.585 196.205 181.894 195.877 182.086 195.464C182.282 195.046 182.38 194.575 182.38 194.051C182.38 193.527 182.282 193.058 182.086 192.645C181.894 192.232 181.583 191.908 181.153 191.673C180.722 191.435 180.151 191.315 179.44 191.315H176.653V203H175.068ZM186.289 203V193.182H187.746V194.665H187.849C188.028 194.179 188.351 193.785 188.82 193.482C189.289 193.18 189.817 193.028 190.405 193.028C190.516 193.028 190.655 193.031 190.821 193.035C190.987 193.039 191.113 193.045 191.198 193.054V194.588C191.147 194.575 191.03 194.556 190.846 194.531C190.667 194.501 190.478 194.486 190.278 194.486C189.8 194.486 189.374 194.586 188.999 194.786C188.628 194.982 188.334 195.255 188.117 195.604C187.904 195.95 187.797 196.344 187.797 196.787V203H186.289ZM196.676 203.205C195.79 203.205 195.012 202.994 194.343 202.572C193.678 202.15 193.158 201.56 192.783 200.801C192.412 200.043 192.227 199.156 192.227 198.142C192.227 197.119 192.412 196.227 192.783 195.464C193.158 194.701 193.678 194.109 194.343 193.687C195.012 193.265 195.79 193.054 196.676 193.054C197.562 193.054 198.338 193.265 199.003 193.687C199.672 194.109 200.192 194.701 200.562 195.464C200.937 196.227 201.125 197.119 201.125 198.142C201.125 199.156 200.937 200.043 200.562 200.801C200.192 201.56 199.672 202.15 199.003 202.572C198.338 202.994 197.562 203.205 196.676 203.205ZM196.676 201.849C197.349 201.849 197.903 201.677 198.338 201.332C198.773 200.987 199.094 200.533 199.303 199.97C199.512 199.408 199.616 198.798 199.616 198.142C199.616 197.486 199.512 196.874 199.303 196.308C199.094 195.741 198.773 195.283 198.338 194.933C197.903 194.584 197.349 194.409 196.676 194.409C196.003 194.409 195.449 194.584 195.014 194.933C194.579 195.283 194.258 195.741 194.049 196.308C193.84 196.874 193.736 197.486 193.736 198.142C193.736 198.798 193.84 199.408 194.049 199.97C194.258 200.533 194.579 200.987 195.014 201.332C195.449 201.677 196.003 201.849 196.676 201.849ZM207.697 193.182V194.46H202.609V193.182H207.697ZM204.092 190.83H205.601V200.188C205.601 200.614 205.663 200.933 205.786 201.146C205.914 201.355 206.076 201.496 206.272 201.568C206.472 201.636 206.683 201.67 206.905 201.67C207.071 201.67 207.207 201.662 207.314 201.645C207.42 201.624 207.506 201.607 207.57 201.594L207.876 202.949C207.774 202.987 207.631 203.026 207.448 203.064C207.265 203.107 207.033 203.128 206.751 203.128C206.325 203.128 205.908 203.036 205.499 202.853C205.094 202.67 204.757 202.391 204.489 202.016C204.224 201.641 204.092 201.168 204.092 200.597V190.83ZM213.85 203.205C212.963 203.205 212.186 202.994 211.517 202.572C210.852 202.15 210.332 201.56 209.957 200.801C209.586 200.043 209.401 199.156 209.401 198.142C209.401 197.119 209.586 196.227 209.957 195.464C210.332 194.701 210.852 194.109 211.517 193.687C212.186 193.265 212.963 193.054 213.85 193.054C214.736 193.054 215.512 193.265 216.176 193.687C216.846 194.109 217.365 194.701 217.736 195.464C218.111 196.227 218.299 197.119 218.299 198.142C218.299 199.156 218.111 200.043 217.736 200.801C217.365 201.56 216.846 202.15 216.176 202.572C215.512 202.994 214.736 203.205 213.85 203.205ZM213.85 201.849C214.523 201.849 215.077 201.677 215.512 201.332C215.946 200.987 216.268 200.533 216.477 199.97C216.686 199.408 216.79 198.798 216.79 198.142C216.79 197.486 216.686 196.874 216.477 196.308C216.268 195.741 215.946 195.283 215.512 194.933C215.077 194.584 214.523 194.409 213.85 194.409C213.176 194.409 212.623 194.584 212.188 194.933C211.753 195.283 211.431 195.741 211.223 196.308C211.014 196.874 210.909 197.486 210.909 198.142C210.909 198.798 211.014 199.408 211.223 199.97C211.431 200.533 211.753 200.987 212.188 201.332C212.623 201.677 213.176 201.849 213.85 201.849ZM224.871 193.182V194.46H219.783V193.182H224.871ZM221.266 190.83H222.775V200.188C222.775 200.614 222.836 200.933 222.96 201.146C223.088 201.355 223.25 201.496 223.446 201.568C223.646 201.636 223.857 201.67 224.079 201.67C224.245 201.67 224.381 201.662 224.488 201.645C224.594 201.624 224.68 201.607 224.743 201.594L225.05 202.949C224.948 202.987 224.805 203.026 224.622 203.064C224.439 203.107 224.206 203.128 223.925 203.128C223.499 203.128 223.081 203.036 222.672 202.853C222.268 202.67 221.931 202.391 221.662 202.016C221.398 201.641 221.266 201.168 221.266 200.597V190.83ZM228.112 206.682C227.856 206.682 227.628 206.661 227.428 206.618C227.228 206.58 227.089 206.541 227.013 206.503L227.396 205.173C227.763 205.267 228.086 205.301 228.368 205.276C228.649 205.25 228.898 205.124 229.116 204.898C229.337 204.677 229.54 204.317 229.723 203.818L230.004 203.051L226.373 193.182H228.01L230.72 201.006H230.822L233.532 193.182H235.169L231.001 204.432C230.814 204.939 230.581 205.359 230.305 205.691C230.028 206.028 229.706 206.277 229.339 206.439C228.977 206.601 228.568 206.682 228.112 206.682ZM237.16 206.682V193.182H238.617V194.741H238.796C238.907 194.571 239.061 194.354 239.257 194.089C239.457 193.821 239.742 193.582 240.113 193.374C240.488 193.161 240.995 193.054 241.634 193.054C242.461 193.054 243.19 193.261 243.82 193.674C244.451 194.087 244.943 194.673 245.297 195.432C245.651 196.19 245.828 197.085 245.828 198.116C245.828 199.156 245.651 200.058 245.297 200.82C244.943 201.579 244.453 202.167 243.827 202.585C243.2 202.998 242.478 203.205 241.66 203.205C241.029 203.205 240.524 203.1 240.145 202.891C239.766 202.678 239.474 202.437 239.269 202.169C239.065 201.896 238.907 201.67 238.796 201.491H238.669V206.682H237.16ZM238.643 198.091C238.643 198.832 238.752 199.487 238.969 200.053C239.186 200.616 239.504 201.057 239.921 201.376C240.339 201.692 240.85 201.849 241.455 201.849C242.086 201.849 242.612 201.683 243.034 201.351C243.46 201.014 243.78 200.562 243.993 199.996C244.21 199.425 244.319 198.79 244.319 198.091C244.319 197.401 244.213 196.778 243.999 196.224C243.791 195.666 243.473 195.225 243.047 194.901C242.625 194.573 242.095 194.409 241.455 194.409C240.842 194.409 240.326 194.565 239.909 194.876C239.491 195.183 239.176 195.613 238.963 196.167C238.749 196.717 238.643 197.358 238.643 198.091ZM248.129 203V193.182H249.637V203H248.129ZM248.896 191.545C248.602 191.545 248.348 191.445 248.135 191.245C247.926 191.045 247.822 190.804 247.822 190.523C247.822 190.241 247.926 190.001 248.135 189.8C248.348 189.6 248.602 189.5 248.896 189.5C249.19 189.5 249.441 189.6 249.65 189.8C249.863 190.001 249.97 190.241 249.97 190.523C249.97 190.804 249.863 191.045 249.65 191.245C249.441 191.445 249.19 191.545 248.896 191.545ZM253.909 197.094V203H252.4V193.182H253.858V194.716H253.985C254.216 194.217 254.565 193.817 255.034 193.514C255.502 193.207 256.108 193.054 256.849 193.054C257.514 193.054 258.096 193.19 258.594 193.463C259.093 193.732 259.48 194.141 259.757 194.69C260.034 195.236 260.173 195.926 260.173 196.761V203H258.664V196.864C258.664 196.092 258.464 195.491 258.064 195.061C257.663 194.626 257.113 194.409 256.414 194.409C255.933 194.409 255.502 194.513 255.123 194.722C254.748 194.931 254.452 195.236 254.235 195.636C254.017 196.037 253.909 196.523 253.909 197.094ZM266.893 206.886C266.164 206.886 265.537 206.793 265.013 206.605C264.489 206.422 264.052 206.179 263.703 205.876C263.358 205.578 263.083 205.259 262.878 204.918L264.08 204.074C264.216 204.253 264.389 204.457 264.598 204.688C264.807 204.922 265.092 205.124 265.454 205.295C265.821 205.469 266.3 205.557 266.893 205.557C267.685 205.557 268.339 205.365 268.855 204.982C269.371 204.598 269.628 203.997 269.628 203.179V201.185H269.501C269.39 201.364 269.232 201.585 269.028 201.849C268.827 202.109 268.537 202.342 268.158 202.546C267.783 202.746 267.276 202.847 266.637 202.847C265.844 202.847 265.133 202.659 264.502 202.284C263.876 201.909 263.379 201.364 263.013 200.648C262.65 199.932 262.469 199.062 262.469 198.04C262.469 197.034 262.646 196.158 263 195.413C263.354 194.663 263.846 194.083 264.476 193.674C265.107 193.261 265.836 193.054 266.662 193.054C267.302 193.054 267.809 193.161 268.184 193.374C268.563 193.582 268.853 193.821 269.053 194.089C269.258 194.354 269.415 194.571 269.526 194.741H269.68V193.182H271.137V203.281C271.137 204.125 270.945 204.811 270.562 205.339C270.182 205.872 269.671 206.262 269.028 206.509C268.388 206.761 267.677 206.886 266.893 206.886ZM266.841 201.491C267.447 201.491 267.958 201.353 268.376 201.076C268.793 200.799 269.111 200.401 269.328 199.881C269.545 199.361 269.654 198.739 269.654 198.014C269.654 197.307 269.547 196.683 269.334 196.141C269.121 195.6 268.806 195.176 268.388 194.869C267.971 194.562 267.455 194.409 266.841 194.409C266.202 194.409 265.67 194.571 265.243 194.895C264.822 195.219 264.504 195.653 264.291 196.199C264.082 196.744 263.978 197.349 263.978 198.014C263.978 198.696 264.084 199.299 264.297 199.823C264.515 200.343 264.834 200.752 265.256 201.05C265.682 201.344 266.211 201.491 266.841 201.491Z" fill="#FF561D"/>
<path d="M83.41 371.276V346.6H92.71V371.772C92.71 378.654 95.252 382.374 101.204 382.374C107.218 382.374 109.76 378.654 109.76 371.772V346.6H119.06V371.276C119.06 383.614 112.922 390.372 101.204 390.372C89.548 390.372 83.41 383.614 83.41 371.276ZM123.063 390L137.199 367.804L123.745 346.6H134.781L143.213 360.364L151.955 346.6H162.371L148.917 367.68L163.053 390H151.955L142.841 375.12L133.417 390H123.063Z" fill="#FF561D"/>
<path d="M290.41 371.276V346.6H299.71V371.772C299.71 378.654 302.252 382.374 308.204 382.374C314.218 382.374 316.76 378.654 316.76 371.772V346.6H326.06V371.276C326.06 383.614 319.922 390.372 308.204 390.372C296.548 390.372 290.41 383.614 290.41 371.276ZM333.163 390V346.6H342.463V390H333.163Z" fill="#FF561D"/>
<path d="M176.416 491H174.831C174.737 490.544 174.573 490.143 174.339 489.798C174.109 489.453 173.827 489.163 173.495 488.929C173.167 488.69 172.803 488.511 172.402 488.392C172.001 488.273 171.584 488.213 171.149 488.213C170.357 488.213 169.638 488.413 168.995 488.814C168.356 489.214 167.847 489.805 167.467 490.585C167.092 491.364 166.905 492.321 166.905 493.455C166.905 494.588 167.092 495.545 167.467 496.325C167.847 497.104 168.356 497.695 168.995 498.095C169.638 498.496 170.357 498.696 171.149 498.696C171.584 498.696 172.001 498.636 172.402 498.517C172.803 498.398 173.167 498.221 173.495 497.987C173.827 497.748 174.109 497.456 174.339 497.111C174.573 496.761 174.737 496.361 174.831 495.909H176.416C176.297 496.578 176.08 497.177 175.764 497.705C175.449 498.234 175.057 498.683 174.588 499.054C174.119 499.42 173.593 499.7 173.009 499.891C172.43 500.083 171.81 500.179 171.149 500.179C170.033 500.179 169.04 499.906 168.17 499.361C167.301 498.815 166.617 498.04 166.119 497.034C165.62 496.028 165.371 494.835 165.371 493.455C165.371 492.074 165.62 490.881 166.119 489.875C166.617 488.869 167.301 488.094 168.17 487.548C169.04 487.003 170.033 486.73 171.149 486.73C171.81 486.73 172.43 486.826 173.009 487.018C173.593 487.21 174.119 487.491 174.588 487.862C175.057 488.228 175.449 488.675 175.764 489.204C176.08 489.728 176.297 490.327 176.416 491ZM182.762 500.205C181.876 500.205 181.098 499.994 180.429 499.572C179.764 499.15 179.244 498.56 178.869 497.801C178.498 497.043 178.313 496.156 178.313 495.142C178.313 494.119 178.498 493.227 178.869 492.464C179.244 491.701 179.764 491.109 180.429 490.687C181.098 490.265 181.876 490.054 182.762 490.054C183.648 490.054 184.424 490.265 185.089 490.687C185.758 491.109 186.278 491.701 186.648 492.464C187.023 493.227 187.211 494.119 187.211 495.142C187.211 496.156 187.023 497.043 186.648 497.801C186.278 498.56 185.758 499.15 185.089 499.572C184.424 499.994 183.648 500.205 182.762 500.205ZM182.762 498.849C183.435 498.849 183.989 498.677 184.424 498.332C184.858 497.987 185.18 497.533 185.389 496.97C185.598 496.408 185.702 495.798 185.702 495.142C185.702 494.486 185.598 493.874 185.389 493.308C185.18 492.741 184.858 492.283 184.424 491.933C183.989 491.584 183.435 491.409 182.762 491.409C182.089 491.409 181.535 491.584 181.1 491.933C180.665 492.283 180.344 492.741 180.135 493.308C179.926 493.874 179.822 494.486 179.822 495.142C179.822 495.798 179.926 496.408 180.135 496.97C180.344 497.533 180.665 497.987 181.1 498.332C181.535 498.677 182.089 498.849 182.762 498.849ZM191.022 494.094V500H189.513V490.182H190.971V491.716H191.099C191.329 491.217 191.678 490.817 192.147 490.514C192.616 490.207 193.221 490.054 193.962 490.054C194.627 490.054 195.209 490.19 195.707 490.463C196.206 490.732 196.594 491.141 196.871 491.69C197.148 492.236 197.286 492.926 197.286 493.761V500H195.778V493.864C195.778 493.092 195.577 492.491 195.177 492.061C194.776 491.626 194.227 491.409 193.528 491.409C193.046 491.409 192.616 491.513 192.237 491.722C191.862 491.931 191.565 492.236 191.348 492.636C191.131 493.037 191.022 493.523 191.022 494.094ZM204.313 490.182V491.46H199.225V490.182H204.313ZM200.708 487.83H202.216V497.188C202.216 497.614 202.278 497.933 202.401 498.146C202.529 498.355 202.691 498.496 202.887 498.568C203.088 498.636 203.298 498.67 203.52 498.67C203.686 498.67 203.823 498.662 203.929 498.645C204.036 498.624 204.121 498.607 204.185 498.594L204.492 499.949C204.389 499.987 204.247 500.026 204.063 500.064C203.88 500.107 203.648 500.128 203.367 500.128C202.941 500.128 202.523 500.036 202.114 499.853C201.709 499.67 201.372 499.391 201.104 499.016C200.84 498.641 200.708 498.168 200.708 497.597V487.83ZM210.593 500.205C209.647 500.205 208.831 499.996 208.145 499.578C207.463 499.156 206.937 498.568 206.566 497.814C206.199 497.055 206.016 496.173 206.016 495.168C206.016 494.162 206.199 493.276 206.566 492.509C206.937 491.737 207.452 491.136 208.113 490.706C208.778 490.271 209.553 490.054 210.439 490.054C210.951 490.054 211.456 490.139 211.954 490.31C212.453 490.48 212.907 490.757 213.316 491.141C213.725 491.52 214.051 492.023 214.294 492.649C214.537 493.276 214.658 494.047 214.658 494.963V495.602H207.09V494.298H213.124C213.124 493.744 213.013 493.25 212.792 492.815C212.574 492.381 212.263 492.038 211.858 491.786C211.458 491.535 210.985 491.409 210.439 491.409C209.839 491.409 209.319 491.558 208.88 491.857C208.445 492.151 208.111 492.534 207.876 493.007C207.642 493.48 207.525 493.987 207.525 494.528V495.398C207.525 496.139 207.653 496.768 207.908 497.283C208.168 497.795 208.528 498.185 208.988 498.453C209.449 498.717 209.983 498.849 210.593 498.849C210.989 498.849 211.347 498.794 211.667 498.683C211.991 498.568 212.27 498.398 212.504 498.172C212.738 497.942 212.92 497.656 213.047 497.315L214.505 497.724C214.351 498.219 214.094 498.653 213.731 499.028C213.369 499.399 212.922 499.689 212.389 499.898C211.856 500.102 211.258 500.205 210.593 500.205ZM218.461 494.094V500H216.953V490.182H218.41V491.716H218.538C218.768 491.217 219.118 490.817 219.586 490.514C220.055 490.207 220.66 490.054 221.402 490.054C222.067 490.054 222.648 490.19 223.147 490.463C223.645 490.732 224.033 491.141 224.31 491.69C224.587 492.236 224.726 492.926 224.726 493.761V500H223.217V493.864C223.217 493.092 223.017 492.491 222.616 492.061C222.216 491.626 221.666 491.409 220.967 491.409C220.486 491.409 220.055 491.513 219.676 491.722C219.301 491.931 219.005 492.236 218.787 492.636C218.57 493.037 218.461 493.523 218.461 494.094ZM231.752 490.182V491.46H226.664V490.182H231.752ZM228.147 487.83H229.656V497.188C229.656 497.614 229.717 497.933 229.841 498.146C229.969 498.355 230.131 498.496 230.327 498.568C230.527 498.636 230.738 498.67 230.96 498.67C231.126 498.67 231.262 498.662 231.369 498.645C231.475 498.624 231.56 498.607 231.624 498.594L231.931 499.949C231.829 499.987 231.686 500.026 231.503 500.064C231.32 500.107 231.087 500.128 230.806 500.128C230.38 500.128 229.962 500.036 229.553 499.853C229.148 499.67 228.812 499.391 228.543 499.016C228.279 498.641 228.147 498.168 228.147 497.597V487.83ZM173.059 512.182C172.982 511.534 172.671 511.031 172.126 510.673C171.58 510.315 170.911 510.136 170.118 510.136C169.539 510.136 169.032 510.23 168.597 510.418C168.167 510.605 167.83 510.863 167.587 511.191C167.349 511.519 167.229 511.892 167.229 512.31C167.229 512.659 167.312 512.96 167.479 513.211C167.649 513.458 167.866 513.665 168.131 513.831C168.395 513.993 168.672 514.127 168.961 514.234C169.251 514.336 169.518 514.419 169.76 514.483L171.09 514.841C171.431 514.93 171.81 515.054 172.228 515.212C172.65 515.369 173.052 515.585 173.436 515.857C173.824 516.126 174.143 516.471 174.395 516.893C174.646 517.315 174.772 517.832 174.772 518.446C174.772 519.153 174.586 519.793 174.216 520.364C173.849 520.935 173.312 521.388 172.605 521.725C171.902 522.062 171.047 522.23 170.042 522.23C169.104 522.23 168.292 522.079 167.606 521.776C166.925 521.474 166.388 521.052 165.996 520.511C165.608 519.969 165.388 519.341 165.337 518.625H166.974C167.016 519.119 167.182 519.528 167.472 519.852C167.766 520.172 168.137 520.411 168.584 520.568C169.036 520.722 169.522 520.798 170.042 520.798C170.647 520.798 171.19 520.7 171.672 520.504C172.153 520.304 172.535 520.027 172.816 519.673C173.097 519.315 173.238 518.898 173.238 518.42C173.238 517.986 173.116 517.632 172.873 517.359C172.631 517.087 172.311 516.865 171.915 516.695C171.518 516.524 171.09 516.375 170.63 516.247L169.019 515.787C167.996 515.493 167.187 515.073 166.59 514.528C165.993 513.982 165.695 513.268 165.695 512.386C165.695 511.653 165.893 511.014 166.29 510.469C166.69 509.919 167.227 509.493 167.9 509.19C168.578 508.884 169.334 508.73 170.17 508.73C171.013 508.73 171.763 508.881 172.42 509.184C173.076 509.482 173.596 509.891 173.979 510.411C174.367 510.931 174.572 511.521 174.593 512.182H173.059ZM181.444 512.182V513.46H176.355V512.182H181.444ZM177.838 509.83H179.347V519.188C179.347 519.614 179.409 519.933 179.532 520.146C179.66 520.355 179.822 520.496 180.018 520.568C180.218 520.636 180.429 520.67 180.651 520.67C180.817 520.67 180.953 520.662 181.06 520.645C181.167 520.624 181.252 520.607 181.316 520.594L181.623 521.949C181.52 521.987 181.377 522.026 181.194 522.064C181.011 522.107 180.779 522.128 180.498 522.128C180.071 522.128 179.654 522.036 179.245 521.853C178.84 521.67 178.503 521.391 178.235 521.016C177.971 520.641 177.838 520.168 177.838 519.597V509.83ZM186.602 522.23C185.98 522.23 185.415 522.113 184.908 521.879C184.401 521.64 183.998 521.297 183.7 520.849C183.402 520.398 183.252 519.852 183.252 519.213C183.252 518.651 183.363 518.195 183.585 517.845C183.806 517.491 184.103 517.214 184.473 517.014C184.844 516.814 185.253 516.665 185.701 516.567C186.152 516.464 186.606 516.384 187.062 516.324C187.659 516.247 188.142 516.19 188.513 516.151C188.888 516.109 189.161 516.038 189.331 515.94C189.506 515.842 189.593 515.672 189.593 515.429V515.378C189.593 514.747 189.421 514.257 189.076 513.908C188.735 513.558 188.217 513.384 187.522 513.384C186.802 513.384 186.238 513.541 185.828 513.857C185.419 514.172 185.132 514.509 184.966 514.866L183.534 514.355C183.789 513.759 184.13 513.294 184.556 512.962C184.987 512.625 185.456 512.391 185.963 512.259C186.474 512.122 186.977 512.054 187.471 512.054C187.787 512.054 188.149 512.092 188.558 512.169C188.971 512.241 189.37 512.393 189.753 512.623C190.141 512.853 190.463 513.2 190.718 513.665C190.974 514.129 191.102 514.751 191.102 515.531V522H189.593V520.67H189.517C189.414 520.884 189.244 521.112 189.005 521.354C188.767 521.597 188.449 521.804 188.053 521.974C187.657 522.145 187.173 522.23 186.602 522.23ZM186.832 520.875C187.429 520.875 187.931 520.758 188.341 520.523C188.754 520.289 189.065 519.987 189.274 519.616C189.487 519.245 189.593 518.855 189.593 518.446V517.065C189.529 517.142 189.389 517.212 189.172 517.276C188.958 517.336 188.711 517.389 188.43 517.436C188.153 517.479 187.882 517.517 187.618 517.551C187.358 517.581 187.147 517.607 186.985 517.628C186.593 517.679 186.227 517.762 185.886 517.877C185.549 517.988 185.277 518.156 185.068 518.382C184.863 518.604 184.761 518.906 184.761 519.29C184.761 519.814 184.955 520.21 185.343 520.479C185.735 520.743 186.231 520.875 186.832 520.875ZM193.855 522V512.182H195.313V513.665H195.415C195.594 513.179 195.918 512.785 196.387 512.482C196.855 512.18 197.384 512.028 197.972 512.028C198.083 512.028 198.221 512.031 198.387 512.035C198.553 512.039 198.679 512.045 198.764 512.054V513.588C198.713 513.575 198.596 513.556 198.413 513.531C198.234 513.501 198.044 513.486 197.844 513.486C197.367 513.486 196.941 513.586 196.566 513.786C196.195 513.982 195.901 514.255 195.683 514.604C195.47 514.95 195.364 515.344 195.364 515.787V522H193.855ZM205.438 512.182V513.46H200.35V512.182H205.438ZM201.833 509.83H203.341V519.188C203.341 519.614 203.403 519.933 203.526 520.146C203.654 520.355 203.816 520.496 204.012 520.568C204.213 520.636 204.423 520.67 204.645 520.67C204.811 520.67 204.948 520.662 205.054 520.645C205.161 520.624 205.246 520.607 205.31 520.594L205.617 521.949C205.514 521.987 205.372 522.026 205.188 522.064C205.005 522.107 204.773 522.128 204.492 522.128C204.066 522.128 203.648 522.036 203.239 521.853C202.834 521.67 202.497 521.391 202.229 521.016C201.965 520.641 201.833 520.168 201.833 519.597V509.83ZM211.718 522.205C210.772 522.205 209.956 521.996 209.27 521.578C208.588 521.156 208.062 520.568 207.691 519.814C207.324 519.055 207.141 518.173 207.141 517.168C207.141 516.162 207.324 515.276 207.691 514.509C208.062 513.737 208.577 513.136 209.238 512.706C209.903 512.271 210.678 512.054 211.564 512.054C212.076 512.054 212.581 512.139 213.079 512.31C213.578 512.48 214.032 512.757 214.441 513.141C214.85 513.52 215.176 514.023 215.419 514.649C215.662 515.276 215.783 516.047 215.783 516.963V517.602H208.215V516.298H214.249C214.249 515.744 214.138 515.25 213.917 514.815C213.699 514.381 213.388 514.038 212.983 513.786C212.583 513.535 212.11 513.409 211.564 513.409C210.964 513.409 210.444 513.558 210.005 513.857C209.57 514.151 209.236 514.534 209.001 515.007C208.767 515.48 208.65 515.987 208.65 516.528V517.398C208.65 518.139 208.778 518.768 209.033 519.283C209.293 519.795 209.653 520.185 210.113 520.453C210.574 520.717 211.108 520.849 211.718 520.849C212.114 520.849 212.472 520.794 212.792 520.683C213.116 520.568 213.395 520.398 213.629 520.172C213.863 519.942 214.045 519.656 214.172 519.315L215.63 519.724C215.476 520.219 215.219 520.653 214.856 521.028C214.494 521.399 214.047 521.689 213.514 521.898C212.981 522.102 212.383 522.205 211.718 522.205ZM222.041 525.886C221.312 525.886 220.686 525.793 220.162 525.605C219.638 525.422 219.201 525.179 218.851 524.876C218.506 524.578 218.231 524.259 218.027 523.918L219.229 523.074C219.365 523.253 219.537 523.457 219.746 523.688C219.955 523.922 220.241 524.124 220.603 524.295C220.969 524.469 221.449 524.557 222.041 524.557C222.834 524.557 223.488 524.365 224.003 523.982C224.519 523.598 224.777 522.997 224.777 522.179V520.185H224.649C224.538 520.364 224.381 520.585 224.176 520.849C223.976 521.109 223.686 521.342 223.307 521.546C222.932 521.746 222.425 521.847 221.785 521.847C220.993 521.847 220.281 521.659 219.65 521.284C219.024 520.909 218.528 520.364 218.161 519.648C217.799 518.932 217.618 518.062 217.618 517.04C217.618 516.034 217.795 515.158 218.148 514.413C218.502 513.663 218.994 513.083 219.625 512.674C220.256 512.261 220.984 512.054 221.811 512.054C222.45 512.054 222.957 512.161 223.332 512.374C223.711 512.582 224.001 512.821 224.202 513.089C224.406 513.354 224.564 513.571 224.675 513.741H224.828V512.182H226.285V522.281C226.285 523.125 226.094 523.811 225.71 524.339C225.331 524.872 224.819 525.262 224.176 525.509C223.537 525.761 222.825 525.886 222.041 525.886ZM221.99 520.491C222.595 520.491 223.106 520.353 223.524 520.076C223.942 519.799 224.259 519.401 224.476 518.881C224.694 518.361 224.802 517.739 224.802 517.014C224.802 516.307 224.696 515.683 224.483 515.141C224.27 514.6 223.954 514.176 223.537 513.869C223.119 513.562 222.604 513.409 221.99 513.409C221.351 513.409 220.818 513.571 220.392 513.895C219.97 514.219 219.653 514.653 219.439 515.199C219.231 515.744 219.126 516.349 219.126 517.014C219.126 517.696 219.233 518.299 219.446 518.823C219.663 519.343 219.983 519.752 220.405 520.05C220.831 520.344 221.359 520.491 221.99 520.491ZM230.018 525.682C229.763 525.682 229.535 525.661 229.334 525.618C229.134 525.58 228.996 525.541 228.919 525.503L229.302 524.173C229.669 524.267 229.993 524.301 230.274 524.276C230.555 524.25 230.805 524.124 231.022 523.898C231.243 523.677 231.446 523.317 231.629 522.818L231.91 522.051L228.28 512.182H229.916L232.626 520.006H232.729L235.439 512.182H237.075L232.907 523.432C232.72 523.939 232.488 524.359 232.211 524.691C231.934 525.028 231.612 525.277 231.246 525.439C230.883 525.601 230.474 525.682 230.018 525.682Z" fill="#FF561D"/>
<path d="M334.207 628.909V642H332.621V628.909H334.207ZM337.922 642H336.26L341.067 628.909H342.703L347.51 642H345.848L341.936 630.98H341.834L337.922 642ZM338.536 636.886H345.234V638.293H338.536V636.886Z" fill="#FF561D"/>
<path d="M415.46 449.909V463H413.874V449.909H415.46ZM419.558 453.182L421.911 457.196L424.263 453.182H426.002L422.831 458.091L426.002 463H424.263L421.911 459.19L419.558 463H417.82L420.939 458.091L417.82 453.182H419.558ZM432.398 463H428.359V449.909H432.577C433.847 449.909 434.934 450.171 435.837 450.695C436.741 451.215 437.433 451.963 437.915 452.939C438.396 453.911 438.637 455.074 438.637 456.429C438.637 457.793 438.394 458.967 437.908 459.951C437.423 460.931 436.715 461.685 435.786 462.214C434.857 462.738 433.728 463 432.398 463ZM429.944 461.594H432.296C433.379 461.594 434.276 461.385 434.987 460.967C435.699 460.55 436.229 459.955 436.579 459.184C436.928 458.413 437.103 457.494 437.103 456.429C437.103 455.372 436.93 454.462 436.585 453.7C436.24 452.933 435.724 452.344 435.038 451.935C434.352 451.522 433.498 451.315 432.475 451.315H429.944V461.594Z" fill="#FF561D"/>
<path d="M542.441 314.909L546.327 325.929H546.48L550.367 314.909H552.029L547.222 328H545.585L540.779 314.909H542.441ZM553.863 328V318.182H555.372V328H553.863ZM554.63 316.545C554.336 316.545 554.083 316.445 553.869 316.245C553.661 316.045 553.556 315.804 553.556 315.523C553.556 315.241 553.661 315.001 553.869 314.8C554.083 314.6 554.336 314.5 554.63 314.5C554.924 314.5 555.176 314.6 555.384 314.8C555.597 315.001 555.704 315.241 555.704 315.523C555.704 315.804 555.597 316.045 555.384 316.245C555.176 316.445 554.924 316.545 554.63 316.545ZM565.089 320.381L563.734 320.764C563.649 320.538 563.523 320.319 563.357 320.106C563.195 319.888 562.973 319.71 562.692 319.569C562.411 319.428 562.051 319.358 561.612 319.358C561.011 319.358 560.51 319.496 560.11 319.773C559.713 320.046 559.515 320.393 559.515 320.815C559.515 321.19 559.652 321.487 559.924 321.704C560.197 321.921 560.623 322.102 561.203 322.247L562.66 322.605C563.538 322.818 564.192 323.144 564.623 323.583C565.053 324.018 565.268 324.578 565.268 325.264C565.268 325.827 565.106 326.33 564.782 326.773C564.463 327.216 564.015 327.565 563.44 327.821C562.865 328.077 562.196 328.205 561.433 328.205C560.431 328.205 559.603 327.987 558.946 327.553C558.29 327.118 557.875 326.483 557.7 325.648L559.132 325.29C559.268 325.818 559.526 326.214 559.905 326.479C560.289 326.743 560.789 326.875 561.407 326.875C562.11 326.875 562.669 326.726 563.082 326.428C563.5 326.125 563.708 325.763 563.708 325.341C563.708 325 563.589 324.714 563.35 324.484C563.112 324.25 562.745 324.075 562.251 323.96L560.615 323.577C559.716 323.364 559.055 323.033 558.633 322.586C558.216 322.134 558.007 321.57 558.007 320.892C558.007 320.338 558.162 319.848 558.473 319.422C558.789 318.996 559.217 318.661 559.758 318.418C560.304 318.175 560.922 318.054 561.612 318.054C562.583 318.054 563.346 318.267 563.9 318.693C564.458 319.119 564.855 319.682 565.089 320.381ZM573.726 323.986V318.182H575.235V328H573.726V326.338H573.624C573.394 326.837 573.036 327.261 572.55 327.61C572.064 327.955 571.451 328.128 570.709 328.128C570.096 328.128 569.55 327.994 569.073 327.725C568.596 327.452 568.221 327.043 567.948 326.498C567.675 325.948 567.539 325.256 567.539 324.42V318.182H569.047V324.318C569.047 325.034 569.248 325.605 569.648 326.031C570.053 326.457 570.569 326.67 571.195 326.67C571.57 326.67 571.952 326.575 572.339 326.383C572.731 326.191 573.059 325.897 573.324 325.501C573.592 325.104 573.726 324.599 573.726 323.986ZM580.887 328.23C580.265 328.23 579.7 328.113 579.193 327.879C578.686 327.64 578.283 327.297 577.985 326.849C577.687 326.398 577.538 325.852 577.538 325.213C577.538 324.651 577.648 324.195 577.87 323.845C578.092 323.491 578.388 323.214 578.759 323.014C579.129 322.814 579.538 322.665 579.986 322.567C580.438 322.464 580.891 322.384 581.347 322.324C581.944 322.247 582.428 322.19 582.798 322.151C583.173 322.109 583.446 322.038 583.616 321.94C583.791 321.842 583.879 321.672 583.879 321.429V321.378C583.879 320.747 583.706 320.257 583.361 319.908C583.02 319.558 582.502 319.384 581.808 319.384C581.087 319.384 580.523 319.541 580.114 319.857C579.705 320.172 579.417 320.509 579.251 320.866L577.819 320.355C578.075 319.759 578.415 319.294 578.842 318.962C579.272 318.625 579.741 318.391 580.248 318.259C580.759 318.122 581.262 318.054 581.756 318.054C582.072 318.054 582.434 318.092 582.843 318.169C583.256 318.241 583.655 318.393 584.038 318.623C584.426 318.853 584.748 319.2 585.004 319.665C585.259 320.129 585.387 320.751 585.387 321.531V328H583.879V326.67H583.802C583.7 326.884 583.529 327.112 583.29 327.354C583.052 327.597 582.734 327.804 582.338 327.974C581.942 328.145 581.458 328.23 580.887 328.23ZM581.117 326.875C581.714 326.875 582.217 326.758 582.626 326.523C583.039 326.289 583.35 325.987 583.559 325.616C583.772 325.245 583.879 324.855 583.879 324.446V323.065C583.815 323.142 583.674 323.212 583.457 323.276C583.244 323.336 582.996 323.389 582.715 323.436C582.438 323.479 582.168 323.517 581.903 323.551C581.643 323.581 581.433 323.607 581.271 323.628C580.879 323.679 580.512 323.762 580.171 323.877C579.835 323.988 579.562 324.156 579.353 324.382C579.148 324.604 579.046 324.906 579.046 325.29C579.046 325.814 579.24 326.21 579.628 326.479C580.02 326.743 580.516 326.875 581.117 326.875ZM589.649 314.909V328H588.14V314.909H589.649ZM601.719 328H597.679V314.909H601.898C603.168 314.909 604.254 315.171 605.158 315.695C606.061 316.215 606.754 316.963 607.235 317.939C607.717 318.911 607.957 320.074 607.957 321.429C607.957 322.793 607.714 323.967 607.229 324.951C606.743 325.931 606.036 326.685 605.107 327.214C604.178 327.738 603.048 328 601.719 328ZM599.264 326.594H601.616C602.699 326.594 603.596 326.385 604.308 325.967C605.019 325.55 605.55 324.955 605.899 324.184C606.249 323.413 606.423 322.494 606.423 321.429C606.423 320.372 606.251 319.462 605.906 318.7C605.56 317.933 605.045 317.344 604.359 316.935C603.673 316.522 602.818 316.315 601.795 316.315H599.264V326.594ZM614.528 328.205C613.582 328.205 612.766 327.996 612.08 327.578C611.398 327.156 610.872 326.568 610.501 325.814C610.135 325.055 609.952 324.173 609.952 323.168C609.952 322.162 610.135 321.276 610.501 320.509C610.872 319.737 611.388 319.136 612.048 318.706C612.713 318.271 613.489 318.054 614.375 318.054C614.886 318.054 615.391 318.139 615.89 318.31C616.388 318.48 616.842 318.757 617.251 319.141C617.661 319.52 617.987 320.023 618.229 320.649C618.472 321.276 618.594 322.047 618.594 322.963V323.602H611.026V322.298H617.06C617.06 321.744 616.949 321.25 616.727 320.815C616.51 320.381 616.199 320.038 615.794 319.786C615.393 319.535 614.92 319.409 614.375 319.409C613.774 319.409 613.254 319.558 612.815 319.857C612.381 320.151 612.046 320.534 611.812 321.007C611.577 321.48 611.46 321.987 611.46 322.528V323.398C611.46 324.139 611.588 324.768 611.844 325.283C612.104 325.795 612.464 326.185 612.924 326.453C613.384 326.717 613.919 326.849 614.528 326.849C614.925 326.849 615.283 326.794 615.602 326.683C615.926 326.568 616.205 326.398 616.44 326.172C616.674 325.942 616.855 325.656 616.983 325.315L618.44 325.724C618.287 326.219 618.029 326.653 617.667 327.028C617.305 327.399 616.857 327.689 616.325 327.898C615.792 328.102 615.193 328.205 614.528 328.205ZM627.843 320.381L626.488 320.764C626.403 320.538 626.277 320.319 626.111 320.106C625.949 319.888 625.727 319.71 625.446 319.569C625.165 319.428 624.805 319.358 624.366 319.358C623.765 319.358 623.264 319.496 622.864 319.773C622.467 320.046 622.269 320.393 622.269 320.815C622.269 321.19 622.406 321.487 622.678 321.704C622.951 321.921 623.377 322.102 623.957 322.247L625.414 322.605C626.292 322.818 626.946 323.144 627.376 323.583C627.807 324.018 628.022 324.578 628.022 325.264C628.022 325.827 627.86 326.33 627.536 326.773C627.217 327.216 626.769 327.565 626.194 327.821C625.619 328.077 624.95 328.205 624.187 328.205C623.185 328.205 622.357 327.987 621.7 327.553C621.044 327.118 620.629 326.483 620.454 325.648L621.886 325.29C622.022 325.818 622.28 326.214 622.659 326.479C623.043 326.743 623.543 326.875 624.161 326.875C624.864 326.875 625.423 326.726 625.836 326.428C626.254 326.125 626.462 325.763 626.462 325.341C626.462 325 626.343 324.714 626.104 324.484C625.866 324.25 625.499 324.075 625.005 323.96L623.369 323.577C622.469 323.364 621.809 323.033 621.387 322.586C620.969 322.134 620.761 321.57 620.761 320.892C620.761 320.338 620.916 319.848 621.227 319.422C621.543 318.996 621.971 318.661 622.512 318.418C623.058 318.175 623.675 318.054 624.366 318.054C625.337 318.054 626.1 318.267 626.654 318.693C627.212 319.119 627.609 319.682 627.843 320.381ZM630.293 328V318.182H631.801V328H630.293ZM631.06 316.545C630.766 316.545 630.512 316.445 630.299 316.245C630.09 316.045 629.986 315.804 629.986 315.523C629.986 315.241 630.09 315.001 630.299 314.8C630.512 314.6 630.766 314.5 631.06 314.5C631.354 314.5 631.605 314.6 631.814 314.8C632.027 315.001 632.134 315.241 632.134 315.523C632.134 315.804 632.027 316.045 631.814 316.245C631.605 316.445 631.354 316.545 631.06 316.545ZM638.527 331.886C637.799 331.886 637.172 331.793 636.648 331.605C636.124 331.422 635.687 331.179 635.338 330.876C634.993 330.578 634.718 330.259 634.513 329.918L635.715 329.074C635.851 329.253 636.024 329.457 636.233 329.688C636.441 329.922 636.727 330.124 637.089 330.295C637.456 330.469 637.935 330.557 638.527 330.557C639.32 330.557 639.974 330.365 640.49 329.982C641.005 329.598 641.263 328.997 641.263 328.179V326.185H641.135C641.025 326.364 640.867 326.585 640.662 326.849C640.462 327.109 640.172 327.342 639.793 327.546C639.418 327.746 638.911 327.847 638.272 327.847C637.479 327.847 636.767 327.659 636.137 327.284C635.51 326.909 635.014 326.364 634.647 325.648C634.285 324.932 634.104 324.062 634.104 323.04C634.104 322.034 634.281 321.158 634.635 320.413C634.988 319.663 635.48 319.083 636.111 318.674C636.742 318.261 637.471 318.054 638.297 318.054C638.936 318.054 639.444 318.161 639.819 318.374C640.198 318.582 640.488 318.821 640.688 319.089C640.892 319.354 641.05 319.571 641.161 319.741H641.314V318.182H642.772V328.281C642.772 329.125 642.58 329.811 642.196 330.339C641.817 330.872 641.306 331.262 640.662 331.509C640.023 331.761 639.311 331.886 638.527 331.886ZM638.476 326.491C639.081 326.491 639.593 326.353 640.01 326.076C640.428 325.799 640.745 325.401 640.963 324.881C641.18 324.361 641.289 323.739 641.289 323.014C641.289 322.307 641.182 321.683 640.969 321.141C640.756 320.6 640.441 320.176 640.023 319.869C639.605 319.562 639.09 319.409 638.476 319.409C637.837 319.409 637.304 319.571 636.878 319.895C636.456 320.219 636.139 320.653 635.926 321.199C635.717 321.744 635.613 322.349 635.613 323.014C635.613 323.696 635.719 324.299 635.932 324.823C636.15 325.343 636.469 325.752 636.891 326.05C637.317 326.344 637.846 326.491 638.476 326.491ZM647.042 322.094V328H645.533V318.182H646.99V319.716H647.118C647.348 319.217 647.698 318.817 648.167 318.514C648.635 318.207 649.24 318.054 649.982 318.054C650.647 318.054 651.228 318.19 651.727 318.463C652.225 318.732 652.613 319.141 652.89 319.69C653.167 320.236 653.306 320.926 653.306 321.761V328H651.797V321.864C651.797 321.092 651.597 320.491 651.196 320.061C650.796 319.626 650.246 319.409 649.547 319.409C649.066 319.409 648.635 319.513 648.256 319.722C647.881 319.931 647.585 320.236 647.368 320.636C647.15 321.037 647.042 321.523 647.042 322.094Z" fill="#FF561D"/>
<path d="M438.073 270V256.909H442.649C443.561 256.909 444.313 257.067 444.906 257.382C445.498 257.693 445.939 258.113 446.229 258.641C446.519 259.165 446.663 259.747 446.663 260.386C446.663 260.949 446.563 261.413 446.363 261.78C446.167 262.146 445.907 262.436 445.583 262.649C445.264 262.862 444.916 263.02 444.541 263.122V263.25C444.942 263.276 445.345 263.416 445.749 263.672C446.154 263.928 446.493 264.294 446.766 264.771C447.038 265.249 447.175 265.832 447.175 266.523C447.175 267.179 447.026 267.769 446.727 268.293C446.429 268.817 445.958 269.233 445.315 269.54C444.671 269.847 443.834 270 442.803 270H438.073ZM439.658 268.594H442.803C443.838 268.594 444.573 268.393 445.008 267.993C445.447 267.588 445.666 267.098 445.666 266.523C445.666 266.08 445.553 265.67 445.328 265.295C445.102 264.916 444.78 264.614 444.362 264.388C443.945 264.158 443.45 264.043 442.879 264.043H439.658V268.594ZM439.658 262.662H442.598C443.075 262.662 443.506 262.568 443.889 262.381C444.277 262.193 444.584 261.929 444.81 261.588C445.04 261.247 445.155 260.847 445.155 260.386C445.155 259.811 444.955 259.323 444.554 258.923C444.153 258.518 443.519 258.315 442.649 258.315H439.658V262.662ZM449.575 270V260.182H451.032V261.665H451.135C451.314 261.179 451.638 260.785 452.106 260.482C452.575 260.18 453.103 260.028 453.691 260.028C453.802 260.028 453.941 260.031 454.107 260.035C454.273 260.039 454.399 260.045 454.484 260.054V261.588C454.433 261.575 454.316 261.556 454.133 261.531C453.954 261.501 453.764 261.486 453.564 261.486C453.086 261.486 452.66 261.586 452.285 261.786C451.915 261.982 451.62 262.255 451.403 262.604C451.19 262.95 451.084 263.344 451.084 263.787V270H449.575ZM459.161 270.23C458.539 270.23 457.975 270.113 457.468 269.879C456.96 269.64 456.558 269.297 456.259 268.849C455.961 268.398 455.812 267.852 455.812 267.213C455.812 266.651 455.923 266.195 456.144 265.845C456.366 265.491 456.662 265.214 457.033 265.014C457.404 264.814 457.813 264.665 458.26 264.567C458.712 264.464 459.166 264.384 459.622 264.324C460.218 264.247 460.702 264.19 461.073 264.151C461.448 264.109 461.72 264.038 461.891 263.94C462.066 263.842 462.153 263.672 462.153 263.429V263.378C462.153 262.747 461.98 262.257 461.635 261.908C461.294 261.558 460.777 261.384 460.082 261.384C459.362 261.384 458.797 261.541 458.388 261.857C457.979 262.172 457.691 262.509 457.525 262.866L456.093 262.355C456.349 261.759 456.69 261.294 457.116 260.962C457.546 260.625 458.015 260.391 458.522 260.259C459.034 260.122 459.536 260.054 460.031 260.054C460.346 260.054 460.708 260.092 461.117 260.169C461.531 260.241 461.929 260.393 462.313 260.623C462.701 260.853 463.022 261.2 463.278 261.665C463.534 262.129 463.661 262.751 463.661 263.531V270H462.153V268.67H462.076C461.974 268.884 461.804 269.112 461.565 269.354C461.326 269.597 461.009 269.804 460.612 269.974C460.216 270.145 459.733 270.23 459.161 270.23ZM459.392 268.875C459.988 268.875 460.491 268.758 460.9 268.523C461.313 268.289 461.625 267.987 461.833 267.616C462.046 267.245 462.153 266.855 462.153 266.446V265.065C462.089 265.142 461.948 265.212 461.731 265.276C461.518 265.336 461.271 265.389 460.99 265.436C460.713 265.479 460.442 265.517 460.178 265.551C459.918 265.581 459.707 265.607 459.545 265.628C459.153 265.679 458.786 265.762 458.446 265.877C458.109 265.988 457.836 266.156 457.627 266.382C457.423 266.604 457.321 266.906 457.321 267.29C457.321 267.814 457.514 268.21 457.902 268.479C458.294 268.743 458.791 268.875 459.392 268.875ZM467.923 264.094V270H466.415V260.182H467.872V261.716H468C468.23 261.217 468.58 260.817 469.048 260.514C469.517 260.207 470.122 260.054 470.864 260.054C471.528 260.054 472.11 260.19 472.609 260.463C473.107 260.732 473.495 261.141 473.772 261.69C474.049 262.236 474.188 262.926 474.188 263.761V270H472.679V263.864C472.679 263.092 472.479 262.491 472.078 262.061C471.678 261.626 471.128 261.409 470.429 261.409C469.948 261.409 469.517 261.513 469.138 261.722C468.763 261.931 468.467 262.236 468.249 262.636C468.032 263.037 467.923 263.523 467.923 264.094ZM480.652 270.205C479.833 270.205 479.111 269.998 478.485 269.585C477.858 269.167 477.368 268.579 477.014 267.82C476.661 267.058 476.484 266.156 476.484 265.116C476.484 264.085 476.661 263.19 477.014 262.432C477.368 261.673 477.86 261.087 478.491 260.674C479.122 260.261 479.85 260.054 480.677 260.054C481.316 260.054 481.821 260.161 482.192 260.374C482.567 260.582 482.853 260.821 483.049 261.089C483.249 261.354 483.404 261.571 483.515 261.741H483.643V256.909H485.152V270H483.694V268.491H483.515C483.404 268.67 483.247 268.896 483.042 269.169C482.838 269.437 482.546 269.678 482.166 269.891C481.787 270.1 481.282 270.205 480.652 270.205ZM480.856 268.849C481.461 268.849 481.973 268.692 482.39 268.376C482.808 268.057 483.125 267.616 483.343 267.053C483.56 266.487 483.669 265.832 483.669 265.091C483.669 264.358 483.562 263.717 483.349 263.167C483.136 262.613 482.821 262.183 482.403 261.876C481.985 261.565 481.47 261.409 480.856 261.409C480.217 261.409 479.684 261.573 479.258 261.901C478.836 262.225 478.519 262.666 478.306 263.224C478.097 263.778 477.992 264.401 477.992 265.091C477.992 265.79 478.099 266.425 478.312 266.996C478.529 267.562 478.849 268.014 479.271 268.351C479.697 268.683 480.225 268.849 480.856 268.849ZM488.124 270V260.182H489.632V270H488.124ZM488.891 258.545C488.597 258.545 488.343 258.445 488.13 258.245C487.921 258.045 487.817 257.804 487.817 257.523C487.817 257.241 487.921 257.001 488.13 256.8C488.343 256.6 488.597 256.5 488.891 256.5C489.185 256.5 489.436 256.6 489.645 256.8C489.858 257.001 489.965 257.241 489.965 257.523C489.965 257.804 489.858 258.045 489.645 258.245C489.436 258.445 489.185 258.545 488.891 258.545ZM493.904 264.094V270H492.395V260.182H493.853V261.716H493.981C494.211 261.217 494.56 260.817 495.029 260.514C495.498 260.207 496.103 260.054 496.844 260.054C497.509 260.054 498.091 260.19 498.589 260.463C499.088 260.732 499.476 261.141 499.753 261.69C500.03 262.236 500.168 262.926 500.168 263.761V270H498.66V263.864C498.66 263.092 498.459 262.491 498.059 262.061C497.658 261.626 497.108 261.409 496.41 261.409C495.928 261.409 495.498 261.513 495.118 261.722C494.743 261.931 494.447 262.236 494.23 262.636C494.013 263.037 493.904 263.523 493.904 264.094ZM506.888 273.886C506.159 273.886 505.533 273.793 505.008 273.605C504.484 273.422 504.047 273.179 503.698 272.876C503.353 272.578 503.078 272.259 502.873 271.918L504.075 271.074C504.212 271.253 504.384 271.457 504.593 271.688C504.802 271.922 505.087 272.124 505.449 272.295C505.816 272.469 506.295 272.557 506.888 272.557C507.68 272.557 508.334 272.365 508.85 271.982C509.366 271.598 509.623 270.997 509.623 270.179V268.185H509.496C509.385 268.364 509.227 268.585 509.023 268.849C508.822 269.109 508.533 269.342 508.153 269.546C507.778 269.746 507.271 269.847 506.632 269.847C505.839 269.847 505.128 269.659 504.497 269.284C503.871 268.909 503.374 268.364 503.008 267.648C502.646 266.932 502.464 266.062 502.464 265.04C502.464 264.034 502.641 263.158 502.995 262.413C503.349 261.663 503.841 261.083 504.472 260.674C505.102 260.261 505.831 260.054 506.658 260.054C507.297 260.054 507.804 260.161 508.179 260.374C508.558 260.582 508.848 260.821 509.048 261.089C509.253 261.354 509.41 261.571 509.521 261.741H509.675V260.182H511.132V270.281C511.132 271.125 510.94 271.811 510.557 272.339C510.177 272.872 509.666 273.262 509.023 273.509C508.383 273.761 507.672 273.886 506.888 273.886ZM506.837 268.491C507.442 268.491 507.953 268.353 508.371 268.076C508.788 267.799 509.106 267.401 509.323 266.881C509.54 266.361 509.649 265.739 509.649 265.014C509.649 264.307 509.543 263.683 509.329 263.141C509.116 262.6 508.801 262.176 508.383 261.869C507.966 261.562 507.45 261.409 506.837 261.409C506.197 261.409 505.665 261.571 505.239 261.895C504.817 262.219 504.499 262.653 504.286 263.199C504.077 263.744 503.973 264.349 503.973 265.014C503.973 265.696 504.079 266.299 504.293 266.823C504.51 267.343 504.829 267.752 505.251 268.05C505.677 268.344 506.206 268.491 506.837 268.491Z" fill="#FF561D"/>
<circle opacity="0.3" cx="561" cy="452" r="75.5" stroke="#484848" stroke-dasharray="4 4"/>
<path d="M501.843 445.909H503.735L508.184 456.776H508.337L512.786 445.909H514.678V459H513.195V449.054H513.067L508.977 459H507.545L503.454 449.054H503.326V459H501.843V445.909ZM521.641 459.205C520.754 459.205 519.977 458.994 519.308 458.572C518.643 458.15 518.123 457.56 517.748 456.801C517.377 456.043 517.192 455.156 517.192 454.142C517.192 453.119 517.377 452.227 517.748 451.464C518.123 450.701 518.643 450.109 519.308 449.687C519.977 449.265 520.754 449.054 521.641 449.054C522.527 449.054 523.303 449.265 523.968 449.687C524.637 450.109 525.156 450.701 525.527 451.464C525.902 452.227 526.09 453.119 526.09 454.142C526.09 455.156 525.902 456.043 525.527 456.801C525.156 457.56 524.637 458.15 523.968 458.572C523.303 458.994 522.527 459.205 521.641 459.205ZM521.641 457.849C522.314 457.849 522.868 457.677 523.303 457.332C523.737 456.987 524.059 456.533 524.268 455.97C524.477 455.408 524.581 454.798 524.581 454.142C524.581 453.486 524.477 452.874 524.268 452.308C524.059 451.741 523.737 451.283 523.303 450.933C522.868 450.584 522.314 450.409 521.641 450.409C520.968 450.409 520.414 450.584 519.979 450.933C519.544 451.283 519.222 451.741 519.014 452.308C518.805 452.874 518.7 453.486 518.7 454.142C518.7 454.798 518.805 455.408 519.014 455.97C519.222 456.533 519.544 456.987 519.979 457.332C520.414 457.677 520.968 457.849 521.641 457.849ZM532.662 449.182V450.46H527.574V449.182H532.662ZM529.057 446.83H530.566V456.188C530.566 456.614 530.627 456.933 530.751 457.146C530.879 457.355 531.041 457.496 531.237 457.568C531.437 457.636 531.648 457.67 531.87 457.67C532.036 457.67 532.172 457.662 532.279 457.645C532.385 457.624 532.471 457.607 532.534 457.594L532.841 458.949C532.739 458.987 532.596 459.026 532.413 459.064C532.23 459.107 531.998 459.128 531.716 459.128C531.29 459.128 530.873 459.036 530.463 458.853C530.059 458.67 529.722 458.391 529.453 458.016C529.189 457.641 529.057 457.168 529.057 456.597V446.83ZM534.931 459V449.182H536.44V459H534.931ZM535.699 447.545C535.404 447.545 535.151 447.445 534.938 447.245C534.729 447.045 534.625 446.804 534.625 446.523C534.625 446.241 534.729 446.001 534.938 445.8C535.151 445.6 535.404 445.5 535.699 445.5C535.993 445.5 536.244 445.6 536.453 445.8C536.666 446.001 536.772 446.241 536.772 446.523C536.772 446.804 536.666 447.045 536.453 447.245C536.244 447.445 535.993 447.545 535.699 447.545ZM543.192 459.205C542.305 459.205 541.528 458.994 540.858 458.572C540.194 458.15 539.674 457.56 539.299 456.801C538.928 456.043 538.743 455.156 538.743 454.142C538.743 453.119 538.928 452.227 539.299 451.464C539.674 450.701 540.194 450.109 540.858 449.687C541.528 449.265 542.305 449.054 543.192 449.054C544.078 449.054 544.854 449.265 545.518 449.687C546.187 450.109 546.707 450.701 547.078 451.464C547.453 452.227 547.64 453.119 547.64 454.142C547.64 455.156 547.453 456.043 547.078 456.801C546.707 457.56 546.187 458.15 545.518 458.572C544.854 458.994 544.078 459.205 543.192 459.205ZM543.192 457.849C543.865 457.849 544.419 457.677 544.854 457.332C545.288 456.987 545.61 456.533 545.819 455.97C546.028 455.408 546.132 454.798 546.132 454.142C546.132 453.486 546.028 452.874 545.819 452.308C545.61 451.741 545.288 451.283 544.854 450.933C544.419 450.584 543.865 450.409 543.192 450.409C542.518 450.409 541.964 450.584 541.53 450.933C541.095 451.283 540.773 451.741 540.564 452.308C540.356 452.874 540.251 453.486 540.251 454.142C540.251 454.798 540.356 455.408 540.564 455.97C540.773 456.533 541.095 456.987 541.53 457.332C541.964 457.677 542.518 457.849 543.192 457.849ZM551.452 453.094V459H549.943V449.182H551.401V450.716H551.528C551.759 450.217 552.108 449.817 552.577 449.514C553.045 449.207 553.651 449.054 554.392 449.054C555.057 449.054 555.638 449.19 556.137 449.463C556.636 449.732 557.023 450.141 557.3 450.69C557.577 451.236 557.716 451.926 557.716 452.761V459H556.207V452.864C556.207 452.092 556.007 451.491 555.607 451.061C555.206 450.626 554.656 450.409 553.957 450.409C553.476 450.409 553.045 450.513 552.666 450.722C552.291 450.931 551.995 451.236 551.778 451.636C551.56 452.037 551.452 452.523 551.452 453.094ZM569.779 459H565.74V445.909H569.958C571.228 445.909 572.315 446.171 573.218 446.695C574.122 447.215 574.814 447.963 575.296 448.939C575.777 449.911 576.018 451.074 576.018 452.429C576.018 453.793 575.775 454.967 575.289 455.951C574.803 456.931 574.096 457.685 573.167 458.214C572.238 458.738 571.109 459 569.779 459ZM567.325 457.594H569.677C570.759 457.594 571.656 457.385 572.368 456.967C573.08 456.55 573.61 455.955 573.96 455.184C574.309 454.413 574.484 453.494 574.484 452.429C574.484 451.372 574.311 450.462 573.966 449.7C573.621 448.933 573.105 448.344 572.419 447.935C571.733 447.522 570.879 447.315 569.856 447.315H567.325V457.594ZM582.589 459.205C581.643 459.205 580.827 458.996 580.141 458.578C579.459 458.156 578.933 457.568 578.562 456.814C578.195 456.055 578.012 455.173 578.012 454.168C578.012 453.162 578.195 452.276 578.562 451.509C578.933 450.737 579.448 450.136 580.109 449.706C580.774 449.271 581.549 449.054 582.436 449.054C582.947 449.054 583.452 449.139 583.95 449.31C584.449 449.48 584.903 449.757 585.312 450.141C585.721 450.52 586.047 451.023 586.29 451.649C586.533 452.276 586.654 453.047 586.654 453.963V454.602H579.086V453.298H585.12C585.12 452.744 585.009 452.25 584.788 451.815C584.57 451.381 584.259 451.038 583.855 450.786C583.454 450.535 582.981 450.409 582.436 450.409C581.835 450.409 581.315 450.558 580.876 450.857C580.441 451.151 580.107 451.534 579.872 452.007C579.638 452.48 579.521 452.987 579.521 453.528V454.398C579.521 455.139 579.649 455.768 579.904 456.283C580.164 456.795 580.524 457.185 580.985 457.453C581.445 457.717 581.98 457.849 582.589 457.849C582.985 457.849 583.343 457.794 583.663 457.683C583.987 457.568 584.266 457.398 584.5 457.172C584.735 456.942 584.916 456.656 585.044 456.315L586.501 456.724C586.347 457.219 586.09 457.653 585.727 458.028C585.365 458.399 584.918 458.689 584.385 458.898C583.852 459.102 583.254 459.205 582.589 459.205ZM595.904 451.381L594.548 451.764C594.463 451.538 594.338 451.319 594.171 451.106C594.009 450.888 593.788 450.71 593.507 450.569C593.225 450.428 592.865 450.358 592.426 450.358C591.825 450.358 591.325 450.496 590.924 450.773C590.528 451.046 590.33 451.393 590.33 451.815C590.33 452.19 590.466 452.487 590.739 452.704C591.012 452.921 591.438 453.102 592.017 453.247L593.475 453.605C594.352 453.818 595.007 454.144 595.437 454.583C595.867 455.018 596.083 455.578 596.083 456.264C596.083 456.827 595.921 457.33 595.597 457.773C595.277 458.216 594.83 458.565 594.254 458.821C593.679 459.077 593.01 459.205 592.247 459.205C591.246 459.205 590.417 458.987 589.761 458.553C589.105 458.118 588.689 457.483 588.514 456.648L589.946 456.29C590.083 456.818 590.34 457.214 590.72 457.479C591.103 457.743 591.604 457.875 592.222 457.875C592.925 457.875 593.483 457.726 593.896 457.428C594.314 457.125 594.523 456.763 594.523 456.341C594.523 456 594.404 455.714 594.165 455.484C593.926 455.25 593.56 455.075 593.066 454.96L591.429 454.577C590.53 454.364 589.869 454.033 589.448 453.586C589.03 453.134 588.821 452.57 588.821 451.892C588.821 451.338 588.977 450.848 589.288 450.422C589.603 449.996 590.031 449.661 590.573 449.418C591.118 449.175 591.736 449.054 592.426 449.054C593.398 449.054 594.161 449.267 594.715 449.693C595.273 450.119 595.669 450.682 595.904 451.381ZM598.353 459V449.182H599.862V459H598.353ZM599.12 447.545C598.826 447.545 598.573 447.445 598.36 447.245C598.151 447.045 598.047 446.804 598.047 446.523C598.047 446.241 598.151 446.001 598.36 445.8C598.573 445.6 598.826 445.5 599.12 445.5C599.414 445.5 599.666 445.6 599.875 445.8C600.088 446.001 600.194 446.241 600.194 446.523C600.194 446.804 600.088 447.045 599.875 447.245C599.666 447.445 599.414 447.545 599.12 447.545ZM606.588 462.886C605.859 462.886 605.233 462.793 604.709 462.605C604.184 462.422 603.748 462.179 603.398 461.876C603.053 461.578 602.778 461.259 602.574 460.918L603.775 460.074C603.912 460.253 604.084 460.457 604.293 460.688C604.502 460.922 604.787 461.124 605.15 461.295C605.516 461.469 605.996 461.557 606.588 461.557C607.381 461.557 608.035 461.365 608.55 460.982C609.066 460.598 609.324 459.997 609.324 459.179V457.185H609.196C609.085 457.364 608.927 457.585 608.723 457.849C608.523 458.109 608.233 458.342 607.854 458.546C607.479 458.746 606.971 458.847 606.332 458.847C605.54 458.847 604.828 458.659 604.197 458.284C603.571 457.909 603.074 457.364 602.708 456.648C602.346 455.932 602.165 455.062 602.165 454.04C602.165 453.034 602.341 452.158 602.695 451.413C603.049 450.663 603.541 450.083 604.172 449.674C604.802 449.261 605.531 449.054 606.358 449.054C606.997 449.054 607.504 449.161 607.879 449.374C608.258 449.582 608.548 449.821 608.748 450.089C608.953 450.354 609.111 450.571 609.221 450.741H609.375V449.182H610.832V459.281C610.832 460.125 610.64 460.811 610.257 461.339C609.878 461.872 609.366 462.262 608.723 462.509C608.084 462.761 607.372 462.886 606.588 462.886ZM606.537 457.491C607.142 457.491 607.653 457.353 608.071 457.076C608.488 456.799 608.806 456.401 609.023 455.881C609.241 455.361 609.349 454.739 609.349 454.014C609.349 453.307 609.243 452.683 609.03 452.141C608.817 451.6 608.501 451.176 608.084 450.869C607.666 450.562 607.15 450.409 606.537 450.409C605.898 450.409 605.365 450.571 604.939 450.895C604.517 451.219 604.199 451.653 603.986 452.199C603.778 452.744 603.673 453.349 603.673 454.014C603.673 454.696 603.78 455.299 603.993 455.823C604.21 456.343 604.53 456.752 604.952 457.05C605.378 457.344 605.906 457.491 606.537 457.491ZM615.102 453.094V459H613.594V449.182H615.051V450.716H615.179C615.409 450.217 615.758 449.817 616.227 449.514C616.696 449.207 617.301 449.054 618.042 449.054C618.707 449.054 619.289 449.19 619.787 449.463C620.286 449.732 620.674 450.141 620.951 450.69C621.228 451.236 621.366 451.926 621.366 452.761V459H619.858V452.864C619.858 452.092 619.657 451.491 619.257 451.061C618.856 450.626 618.307 450.409 617.608 450.409C617.126 450.409 616.696 450.513 616.317 450.722C615.942 450.931 615.645 451.236 615.428 451.636C615.211 452.037 615.102 452.523 615.102 453.094Z" fill="#FF561D"/>
</svg>
